%TF.GenerationSoftware,KiCad,Pcbnew,(5.1.10)-1*%
%TF.CreationDate,2021-08-16T02:03:12+08:00*%
%TF.ProjectId,Pmod-8switch,506d6f64-2d38-4737-9769-7463682e6b69,rev?*%
%TF.SameCoordinates,Original*%
%TF.FileFunction,Legend,Bot*%
%TF.FilePolarity,Positive*%
%FSLAX46Y46*%
G04 Gerber Fmt 4.6, Leading zero omitted, Abs format (unit mm)*
G04 Created by KiCad (PCBNEW (5.1.10)-1) date 2021-08-16 02:03:12*
%MOMM*%
%LPD*%
G01*
G04 APERTURE LIST*
%ADD10C,0.150000*%
G04 APERTURE END LIST*
D10*
X175764247Y-130541780D02*
X175764247Y-131256066D01*
X175811866Y-131398923D01*
X175907104Y-131494161D01*
X176049961Y-131541780D01*
X176145200Y-131541780D01*
X174811866Y-131541780D02*
X175288057Y-131541780D01*
X175288057Y-130541780D01*
X173907104Y-131446542D02*
X173954723Y-131494161D01*
X174097580Y-131541780D01*
X174192819Y-131541780D01*
X174335676Y-131494161D01*
X174430914Y-131398923D01*
X174478533Y-131303685D01*
X174526152Y-131113209D01*
X174526152Y-130970352D01*
X174478533Y-130779876D01*
X174430914Y-130684638D01*
X174335676Y-130589400D01*
X174192819Y-130541780D01*
X174097580Y-130541780D01*
X173954723Y-130589400D01*
X173907104Y-130637019D01*
X173192819Y-130541780D02*
X173192819Y-131256066D01*
X173240438Y-131398923D01*
X173335676Y-131494161D01*
X173478533Y-131541780D01*
X173573771Y-131541780D01*
X172240438Y-131541780D02*
X172716628Y-131541780D01*
X172716628Y-130541780D01*
X171335676Y-131446542D02*
X171383295Y-131494161D01*
X171526152Y-131541780D01*
X171621390Y-131541780D01*
X171764247Y-131494161D01*
X171859485Y-131398923D01*
X171907104Y-131303685D01*
X171954723Y-131113209D01*
X171954723Y-130970352D01*
X171907104Y-130779876D01*
X171859485Y-130684638D01*
X171764247Y-130589400D01*
X171621390Y-130541780D01*
X171526152Y-130541780D01*
X171383295Y-130589400D01*
X171335676Y-130637019D01*
X170621390Y-130541780D02*
X170621390Y-131256066D01*
X170669009Y-131398923D01*
X170764247Y-131494161D01*
X170907104Y-131541780D01*
X171002342Y-131541780D01*
X169669009Y-131541780D02*
X170145200Y-131541780D01*
X170145200Y-130541780D01*
X168764247Y-131446542D02*
X168811866Y-131494161D01*
X168954723Y-131541780D01*
X169049961Y-131541780D01*
X169192819Y-131494161D01*
X169288057Y-131398923D01*
X169335676Y-131303685D01*
X169383295Y-131113209D01*
X169383295Y-130970352D01*
X169335676Y-130779876D01*
X169288057Y-130684638D01*
X169192819Y-130589400D01*
X169049961Y-130541780D01*
X168954723Y-130541780D01*
X168811866Y-130589400D01*
X168764247Y-130637019D01*
X168049961Y-130541780D02*
X168049961Y-131256066D01*
X168097580Y-131398923D01*
X168192819Y-131494161D01*
X168335676Y-131541780D01*
X168430914Y-131541780D01*
X167097580Y-131541780D02*
X167573771Y-131541780D01*
X167573771Y-130541780D01*
X166192819Y-131446542D02*
X166240438Y-131494161D01*
X166383295Y-131541780D01*
X166478533Y-131541780D01*
X166621390Y-131494161D01*
X166716628Y-131398923D01*
X166764247Y-131303685D01*
X166811866Y-131113209D01*
X166811866Y-130970352D01*
X166764247Y-130779876D01*
X166716628Y-130684638D01*
X166621390Y-130589400D01*
X166478533Y-130541780D01*
X166383295Y-130541780D01*
X166240438Y-130589400D01*
X166192819Y-130637019D01*
X172745209Y-122604780D02*
X172411876Y-123604780D01*
X172078542Y-122604780D01*
X171554733Y-122604780D02*
X171459495Y-122604780D01*
X171364257Y-122652400D01*
X171316638Y-122700019D01*
X171269019Y-122795257D01*
X171221400Y-122985733D01*
X171221400Y-123223828D01*
X171269019Y-123414304D01*
X171316638Y-123509542D01*
X171364257Y-123557161D01*
X171459495Y-123604780D01*
X171554733Y-123604780D01*
X171649971Y-123557161D01*
X171697590Y-123509542D01*
X171745209Y-123414304D01*
X171792828Y-123223828D01*
X171792828Y-122985733D01*
X171745209Y-122795257D01*
X171697590Y-122700019D01*
X171649971Y-122652400D01*
X171554733Y-122604780D01*
X170792828Y-123509542D02*
X170745209Y-123557161D01*
X170792828Y-123604780D01*
X170840447Y-123557161D01*
X170792828Y-123509542D01*
X170792828Y-123604780D01*
X169792828Y-123604780D02*
X170364257Y-123604780D01*
X170078542Y-123604780D02*
X170078542Y-122604780D01*
X170173780Y-122747638D01*
X170269019Y-122842876D01*
X170364257Y-122890495D01*
X175602352Y-124350019D02*
X175554733Y-124302400D01*
X175459495Y-124254780D01*
X175221400Y-124254780D01*
X175126161Y-124302400D01*
X175078542Y-124350019D01*
X175030923Y-124445257D01*
X175030923Y-124540495D01*
X175078542Y-124683352D01*
X175649971Y-125254780D01*
X175030923Y-125254780D01*
X174411876Y-124254780D02*
X174316638Y-124254780D01*
X174221400Y-124302400D01*
X174173780Y-124350019D01*
X174126161Y-124445257D01*
X174078542Y-124635733D01*
X174078542Y-124873828D01*
X174126161Y-125064304D01*
X174173780Y-125159542D01*
X174221400Y-125207161D01*
X174316638Y-125254780D01*
X174411876Y-125254780D01*
X174507114Y-125207161D01*
X174554733Y-125159542D01*
X174602352Y-125064304D01*
X174649971Y-124873828D01*
X174649971Y-124635733D01*
X174602352Y-124445257D01*
X174554733Y-124350019D01*
X174507114Y-124302400D01*
X174411876Y-124254780D01*
X173697590Y-124350019D02*
X173649971Y-124302400D01*
X173554733Y-124254780D01*
X173316638Y-124254780D01*
X173221400Y-124302400D01*
X173173780Y-124350019D01*
X173126161Y-124445257D01*
X173126161Y-124540495D01*
X173173780Y-124683352D01*
X173745209Y-125254780D01*
X173126161Y-125254780D01*
X172173780Y-125254780D02*
X172745209Y-125254780D01*
X172459495Y-125254780D02*
X172459495Y-124254780D01*
X172554733Y-124397638D01*
X172649971Y-124492876D01*
X172745209Y-124540495D01*
X171745209Y-124873828D02*
X170983304Y-124873828D01*
X170364257Y-124683352D02*
X170459495Y-124635733D01*
X170507114Y-124588114D01*
X170554733Y-124492876D01*
X170554733Y-124445257D01*
X170507114Y-124350019D01*
X170459495Y-124302400D01*
X170364257Y-124254780D01*
X170173780Y-124254780D01*
X170078542Y-124302400D01*
X170030923Y-124350019D01*
X169983304Y-124445257D01*
X169983304Y-124492876D01*
X170030923Y-124588114D01*
X170078542Y-124635733D01*
X170173780Y-124683352D01*
X170364257Y-124683352D01*
X170459495Y-124730971D01*
X170507114Y-124778590D01*
X170554733Y-124873828D01*
X170554733Y-125064304D01*
X170507114Y-125159542D01*
X170459495Y-125207161D01*
X170364257Y-125254780D01*
X170173780Y-125254780D01*
X170078542Y-125207161D01*
X170030923Y-125159542D01*
X169983304Y-125064304D01*
X169983304Y-124873828D01*
X170030923Y-124778590D01*
X170078542Y-124730971D01*
X170173780Y-124683352D01*
X169554733Y-124873828D02*
X168792828Y-124873828D01*
X167792828Y-125254780D02*
X168364257Y-125254780D01*
X168078542Y-125254780D02*
X168078542Y-124254780D01*
X168173780Y-124397638D01*
X168269019Y-124492876D01*
X168364257Y-124540495D01*
X166935685Y-124254780D02*
X167126161Y-124254780D01*
X167221400Y-124302400D01*
X167269019Y-124350019D01*
X167364257Y-124492876D01*
X167411876Y-124683352D01*
X167411876Y-125064304D01*
X167364257Y-125159542D01*
X167316638Y-125207161D01*
X167221400Y-125254780D01*
X167030923Y-125254780D01*
X166935685Y-125207161D01*
X166888066Y-125159542D01*
X166840447Y-125064304D01*
X166840447Y-124826209D01*
X166888066Y-124730971D01*
X166935685Y-124683352D01*
X167030923Y-124635733D01*
X167221400Y-124635733D01*
X167316638Y-124683352D01*
X167364257Y-124730971D01*
X167411876Y-124826209D01*
X159102295Y-130275080D02*
X158483247Y-130275080D01*
X158816580Y-130656033D01*
X158673723Y-130656033D01*
X158578485Y-130703652D01*
X158530866Y-130751271D01*
X158483247Y-130846509D01*
X158483247Y-131084604D01*
X158530866Y-131179842D01*
X158578485Y-131227461D01*
X158673723Y-131275080D01*
X158959438Y-131275080D01*
X159054676Y-131227461D01*
X159102295Y-131179842D01*
X158197533Y-130275080D02*
X157864200Y-131275080D01*
X157530866Y-130275080D01*
X157292771Y-130275080D02*
X156673723Y-130275080D01*
X157007057Y-130656033D01*
X156864200Y-130656033D01*
X156768961Y-130703652D01*
X156721342Y-130751271D01*
X156673723Y-130846509D01*
X156673723Y-131084604D01*
X156721342Y-131179842D01*
X156768961Y-131227461D01*
X156864200Y-131275080D01*
X157149914Y-131275080D01*
X157245152Y-131227461D01*
X157292771Y-131179842D01*
X158626104Y-127782700D02*
X158721342Y-127735080D01*
X158864200Y-127735080D01*
X159007057Y-127782700D01*
X159102295Y-127877938D01*
X159149914Y-127973176D01*
X159197533Y-128163652D01*
X159197533Y-128306509D01*
X159149914Y-128496985D01*
X159102295Y-128592223D01*
X159007057Y-128687461D01*
X158864200Y-128735080D01*
X158768961Y-128735080D01*
X158626104Y-128687461D01*
X158578485Y-128639842D01*
X158578485Y-128306509D01*
X158768961Y-128306509D01*
X158149914Y-128735080D02*
X158149914Y-127735080D01*
X157578485Y-128735080D01*
X157578485Y-127735080D01*
X157102295Y-128735080D02*
X157102295Y-127735080D01*
X156864200Y-127735080D01*
X156721342Y-127782700D01*
X156626104Y-127877938D01*
X156578485Y-127973176D01*
X156530866Y-128163652D01*
X156530866Y-128306509D01*
X156578485Y-128496985D01*
X156626104Y-128592223D01*
X156721342Y-128687461D01*
X156864200Y-128735080D01*
X157102295Y-128735080D01*
X158602295Y-126195080D02*
X158602295Y-125195080D01*
X158364200Y-125195080D01*
X158221342Y-125242700D01*
X158126104Y-125337938D01*
X158078485Y-125433176D01*
X158030866Y-125623652D01*
X158030866Y-125766509D01*
X158078485Y-125956985D01*
X158126104Y-126052223D01*
X158221342Y-126147461D01*
X158364200Y-126195080D01*
X158602295Y-126195080D01*
X157697533Y-125195080D02*
X157030866Y-125195080D01*
X157459438Y-126195080D01*
X158602295Y-123655080D02*
X158602295Y-122655080D01*
X158364200Y-122655080D01*
X158221342Y-122702700D01*
X158126104Y-122797938D01*
X158078485Y-122893176D01*
X158030866Y-123083652D01*
X158030866Y-123226509D01*
X158078485Y-123416985D01*
X158126104Y-123512223D01*
X158221342Y-123607461D01*
X158364200Y-123655080D01*
X158602295Y-123655080D01*
X157173723Y-122655080D02*
X157364200Y-122655080D01*
X157459438Y-122702700D01*
X157507057Y-122750319D01*
X157602295Y-122893176D01*
X157649914Y-123083652D01*
X157649914Y-123464604D01*
X157602295Y-123559842D01*
X157554676Y-123607461D01*
X157459438Y-123655080D01*
X157268961Y-123655080D01*
X157173723Y-123607461D01*
X157126104Y-123559842D01*
X157078485Y-123464604D01*
X157078485Y-123226509D01*
X157126104Y-123131271D01*
X157173723Y-123083652D01*
X157268961Y-123036033D01*
X157459438Y-123036033D01*
X157554676Y-123083652D01*
X157602295Y-123131271D01*
X157649914Y-123226509D01*
X158602295Y-121115080D02*
X158602295Y-120115080D01*
X158364200Y-120115080D01*
X158221342Y-120162700D01*
X158126104Y-120257938D01*
X158078485Y-120353176D01*
X158030866Y-120543652D01*
X158030866Y-120686509D01*
X158078485Y-120876985D01*
X158126104Y-120972223D01*
X158221342Y-121067461D01*
X158364200Y-121115080D01*
X158602295Y-121115080D01*
X157126104Y-120115080D02*
X157602295Y-120115080D01*
X157649914Y-120591271D01*
X157602295Y-120543652D01*
X157507057Y-120496033D01*
X157268961Y-120496033D01*
X157173723Y-120543652D01*
X157126104Y-120591271D01*
X157078485Y-120686509D01*
X157078485Y-120924604D01*
X157126104Y-121019842D01*
X157173723Y-121067461D01*
X157268961Y-121115080D01*
X157507057Y-121115080D01*
X157602295Y-121067461D01*
X157649914Y-121019842D01*
X158602295Y-118575080D02*
X158602295Y-117575080D01*
X158364200Y-117575080D01*
X158221342Y-117622700D01*
X158126104Y-117717938D01*
X158078485Y-117813176D01*
X158030866Y-118003652D01*
X158030866Y-118146509D01*
X158078485Y-118336985D01*
X158126104Y-118432223D01*
X158221342Y-118527461D01*
X158364200Y-118575080D01*
X158602295Y-118575080D01*
X157173723Y-117908414D02*
X157173723Y-118575080D01*
X157411819Y-117527461D02*
X157649914Y-118241747D01*
X157030866Y-118241747D01*
M02*
