%TF.GenerationSoftware,KiCad,Pcbnew,(5.1.10)-1*%
%TF.CreationDate,2021-08-16T02:03:12+08:00*%
%TF.ProjectId,Pmod-8switch,506d6f64-2d38-4737-9769-7463682e6b69,rev?*%
%TF.SameCoordinates,Original*%
%TF.FileFunction,Copper,L1,Top*%
%TF.FilePolarity,Positive*%
%FSLAX46Y46*%
G04 Gerber Fmt 4.6, Leading zero omitted, Abs format (unit mm)*
G04 Created by KiCad (PCBNEW (5.1.10)-1) date 2021-08-16 02:03:12*
%MOMM*%
%LPD*%
G01*
G04 APERTURE LIST*
%TA.AperFunction,NonConductor*%
%ADD10C,0.100000*%
%TD*%
%TA.AperFunction,SMDPad,CuDef*%
%ADD11R,2.800000X1.200000*%
%TD*%
%TA.AperFunction,SMDPad,CuDef*%
%ADD12R,1.120000X2.440000*%
%TD*%
%TA.AperFunction,SMDPad,CuDef*%
%ADD13R,0.800000X0.500000*%
%TD*%
%TA.AperFunction,SMDPad,CuDef*%
%ADD14R,0.800000X0.400000*%
%TD*%
%TA.AperFunction,ViaPad*%
%ADD15C,0.600000*%
%TD*%
%TA.AperFunction,ViaPad*%
%ADD16C,0.800000*%
%TD*%
%TA.AperFunction,Conductor*%
%ADD17C,0.250000*%
%TD*%
%TA.AperFunction,Conductor*%
%ADD18C,0.500000*%
%TD*%
%TA.AperFunction,Conductor*%
%ADD19C,0.254000*%
%TD*%
%TA.AperFunction,Conductor*%
%ADD20C,0.100000*%
%TD*%
G04 APERTURE END LIST*
D10*
X160157147Y-131442590D02*
X160198814Y-131109257D01*
X160192861Y-131156876D02*
X160219647Y-131133066D01*
X160270242Y-131109257D01*
X160341671Y-131109257D01*
X160386314Y-131133066D01*
X160404171Y-131180685D01*
X160371433Y-131442590D01*
X160404171Y-131180685D02*
X160433933Y-131133066D01*
X160484528Y-131109257D01*
X160555957Y-131109257D01*
X160600600Y-131133066D01*
X160618457Y-131180685D01*
X160585719Y-131442590D01*
X161038100Y-131442590D02*
X161070838Y-131180685D01*
X161052980Y-131133066D01*
X161008338Y-131109257D01*
X160913100Y-131109257D01*
X160862504Y-131133066D01*
X161041076Y-131418780D02*
X160990480Y-131442590D01*
X160871433Y-131442590D01*
X160826790Y-131418780D01*
X160808933Y-131371161D01*
X160814885Y-131323542D01*
X160844647Y-131275923D01*
X160895242Y-131252114D01*
X161014290Y-131252114D01*
X161064885Y-131228304D01*
X161532147Y-131109257D02*
X161481552Y-131514019D01*
X161451790Y-131561638D01*
X161425004Y-131585447D01*
X161374409Y-131609257D01*
X161302980Y-131609257D01*
X161258338Y-131585447D01*
X161493457Y-131418780D02*
X161442861Y-131442590D01*
X161347623Y-131442590D01*
X161302980Y-131418780D01*
X161282147Y-131394971D01*
X161264290Y-131347352D01*
X161282147Y-131204495D01*
X161311909Y-131156876D01*
X161338695Y-131133066D01*
X161389290Y-131109257D01*
X161484528Y-131109257D01*
X161529171Y-131133066D01*
X161984528Y-131109257D02*
X161942861Y-131442590D01*
X161770242Y-131109257D02*
X161737504Y-131371161D01*
X161755361Y-131418780D01*
X161800004Y-131442590D01*
X161871433Y-131442590D01*
X161922028Y-131418780D01*
X161948814Y-131394971D01*
X162395242Y-131442590D02*
X162427980Y-131180685D01*
X162410123Y-131133066D01*
X162365480Y-131109257D01*
X162270242Y-131109257D01*
X162219647Y-131133066D01*
X162398219Y-131418780D02*
X162347623Y-131442590D01*
X162228576Y-131442590D01*
X162183933Y-131418780D01*
X162166076Y-131371161D01*
X162172028Y-131323542D01*
X162201790Y-131275923D01*
X162252385Y-131252114D01*
X162371433Y-131252114D01*
X162422028Y-131228304D01*
X162740480Y-131156876D02*
X162695838Y-131133066D01*
X162675004Y-131109257D01*
X162657147Y-131061638D01*
X162660123Y-131037828D01*
X162689885Y-130990209D01*
X162716671Y-130966400D01*
X162767266Y-130942590D01*
X162862504Y-130942590D01*
X162907147Y-130966400D01*
X162927980Y-130990209D01*
X162945838Y-131037828D01*
X162942861Y-131061638D01*
X162913100Y-131109257D01*
X162886314Y-131133066D01*
X162835719Y-131156876D01*
X162740480Y-131156876D01*
X162689885Y-131180685D01*
X162663100Y-131204495D01*
X162633338Y-131252114D01*
X162621433Y-131347352D01*
X162639290Y-131394971D01*
X162660123Y-131418780D01*
X162704766Y-131442590D01*
X162800004Y-131442590D01*
X162850600Y-131418780D01*
X162877385Y-131394971D01*
X162907147Y-131347352D01*
X162919052Y-131252114D01*
X162901195Y-131204495D01*
X162880361Y-131180685D01*
X162835719Y-131156876D01*
X163267266Y-130942590D02*
X163314885Y-130942590D01*
X163359528Y-130966400D01*
X163380361Y-130990209D01*
X163398219Y-131037828D01*
X163410123Y-131133066D01*
X163395242Y-131252114D01*
X163359528Y-131347352D01*
X163329766Y-131394971D01*
X163302980Y-131418780D01*
X163252385Y-131442590D01*
X163204766Y-131442590D01*
X163160123Y-131418780D01*
X163139290Y-131394971D01*
X163121433Y-131347352D01*
X163109528Y-131252114D01*
X163124409Y-131133066D01*
X163160123Y-131037828D01*
X163189885Y-130990209D01*
X163216671Y-130966400D01*
X163267266Y-130942590D01*
X163692861Y-131156876D02*
X163648219Y-131133066D01*
X163627385Y-131109257D01*
X163609528Y-131061638D01*
X163612504Y-131037828D01*
X163642266Y-130990209D01*
X163669052Y-130966400D01*
X163719647Y-130942590D01*
X163814885Y-130942590D01*
X163859528Y-130966400D01*
X163880361Y-130990209D01*
X163898219Y-131037828D01*
X163895242Y-131061638D01*
X163865480Y-131109257D01*
X163838695Y-131133066D01*
X163788100Y-131156876D01*
X163692861Y-131156876D01*
X163642266Y-131180685D01*
X163615480Y-131204495D01*
X163585719Y-131252114D01*
X163573814Y-131347352D01*
X163591671Y-131394971D01*
X163612504Y-131418780D01*
X163657147Y-131442590D01*
X163752385Y-131442590D01*
X163802980Y-131418780D01*
X163829766Y-131394971D01*
X163859528Y-131347352D01*
X163871433Y-131252114D01*
X163853576Y-131204495D01*
X163832742Y-131180685D01*
X163788100Y-131156876D01*
X164338695Y-130942590D02*
X164243457Y-130942590D01*
X164192861Y-130966400D01*
X164166076Y-130990209D01*
X164109528Y-131061638D01*
X164073814Y-131156876D01*
X164050004Y-131347352D01*
X164067861Y-131394971D01*
X164088695Y-131418780D01*
X164133338Y-131442590D01*
X164228576Y-131442590D01*
X164279171Y-131418780D01*
X164305957Y-131394971D01*
X164335719Y-131347352D01*
X164350600Y-131228304D01*
X164332742Y-131180685D01*
X164311909Y-131156876D01*
X164267266Y-131133066D01*
X164172028Y-131133066D01*
X164121433Y-131156876D01*
X164094647Y-131180685D01*
X164064885Y-131228304D01*
D11*
%TO.P,PMOD1,1*%
%TO.N,IO0*%
X154533600Y-118071900D03*
%TO.P,PMOD1,2*%
%TO.N,IO1*%
X154533600Y-120611900D03*
%TO.P,PMOD1,3*%
%TO.N,IO2*%
X154533600Y-123151900D03*
%TO.P,PMOD1,4*%
%TO.N,IO3*%
X154533600Y-125691900D03*
%TO.P,PMOD1,5*%
%TO.N,GND*%
X154533600Y-128231900D03*
%TO.P,PMOD1,6*%
%TO.N,+3V3*%
X154533600Y-130771900D03*
%TD*%
D12*
%TO.P,SW1,16*%
%TO.N,+3V3*%
X165963600Y-120243900D03*
%TO.P,SW1,8*%
%TO.N,IO0*%
X183743600Y-128853900D03*
%TO.P,SW1,15*%
%TO.N,+3V3*%
X168503600Y-120243900D03*
%TO.P,SW1,7*%
%TO.N,IO1*%
X181203600Y-128853900D03*
%TO.P,SW1,14*%
%TO.N,+3V3*%
X171043600Y-120243900D03*
%TO.P,SW1,6*%
%TO.N,IO2*%
X178663600Y-128853900D03*
%TO.P,SW1,13*%
%TO.N,+3V3*%
X173583600Y-120243900D03*
%TO.P,SW1,5*%
%TO.N,IO3*%
X176123600Y-128853900D03*
%TO.P,SW1,12*%
%TO.N,+3V3*%
X176123600Y-120243900D03*
%TO.P,SW1,4*%
%TO.N,IO4*%
X173583600Y-128853900D03*
%TO.P,SW1,11*%
%TO.N,+3V3*%
X178663600Y-120243900D03*
%TO.P,SW1,3*%
%TO.N,IO5*%
X171043600Y-128853900D03*
%TO.P,SW1,10*%
%TO.N,+3V3*%
X181203600Y-120243900D03*
%TO.P,SW1,2*%
%TO.N,IO6*%
X168503600Y-128853900D03*
%TO.P,SW1,9*%
%TO.N,+3V3*%
X183743600Y-120243900D03*
%TO.P,SW1,1*%
%TO.N,IO7*%
X165963600Y-128853900D03*
%TD*%
D13*
%TO.P,RN2,5*%
%TO.N,GND*%
X161050400Y-125792000D03*
D14*
%TO.P,RN2,6*%
X161050400Y-126592000D03*
D13*
%TO.P,RN2,8*%
X161050400Y-128192000D03*
D14*
%TO.P,RN2,7*%
X161050400Y-127392000D03*
D13*
%TO.P,RN2,4*%
%TO.N,IO4*%
X162850400Y-125792000D03*
D14*
%TO.P,RN2,2*%
%TO.N,IO6*%
X162850400Y-127392000D03*
%TO.P,RN2,3*%
%TO.N,IO5*%
X162850400Y-126592000D03*
D13*
%TO.P,RN2,1*%
%TO.N,IO7*%
X162850400Y-128192000D03*
%TD*%
%TO.P,RN1,5*%
%TO.N,GND*%
X161050400Y-120905800D03*
D14*
%TO.P,RN1,6*%
X161050400Y-121705800D03*
D13*
%TO.P,RN1,8*%
X161050400Y-123305800D03*
D14*
%TO.P,RN1,7*%
X161050400Y-122505800D03*
D13*
%TO.P,RN1,4*%
%TO.N,IO0*%
X162850400Y-120905800D03*
D14*
%TO.P,RN1,2*%
%TO.N,IO2*%
X162850400Y-122505800D03*
%TO.P,RN1,3*%
%TO.N,IO1*%
X162850400Y-121705800D03*
D13*
%TO.P,RN1,1*%
%TO.N,IO3*%
X162850400Y-123305800D03*
%TD*%
D15*
%TO.N,IO4*%
X162052000Y-125780800D03*
%TO.N,IO5*%
X162052000Y-126593600D03*
%TO.N,IO6*%
X162052000Y-127393603D03*
%TO.N,IO7*%
X162052000Y-128193800D03*
%TO.N,GND*%
X156768800Y-126949200D03*
X156768800Y-121869200D03*
X156768800Y-129489200D03*
X160121600Y-125841999D03*
X160157142Y-123281458D03*
D16*
%TO.N,+3V3*%
X156298904Y-130771900D03*
X164617400Y-120243600D03*
%TD*%
D17*
%TO.N,IO0*%
X164238200Y-120905800D02*
X165788167Y-122455767D01*
X180723367Y-122455767D02*
X183743600Y-125476000D01*
X162850400Y-120905800D02*
X164238200Y-120905800D01*
X165788167Y-122455767D02*
X180723367Y-122455767D01*
X183743600Y-125476000D02*
X183743600Y-128853900D01*
X160516500Y-118071900D02*
X154533600Y-118071900D01*
X162850400Y-120405800D02*
X160516500Y-118071900D01*
X162850400Y-120905800D02*
X162850400Y-120405800D01*
%TO.N,IO4*%
X170681800Y-125292000D02*
X173583600Y-128193800D01*
X164979200Y-125292000D02*
X170681800Y-125292000D01*
X164479200Y-125792000D02*
X164979200Y-125292000D01*
X173583600Y-128193800D02*
X173583600Y-128853900D01*
X162850400Y-125792000D02*
X164479200Y-125792000D01*
X162850400Y-125792000D02*
X162063200Y-125792000D01*
X162063200Y-125792000D02*
X162052000Y-125780800D01*
%TO.N,IO5*%
X171043600Y-128219200D02*
X171043600Y-128853900D01*
X168916400Y-126092000D02*
X171043600Y-128219200D01*
X165093600Y-126092000D02*
X168916400Y-126092000D01*
X164592000Y-126593600D02*
X165093600Y-126092000D01*
X162852000Y-126593600D02*
X164592000Y-126593600D01*
X162850400Y-126592000D02*
X162852000Y-126593600D01*
X162053600Y-126592000D02*
X162052000Y-126593600D01*
X162850400Y-126592000D02*
X162053600Y-126592000D01*
%TO.N,IO6*%
X168503600Y-128219200D02*
X168503600Y-128853900D01*
X167259000Y-126974600D02*
X168503600Y-128219200D01*
X165074600Y-126974600D02*
X167259000Y-126974600D01*
X164657200Y-127392000D02*
X165074600Y-126974600D01*
X162850400Y-127392000D02*
X164657200Y-127392000D01*
X162053603Y-127392000D02*
X162052000Y-127393603D01*
X162850400Y-127392000D02*
X162053603Y-127392000D01*
%TO.N,IO7*%
X165963600Y-128371600D02*
X165963600Y-128853900D01*
X165784000Y-128192000D02*
X165963600Y-128371600D01*
X162850400Y-128192000D02*
X165784000Y-128192000D01*
X162053800Y-128192000D02*
X162052000Y-128193800D01*
X162850400Y-128192000D02*
X162053800Y-128192000D01*
%TO.N,GND*%
X160171599Y-125792000D02*
X160121600Y-125841999D01*
X161050400Y-125792000D02*
X160171599Y-125792000D01*
X161026058Y-123281458D02*
X161050400Y-123305800D01*
X160157142Y-123281458D02*
X161026058Y-123281458D01*
X161050400Y-125792000D02*
X161050400Y-128192000D01*
D18*
%TO.N,+3V3*%
X154533600Y-130771900D02*
X156298904Y-130771900D01*
X183743600Y-120243900D02*
X165963600Y-120243900D01*
X164617700Y-120243900D02*
X164617400Y-120243600D01*
X165963600Y-120243900D02*
X164617700Y-120243900D01*
D17*
%TO.N,IO1*%
X164401790Y-121705800D02*
X165601768Y-122905778D01*
X162850400Y-121705800D02*
X164401790Y-121705800D01*
X165601768Y-122905778D02*
X178709578Y-122905778D01*
X178709578Y-122905778D02*
X181203600Y-125399800D01*
X181203600Y-125399800D02*
X181203600Y-127383900D01*
X181203600Y-127383900D02*
X181203600Y-128853900D01*
X159740600Y-119964200D02*
X159092900Y-120611900D01*
X161467800Y-119964200D02*
X159740600Y-119964200D01*
X161950400Y-120446800D02*
X161467800Y-119964200D01*
X159092900Y-120611900D02*
X154533600Y-120611900D01*
X161950400Y-121462800D02*
X161950400Y-120446800D01*
X162193400Y-121705800D02*
X161950400Y-121462800D01*
X162850400Y-121705800D02*
X162193400Y-121705800D01*
%TO.N,IO2*%
X178663600Y-125501400D02*
X178663600Y-128853900D01*
X176517989Y-123355789D02*
X178663600Y-125501400D01*
X164565379Y-122505800D02*
X165415368Y-123355789D01*
X162850400Y-122505800D02*
X164565379Y-122505800D01*
X165415368Y-123355789D02*
X176517989Y-123355789D01*
X159131000Y-123139200D02*
X154546300Y-123139200D01*
X160248600Y-124256800D02*
X159131000Y-123139200D01*
X161950400Y-123748800D02*
X161442400Y-124256800D01*
X161950400Y-122755800D02*
X161950400Y-123748800D01*
X161442400Y-124256800D02*
X160248600Y-124256800D01*
X162200400Y-122505800D02*
X161950400Y-122755800D01*
X154546300Y-123139200D02*
X154533600Y-123151900D01*
X162850400Y-122505800D02*
X162200400Y-122505800D01*
%TO.N,IO3*%
X176123600Y-125526800D02*
X176123600Y-128853900D01*
X174402600Y-123805800D02*
X176123600Y-125526800D01*
X165182400Y-123805800D02*
X174402600Y-123805800D01*
X164682400Y-123305800D02*
X165182400Y-123805800D01*
X162850400Y-123305800D02*
X164682400Y-123305800D01*
X155008501Y-125216999D02*
X154533600Y-125691900D01*
X161439201Y-125216999D02*
X155008501Y-125216999D01*
X162850400Y-123805800D02*
X161439201Y-125216999D01*
X162850400Y-123305800D02*
X162850400Y-123805800D01*
%TD*%
D19*
%TO.N,GND*%
X161197400Y-125895750D02*
X161178150Y-125915000D01*
X161177400Y-125915000D01*
X161177400Y-126519000D01*
X161178150Y-126519000D01*
X161197400Y-126538250D01*
X161197400Y-126665000D01*
X161177400Y-126665000D01*
X161177400Y-127319000D01*
X161197400Y-127319000D01*
X161197400Y-127445750D01*
X161178150Y-127465000D01*
X161177400Y-127465000D01*
X161177400Y-128069000D01*
X161178150Y-128069000D01*
X161197400Y-128088250D01*
X161197400Y-128315000D01*
X161177400Y-128315000D01*
X161177400Y-128918250D01*
X161336150Y-129077000D01*
X161436286Y-129079916D01*
X161561008Y-129070412D01*
X161681480Y-129036759D01*
X161793072Y-128980249D01*
X161891494Y-128903055D01*
X161925837Y-128863046D01*
X161984927Y-128874800D01*
X162119073Y-128874800D01*
X162250640Y-128848629D01*
X162346913Y-128808751D01*
X162375711Y-128817487D01*
X162450400Y-128824843D01*
X163250400Y-128824843D01*
X163325089Y-128817487D01*
X163396908Y-128795701D01*
X163463096Y-128760322D01*
X163521111Y-128712711D01*
X163533184Y-128698000D01*
X164566600Y-128698000D01*
X164566600Y-130450400D01*
X159605999Y-130450400D01*
X159605999Y-131929200D01*
X153769722Y-131929200D01*
X153606998Y-131913245D01*
X153473089Y-131872815D01*
X153349586Y-131807148D01*
X153285332Y-131754743D01*
X155933600Y-131754743D01*
X156008289Y-131747387D01*
X156080108Y-131725601D01*
X156146296Y-131690222D01*
X156204311Y-131642611D01*
X156251922Y-131584596D01*
X156268864Y-131552900D01*
X156375826Y-131552900D01*
X156526713Y-131522887D01*
X156668846Y-131464013D01*
X156796763Y-131378542D01*
X156905546Y-131269759D01*
X156991017Y-131141842D01*
X157049891Y-130999709D01*
X157079904Y-130848822D01*
X157079904Y-130694978D01*
X157049891Y-130544091D01*
X156991017Y-130401958D01*
X156905546Y-130274041D01*
X156796763Y-130165258D01*
X156668846Y-130079787D01*
X156526713Y-130020913D01*
X156375826Y-129990900D01*
X156268864Y-129990900D01*
X156251922Y-129959204D01*
X156204311Y-129901189D01*
X156146296Y-129853578D01*
X156080108Y-129818199D01*
X156008289Y-129796413D01*
X155933600Y-129789057D01*
X153133600Y-129789057D01*
X153058911Y-129796413D01*
X153027200Y-129806032D01*
X153027200Y-129459493D01*
X153133600Y-129469972D01*
X154247850Y-129466900D01*
X154406600Y-129308150D01*
X154406600Y-128358900D01*
X154660600Y-128358900D01*
X154660600Y-129308150D01*
X154819350Y-129466900D01*
X155933600Y-129469972D01*
X156058082Y-129457712D01*
X156177780Y-129421402D01*
X156288094Y-129362437D01*
X156384785Y-129283085D01*
X156464137Y-129186394D01*
X156523102Y-129076080D01*
X156559412Y-128956382D01*
X156571672Y-128831900D01*
X156568600Y-128517650D01*
X156524700Y-128473750D01*
X160015400Y-128473750D01*
X160027495Y-128580294D01*
X160066444Y-128699160D01*
X160127834Y-128808143D01*
X160209306Y-128903055D01*
X160307728Y-128980249D01*
X160419320Y-129036759D01*
X160539792Y-129070412D01*
X160664514Y-129079916D01*
X160764650Y-129077000D01*
X160923400Y-128918250D01*
X160923400Y-128315000D01*
X160174150Y-128315000D01*
X160015400Y-128473750D01*
X156524700Y-128473750D01*
X156409850Y-128358900D01*
X154660600Y-128358900D01*
X154406600Y-128358900D01*
X154386600Y-128358900D01*
X154386600Y-128104900D01*
X154406600Y-128104900D01*
X154406600Y-127155650D01*
X154660600Y-127155650D01*
X154660600Y-128104900D01*
X156409850Y-128104900D01*
X156568600Y-127946150D01*
X156571672Y-127631900D01*
X156559412Y-127507418D01*
X156523102Y-127387720D01*
X156464137Y-127277406D01*
X156384785Y-127180715D01*
X156288094Y-127101363D01*
X156177780Y-127042398D01*
X156058082Y-127006088D01*
X155933600Y-126993828D01*
X154819350Y-126996900D01*
X154660600Y-127155650D01*
X154406600Y-127155650D01*
X154247850Y-126996900D01*
X153133600Y-126993828D01*
X153027200Y-127004307D01*
X153027200Y-126657768D01*
X153058911Y-126667387D01*
X153133600Y-126674743D01*
X155933600Y-126674743D01*
X156008289Y-126667387D01*
X156080108Y-126645601D01*
X156146296Y-126610222D01*
X156204311Y-126562611D01*
X156251922Y-126504596D01*
X156287301Y-126438408D01*
X156309087Y-126366589D01*
X156316443Y-126291900D01*
X156316443Y-126073750D01*
X160015400Y-126073750D01*
X160027495Y-126180294D01*
X160039523Y-126217000D01*
X160027495Y-126253706D01*
X160015400Y-126360250D01*
X160174150Y-126519000D01*
X160229636Y-126519000D01*
X160307728Y-126580249D01*
X160380301Y-126617000D01*
X160307728Y-126653751D01*
X160293386Y-126665000D01*
X160174150Y-126665000D01*
X160015400Y-126823750D01*
X160027495Y-126930294D01*
X160047714Y-126992000D01*
X160027495Y-127053706D01*
X160015400Y-127160250D01*
X160174150Y-127319000D01*
X160293386Y-127319000D01*
X160307728Y-127330249D01*
X160380301Y-127367000D01*
X160307728Y-127403751D01*
X160229636Y-127465000D01*
X160174150Y-127465000D01*
X160015400Y-127623750D01*
X160027495Y-127730294D01*
X160039523Y-127767000D01*
X160027495Y-127803706D01*
X160015400Y-127910250D01*
X160174150Y-128069000D01*
X160229636Y-128069000D01*
X160307728Y-128130249D01*
X160419320Y-128186759D01*
X160539792Y-128220412D01*
X160664514Y-128229916D01*
X160764650Y-128227000D01*
X160922650Y-128069000D01*
X160923400Y-128069000D01*
X160923400Y-127465000D01*
X160922650Y-127465000D01*
X160824650Y-127367000D01*
X160872650Y-127319000D01*
X160923400Y-127319000D01*
X160923400Y-126665000D01*
X160872650Y-126665000D01*
X160824650Y-126617000D01*
X160922650Y-126519000D01*
X160923400Y-126519000D01*
X160923400Y-125915000D01*
X160922650Y-125915000D01*
X160764650Y-125757000D01*
X160664514Y-125754084D01*
X160539792Y-125763588D01*
X160419320Y-125797241D01*
X160307728Y-125853751D01*
X160229636Y-125915000D01*
X160174150Y-125915000D01*
X160015400Y-126073750D01*
X156316443Y-126073750D01*
X156316443Y-125722999D01*
X161197400Y-125722999D01*
X161197400Y-125895750D01*
%TA.AperFunction,Conductor*%
D20*
G36*
X161197400Y-125895750D02*
G01*
X161178150Y-125915000D01*
X161177400Y-125915000D01*
X161177400Y-126519000D01*
X161178150Y-126519000D01*
X161197400Y-126538250D01*
X161197400Y-126665000D01*
X161177400Y-126665000D01*
X161177400Y-127319000D01*
X161197400Y-127319000D01*
X161197400Y-127445750D01*
X161178150Y-127465000D01*
X161177400Y-127465000D01*
X161177400Y-128069000D01*
X161178150Y-128069000D01*
X161197400Y-128088250D01*
X161197400Y-128315000D01*
X161177400Y-128315000D01*
X161177400Y-128918250D01*
X161336150Y-129077000D01*
X161436286Y-129079916D01*
X161561008Y-129070412D01*
X161681480Y-129036759D01*
X161793072Y-128980249D01*
X161891494Y-128903055D01*
X161925837Y-128863046D01*
X161984927Y-128874800D01*
X162119073Y-128874800D01*
X162250640Y-128848629D01*
X162346913Y-128808751D01*
X162375711Y-128817487D01*
X162450400Y-128824843D01*
X163250400Y-128824843D01*
X163325089Y-128817487D01*
X163396908Y-128795701D01*
X163463096Y-128760322D01*
X163521111Y-128712711D01*
X163533184Y-128698000D01*
X164566600Y-128698000D01*
X164566600Y-130450400D01*
X159605999Y-130450400D01*
X159605999Y-131929200D01*
X153769722Y-131929200D01*
X153606998Y-131913245D01*
X153473089Y-131872815D01*
X153349586Y-131807148D01*
X153285332Y-131754743D01*
X155933600Y-131754743D01*
X156008289Y-131747387D01*
X156080108Y-131725601D01*
X156146296Y-131690222D01*
X156204311Y-131642611D01*
X156251922Y-131584596D01*
X156268864Y-131552900D01*
X156375826Y-131552900D01*
X156526713Y-131522887D01*
X156668846Y-131464013D01*
X156796763Y-131378542D01*
X156905546Y-131269759D01*
X156991017Y-131141842D01*
X157049891Y-130999709D01*
X157079904Y-130848822D01*
X157079904Y-130694978D01*
X157049891Y-130544091D01*
X156991017Y-130401958D01*
X156905546Y-130274041D01*
X156796763Y-130165258D01*
X156668846Y-130079787D01*
X156526713Y-130020913D01*
X156375826Y-129990900D01*
X156268864Y-129990900D01*
X156251922Y-129959204D01*
X156204311Y-129901189D01*
X156146296Y-129853578D01*
X156080108Y-129818199D01*
X156008289Y-129796413D01*
X155933600Y-129789057D01*
X153133600Y-129789057D01*
X153058911Y-129796413D01*
X153027200Y-129806032D01*
X153027200Y-129459493D01*
X153133600Y-129469972D01*
X154247850Y-129466900D01*
X154406600Y-129308150D01*
X154406600Y-128358900D01*
X154660600Y-128358900D01*
X154660600Y-129308150D01*
X154819350Y-129466900D01*
X155933600Y-129469972D01*
X156058082Y-129457712D01*
X156177780Y-129421402D01*
X156288094Y-129362437D01*
X156384785Y-129283085D01*
X156464137Y-129186394D01*
X156523102Y-129076080D01*
X156559412Y-128956382D01*
X156571672Y-128831900D01*
X156568600Y-128517650D01*
X156524700Y-128473750D01*
X160015400Y-128473750D01*
X160027495Y-128580294D01*
X160066444Y-128699160D01*
X160127834Y-128808143D01*
X160209306Y-128903055D01*
X160307728Y-128980249D01*
X160419320Y-129036759D01*
X160539792Y-129070412D01*
X160664514Y-129079916D01*
X160764650Y-129077000D01*
X160923400Y-128918250D01*
X160923400Y-128315000D01*
X160174150Y-128315000D01*
X160015400Y-128473750D01*
X156524700Y-128473750D01*
X156409850Y-128358900D01*
X154660600Y-128358900D01*
X154406600Y-128358900D01*
X154386600Y-128358900D01*
X154386600Y-128104900D01*
X154406600Y-128104900D01*
X154406600Y-127155650D01*
X154660600Y-127155650D01*
X154660600Y-128104900D01*
X156409850Y-128104900D01*
X156568600Y-127946150D01*
X156571672Y-127631900D01*
X156559412Y-127507418D01*
X156523102Y-127387720D01*
X156464137Y-127277406D01*
X156384785Y-127180715D01*
X156288094Y-127101363D01*
X156177780Y-127042398D01*
X156058082Y-127006088D01*
X155933600Y-126993828D01*
X154819350Y-126996900D01*
X154660600Y-127155650D01*
X154406600Y-127155650D01*
X154247850Y-126996900D01*
X153133600Y-126993828D01*
X153027200Y-127004307D01*
X153027200Y-126657768D01*
X153058911Y-126667387D01*
X153133600Y-126674743D01*
X155933600Y-126674743D01*
X156008289Y-126667387D01*
X156080108Y-126645601D01*
X156146296Y-126610222D01*
X156204311Y-126562611D01*
X156251922Y-126504596D01*
X156287301Y-126438408D01*
X156309087Y-126366589D01*
X156316443Y-126291900D01*
X156316443Y-126073750D01*
X160015400Y-126073750D01*
X160027495Y-126180294D01*
X160039523Y-126217000D01*
X160027495Y-126253706D01*
X160015400Y-126360250D01*
X160174150Y-126519000D01*
X160229636Y-126519000D01*
X160307728Y-126580249D01*
X160380301Y-126617000D01*
X160307728Y-126653751D01*
X160293386Y-126665000D01*
X160174150Y-126665000D01*
X160015400Y-126823750D01*
X160027495Y-126930294D01*
X160047714Y-126992000D01*
X160027495Y-127053706D01*
X160015400Y-127160250D01*
X160174150Y-127319000D01*
X160293386Y-127319000D01*
X160307728Y-127330249D01*
X160380301Y-127367000D01*
X160307728Y-127403751D01*
X160229636Y-127465000D01*
X160174150Y-127465000D01*
X160015400Y-127623750D01*
X160027495Y-127730294D01*
X160039523Y-127767000D01*
X160027495Y-127803706D01*
X160015400Y-127910250D01*
X160174150Y-128069000D01*
X160229636Y-128069000D01*
X160307728Y-128130249D01*
X160419320Y-128186759D01*
X160539792Y-128220412D01*
X160664514Y-128229916D01*
X160764650Y-128227000D01*
X160922650Y-128069000D01*
X160923400Y-128069000D01*
X160923400Y-127465000D01*
X160922650Y-127465000D01*
X160824650Y-127367000D01*
X160872650Y-127319000D01*
X160923400Y-127319000D01*
X160923400Y-126665000D01*
X160872650Y-126665000D01*
X160824650Y-126617000D01*
X160922650Y-126519000D01*
X160923400Y-126519000D01*
X160923400Y-125915000D01*
X160922650Y-125915000D01*
X160764650Y-125757000D01*
X160664514Y-125754084D01*
X160539792Y-125763588D01*
X160419320Y-125797241D01*
X160307728Y-125853751D01*
X160229636Y-125915000D01*
X160174150Y-125915000D01*
X160015400Y-126073750D01*
X156316443Y-126073750D01*
X156316443Y-125722999D01*
X161197400Y-125722999D01*
X161197400Y-125895750D01*
G37*
%TD.AperFunction*%
D19*
X160027495Y-120517506D02*
X160015400Y-120624050D01*
X160174150Y-120782800D01*
X160923400Y-120782800D01*
X160923400Y-120758800D01*
X161177400Y-120758800D01*
X161177400Y-120782800D01*
X161197400Y-120782800D01*
X161197400Y-121009550D01*
X161178150Y-121028800D01*
X161177400Y-121028800D01*
X161177400Y-121632800D01*
X161178150Y-121632800D01*
X161197400Y-121652050D01*
X161197400Y-121778800D01*
X161177400Y-121778800D01*
X161177400Y-122432800D01*
X161197400Y-122432800D01*
X161197400Y-122559550D01*
X161178150Y-122578800D01*
X161177400Y-122578800D01*
X161177400Y-123182800D01*
X161178150Y-123182800D01*
X161197400Y-123202050D01*
X161197400Y-123428800D01*
X161177400Y-123428800D01*
X161177400Y-123452800D01*
X160923400Y-123452800D01*
X160923400Y-123428800D01*
X160174150Y-123428800D01*
X160155171Y-123447779D01*
X159506376Y-122798985D01*
X159490527Y-122779673D01*
X159413479Y-122716441D01*
X159325575Y-122669455D01*
X159230193Y-122640522D01*
X159155854Y-122633200D01*
X159155846Y-122633200D01*
X159131000Y-122630753D01*
X159106154Y-122633200D01*
X156316443Y-122633200D01*
X156316443Y-122551900D01*
X156309087Y-122477211D01*
X156287301Y-122405392D01*
X156251922Y-122339204D01*
X156204311Y-122281189D01*
X156146296Y-122233578D01*
X156080108Y-122198199D01*
X156008289Y-122176413D01*
X155933600Y-122169057D01*
X153133600Y-122169057D01*
X153058911Y-122176413D01*
X153027200Y-122186032D01*
X153027200Y-121577768D01*
X153058911Y-121587387D01*
X153133600Y-121594743D01*
X155933600Y-121594743D01*
X156008289Y-121587387D01*
X156080108Y-121565601D01*
X156146296Y-121530222D01*
X156204311Y-121482611D01*
X156251922Y-121424596D01*
X156287301Y-121358408D01*
X156309087Y-121286589D01*
X156316443Y-121211900D01*
X156316443Y-121187550D01*
X160015400Y-121187550D01*
X160027495Y-121294094D01*
X160039523Y-121330800D01*
X160027495Y-121367506D01*
X160015400Y-121474050D01*
X160174150Y-121632800D01*
X160229636Y-121632800D01*
X160307728Y-121694049D01*
X160380301Y-121730800D01*
X160307728Y-121767551D01*
X160293386Y-121778800D01*
X160174150Y-121778800D01*
X160015400Y-121937550D01*
X160027495Y-122044094D01*
X160047714Y-122105800D01*
X160027495Y-122167506D01*
X160015400Y-122274050D01*
X160174150Y-122432800D01*
X160293386Y-122432800D01*
X160307728Y-122444049D01*
X160380301Y-122480800D01*
X160307728Y-122517551D01*
X160229636Y-122578800D01*
X160174150Y-122578800D01*
X160015400Y-122737550D01*
X160027495Y-122844094D01*
X160039523Y-122880800D01*
X160027495Y-122917506D01*
X160015400Y-123024050D01*
X160174150Y-123182800D01*
X160229636Y-123182800D01*
X160307728Y-123244049D01*
X160419320Y-123300559D01*
X160539792Y-123334212D01*
X160664514Y-123343716D01*
X160764650Y-123340800D01*
X160922650Y-123182800D01*
X160923400Y-123182800D01*
X160923400Y-122578800D01*
X160922650Y-122578800D01*
X160824650Y-122480800D01*
X160872650Y-122432800D01*
X160923400Y-122432800D01*
X160923400Y-121778800D01*
X160872650Y-121778800D01*
X160824650Y-121730800D01*
X160922650Y-121632800D01*
X160923400Y-121632800D01*
X160923400Y-121028800D01*
X160922650Y-121028800D01*
X160764650Y-120870800D01*
X160664514Y-120867884D01*
X160539792Y-120877388D01*
X160419320Y-120911041D01*
X160307728Y-120967551D01*
X160229636Y-121028800D01*
X160174150Y-121028800D01*
X160015400Y-121187550D01*
X156316443Y-121187550D01*
X156316443Y-121117900D01*
X159068054Y-121117900D01*
X159092900Y-121120347D01*
X159117746Y-121117900D01*
X159117754Y-121117900D01*
X159192093Y-121110578D01*
X159287475Y-121081645D01*
X159375379Y-121034659D01*
X159452427Y-120971427D01*
X159468276Y-120952115D01*
X159950192Y-120470200D01*
X160042996Y-120470200D01*
X160027495Y-120517506D01*
%TA.AperFunction,Conductor*%
D20*
G36*
X160027495Y-120517506D02*
G01*
X160015400Y-120624050D01*
X160174150Y-120782800D01*
X160923400Y-120782800D01*
X160923400Y-120758800D01*
X161177400Y-120758800D01*
X161177400Y-120782800D01*
X161197400Y-120782800D01*
X161197400Y-121009550D01*
X161178150Y-121028800D01*
X161177400Y-121028800D01*
X161177400Y-121632800D01*
X161178150Y-121632800D01*
X161197400Y-121652050D01*
X161197400Y-121778800D01*
X161177400Y-121778800D01*
X161177400Y-122432800D01*
X161197400Y-122432800D01*
X161197400Y-122559550D01*
X161178150Y-122578800D01*
X161177400Y-122578800D01*
X161177400Y-123182800D01*
X161178150Y-123182800D01*
X161197400Y-123202050D01*
X161197400Y-123428800D01*
X161177400Y-123428800D01*
X161177400Y-123452800D01*
X160923400Y-123452800D01*
X160923400Y-123428800D01*
X160174150Y-123428800D01*
X160155171Y-123447779D01*
X159506376Y-122798985D01*
X159490527Y-122779673D01*
X159413479Y-122716441D01*
X159325575Y-122669455D01*
X159230193Y-122640522D01*
X159155854Y-122633200D01*
X159155846Y-122633200D01*
X159131000Y-122630753D01*
X159106154Y-122633200D01*
X156316443Y-122633200D01*
X156316443Y-122551900D01*
X156309087Y-122477211D01*
X156287301Y-122405392D01*
X156251922Y-122339204D01*
X156204311Y-122281189D01*
X156146296Y-122233578D01*
X156080108Y-122198199D01*
X156008289Y-122176413D01*
X155933600Y-122169057D01*
X153133600Y-122169057D01*
X153058911Y-122176413D01*
X153027200Y-122186032D01*
X153027200Y-121577768D01*
X153058911Y-121587387D01*
X153133600Y-121594743D01*
X155933600Y-121594743D01*
X156008289Y-121587387D01*
X156080108Y-121565601D01*
X156146296Y-121530222D01*
X156204311Y-121482611D01*
X156251922Y-121424596D01*
X156287301Y-121358408D01*
X156309087Y-121286589D01*
X156316443Y-121211900D01*
X156316443Y-121187550D01*
X160015400Y-121187550D01*
X160027495Y-121294094D01*
X160039523Y-121330800D01*
X160027495Y-121367506D01*
X160015400Y-121474050D01*
X160174150Y-121632800D01*
X160229636Y-121632800D01*
X160307728Y-121694049D01*
X160380301Y-121730800D01*
X160307728Y-121767551D01*
X160293386Y-121778800D01*
X160174150Y-121778800D01*
X160015400Y-121937550D01*
X160027495Y-122044094D01*
X160047714Y-122105800D01*
X160027495Y-122167506D01*
X160015400Y-122274050D01*
X160174150Y-122432800D01*
X160293386Y-122432800D01*
X160307728Y-122444049D01*
X160380301Y-122480800D01*
X160307728Y-122517551D01*
X160229636Y-122578800D01*
X160174150Y-122578800D01*
X160015400Y-122737550D01*
X160027495Y-122844094D01*
X160039523Y-122880800D01*
X160027495Y-122917506D01*
X160015400Y-123024050D01*
X160174150Y-123182800D01*
X160229636Y-123182800D01*
X160307728Y-123244049D01*
X160419320Y-123300559D01*
X160539792Y-123334212D01*
X160664514Y-123343716D01*
X160764650Y-123340800D01*
X160922650Y-123182800D01*
X160923400Y-123182800D01*
X160923400Y-122578800D01*
X160922650Y-122578800D01*
X160824650Y-122480800D01*
X160872650Y-122432800D01*
X160923400Y-122432800D01*
X160923400Y-121778800D01*
X160872650Y-121778800D01*
X160824650Y-121730800D01*
X160922650Y-121632800D01*
X160923400Y-121632800D01*
X160923400Y-121028800D01*
X160922650Y-121028800D01*
X160764650Y-120870800D01*
X160664514Y-120867884D01*
X160539792Y-120877388D01*
X160419320Y-120911041D01*
X160307728Y-120967551D01*
X160229636Y-121028800D01*
X160174150Y-121028800D01*
X160015400Y-121187550D01*
X156316443Y-121187550D01*
X156316443Y-121117900D01*
X159068054Y-121117900D01*
X159092900Y-121120347D01*
X159117746Y-121117900D01*
X159117754Y-121117900D01*
X159192093Y-121110578D01*
X159287475Y-121081645D01*
X159375379Y-121034659D01*
X159452427Y-120971427D01*
X159468276Y-120952115D01*
X159950192Y-120470200D01*
X160042996Y-120470200D01*
X160027495Y-120517506D01*
G37*
%TD.AperFunction*%
%TD*%
M02*
