%TF.GenerationSoftware,KiCad,Pcbnew,(5.1.10)-1*%
%TF.CreationDate,2021-08-16T02:03:12+08:00*%
%TF.ProjectId,Pmod-8switch,506d6f64-2d38-4737-9769-7463682e6b69,rev?*%
%TF.SameCoordinates,Original*%
%TF.FileFunction,Copper,L2,Bot*%
%TF.FilePolarity,Positive*%
%FSLAX46Y46*%
G04 Gerber Fmt 4.6, Leading zero omitted, Abs format (unit mm)*
G04 Created by KiCad (PCBNEW (5.1.10)-1) date 2021-08-16 02:03:12*
%MOMM*%
%LPD*%
G01*
G04 APERTURE LIST*
%TA.AperFunction,SMDPad,CuDef*%
%ADD10R,2.800000X1.200000*%
%TD*%
%TA.AperFunction,ViaPad*%
%ADD11C,0.600000*%
%TD*%
%TA.AperFunction,ViaPad*%
%ADD12C,0.800000*%
%TD*%
%TA.AperFunction,Conductor*%
%ADD13C,0.250000*%
%TD*%
%TA.AperFunction,Conductor*%
%ADD14C,0.500000*%
%TD*%
%TA.AperFunction,Conductor*%
%ADD15C,0.254000*%
%TD*%
%TA.AperFunction,Conductor*%
%ADD16C,0.100000*%
%TD*%
G04 APERTURE END LIST*
D10*
%TO.P,PMOD1,7*%
%TO.N,IO4*%
X154533600Y-118071900D03*
%TO.P,PMOD1,8*%
%TO.N,IO5*%
X154533600Y-120611900D03*
%TO.P,PMOD1,9*%
%TO.N,IO6*%
X154533600Y-123151900D03*
%TO.P,PMOD1,10*%
%TO.N,IO7*%
X154533600Y-125691900D03*
%TO.P,PMOD1,11*%
%TO.N,GND*%
X154533600Y-128231900D03*
%TO.P,PMOD1,12*%
%TO.N,+3V3*%
X154533600Y-130771900D03*
%TD*%
D11*
%TO.N,IO4*%
X162052000Y-125780800D03*
%TO.N,IO5*%
X162052000Y-126593600D03*
%TO.N,IO6*%
X162052000Y-127393603D03*
%TO.N,IO7*%
X162052000Y-128193800D03*
%TO.N,GND*%
X156768800Y-126949200D03*
X156768800Y-121869200D03*
X156768800Y-129489200D03*
X160121600Y-125841999D03*
X160157142Y-123281458D03*
D12*
%TO.N,+3V3*%
X156298904Y-130771900D03*
X164617400Y-120243600D03*
%TD*%
D13*
%TO.N,IO4*%
X159702500Y-118071900D02*
X154533600Y-118071900D01*
X161340800Y-119710200D02*
X159702500Y-118071900D01*
X161340800Y-125552200D02*
X161340800Y-119710200D01*
X161569400Y-125780800D02*
X161340800Y-125552200D01*
X162052000Y-125780800D02*
X161569400Y-125780800D01*
%TO.N,IO5*%
X160858200Y-121793000D02*
X159677100Y-120611900D01*
X159677100Y-120611900D02*
X154533600Y-120611900D01*
X160858200Y-126085600D02*
X160858200Y-121793000D01*
X161366200Y-126593600D02*
X160858200Y-126085600D01*
X162052000Y-126593600D02*
X161366200Y-126593600D01*
%TO.N,IO6*%
X158610300Y-123151900D02*
X154533600Y-123151900D01*
X159385000Y-123926600D02*
X158610300Y-123151900D01*
X159385000Y-126974600D02*
X159385000Y-123926600D01*
X159804003Y-127393603D02*
X159385000Y-126974600D01*
X162052000Y-127393603D02*
X159804003Y-127393603D01*
%TO.N,IO7*%
X158851600Y-125984000D02*
X158559500Y-125691900D01*
X158851600Y-127533400D02*
X158851600Y-125984000D01*
X158559500Y-125691900D02*
X154533600Y-125691900D01*
X159512000Y-128193800D02*
X158851600Y-127533400D01*
X162052000Y-128193800D02*
X159512000Y-128193800D01*
%TO.N,GND*%
X160121600Y-123317000D02*
X160157142Y-123281458D01*
X160121600Y-125841999D02*
X160121600Y-123317000D01*
D14*
%TO.N,+3V3*%
X156298904Y-130771900D02*
X154533600Y-130771900D01*
X162293300Y-130771900D02*
X156298904Y-130771900D01*
X163957000Y-129108200D02*
X162293300Y-130771900D01*
X163957000Y-120904000D02*
X163957000Y-129108200D01*
X164617400Y-120243600D02*
X163957000Y-120904000D01*
%TD*%
D15*
%TO.N,GND*%
X185435832Y-117157513D02*
X185522054Y-117183545D01*
X185601577Y-117225828D01*
X185671372Y-117282752D01*
X185728779Y-117352145D01*
X185771618Y-117431372D01*
X185798250Y-117517409D01*
X185811201Y-117640624D01*
X185811200Y-131174243D01*
X185798886Y-131299831D01*
X185772853Y-131386058D01*
X185730573Y-131465575D01*
X185673649Y-131535370D01*
X185604252Y-131592780D01*
X185525030Y-131635616D01*
X185438990Y-131662249D01*
X185315776Y-131675200D01*
X156809970Y-131675200D01*
X156837358Y-131656900D01*
X162249831Y-131656900D01*
X162293300Y-131661181D01*
X162336769Y-131656900D01*
X162336777Y-131656900D01*
X162466790Y-131644095D01*
X162633613Y-131593489D01*
X162787359Y-131511311D01*
X162922117Y-131400717D01*
X162949834Y-131366944D01*
X164552049Y-129764730D01*
X164585817Y-129737017D01*
X164696411Y-129602259D01*
X164778589Y-129448513D01*
X164829195Y-129281690D01*
X164842000Y-129151677D01*
X164842000Y-129151667D01*
X164846281Y-129108201D01*
X164842000Y-129064735D01*
X164842000Y-121270578D01*
X164862443Y-121250135D01*
X164919298Y-121238826D01*
X165107656Y-121160805D01*
X165277174Y-121047537D01*
X165421337Y-120903374D01*
X165534605Y-120733856D01*
X165612626Y-120545498D01*
X165652400Y-120345539D01*
X165652400Y-120141661D01*
X165612626Y-119941702D01*
X165534605Y-119753344D01*
X165421337Y-119583826D01*
X165277174Y-119439663D01*
X165107656Y-119326395D01*
X164919298Y-119248374D01*
X164719339Y-119208600D01*
X164515461Y-119208600D01*
X164315502Y-119248374D01*
X164127144Y-119326395D01*
X163957626Y-119439663D01*
X163813463Y-119583826D01*
X163700195Y-119753344D01*
X163622174Y-119941702D01*
X163610865Y-119998557D01*
X163361956Y-120247466D01*
X163328183Y-120275183D01*
X163217589Y-120409942D01*
X163135411Y-120563688D01*
X163120786Y-120611900D01*
X163084805Y-120730510D01*
X163084101Y-120737659D01*
X163072000Y-120860524D01*
X163072000Y-120860531D01*
X163067719Y-120904000D01*
X163072000Y-120947469D01*
X163072001Y-128741620D01*
X161926722Y-129886900D01*
X156837358Y-129886900D01*
X156789160Y-129854695D01*
X156600802Y-129776674D01*
X156400843Y-129736900D01*
X156398068Y-129736900D01*
X156384785Y-129720715D01*
X156288094Y-129641363D01*
X156177780Y-129582398D01*
X156058082Y-129546088D01*
X155933600Y-129533828D01*
X153281200Y-129533828D01*
X153281200Y-129469565D01*
X154247850Y-129466900D01*
X154406600Y-129308150D01*
X154406600Y-128358900D01*
X154660600Y-128358900D01*
X154660600Y-129308150D01*
X154819350Y-129466900D01*
X155933600Y-129469972D01*
X156058082Y-129457712D01*
X156177780Y-129421402D01*
X156288094Y-129362437D01*
X156384785Y-129283085D01*
X156464137Y-129186394D01*
X156523102Y-129076080D01*
X156559412Y-128956382D01*
X156571672Y-128831900D01*
X156568600Y-128517650D01*
X156409850Y-128358900D01*
X154660600Y-128358900D01*
X154406600Y-128358900D01*
X154386600Y-128358900D01*
X154386600Y-128104900D01*
X154406600Y-128104900D01*
X154406600Y-127155650D01*
X154660600Y-127155650D01*
X154660600Y-128104900D01*
X156409850Y-128104900D01*
X156568600Y-127946150D01*
X156571672Y-127631900D01*
X156559412Y-127507418D01*
X156523102Y-127387720D01*
X156464137Y-127277406D01*
X156384785Y-127180715D01*
X156288094Y-127101363D01*
X156177780Y-127042398D01*
X156058082Y-127006088D01*
X155933600Y-126993828D01*
X154819350Y-126996900D01*
X154660600Y-127155650D01*
X154406600Y-127155650D01*
X154247850Y-126996900D01*
X153281200Y-126994235D01*
X153281200Y-126929972D01*
X155933600Y-126929972D01*
X156058082Y-126917712D01*
X156177780Y-126881402D01*
X156288094Y-126822437D01*
X156384785Y-126743085D01*
X156464137Y-126646394D01*
X156523102Y-126536080D01*
X156548638Y-126451900D01*
X158091601Y-126451900D01*
X158091600Y-127496077D01*
X158087924Y-127533400D01*
X158091600Y-127570722D01*
X158091600Y-127570732D01*
X158102597Y-127682385D01*
X158123384Y-127750911D01*
X158146054Y-127825646D01*
X158216626Y-127957676D01*
X158242851Y-127989631D01*
X158311599Y-128073401D01*
X158340602Y-128097203D01*
X158948200Y-128704802D01*
X158971999Y-128733801D01*
X159087724Y-128828774D01*
X159219753Y-128899346D01*
X159363014Y-128942803D01*
X159474667Y-128953800D01*
X159474675Y-128953800D01*
X159512000Y-128957476D01*
X159549325Y-128953800D01*
X161506465Y-128953800D01*
X161609111Y-129022386D01*
X161779271Y-129092868D01*
X161959911Y-129128800D01*
X162144089Y-129128800D01*
X162324729Y-129092868D01*
X162494889Y-129022386D01*
X162648028Y-128920062D01*
X162778262Y-128789828D01*
X162880586Y-128636689D01*
X162951068Y-128466529D01*
X162987000Y-128285889D01*
X162987000Y-128101711D01*
X162951068Y-127921071D01*
X162898310Y-127793702D01*
X162951068Y-127666332D01*
X162987000Y-127485692D01*
X162987000Y-127301514D01*
X162951068Y-127120874D01*
X162898350Y-126993602D01*
X162951068Y-126866329D01*
X162987000Y-126685689D01*
X162987000Y-126501511D01*
X162951068Y-126320871D01*
X162895700Y-126187200D01*
X162951068Y-126053529D01*
X162987000Y-125872889D01*
X162987000Y-125688711D01*
X162951068Y-125508071D01*
X162880586Y-125337911D01*
X162778262Y-125184772D01*
X162648028Y-125054538D01*
X162494889Y-124952214D01*
X162324729Y-124881732D01*
X162144089Y-124845800D01*
X162100800Y-124845800D01*
X162100800Y-119747522D01*
X162104476Y-119710199D01*
X162100800Y-119672876D01*
X162100800Y-119672867D01*
X162089803Y-119561214D01*
X162046346Y-119417953D01*
X162029314Y-119386088D01*
X161975774Y-119285923D01*
X161904599Y-119199197D01*
X161880801Y-119170199D01*
X161851803Y-119146401D01*
X160266304Y-117560903D01*
X160242501Y-117531899D01*
X160126776Y-117436926D01*
X159994747Y-117366354D01*
X159851486Y-117322897D01*
X159739833Y-117311900D01*
X159739822Y-117311900D01*
X159702500Y-117308224D01*
X159665178Y-117311900D01*
X156548638Y-117311900D01*
X156523102Y-117227720D01*
X156478993Y-117145200D01*
X185310253Y-117145200D01*
X185435832Y-117157513D01*
%TA.AperFunction,Conductor*%
D16*
G36*
X185435832Y-117157513D02*
G01*
X185522054Y-117183545D01*
X185601577Y-117225828D01*
X185671372Y-117282752D01*
X185728779Y-117352145D01*
X185771618Y-117431372D01*
X185798250Y-117517409D01*
X185811201Y-117640624D01*
X185811200Y-131174243D01*
X185798886Y-131299831D01*
X185772853Y-131386058D01*
X185730573Y-131465575D01*
X185673649Y-131535370D01*
X185604252Y-131592780D01*
X185525030Y-131635616D01*
X185438990Y-131662249D01*
X185315776Y-131675200D01*
X156809970Y-131675200D01*
X156837358Y-131656900D01*
X162249831Y-131656900D01*
X162293300Y-131661181D01*
X162336769Y-131656900D01*
X162336777Y-131656900D01*
X162466790Y-131644095D01*
X162633613Y-131593489D01*
X162787359Y-131511311D01*
X162922117Y-131400717D01*
X162949834Y-131366944D01*
X164552049Y-129764730D01*
X164585817Y-129737017D01*
X164696411Y-129602259D01*
X164778589Y-129448513D01*
X164829195Y-129281690D01*
X164842000Y-129151677D01*
X164842000Y-129151667D01*
X164846281Y-129108201D01*
X164842000Y-129064735D01*
X164842000Y-121270578D01*
X164862443Y-121250135D01*
X164919298Y-121238826D01*
X165107656Y-121160805D01*
X165277174Y-121047537D01*
X165421337Y-120903374D01*
X165534605Y-120733856D01*
X165612626Y-120545498D01*
X165652400Y-120345539D01*
X165652400Y-120141661D01*
X165612626Y-119941702D01*
X165534605Y-119753344D01*
X165421337Y-119583826D01*
X165277174Y-119439663D01*
X165107656Y-119326395D01*
X164919298Y-119248374D01*
X164719339Y-119208600D01*
X164515461Y-119208600D01*
X164315502Y-119248374D01*
X164127144Y-119326395D01*
X163957626Y-119439663D01*
X163813463Y-119583826D01*
X163700195Y-119753344D01*
X163622174Y-119941702D01*
X163610865Y-119998557D01*
X163361956Y-120247466D01*
X163328183Y-120275183D01*
X163217589Y-120409942D01*
X163135411Y-120563688D01*
X163120786Y-120611900D01*
X163084805Y-120730510D01*
X163084101Y-120737659D01*
X163072000Y-120860524D01*
X163072000Y-120860531D01*
X163067719Y-120904000D01*
X163072000Y-120947469D01*
X163072001Y-128741620D01*
X161926722Y-129886900D01*
X156837358Y-129886900D01*
X156789160Y-129854695D01*
X156600802Y-129776674D01*
X156400843Y-129736900D01*
X156398068Y-129736900D01*
X156384785Y-129720715D01*
X156288094Y-129641363D01*
X156177780Y-129582398D01*
X156058082Y-129546088D01*
X155933600Y-129533828D01*
X153281200Y-129533828D01*
X153281200Y-129469565D01*
X154247850Y-129466900D01*
X154406600Y-129308150D01*
X154406600Y-128358900D01*
X154660600Y-128358900D01*
X154660600Y-129308150D01*
X154819350Y-129466900D01*
X155933600Y-129469972D01*
X156058082Y-129457712D01*
X156177780Y-129421402D01*
X156288094Y-129362437D01*
X156384785Y-129283085D01*
X156464137Y-129186394D01*
X156523102Y-129076080D01*
X156559412Y-128956382D01*
X156571672Y-128831900D01*
X156568600Y-128517650D01*
X156409850Y-128358900D01*
X154660600Y-128358900D01*
X154406600Y-128358900D01*
X154386600Y-128358900D01*
X154386600Y-128104900D01*
X154406600Y-128104900D01*
X154406600Y-127155650D01*
X154660600Y-127155650D01*
X154660600Y-128104900D01*
X156409850Y-128104900D01*
X156568600Y-127946150D01*
X156571672Y-127631900D01*
X156559412Y-127507418D01*
X156523102Y-127387720D01*
X156464137Y-127277406D01*
X156384785Y-127180715D01*
X156288094Y-127101363D01*
X156177780Y-127042398D01*
X156058082Y-127006088D01*
X155933600Y-126993828D01*
X154819350Y-126996900D01*
X154660600Y-127155650D01*
X154406600Y-127155650D01*
X154247850Y-126996900D01*
X153281200Y-126994235D01*
X153281200Y-126929972D01*
X155933600Y-126929972D01*
X156058082Y-126917712D01*
X156177780Y-126881402D01*
X156288094Y-126822437D01*
X156384785Y-126743085D01*
X156464137Y-126646394D01*
X156523102Y-126536080D01*
X156548638Y-126451900D01*
X158091601Y-126451900D01*
X158091600Y-127496077D01*
X158087924Y-127533400D01*
X158091600Y-127570722D01*
X158091600Y-127570732D01*
X158102597Y-127682385D01*
X158123384Y-127750911D01*
X158146054Y-127825646D01*
X158216626Y-127957676D01*
X158242851Y-127989631D01*
X158311599Y-128073401D01*
X158340602Y-128097203D01*
X158948200Y-128704802D01*
X158971999Y-128733801D01*
X159087724Y-128828774D01*
X159219753Y-128899346D01*
X159363014Y-128942803D01*
X159474667Y-128953800D01*
X159474675Y-128953800D01*
X159512000Y-128957476D01*
X159549325Y-128953800D01*
X161506465Y-128953800D01*
X161609111Y-129022386D01*
X161779271Y-129092868D01*
X161959911Y-129128800D01*
X162144089Y-129128800D01*
X162324729Y-129092868D01*
X162494889Y-129022386D01*
X162648028Y-128920062D01*
X162778262Y-128789828D01*
X162880586Y-128636689D01*
X162951068Y-128466529D01*
X162987000Y-128285889D01*
X162987000Y-128101711D01*
X162951068Y-127921071D01*
X162898310Y-127793702D01*
X162951068Y-127666332D01*
X162987000Y-127485692D01*
X162987000Y-127301514D01*
X162951068Y-127120874D01*
X162898350Y-126993602D01*
X162951068Y-126866329D01*
X162987000Y-126685689D01*
X162987000Y-126501511D01*
X162951068Y-126320871D01*
X162895700Y-126187200D01*
X162951068Y-126053529D01*
X162987000Y-125872889D01*
X162987000Y-125688711D01*
X162951068Y-125508071D01*
X162880586Y-125337911D01*
X162778262Y-125184772D01*
X162648028Y-125054538D01*
X162494889Y-124952214D01*
X162324729Y-124881732D01*
X162144089Y-124845800D01*
X162100800Y-124845800D01*
X162100800Y-119747522D01*
X162104476Y-119710199D01*
X162100800Y-119672876D01*
X162100800Y-119672867D01*
X162089803Y-119561214D01*
X162046346Y-119417953D01*
X162029314Y-119386088D01*
X161975774Y-119285923D01*
X161904599Y-119199197D01*
X161880801Y-119170199D01*
X161851803Y-119146401D01*
X160266304Y-117560903D01*
X160242501Y-117531899D01*
X160126776Y-117436926D01*
X159994747Y-117366354D01*
X159851486Y-117322897D01*
X159739833Y-117311900D01*
X159739822Y-117311900D01*
X159702500Y-117308224D01*
X159665178Y-117311900D01*
X156548638Y-117311900D01*
X156523102Y-117227720D01*
X156478993Y-117145200D01*
X185310253Y-117145200D01*
X185435832Y-117157513D01*
G37*
%TD.AperFunction*%
D15*
X160098201Y-122107803D02*
X160098201Y-123659587D01*
X160090546Y-123634353D01*
X160019974Y-123502324D01*
X159925001Y-123386599D01*
X159896002Y-123362801D01*
X159174103Y-122640902D01*
X159150301Y-122611899D01*
X159034576Y-122516926D01*
X158902547Y-122446354D01*
X158759286Y-122402897D01*
X158647633Y-122391900D01*
X158647622Y-122391900D01*
X158610300Y-122388224D01*
X158572978Y-122391900D01*
X156548638Y-122391900D01*
X156523102Y-122307720D01*
X156464137Y-122197406D01*
X156384785Y-122100715D01*
X156288094Y-122021363D01*
X156177780Y-121962398D01*
X156058082Y-121926088D01*
X155933600Y-121913828D01*
X153281200Y-121913828D01*
X153281200Y-121849972D01*
X155933600Y-121849972D01*
X156058082Y-121837712D01*
X156177780Y-121801402D01*
X156288094Y-121742437D01*
X156384785Y-121663085D01*
X156464137Y-121566394D01*
X156523102Y-121456080D01*
X156548638Y-121371900D01*
X159362299Y-121371900D01*
X160098201Y-122107803D01*
%TA.AperFunction,Conductor*%
D16*
G36*
X160098201Y-122107803D02*
G01*
X160098201Y-123659587D01*
X160090546Y-123634353D01*
X160019974Y-123502324D01*
X159925001Y-123386599D01*
X159896002Y-123362801D01*
X159174103Y-122640902D01*
X159150301Y-122611899D01*
X159034576Y-122516926D01*
X158902547Y-122446354D01*
X158759286Y-122402897D01*
X158647633Y-122391900D01*
X158647622Y-122391900D01*
X158610300Y-122388224D01*
X158572978Y-122391900D01*
X156548638Y-122391900D01*
X156523102Y-122307720D01*
X156464137Y-122197406D01*
X156384785Y-122100715D01*
X156288094Y-122021363D01*
X156177780Y-121962398D01*
X156058082Y-121926088D01*
X155933600Y-121913828D01*
X153281200Y-121913828D01*
X153281200Y-121849972D01*
X155933600Y-121849972D01*
X156058082Y-121837712D01*
X156177780Y-121801402D01*
X156288094Y-121742437D01*
X156384785Y-121663085D01*
X156464137Y-121566394D01*
X156523102Y-121456080D01*
X156548638Y-121371900D01*
X159362299Y-121371900D01*
X160098201Y-122107803D01*
G37*
%TD.AperFunction*%
%TD*%
M02*
