%TF.GenerationSoftware,KiCad,Pcbnew,(5.1.10)-1*%
%TF.CreationDate,2021-08-13T02:35:10+08:00*%
%TF.ProjectId,Pmod-8bitDAC-R-2R,506d6f64-2d38-4626-9974-4441432d522d,rev?*%
%TF.SameCoordinates,Original*%
%TF.FileFunction,Soldermask,Top*%
%TF.FilePolarity,Negative*%
%FSLAX46Y46*%
G04 Gerber Fmt 4.6, Leading zero omitted, Abs format (unit mm)*
G04 Created by KiCad (PCBNEW (5.1.10)-1) date 2021-08-13 02:35:10*
%MOMM*%
%LPD*%
G01*
G04 APERTURE LIST*
%ADD10C,0.250000*%
%ADD11R,3.600000X1.270000*%
%ADD12R,4.200000X1.350000*%
%ADD13R,2.500000X1.000000*%
%ADD14O,1.700000X1.700000*%
%ADD15R,1.700000X1.700000*%
G04 APERTURE END LIST*
D10*
X119134301Y-127441257D02*
X119234301Y-126641257D01*
X119220016Y-126755542D02*
X119284301Y-126698400D01*
X119405730Y-126641257D01*
X119577158Y-126641257D01*
X119684301Y-126698400D01*
X119727158Y-126812685D01*
X119648587Y-127441257D01*
X119727158Y-126812685D02*
X119798587Y-126698400D01*
X119920016Y-126641257D01*
X120091444Y-126641257D01*
X120198587Y-126698400D01*
X120241444Y-126812685D01*
X120162873Y-127441257D01*
X121248587Y-127441257D02*
X121327158Y-126812685D01*
X121284301Y-126698400D01*
X121177158Y-126641257D01*
X120948587Y-126641257D01*
X120827158Y-126698400D01*
X121255730Y-127384114D02*
X121134301Y-127441257D01*
X120848587Y-127441257D01*
X120741444Y-127384114D01*
X120698587Y-127269828D01*
X120712873Y-127155542D01*
X120784301Y-127041257D01*
X120905730Y-126984114D01*
X121191444Y-126984114D01*
X121312873Y-126926971D01*
X122434301Y-126641257D02*
X122312873Y-127612685D01*
X122241444Y-127726971D01*
X122177158Y-127784114D01*
X122055730Y-127841257D01*
X121884301Y-127841257D01*
X121777158Y-127784114D01*
X122341444Y-127384114D02*
X122220016Y-127441257D01*
X121991444Y-127441257D01*
X121884301Y-127384114D01*
X121834301Y-127326971D01*
X121791444Y-127212685D01*
X121834301Y-126869828D01*
X121905730Y-126755542D01*
X121970016Y-126698400D01*
X122091444Y-126641257D01*
X122320016Y-126641257D01*
X122427158Y-126698400D01*
X123520016Y-126641257D02*
X123420016Y-127441257D01*
X123005730Y-126641257D02*
X122927158Y-127269828D01*
X122970016Y-127384114D01*
X123077158Y-127441257D01*
X123248587Y-127441257D01*
X123370016Y-127384114D01*
X123434301Y-127326971D01*
X124505730Y-127441257D02*
X124584301Y-126812685D01*
X124541444Y-126698400D01*
X124434301Y-126641257D01*
X124205730Y-126641257D01*
X124084301Y-126698400D01*
X124512873Y-127384114D02*
X124391444Y-127441257D01*
X124105730Y-127441257D01*
X123998587Y-127384114D01*
X123955730Y-127269828D01*
X123970016Y-127155542D01*
X124041444Y-127041257D01*
X124162873Y-126984114D01*
X124448587Y-126984114D01*
X124570016Y-126926971D01*
X125334301Y-126755542D02*
X125227158Y-126698400D01*
X125177158Y-126641257D01*
X125134301Y-126526971D01*
X125141444Y-126469828D01*
X125212873Y-126355542D01*
X125277158Y-126298400D01*
X125398587Y-126241257D01*
X125627158Y-126241257D01*
X125734301Y-126298400D01*
X125784301Y-126355542D01*
X125827158Y-126469828D01*
X125820016Y-126526971D01*
X125748587Y-126641257D01*
X125684301Y-126698400D01*
X125562873Y-126755542D01*
X125334301Y-126755542D01*
X125212873Y-126812685D01*
X125148587Y-126869828D01*
X125077158Y-126984114D01*
X125048587Y-127212685D01*
X125091444Y-127326971D01*
X125141444Y-127384114D01*
X125248587Y-127441257D01*
X125477158Y-127441257D01*
X125598587Y-127384114D01*
X125662873Y-127326971D01*
X125734301Y-127212685D01*
X125762873Y-126984114D01*
X125720016Y-126869828D01*
X125670016Y-126812685D01*
X125562873Y-126755542D01*
X126598587Y-126241257D02*
X126712873Y-126241257D01*
X126820016Y-126298400D01*
X126870016Y-126355542D01*
X126912873Y-126469828D01*
X126941444Y-126698400D01*
X126905730Y-126984114D01*
X126820016Y-127212685D01*
X126748587Y-127326971D01*
X126684301Y-127384114D01*
X126562873Y-127441257D01*
X126448587Y-127441257D01*
X126341444Y-127384114D01*
X126291444Y-127326971D01*
X126248587Y-127212685D01*
X126220016Y-126984114D01*
X126255730Y-126698400D01*
X126341444Y-126469828D01*
X126412873Y-126355542D01*
X126477158Y-126298400D01*
X126598587Y-126241257D01*
X127620016Y-126755542D02*
X127512873Y-126698400D01*
X127462873Y-126641257D01*
X127420016Y-126526971D01*
X127427158Y-126469828D01*
X127498587Y-126355542D01*
X127562873Y-126298400D01*
X127684301Y-126241257D01*
X127912873Y-126241257D01*
X128020016Y-126298400D01*
X128070016Y-126355542D01*
X128112873Y-126469828D01*
X128105730Y-126526971D01*
X128034301Y-126641257D01*
X127970016Y-126698400D01*
X127848587Y-126755542D01*
X127620016Y-126755542D01*
X127498587Y-126812685D01*
X127434301Y-126869828D01*
X127362873Y-126984114D01*
X127334301Y-127212685D01*
X127377158Y-127326971D01*
X127427158Y-127384114D01*
X127534301Y-127441257D01*
X127762873Y-127441257D01*
X127884301Y-127384114D01*
X127948587Y-127326971D01*
X128020016Y-127212685D01*
X128048587Y-126984114D01*
X128005730Y-126869828D01*
X127955730Y-126812685D01*
X127848587Y-126755542D01*
X129170016Y-126241257D02*
X128941444Y-126241257D01*
X128820016Y-126298400D01*
X128755730Y-126355542D01*
X128620016Y-126526971D01*
X128534301Y-126755542D01*
X128477158Y-127212685D01*
X128520016Y-127326971D01*
X128570016Y-127384114D01*
X128677158Y-127441257D01*
X128905730Y-127441257D01*
X129027158Y-127384114D01*
X129091444Y-127326971D01*
X129162873Y-127212685D01*
X129198587Y-126926971D01*
X129155730Y-126812685D01*
X129105730Y-126755542D01*
X128998587Y-126698400D01*
X128770016Y-126698400D01*
X128648587Y-126755542D01*
X128584301Y-126812685D01*
X128512873Y-126926971D01*
D11*
%TO.C,J2*%
X146211900Y-120827800D03*
D12*
X146011900Y-118002800D03*
X146011900Y-123652800D03*
%TD*%
D13*
%TO.C,PMOD1*%
X115182400Y-114350800D03*
X115182400Y-116890800D03*
X115182400Y-119430800D03*
X115182400Y-121970800D03*
X115182400Y-124510800D03*
X115182400Y-127050800D03*
%TD*%
%TO.C,R16*%
G36*
G01*
X141649400Y-117596100D02*
X141099400Y-117596100D01*
G75*
G02*
X140899400Y-117396100I0J200000D01*
G01*
X140899400Y-116996100D01*
G75*
G02*
X141099400Y-116796100I200000J0D01*
G01*
X141649400Y-116796100D01*
G75*
G02*
X141849400Y-116996100I0J-200000D01*
G01*
X141849400Y-117396100D01*
G75*
G02*
X141649400Y-117596100I-200000J0D01*
G01*
G37*
G36*
G01*
X141649400Y-119246100D02*
X141099400Y-119246100D01*
G75*
G02*
X140899400Y-119046100I0J200000D01*
G01*
X140899400Y-118646100D01*
G75*
G02*
X141099400Y-118446100I200000J0D01*
G01*
X141649400Y-118446100D01*
G75*
G02*
X141849400Y-118646100I0J-200000D01*
G01*
X141849400Y-119046100D01*
G75*
G02*
X141649400Y-119246100I-200000J0D01*
G01*
G37*
%TD*%
%TO.C,R15*%
G36*
G01*
X141049400Y-115870400D02*
X141049400Y-115320400D01*
G75*
G02*
X141249400Y-115120400I200000J0D01*
G01*
X141649400Y-115120400D01*
G75*
G02*
X141849400Y-115320400I0J-200000D01*
G01*
X141849400Y-115870400D01*
G75*
G02*
X141649400Y-116070400I-200000J0D01*
G01*
X141249400Y-116070400D01*
G75*
G02*
X141049400Y-115870400I0J200000D01*
G01*
G37*
G36*
G01*
X139399400Y-115870400D02*
X139399400Y-115320400D01*
G75*
G02*
X139599400Y-115120400I200000J0D01*
G01*
X139999400Y-115120400D01*
G75*
G02*
X140199400Y-115320400I0J-200000D01*
G01*
X140199400Y-115870400D01*
G75*
G02*
X139999400Y-116070400I-200000J0D01*
G01*
X139599400Y-116070400D01*
G75*
G02*
X139399400Y-115870400I0J200000D01*
G01*
G37*
%TD*%
%TO.C,R14*%
G36*
G01*
X138792252Y-117596100D02*
X138242252Y-117596100D01*
G75*
G02*
X138042252Y-117396100I0J200000D01*
G01*
X138042252Y-116996100D01*
G75*
G02*
X138242252Y-116796100I200000J0D01*
G01*
X138792252Y-116796100D01*
G75*
G02*
X138992252Y-116996100I0J-200000D01*
G01*
X138992252Y-117396100D01*
G75*
G02*
X138792252Y-117596100I-200000J0D01*
G01*
G37*
G36*
G01*
X138792252Y-119246100D02*
X138242252Y-119246100D01*
G75*
G02*
X138042252Y-119046100I0J200000D01*
G01*
X138042252Y-118646100D01*
G75*
G02*
X138242252Y-118446100I200000J0D01*
G01*
X138792252Y-118446100D01*
G75*
G02*
X138992252Y-118646100I0J-200000D01*
G01*
X138992252Y-119046100D01*
G75*
G02*
X138792252Y-119246100I-200000J0D01*
G01*
G37*
%TD*%
%TO.C,R13*%
G36*
G01*
X137966065Y-115870400D02*
X137966065Y-115320400D01*
G75*
G02*
X138166065Y-115120400I200000J0D01*
G01*
X138566065Y-115120400D01*
G75*
G02*
X138766065Y-115320400I0J-200000D01*
G01*
X138766065Y-115870400D01*
G75*
G02*
X138566065Y-116070400I-200000J0D01*
G01*
X138166065Y-116070400D01*
G75*
G02*
X137966065Y-115870400I0J200000D01*
G01*
G37*
G36*
G01*
X136316065Y-115870400D02*
X136316065Y-115320400D01*
G75*
G02*
X136516065Y-115120400I200000J0D01*
G01*
X136916065Y-115120400D01*
G75*
G02*
X137116065Y-115320400I0J-200000D01*
G01*
X137116065Y-115870400D01*
G75*
G02*
X136916065Y-116070400I-200000J0D01*
G01*
X136516065Y-116070400D01*
G75*
G02*
X136316065Y-115870400I0J200000D01*
G01*
G37*
%TD*%
%TO.C,R12*%
G36*
G01*
X135935110Y-117596100D02*
X135385110Y-117596100D01*
G75*
G02*
X135185110Y-117396100I0J200000D01*
G01*
X135185110Y-116996100D01*
G75*
G02*
X135385110Y-116796100I200000J0D01*
G01*
X135935110Y-116796100D01*
G75*
G02*
X136135110Y-116996100I0J-200000D01*
G01*
X136135110Y-117396100D01*
G75*
G02*
X135935110Y-117596100I-200000J0D01*
G01*
G37*
G36*
G01*
X135935110Y-119246100D02*
X135385110Y-119246100D01*
G75*
G02*
X135185110Y-119046100I0J200000D01*
G01*
X135185110Y-118646100D01*
G75*
G02*
X135385110Y-118446100I200000J0D01*
G01*
X135935110Y-118446100D01*
G75*
G02*
X136135110Y-118646100I0J-200000D01*
G01*
X136135110Y-119046100D01*
G75*
G02*
X135935110Y-119246100I-200000J0D01*
G01*
G37*
%TD*%
%TO.C,R11*%
G36*
G01*
X134882732Y-115870400D02*
X134882732Y-115320400D01*
G75*
G02*
X135082732Y-115120400I200000J0D01*
G01*
X135482732Y-115120400D01*
G75*
G02*
X135682732Y-115320400I0J-200000D01*
G01*
X135682732Y-115870400D01*
G75*
G02*
X135482732Y-116070400I-200000J0D01*
G01*
X135082732Y-116070400D01*
G75*
G02*
X134882732Y-115870400I0J200000D01*
G01*
G37*
G36*
G01*
X133232732Y-115870400D02*
X133232732Y-115320400D01*
G75*
G02*
X133432732Y-115120400I200000J0D01*
G01*
X133832732Y-115120400D01*
G75*
G02*
X134032732Y-115320400I0J-200000D01*
G01*
X134032732Y-115870400D01*
G75*
G02*
X133832732Y-116070400I-200000J0D01*
G01*
X133432732Y-116070400D01*
G75*
G02*
X133232732Y-115870400I0J200000D01*
G01*
G37*
%TD*%
%TO.C,R10*%
G36*
G01*
X133077968Y-117596100D02*
X132527968Y-117596100D01*
G75*
G02*
X132327968Y-117396100I0J200000D01*
G01*
X132327968Y-116996100D01*
G75*
G02*
X132527968Y-116796100I200000J0D01*
G01*
X133077968Y-116796100D01*
G75*
G02*
X133277968Y-116996100I0J-200000D01*
G01*
X133277968Y-117396100D01*
G75*
G02*
X133077968Y-117596100I-200000J0D01*
G01*
G37*
G36*
G01*
X133077968Y-119246100D02*
X132527968Y-119246100D01*
G75*
G02*
X132327968Y-119046100I0J200000D01*
G01*
X132327968Y-118646100D01*
G75*
G02*
X132527968Y-118446100I200000J0D01*
G01*
X133077968Y-118446100D01*
G75*
G02*
X133277968Y-118646100I0J-200000D01*
G01*
X133277968Y-119046100D01*
G75*
G02*
X133077968Y-119246100I-200000J0D01*
G01*
G37*
%TD*%
%TO.C,R9*%
G36*
G01*
X131799399Y-115870400D02*
X131799399Y-115320400D01*
G75*
G02*
X131999399Y-115120400I200000J0D01*
G01*
X132399399Y-115120400D01*
G75*
G02*
X132599399Y-115320400I0J-200000D01*
G01*
X132599399Y-115870400D01*
G75*
G02*
X132399399Y-116070400I-200000J0D01*
G01*
X131999399Y-116070400D01*
G75*
G02*
X131799399Y-115870400I0J200000D01*
G01*
G37*
G36*
G01*
X130149399Y-115870400D02*
X130149399Y-115320400D01*
G75*
G02*
X130349399Y-115120400I200000J0D01*
G01*
X130749399Y-115120400D01*
G75*
G02*
X130949399Y-115320400I0J-200000D01*
G01*
X130949399Y-115870400D01*
G75*
G02*
X130749399Y-116070400I-200000J0D01*
G01*
X130349399Y-116070400D01*
G75*
G02*
X130149399Y-115870400I0J200000D01*
G01*
G37*
%TD*%
%TO.C,R8*%
G36*
G01*
X130220826Y-117596100D02*
X129670826Y-117596100D01*
G75*
G02*
X129470826Y-117396100I0J200000D01*
G01*
X129470826Y-116996100D01*
G75*
G02*
X129670826Y-116796100I200000J0D01*
G01*
X130220826Y-116796100D01*
G75*
G02*
X130420826Y-116996100I0J-200000D01*
G01*
X130420826Y-117396100D01*
G75*
G02*
X130220826Y-117596100I-200000J0D01*
G01*
G37*
G36*
G01*
X130220826Y-119246100D02*
X129670826Y-119246100D01*
G75*
G02*
X129470826Y-119046100I0J200000D01*
G01*
X129470826Y-118646100D01*
G75*
G02*
X129670826Y-118446100I200000J0D01*
G01*
X130220826Y-118446100D01*
G75*
G02*
X130420826Y-118646100I0J-200000D01*
G01*
X130420826Y-119046100D01*
G75*
G02*
X130220826Y-119246100I-200000J0D01*
G01*
G37*
%TD*%
%TO.C,R7*%
G36*
G01*
X128716066Y-115870400D02*
X128716066Y-115320400D01*
G75*
G02*
X128916066Y-115120400I200000J0D01*
G01*
X129316066Y-115120400D01*
G75*
G02*
X129516066Y-115320400I0J-200000D01*
G01*
X129516066Y-115870400D01*
G75*
G02*
X129316066Y-116070400I-200000J0D01*
G01*
X128916066Y-116070400D01*
G75*
G02*
X128716066Y-115870400I0J200000D01*
G01*
G37*
G36*
G01*
X127066066Y-115870400D02*
X127066066Y-115320400D01*
G75*
G02*
X127266066Y-115120400I200000J0D01*
G01*
X127666066Y-115120400D01*
G75*
G02*
X127866066Y-115320400I0J-200000D01*
G01*
X127866066Y-115870400D01*
G75*
G02*
X127666066Y-116070400I-200000J0D01*
G01*
X127266066Y-116070400D01*
G75*
G02*
X127066066Y-115870400I0J200000D01*
G01*
G37*
%TD*%
%TO.C,R6*%
G36*
G01*
X127363684Y-117596100D02*
X126813684Y-117596100D01*
G75*
G02*
X126613684Y-117396100I0J200000D01*
G01*
X126613684Y-116996100D01*
G75*
G02*
X126813684Y-116796100I200000J0D01*
G01*
X127363684Y-116796100D01*
G75*
G02*
X127563684Y-116996100I0J-200000D01*
G01*
X127563684Y-117396100D01*
G75*
G02*
X127363684Y-117596100I-200000J0D01*
G01*
G37*
G36*
G01*
X127363684Y-119246100D02*
X126813684Y-119246100D01*
G75*
G02*
X126613684Y-119046100I0J200000D01*
G01*
X126613684Y-118646100D01*
G75*
G02*
X126813684Y-118446100I200000J0D01*
G01*
X127363684Y-118446100D01*
G75*
G02*
X127563684Y-118646100I0J-200000D01*
G01*
X127563684Y-119046100D01*
G75*
G02*
X127363684Y-119246100I-200000J0D01*
G01*
G37*
%TD*%
%TO.C,R5*%
G36*
G01*
X125632733Y-115870400D02*
X125632733Y-115320400D01*
G75*
G02*
X125832733Y-115120400I200000J0D01*
G01*
X126232733Y-115120400D01*
G75*
G02*
X126432733Y-115320400I0J-200000D01*
G01*
X126432733Y-115870400D01*
G75*
G02*
X126232733Y-116070400I-200000J0D01*
G01*
X125832733Y-116070400D01*
G75*
G02*
X125632733Y-115870400I0J200000D01*
G01*
G37*
G36*
G01*
X123982733Y-115870400D02*
X123982733Y-115320400D01*
G75*
G02*
X124182733Y-115120400I200000J0D01*
G01*
X124582733Y-115120400D01*
G75*
G02*
X124782733Y-115320400I0J-200000D01*
G01*
X124782733Y-115870400D01*
G75*
G02*
X124582733Y-116070400I-200000J0D01*
G01*
X124182733Y-116070400D01*
G75*
G02*
X123982733Y-115870400I0J200000D01*
G01*
G37*
%TD*%
%TO.C,R4*%
G36*
G01*
X124506542Y-117596100D02*
X123956542Y-117596100D01*
G75*
G02*
X123756542Y-117396100I0J200000D01*
G01*
X123756542Y-116996100D01*
G75*
G02*
X123956542Y-116796100I200000J0D01*
G01*
X124506542Y-116796100D01*
G75*
G02*
X124706542Y-116996100I0J-200000D01*
G01*
X124706542Y-117396100D01*
G75*
G02*
X124506542Y-117596100I-200000J0D01*
G01*
G37*
G36*
G01*
X124506542Y-119246100D02*
X123956542Y-119246100D01*
G75*
G02*
X123756542Y-119046100I0J200000D01*
G01*
X123756542Y-118646100D01*
G75*
G02*
X123956542Y-118446100I200000J0D01*
G01*
X124506542Y-118446100D01*
G75*
G02*
X124706542Y-118646100I0J-200000D01*
G01*
X124706542Y-119046100D01*
G75*
G02*
X124506542Y-119246100I-200000J0D01*
G01*
G37*
%TD*%
%TO.C,R3*%
G36*
G01*
X122549400Y-115870400D02*
X122549400Y-115320400D01*
G75*
G02*
X122749400Y-115120400I200000J0D01*
G01*
X123149400Y-115120400D01*
G75*
G02*
X123349400Y-115320400I0J-200000D01*
G01*
X123349400Y-115870400D01*
G75*
G02*
X123149400Y-116070400I-200000J0D01*
G01*
X122749400Y-116070400D01*
G75*
G02*
X122549400Y-115870400I0J200000D01*
G01*
G37*
G36*
G01*
X120899400Y-115870400D02*
X120899400Y-115320400D01*
G75*
G02*
X121099400Y-115120400I200000J0D01*
G01*
X121499400Y-115120400D01*
G75*
G02*
X121699400Y-115320400I0J-200000D01*
G01*
X121699400Y-115870400D01*
G75*
G02*
X121499400Y-116070400I-200000J0D01*
G01*
X121099400Y-116070400D01*
G75*
G02*
X120899400Y-115870400I0J200000D01*
G01*
G37*
%TD*%
%TO.C,R2*%
G36*
G01*
X118612100Y-115320400D02*
X118612100Y-115870400D01*
G75*
G02*
X118412100Y-116070400I-200000J0D01*
G01*
X118012100Y-116070400D01*
G75*
G02*
X117812100Y-115870400I0J200000D01*
G01*
X117812100Y-115320400D01*
G75*
G02*
X118012100Y-115120400I200000J0D01*
G01*
X118412100Y-115120400D01*
G75*
G02*
X118612100Y-115320400I0J-200000D01*
G01*
G37*
G36*
G01*
X120262100Y-115320400D02*
X120262100Y-115870400D01*
G75*
G02*
X120062100Y-116070400I-200000J0D01*
G01*
X119662100Y-116070400D01*
G75*
G02*
X119462100Y-115870400I0J200000D01*
G01*
X119462100Y-115320400D01*
G75*
G02*
X119662100Y-115120400I200000J0D01*
G01*
X120062100Y-115120400D01*
G75*
G02*
X120262100Y-115320400I0J-200000D01*
G01*
G37*
%TD*%
%TO.C,R1*%
G36*
G01*
X121649400Y-117596100D02*
X121099400Y-117596100D01*
G75*
G02*
X120899400Y-117396100I0J200000D01*
G01*
X120899400Y-116996100D01*
G75*
G02*
X121099400Y-116796100I200000J0D01*
G01*
X121649400Y-116796100D01*
G75*
G02*
X121849400Y-116996100I0J-200000D01*
G01*
X121849400Y-117396100D01*
G75*
G02*
X121649400Y-117596100I-200000J0D01*
G01*
G37*
G36*
G01*
X121649400Y-119246100D02*
X121099400Y-119246100D01*
G75*
G02*
X120899400Y-119046100I0J200000D01*
G01*
X120899400Y-118646100D01*
G75*
G02*
X121099400Y-118446100I200000J0D01*
G01*
X121649400Y-118446100D01*
G75*
G02*
X121849400Y-118646100I0J-200000D01*
G01*
X121849400Y-119046100D01*
G75*
G02*
X121649400Y-119246100I-200000J0D01*
G01*
G37*
%TD*%
D14*
%TO.C,J1*%
X141185900Y-126123700D03*
D15*
X141185900Y-123583700D03*
%TD*%
M02*
