M48
; DRILL file {KiCad (5.1.10)-1} date 08/13/21 02:35:12
; FORMAT={-:-/ absolute / inch / decimal}
; #@! TF.CreationDate,2021-08-13T02:35:12+08:00
; #@! TF.GenerationSoftware,Kicad,Pcbnew,(5.1.10)-1
; #@! TF.FileFunction,Plated,1,2,PTH
FMAT,2
INCH
T1C0.0157
T2C0.0394
%
G90
G05
T1
X4.6135Y-4.551
X4.6135Y-4.651
X4.6135Y-4.751
X4.6135Y-4.851
X4.6135Y-4.951
X4.869Y-4.492
X4.991Y-4.492
X5.1131Y-4.492
X5.186Y-4.679
X5.2335Y-4.492
X5.298Y-4.679
X5.3545Y-4.492
X5.409Y-4.679
X5.4795Y-4.492
X5.522Y-4.679
X5.677Y-4.5675
X5.679Y-4.9395
X5.7242Y-4.5675
X5.7262Y-4.9395
X5.7715Y-4.5675
X5.7735Y-4.9395
X5.8187Y-4.5675
X5.8207Y-4.9395
T2
X5.5585Y-4.8655
X5.5585Y-4.9655
T0
M30
