%TF.GenerationSoftware,KiCad,Pcbnew,(5.1.10)-1*%
%TF.CreationDate,2021-08-13T02:35:10+08:00*%
%TF.ProjectId,Pmod-8bitDAC-R-2R,506d6f64-2d38-4626-9974-4441432d522d,rev?*%
%TF.SameCoordinates,Original*%
%TF.FileFunction,Copper,L1,Top*%
%TF.FilePolarity,Positive*%
%FSLAX46Y46*%
G04 Gerber Fmt 4.6, Leading zero omitted, Abs format (unit mm)*
G04 Created by KiCad (PCBNEW (5.1.10)-1) date 2021-08-13 02:35:10*
%MOMM*%
%LPD*%
G01*
G04 APERTURE LIST*
%TA.AperFunction,NonConductor*%
%ADD10C,0.250000*%
%TD*%
%TA.AperFunction,SMDPad,CuDef*%
%ADD11R,3.600000X1.270000*%
%TD*%
%TA.AperFunction,SMDPad,CuDef*%
%ADD12R,4.200000X1.350000*%
%TD*%
%TA.AperFunction,SMDPad,CuDef*%
%ADD13R,2.500000X1.000000*%
%TD*%
%TA.AperFunction,ComponentPad*%
%ADD14O,1.700000X1.700000*%
%TD*%
%TA.AperFunction,ComponentPad*%
%ADD15R,1.700000X1.700000*%
%TD*%
%TA.AperFunction,ViaPad*%
%ADD16C,0.800000*%
%TD*%
%TA.AperFunction,Conductor*%
%ADD17C,0.250000*%
%TD*%
%TA.AperFunction,Conductor*%
%ADD18C,0.254000*%
%TD*%
%TA.AperFunction,Conductor*%
%ADD19C,0.100000*%
%TD*%
G04 APERTURE END LIST*
D10*
X119134301Y-127441257D02*
X119234301Y-126641257D01*
X119220016Y-126755542D02*
X119284301Y-126698400D01*
X119405730Y-126641257D01*
X119577158Y-126641257D01*
X119684301Y-126698400D01*
X119727158Y-126812685D01*
X119648587Y-127441257D01*
X119727158Y-126812685D02*
X119798587Y-126698400D01*
X119920016Y-126641257D01*
X120091444Y-126641257D01*
X120198587Y-126698400D01*
X120241444Y-126812685D01*
X120162873Y-127441257D01*
X121248587Y-127441257D02*
X121327158Y-126812685D01*
X121284301Y-126698400D01*
X121177158Y-126641257D01*
X120948587Y-126641257D01*
X120827158Y-126698400D01*
X121255730Y-127384114D02*
X121134301Y-127441257D01*
X120848587Y-127441257D01*
X120741444Y-127384114D01*
X120698587Y-127269828D01*
X120712873Y-127155542D01*
X120784301Y-127041257D01*
X120905730Y-126984114D01*
X121191444Y-126984114D01*
X121312873Y-126926971D01*
X122434301Y-126641257D02*
X122312873Y-127612685D01*
X122241444Y-127726971D01*
X122177158Y-127784114D01*
X122055730Y-127841257D01*
X121884301Y-127841257D01*
X121777158Y-127784114D01*
X122341444Y-127384114D02*
X122220016Y-127441257D01*
X121991444Y-127441257D01*
X121884301Y-127384114D01*
X121834301Y-127326971D01*
X121791444Y-127212685D01*
X121834301Y-126869828D01*
X121905730Y-126755542D01*
X121970016Y-126698400D01*
X122091444Y-126641257D01*
X122320016Y-126641257D01*
X122427158Y-126698400D01*
X123520016Y-126641257D02*
X123420016Y-127441257D01*
X123005730Y-126641257D02*
X122927158Y-127269828D01*
X122970016Y-127384114D01*
X123077158Y-127441257D01*
X123248587Y-127441257D01*
X123370016Y-127384114D01*
X123434301Y-127326971D01*
X124505730Y-127441257D02*
X124584301Y-126812685D01*
X124541444Y-126698400D01*
X124434301Y-126641257D01*
X124205730Y-126641257D01*
X124084301Y-126698400D01*
X124512873Y-127384114D02*
X124391444Y-127441257D01*
X124105730Y-127441257D01*
X123998587Y-127384114D01*
X123955730Y-127269828D01*
X123970016Y-127155542D01*
X124041444Y-127041257D01*
X124162873Y-126984114D01*
X124448587Y-126984114D01*
X124570016Y-126926971D01*
X125334301Y-126755542D02*
X125227158Y-126698400D01*
X125177158Y-126641257D01*
X125134301Y-126526971D01*
X125141444Y-126469828D01*
X125212873Y-126355542D01*
X125277158Y-126298400D01*
X125398587Y-126241257D01*
X125627158Y-126241257D01*
X125734301Y-126298400D01*
X125784301Y-126355542D01*
X125827158Y-126469828D01*
X125820016Y-126526971D01*
X125748587Y-126641257D01*
X125684301Y-126698400D01*
X125562873Y-126755542D01*
X125334301Y-126755542D01*
X125212873Y-126812685D01*
X125148587Y-126869828D01*
X125077158Y-126984114D01*
X125048587Y-127212685D01*
X125091444Y-127326971D01*
X125141444Y-127384114D01*
X125248587Y-127441257D01*
X125477158Y-127441257D01*
X125598587Y-127384114D01*
X125662873Y-127326971D01*
X125734301Y-127212685D01*
X125762873Y-126984114D01*
X125720016Y-126869828D01*
X125670016Y-126812685D01*
X125562873Y-126755542D01*
X126598587Y-126241257D02*
X126712873Y-126241257D01*
X126820016Y-126298400D01*
X126870016Y-126355542D01*
X126912873Y-126469828D01*
X126941444Y-126698400D01*
X126905730Y-126984114D01*
X126820016Y-127212685D01*
X126748587Y-127326971D01*
X126684301Y-127384114D01*
X126562873Y-127441257D01*
X126448587Y-127441257D01*
X126341444Y-127384114D01*
X126291444Y-127326971D01*
X126248587Y-127212685D01*
X126220016Y-126984114D01*
X126255730Y-126698400D01*
X126341444Y-126469828D01*
X126412873Y-126355542D01*
X126477158Y-126298400D01*
X126598587Y-126241257D01*
X127620016Y-126755542D02*
X127512873Y-126698400D01*
X127462873Y-126641257D01*
X127420016Y-126526971D01*
X127427158Y-126469828D01*
X127498587Y-126355542D01*
X127562873Y-126298400D01*
X127684301Y-126241257D01*
X127912873Y-126241257D01*
X128020016Y-126298400D01*
X128070016Y-126355542D01*
X128112873Y-126469828D01*
X128105730Y-126526971D01*
X128034301Y-126641257D01*
X127970016Y-126698400D01*
X127848587Y-126755542D01*
X127620016Y-126755542D01*
X127498587Y-126812685D01*
X127434301Y-126869828D01*
X127362873Y-126984114D01*
X127334301Y-127212685D01*
X127377158Y-127326971D01*
X127427158Y-127384114D01*
X127534301Y-127441257D01*
X127762873Y-127441257D01*
X127884301Y-127384114D01*
X127948587Y-127326971D01*
X128020016Y-127212685D01*
X128048587Y-126984114D01*
X128005730Y-126869828D01*
X127955730Y-126812685D01*
X127848587Y-126755542D01*
X129170016Y-126241257D02*
X128941444Y-126241257D01*
X128820016Y-126298400D01*
X128755730Y-126355542D01*
X128620016Y-126526971D01*
X128534301Y-126755542D01*
X128477158Y-127212685D01*
X128520016Y-127326971D01*
X128570016Y-127384114D01*
X128677158Y-127441257D01*
X128905730Y-127441257D01*
X129027158Y-127384114D01*
X129091444Y-127326971D01*
X129162873Y-127212685D01*
X129198587Y-126926971D01*
X129155730Y-126812685D01*
X129105730Y-126755542D01*
X128998587Y-126698400D01*
X128770016Y-126698400D01*
X128648587Y-126755542D01*
X128584301Y-126812685D01*
X128512873Y-126926971D01*
D11*
%TO.P,J2,1*%
%TO.N,VOUT*%
X146211900Y-120827800D03*
D12*
%TO.P,J2,2*%
%TO.N,GND*%
X146011900Y-118002800D03*
X146011900Y-123652800D03*
%TD*%
D13*
%TO.P,PMOD1,1*%
%TO.N,D0*%
X115182400Y-114350800D03*
%TO.P,PMOD1,2*%
%TO.N,D1*%
X115182400Y-116890800D03*
%TO.P,PMOD1,3*%
%TO.N,D2*%
X115182400Y-119430800D03*
%TO.P,PMOD1,4*%
%TO.N,D3*%
X115182400Y-121970800D03*
%TO.P,PMOD1,5*%
%TO.N,GND*%
X115182400Y-124510800D03*
%TO.P,PMOD1,6*%
%TO.N,+3V3*%
X115182400Y-127050800D03*
%TD*%
%TO.P,R16,2*%
%TO.N,VOUT*%
%TA.AperFunction,SMDPad,CuDef*%
G36*
G01*
X141649400Y-117596100D02*
X141099400Y-117596100D01*
G75*
G02*
X140899400Y-117396100I0J200000D01*
G01*
X140899400Y-116996100D01*
G75*
G02*
X141099400Y-116796100I200000J0D01*
G01*
X141649400Y-116796100D01*
G75*
G02*
X141849400Y-116996100I0J-200000D01*
G01*
X141849400Y-117396100D01*
G75*
G02*
X141649400Y-117596100I-200000J0D01*
G01*
G37*
%TD.AperFunction*%
%TO.P,R16,1*%
%TO.N,D7*%
%TA.AperFunction,SMDPad,CuDef*%
G36*
G01*
X141649400Y-119246100D02*
X141099400Y-119246100D01*
G75*
G02*
X140899400Y-119046100I0J200000D01*
G01*
X140899400Y-118646100D01*
G75*
G02*
X141099400Y-118446100I200000J0D01*
G01*
X141649400Y-118446100D01*
G75*
G02*
X141849400Y-118646100I0J-200000D01*
G01*
X141849400Y-119046100D01*
G75*
G02*
X141649400Y-119246100I-200000J0D01*
G01*
G37*
%TD.AperFunction*%
%TD*%
%TO.P,R15,2*%
%TO.N,VOUT*%
%TA.AperFunction,SMDPad,CuDef*%
G36*
G01*
X141049400Y-115870400D02*
X141049400Y-115320400D01*
G75*
G02*
X141249400Y-115120400I200000J0D01*
G01*
X141649400Y-115120400D01*
G75*
G02*
X141849400Y-115320400I0J-200000D01*
G01*
X141849400Y-115870400D01*
G75*
G02*
X141649400Y-116070400I-200000J0D01*
G01*
X141249400Y-116070400D01*
G75*
G02*
X141049400Y-115870400I0J200000D01*
G01*
G37*
%TD.AperFunction*%
%TO.P,R15,1*%
%TO.N,Net-(R13-Pad2)*%
%TA.AperFunction,SMDPad,CuDef*%
G36*
G01*
X139399400Y-115870400D02*
X139399400Y-115320400D01*
G75*
G02*
X139599400Y-115120400I200000J0D01*
G01*
X139999400Y-115120400D01*
G75*
G02*
X140199400Y-115320400I0J-200000D01*
G01*
X140199400Y-115870400D01*
G75*
G02*
X139999400Y-116070400I-200000J0D01*
G01*
X139599400Y-116070400D01*
G75*
G02*
X139399400Y-115870400I0J200000D01*
G01*
G37*
%TD.AperFunction*%
%TD*%
%TO.P,R14,2*%
%TO.N,Net-(R13-Pad2)*%
%TA.AperFunction,SMDPad,CuDef*%
G36*
G01*
X138792252Y-117596100D02*
X138242252Y-117596100D01*
G75*
G02*
X138042252Y-117396100I0J200000D01*
G01*
X138042252Y-116996100D01*
G75*
G02*
X138242252Y-116796100I200000J0D01*
G01*
X138792252Y-116796100D01*
G75*
G02*
X138992252Y-116996100I0J-200000D01*
G01*
X138992252Y-117396100D01*
G75*
G02*
X138792252Y-117596100I-200000J0D01*
G01*
G37*
%TD.AperFunction*%
%TO.P,R14,1*%
%TO.N,D6*%
%TA.AperFunction,SMDPad,CuDef*%
G36*
G01*
X138792252Y-119246100D02*
X138242252Y-119246100D01*
G75*
G02*
X138042252Y-119046100I0J200000D01*
G01*
X138042252Y-118646100D01*
G75*
G02*
X138242252Y-118446100I200000J0D01*
G01*
X138792252Y-118446100D01*
G75*
G02*
X138992252Y-118646100I0J-200000D01*
G01*
X138992252Y-119046100D01*
G75*
G02*
X138792252Y-119246100I-200000J0D01*
G01*
G37*
%TD.AperFunction*%
%TD*%
%TO.P,R13,2*%
%TO.N,Net-(R13-Pad2)*%
%TA.AperFunction,SMDPad,CuDef*%
G36*
G01*
X137966065Y-115870400D02*
X137966065Y-115320400D01*
G75*
G02*
X138166065Y-115120400I200000J0D01*
G01*
X138566065Y-115120400D01*
G75*
G02*
X138766065Y-115320400I0J-200000D01*
G01*
X138766065Y-115870400D01*
G75*
G02*
X138566065Y-116070400I-200000J0D01*
G01*
X138166065Y-116070400D01*
G75*
G02*
X137966065Y-115870400I0J200000D01*
G01*
G37*
%TD.AperFunction*%
%TO.P,R13,1*%
%TO.N,Net-(R11-Pad2)*%
%TA.AperFunction,SMDPad,CuDef*%
G36*
G01*
X136316065Y-115870400D02*
X136316065Y-115320400D01*
G75*
G02*
X136516065Y-115120400I200000J0D01*
G01*
X136916065Y-115120400D01*
G75*
G02*
X137116065Y-115320400I0J-200000D01*
G01*
X137116065Y-115870400D01*
G75*
G02*
X136916065Y-116070400I-200000J0D01*
G01*
X136516065Y-116070400D01*
G75*
G02*
X136316065Y-115870400I0J200000D01*
G01*
G37*
%TD.AperFunction*%
%TD*%
%TO.P,R12,2*%
%TO.N,Net-(R11-Pad2)*%
%TA.AperFunction,SMDPad,CuDef*%
G36*
G01*
X135935110Y-117596100D02*
X135385110Y-117596100D01*
G75*
G02*
X135185110Y-117396100I0J200000D01*
G01*
X135185110Y-116996100D01*
G75*
G02*
X135385110Y-116796100I200000J0D01*
G01*
X135935110Y-116796100D01*
G75*
G02*
X136135110Y-116996100I0J-200000D01*
G01*
X136135110Y-117396100D01*
G75*
G02*
X135935110Y-117596100I-200000J0D01*
G01*
G37*
%TD.AperFunction*%
%TO.P,R12,1*%
%TO.N,D5*%
%TA.AperFunction,SMDPad,CuDef*%
G36*
G01*
X135935110Y-119246100D02*
X135385110Y-119246100D01*
G75*
G02*
X135185110Y-119046100I0J200000D01*
G01*
X135185110Y-118646100D01*
G75*
G02*
X135385110Y-118446100I200000J0D01*
G01*
X135935110Y-118446100D01*
G75*
G02*
X136135110Y-118646100I0J-200000D01*
G01*
X136135110Y-119046100D01*
G75*
G02*
X135935110Y-119246100I-200000J0D01*
G01*
G37*
%TD.AperFunction*%
%TD*%
%TO.P,R11,2*%
%TO.N,Net-(R11-Pad2)*%
%TA.AperFunction,SMDPad,CuDef*%
G36*
G01*
X134882732Y-115870400D02*
X134882732Y-115320400D01*
G75*
G02*
X135082732Y-115120400I200000J0D01*
G01*
X135482732Y-115120400D01*
G75*
G02*
X135682732Y-115320400I0J-200000D01*
G01*
X135682732Y-115870400D01*
G75*
G02*
X135482732Y-116070400I-200000J0D01*
G01*
X135082732Y-116070400D01*
G75*
G02*
X134882732Y-115870400I0J200000D01*
G01*
G37*
%TD.AperFunction*%
%TO.P,R11,1*%
%TO.N,Net-(R10-Pad2)*%
%TA.AperFunction,SMDPad,CuDef*%
G36*
G01*
X133232732Y-115870400D02*
X133232732Y-115320400D01*
G75*
G02*
X133432732Y-115120400I200000J0D01*
G01*
X133832732Y-115120400D01*
G75*
G02*
X134032732Y-115320400I0J-200000D01*
G01*
X134032732Y-115870400D01*
G75*
G02*
X133832732Y-116070400I-200000J0D01*
G01*
X133432732Y-116070400D01*
G75*
G02*
X133232732Y-115870400I0J200000D01*
G01*
G37*
%TD.AperFunction*%
%TD*%
%TO.P,R10,2*%
%TO.N,Net-(R10-Pad2)*%
%TA.AperFunction,SMDPad,CuDef*%
G36*
G01*
X133077968Y-117596100D02*
X132527968Y-117596100D01*
G75*
G02*
X132327968Y-117396100I0J200000D01*
G01*
X132327968Y-116996100D01*
G75*
G02*
X132527968Y-116796100I200000J0D01*
G01*
X133077968Y-116796100D01*
G75*
G02*
X133277968Y-116996100I0J-200000D01*
G01*
X133277968Y-117396100D01*
G75*
G02*
X133077968Y-117596100I-200000J0D01*
G01*
G37*
%TD.AperFunction*%
%TO.P,R10,1*%
%TO.N,D4*%
%TA.AperFunction,SMDPad,CuDef*%
G36*
G01*
X133077968Y-119246100D02*
X132527968Y-119246100D01*
G75*
G02*
X132327968Y-119046100I0J200000D01*
G01*
X132327968Y-118646100D01*
G75*
G02*
X132527968Y-118446100I200000J0D01*
G01*
X133077968Y-118446100D01*
G75*
G02*
X133277968Y-118646100I0J-200000D01*
G01*
X133277968Y-119046100D01*
G75*
G02*
X133077968Y-119246100I-200000J0D01*
G01*
G37*
%TD.AperFunction*%
%TD*%
%TO.P,R9,2*%
%TO.N,Net-(R10-Pad2)*%
%TA.AperFunction,SMDPad,CuDef*%
G36*
G01*
X131799399Y-115870400D02*
X131799399Y-115320400D01*
G75*
G02*
X131999399Y-115120400I200000J0D01*
G01*
X132399399Y-115120400D01*
G75*
G02*
X132599399Y-115320400I0J-200000D01*
G01*
X132599399Y-115870400D01*
G75*
G02*
X132399399Y-116070400I-200000J0D01*
G01*
X131999399Y-116070400D01*
G75*
G02*
X131799399Y-115870400I0J200000D01*
G01*
G37*
%TD.AperFunction*%
%TO.P,R9,1*%
%TO.N,Net-(R7-Pad2)*%
%TA.AperFunction,SMDPad,CuDef*%
G36*
G01*
X130149399Y-115870400D02*
X130149399Y-115320400D01*
G75*
G02*
X130349399Y-115120400I200000J0D01*
G01*
X130749399Y-115120400D01*
G75*
G02*
X130949399Y-115320400I0J-200000D01*
G01*
X130949399Y-115870400D01*
G75*
G02*
X130749399Y-116070400I-200000J0D01*
G01*
X130349399Y-116070400D01*
G75*
G02*
X130149399Y-115870400I0J200000D01*
G01*
G37*
%TD.AperFunction*%
%TD*%
%TO.P,R8,2*%
%TO.N,Net-(R7-Pad2)*%
%TA.AperFunction,SMDPad,CuDef*%
G36*
G01*
X130220826Y-117596100D02*
X129670826Y-117596100D01*
G75*
G02*
X129470826Y-117396100I0J200000D01*
G01*
X129470826Y-116996100D01*
G75*
G02*
X129670826Y-116796100I200000J0D01*
G01*
X130220826Y-116796100D01*
G75*
G02*
X130420826Y-116996100I0J-200000D01*
G01*
X130420826Y-117396100D01*
G75*
G02*
X130220826Y-117596100I-200000J0D01*
G01*
G37*
%TD.AperFunction*%
%TO.P,R8,1*%
%TO.N,D3*%
%TA.AperFunction,SMDPad,CuDef*%
G36*
G01*
X130220826Y-119246100D02*
X129670826Y-119246100D01*
G75*
G02*
X129470826Y-119046100I0J200000D01*
G01*
X129470826Y-118646100D01*
G75*
G02*
X129670826Y-118446100I200000J0D01*
G01*
X130220826Y-118446100D01*
G75*
G02*
X130420826Y-118646100I0J-200000D01*
G01*
X130420826Y-119046100D01*
G75*
G02*
X130220826Y-119246100I-200000J0D01*
G01*
G37*
%TD.AperFunction*%
%TD*%
%TO.P,R7,2*%
%TO.N,Net-(R7-Pad2)*%
%TA.AperFunction,SMDPad,CuDef*%
G36*
G01*
X128716066Y-115870400D02*
X128716066Y-115320400D01*
G75*
G02*
X128916066Y-115120400I200000J0D01*
G01*
X129316066Y-115120400D01*
G75*
G02*
X129516066Y-115320400I0J-200000D01*
G01*
X129516066Y-115870400D01*
G75*
G02*
X129316066Y-116070400I-200000J0D01*
G01*
X128916066Y-116070400D01*
G75*
G02*
X128716066Y-115870400I0J200000D01*
G01*
G37*
%TD.AperFunction*%
%TO.P,R7,1*%
%TO.N,Net-(R5-Pad2)*%
%TA.AperFunction,SMDPad,CuDef*%
G36*
G01*
X127066066Y-115870400D02*
X127066066Y-115320400D01*
G75*
G02*
X127266066Y-115120400I200000J0D01*
G01*
X127666066Y-115120400D01*
G75*
G02*
X127866066Y-115320400I0J-200000D01*
G01*
X127866066Y-115870400D01*
G75*
G02*
X127666066Y-116070400I-200000J0D01*
G01*
X127266066Y-116070400D01*
G75*
G02*
X127066066Y-115870400I0J200000D01*
G01*
G37*
%TD.AperFunction*%
%TD*%
%TO.P,R6,2*%
%TO.N,Net-(R5-Pad2)*%
%TA.AperFunction,SMDPad,CuDef*%
G36*
G01*
X127363684Y-117596100D02*
X126813684Y-117596100D01*
G75*
G02*
X126613684Y-117396100I0J200000D01*
G01*
X126613684Y-116996100D01*
G75*
G02*
X126813684Y-116796100I200000J0D01*
G01*
X127363684Y-116796100D01*
G75*
G02*
X127563684Y-116996100I0J-200000D01*
G01*
X127563684Y-117396100D01*
G75*
G02*
X127363684Y-117596100I-200000J0D01*
G01*
G37*
%TD.AperFunction*%
%TO.P,R6,1*%
%TO.N,D2*%
%TA.AperFunction,SMDPad,CuDef*%
G36*
G01*
X127363684Y-119246100D02*
X126813684Y-119246100D01*
G75*
G02*
X126613684Y-119046100I0J200000D01*
G01*
X126613684Y-118646100D01*
G75*
G02*
X126813684Y-118446100I200000J0D01*
G01*
X127363684Y-118446100D01*
G75*
G02*
X127563684Y-118646100I0J-200000D01*
G01*
X127563684Y-119046100D01*
G75*
G02*
X127363684Y-119246100I-200000J0D01*
G01*
G37*
%TD.AperFunction*%
%TD*%
%TO.P,R5,2*%
%TO.N,Net-(R5-Pad2)*%
%TA.AperFunction,SMDPad,CuDef*%
G36*
G01*
X125632733Y-115870400D02*
X125632733Y-115320400D01*
G75*
G02*
X125832733Y-115120400I200000J0D01*
G01*
X126232733Y-115120400D01*
G75*
G02*
X126432733Y-115320400I0J-200000D01*
G01*
X126432733Y-115870400D01*
G75*
G02*
X126232733Y-116070400I-200000J0D01*
G01*
X125832733Y-116070400D01*
G75*
G02*
X125632733Y-115870400I0J200000D01*
G01*
G37*
%TD.AperFunction*%
%TO.P,R5,1*%
%TO.N,Net-(R3-Pad2)*%
%TA.AperFunction,SMDPad,CuDef*%
G36*
G01*
X123982733Y-115870400D02*
X123982733Y-115320400D01*
G75*
G02*
X124182733Y-115120400I200000J0D01*
G01*
X124582733Y-115120400D01*
G75*
G02*
X124782733Y-115320400I0J-200000D01*
G01*
X124782733Y-115870400D01*
G75*
G02*
X124582733Y-116070400I-200000J0D01*
G01*
X124182733Y-116070400D01*
G75*
G02*
X123982733Y-115870400I0J200000D01*
G01*
G37*
%TD.AperFunction*%
%TD*%
%TO.P,R4,2*%
%TO.N,Net-(R3-Pad2)*%
%TA.AperFunction,SMDPad,CuDef*%
G36*
G01*
X124506542Y-117596100D02*
X123956542Y-117596100D01*
G75*
G02*
X123756542Y-117396100I0J200000D01*
G01*
X123756542Y-116996100D01*
G75*
G02*
X123956542Y-116796100I200000J0D01*
G01*
X124506542Y-116796100D01*
G75*
G02*
X124706542Y-116996100I0J-200000D01*
G01*
X124706542Y-117396100D01*
G75*
G02*
X124506542Y-117596100I-200000J0D01*
G01*
G37*
%TD.AperFunction*%
%TO.P,R4,1*%
%TO.N,D1*%
%TA.AperFunction,SMDPad,CuDef*%
G36*
G01*
X124506542Y-119246100D02*
X123956542Y-119246100D01*
G75*
G02*
X123756542Y-119046100I0J200000D01*
G01*
X123756542Y-118646100D01*
G75*
G02*
X123956542Y-118446100I200000J0D01*
G01*
X124506542Y-118446100D01*
G75*
G02*
X124706542Y-118646100I0J-200000D01*
G01*
X124706542Y-119046100D01*
G75*
G02*
X124506542Y-119246100I-200000J0D01*
G01*
G37*
%TD.AperFunction*%
%TD*%
%TO.P,R3,2*%
%TO.N,Net-(R3-Pad2)*%
%TA.AperFunction,SMDPad,CuDef*%
G36*
G01*
X122549400Y-115870400D02*
X122549400Y-115320400D01*
G75*
G02*
X122749400Y-115120400I200000J0D01*
G01*
X123149400Y-115120400D01*
G75*
G02*
X123349400Y-115320400I0J-200000D01*
G01*
X123349400Y-115870400D01*
G75*
G02*
X123149400Y-116070400I-200000J0D01*
G01*
X122749400Y-116070400D01*
G75*
G02*
X122549400Y-115870400I0J200000D01*
G01*
G37*
%TD.AperFunction*%
%TO.P,R3,1*%
%TO.N,Net-(R1-Pad2)*%
%TA.AperFunction,SMDPad,CuDef*%
G36*
G01*
X120899400Y-115870400D02*
X120899400Y-115320400D01*
G75*
G02*
X121099400Y-115120400I200000J0D01*
G01*
X121499400Y-115120400D01*
G75*
G02*
X121699400Y-115320400I0J-200000D01*
G01*
X121699400Y-115870400D01*
G75*
G02*
X121499400Y-116070400I-200000J0D01*
G01*
X121099400Y-116070400D01*
G75*
G02*
X120899400Y-115870400I0J200000D01*
G01*
G37*
%TD.AperFunction*%
%TD*%
%TO.P,R2,2*%
%TO.N,GND*%
%TA.AperFunction,SMDPad,CuDef*%
G36*
G01*
X118612100Y-115320400D02*
X118612100Y-115870400D01*
G75*
G02*
X118412100Y-116070400I-200000J0D01*
G01*
X118012100Y-116070400D01*
G75*
G02*
X117812100Y-115870400I0J200000D01*
G01*
X117812100Y-115320400D01*
G75*
G02*
X118012100Y-115120400I200000J0D01*
G01*
X118412100Y-115120400D01*
G75*
G02*
X118612100Y-115320400I0J-200000D01*
G01*
G37*
%TD.AperFunction*%
%TO.P,R2,1*%
%TO.N,Net-(R1-Pad2)*%
%TA.AperFunction,SMDPad,CuDef*%
G36*
G01*
X120262100Y-115320400D02*
X120262100Y-115870400D01*
G75*
G02*
X120062100Y-116070400I-200000J0D01*
G01*
X119662100Y-116070400D01*
G75*
G02*
X119462100Y-115870400I0J200000D01*
G01*
X119462100Y-115320400D01*
G75*
G02*
X119662100Y-115120400I200000J0D01*
G01*
X120062100Y-115120400D01*
G75*
G02*
X120262100Y-115320400I0J-200000D01*
G01*
G37*
%TD.AperFunction*%
%TD*%
%TO.P,R1,2*%
%TO.N,Net-(R1-Pad2)*%
%TA.AperFunction,SMDPad,CuDef*%
G36*
G01*
X121649400Y-117596100D02*
X121099400Y-117596100D01*
G75*
G02*
X120899400Y-117396100I0J200000D01*
G01*
X120899400Y-116996100D01*
G75*
G02*
X121099400Y-116796100I200000J0D01*
G01*
X121649400Y-116796100D01*
G75*
G02*
X121849400Y-116996100I0J-200000D01*
G01*
X121849400Y-117396100D01*
G75*
G02*
X121649400Y-117596100I-200000J0D01*
G01*
G37*
%TD.AperFunction*%
%TO.P,R1,1*%
%TO.N,D0*%
%TA.AperFunction,SMDPad,CuDef*%
G36*
G01*
X121649400Y-119246100D02*
X121099400Y-119246100D01*
G75*
G02*
X120899400Y-119046100I0J200000D01*
G01*
X120899400Y-118646100D01*
G75*
G02*
X121099400Y-118446100I200000J0D01*
G01*
X121649400Y-118446100D01*
G75*
G02*
X121849400Y-118646100I0J-200000D01*
G01*
X121849400Y-119046100D01*
G75*
G02*
X121649400Y-119246100I-200000J0D01*
G01*
G37*
%TD.AperFunction*%
%TD*%
D14*
%TO.P,J1,2*%
%TO.N,GND*%
X141185900Y-126123700D03*
D15*
%TO.P,J1,1*%
%TO.N,VOUT*%
X141185900Y-123583700D03*
%TD*%
D16*
%TO.N,GND*%
X144246600Y-125463300D03*
X145446600Y-125463300D03*
X147846600Y-125463300D03*
X146646600Y-125463300D03*
X144195800Y-116014500D03*
X139179300Y-114096800D03*
X117182900Y-115595400D03*
X117182900Y-118135400D03*
X117182900Y-120675400D03*
X117182900Y-123215400D03*
X117182900Y-125755400D03*
X123672600Y-114096800D03*
X126772600Y-114096800D03*
X129872600Y-114096800D03*
X132930900Y-114096800D03*
X136004300Y-114096800D03*
X145395800Y-116014500D03*
X146595800Y-116014500D03*
X147795800Y-116014500D03*
%TO.N,D7*%
X140259302Y-118846100D03*
%TO.N,D6*%
X137389100Y-118846100D03*
%TO.N,D5*%
X134569712Y-118846100D03*
%TO.N,D4*%
X131723904Y-118846100D03*
%TD*%
D17*
%TO.N,GND*%
X118212100Y-115595400D02*
X117182900Y-115595400D01*
%TO.N,VOUT*%
X141449400Y-117121100D02*
X141374400Y-117196100D01*
X141449400Y-115595400D02*
X141449400Y-117121100D01*
X145006100Y-120827800D02*
X146211900Y-120827800D01*
X143578600Y-119400300D02*
X145006100Y-120827800D01*
X143141700Y-118963400D02*
X143578600Y-119400300D01*
X142773400Y-119331700D02*
X143141700Y-118963400D01*
X142773400Y-121996200D02*
X142773400Y-119331700D01*
X141185900Y-123583700D02*
X142773400Y-121996200D01*
X143141700Y-117652800D02*
X143141700Y-118963400D01*
X142685000Y-117196100D02*
X143141700Y-117652800D01*
X141374400Y-117196100D02*
X142685000Y-117196100D01*
%TO.N,D7*%
X141374400Y-118846100D02*
X140259302Y-118846100D01*
%TO.N,D3*%
X126821126Y-121970800D02*
X115182400Y-121970800D01*
X129945826Y-118846100D02*
X126821126Y-121970800D01*
%TO.N,D6*%
X138517252Y-118846100D02*
X137389100Y-118846100D01*
%TO.N,D2*%
X117602000Y-119430800D02*
X115182400Y-119430800D01*
X119405400Y-121234200D02*
X117602000Y-119430800D01*
X124700584Y-121234200D02*
X119405400Y-121234200D01*
X127088684Y-118846100D02*
X124700584Y-121234200D01*
%TO.N,D5*%
X135660110Y-118846100D02*
X134569712Y-118846100D01*
%TO.N,D1*%
X117424200Y-116890800D02*
X115182400Y-116890800D01*
X120751600Y-120218200D02*
X117424200Y-116890800D01*
X122859442Y-120218200D02*
X120751600Y-120218200D01*
X124231542Y-118846100D02*
X122859442Y-120218200D01*
%TO.N,D4*%
X132802968Y-118846100D02*
X131723904Y-118846100D01*
%TO.N,D0*%
X118478300Y-114350800D02*
X115182400Y-114350800D01*
X119037100Y-114909600D02*
X118478300Y-114350800D01*
X119037100Y-116508800D02*
X119037100Y-114909600D01*
X121374400Y-118846100D02*
X119037100Y-116508800D01*
%TO.N,Net-(R1-Pad2)*%
X121374400Y-115670400D02*
X121299400Y-115595400D01*
X121374400Y-117196100D02*
X121374400Y-115670400D01*
X121299400Y-115595400D02*
X119862100Y-115595400D01*
%TO.N,Net-(R3-Pad2)*%
X122949400Y-115595400D02*
X124382733Y-115595400D01*
X124382733Y-117044909D02*
X124231542Y-117196100D01*
X124382733Y-115595400D02*
X124382733Y-117044909D01*
%TO.N,Net-(R5-Pad2)*%
X126032733Y-115595400D02*
X127466066Y-115595400D01*
X127466066Y-116818718D02*
X127088684Y-117196100D01*
X127466066Y-115595400D02*
X127466066Y-116818718D01*
%TO.N,Net-(R7-Pad2)*%
X129116066Y-115595400D02*
X130549399Y-115595400D01*
X130549399Y-116592527D02*
X129945826Y-117196100D01*
X130549399Y-115595400D02*
X130549399Y-116592527D01*
%TO.N,Net-(R10-Pad2)*%
X132199399Y-116592531D02*
X132802968Y-117196100D01*
X132199399Y-115595400D02*
X132199399Y-116592531D01*
X132199399Y-115595400D02*
X133632732Y-115595400D01*
%TO.N,Net-(R11-Pad2)*%
X135282732Y-116818722D02*
X135660110Y-117196100D01*
X135282732Y-115595400D02*
X135282732Y-116818722D01*
X135282732Y-115595400D02*
X136716065Y-115595400D01*
%TO.N,Net-(R13-Pad2)*%
X138366065Y-117044913D02*
X138517252Y-117196100D01*
X138366065Y-115595400D02*
X138366065Y-117044913D01*
X138366065Y-115595400D02*
X139799400Y-115595400D01*
%TD*%
D18*
%TO.N,GND*%
X131064130Y-119650037D02*
X131233648Y-119763305D01*
X131422006Y-119841326D01*
X131621965Y-119881100D01*
X131825843Y-119881100D01*
X132025802Y-119841326D01*
X132150111Y-119789835D01*
X132207252Y-119820378D01*
X132364468Y-119868069D01*
X132527968Y-119884172D01*
X133077968Y-119884172D01*
X133241468Y-119868069D01*
X133398684Y-119820378D01*
X133543576Y-119742931D01*
X133670574Y-119638706D01*
X133773361Y-119513460D01*
X133909938Y-119650037D01*
X134079456Y-119763305D01*
X134267814Y-119841326D01*
X134467773Y-119881100D01*
X134671651Y-119881100D01*
X134871610Y-119841326D01*
X135002304Y-119787190D01*
X135064394Y-119820378D01*
X135221610Y-119868069D01*
X135385110Y-119884172D01*
X135935110Y-119884172D01*
X136098610Y-119868069D01*
X136255826Y-119820378D01*
X136400718Y-119742931D01*
X136527716Y-119638706D01*
X136613485Y-119534196D01*
X136729326Y-119650037D01*
X136898844Y-119763305D01*
X137087202Y-119841326D01*
X137287161Y-119881100D01*
X137491039Y-119881100D01*
X137690998Y-119841326D01*
X137842963Y-119778380D01*
X137921536Y-119820378D01*
X138078752Y-119868069D01*
X138242252Y-119884172D01*
X138792252Y-119884172D01*
X138955752Y-119868069D01*
X139112968Y-119820378D01*
X139257860Y-119742931D01*
X139384858Y-119638706D01*
X139476514Y-119527023D01*
X139599528Y-119650037D01*
X139769046Y-119763305D01*
X139957404Y-119841326D01*
X140157363Y-119881100D01*
X140361241Y-119881100D01*
X140561200Y-119841326D01*
X140705810Y-119781426D01*
X140778684Y-119820378D01*
X140935900Y-119868069D01*
X141099400Y-119884172D01*
X141649400Y-119884172D01*
X141812900Y-119868069D01*
X141970116Y-119820378D01*
X142013401Y-119797242D01*
X142013400Y-121681398D01*
X141599170Y-122095628D01*
X140335900Y-122095628D01*
X140211418Y-122107888D01*
X140091720Y-122144198D01*
X139981406Y-122203163D01*
X139884715Y-122282515D01*
X139805363Y-122379206D01*
X139746398Y-122489520D01*
X139710088Y-122609218D01*
X139697828Y-122733700D01*
X139697828Y-124433700D01*
X139710088Y-124558182D01*
X139746398Y-124677880D01*
X139805363Y-124788194D01*
X139884715Y-124884885D01*
X139981406Y-124964237D01*
X140091720Y-125023202D01*
X140172366Y-125047666D01*
X140088312Y-125123431D01*
X139914259Y-125356780D01*
X139789075Y-125619601D01*
X139744424Y-125766810D01*
X139865745Y-125996700D01*
X141058900Y-125996700D01*
X141058900Y-125976700D01*
X141312900Y-125976700D01*
X141312900Y-125996700D01*
X142506055Y-125996700D01*
X142627376Y-125766810D01*
X142582725Y-125619601D01*
X142457541Y-125356780D01*
X142283488Y-125123431D01*
X142199434Y-125047666D01*
X142280080Y-125023202D01*
X142390394Y-124964237D01*
X142487085Y-124884885D01*
X142566437Y-124788194D01*
X142625402Y-124677880D01*
X142661712Y-124558182D01*
X142673972Y-124433700D01*
X142673972Y-124327800D01*
X143273828Y-124327800D01*
X143286088Y-124452282D01*
X143322398Y-124571980D01*
X143381363Y-124682294D01*
X143460715Y-124778985D01*
X143557406Y-124858337D01*
X143667720Y-124917302D01*
X143787418Y-124953612D01*
X143911900Y-124965872D01*
X145726150Y-124962800D01*
X145884900Y-124804050D01*
X145884900Y-123779800D01*
X143435650Y-123779800D01*
X143276900Y-123938550D01*
X143273828Y-124327800D01*
X142673972Y-124327800D01*
X142673972Y-123170430D01*
X142866602Y-122977800D01*
X143273828Y-122977800D01*
X143276900Y-123367050D01*
X143435650Y-123525800D01*
X145884900Y-123525800D01*
X145884900Y-122501550D01*
X145726150Y-122342800D01*
X143911900Y-122339728D01*
X143787418Y-122351988D01*
X143667720Y-122388298D01*
X143557406Y-122447263D01*
X143460715Y-122526615D01*
X143381363Y-122623306D01*
X143322398Y-122733620D01*
X143286088Y-122853318D01*
X143273828Y-122977800D01*
X142866602Y-122977800D01*
X143284404Y-122559998D01*
X143313401Y-122536201D01*
X143351711Y-122489520D01*
X143408374Y-122420477D01*
X143478946Y-122288447D01*
X143504816Y-122203163D01*
X143522403Y-122145186D01*
X143533400Y-122033533D01*
X143533400Y-122033524D01*
X143537076Y-121996201D01*
X143533400Y-121958878D01*
X143533400Y-120429901D01*
X143773828Y-120670330D01*
X143773828Y-121462800D01*
X143786088Y-121587282D01*
X143822398Y-121706980D01*
X143881363Y-121817294D01*
X143960715Y-121913985D01*
X144057406Y-121993337D01*
X144167720Y-122052302D01*
X144287418Y-122088612D01*
X144411900Y-122100872D01*
X148011900Y-122100872D01*
X148136382Y-122088612D01*
X148256080Y-122052302D01*
X148366394Y-121993337D01*
X148435900Y-121936295D01*
X148435900Y-122430964D01*
X148356080Y-122388298D01*
X148236382Y-122351988D01*
X148111900Y-122339728D01*
X146297650Y-122342800D01*
X146138900Y-122501550D01*
X146138900Y-123525800D01*
X146158900Y-123525800D01*
X146158900Y-123779800D01*
X146138900Y-123779800D01*
X146138900Y-124804050D01*
X146297650Y-124962800D01*
X148111900Y-124965872D01*
X148236382Y-124953612D01*
X148356080Y-124917302D01*
X148435900Y-124874637D01*
X148435900Y-127662553D01*
X148427396Y-127749286D01*
X148412646Y-127798140D01*
X148388688Y-127843199D01*
X148356434Y-127882746D01*
X148317115Y-127915273D01*
X148272229Y-127939543D01*
X148223473Y-127954635D01*
X148139135Y-127963500D01*
X130376668Y-127963500D01*
X130376668Y-126480590D01*
X139744424Y-126480590D01*
X139789075Y-126627799D01*
X139914259Y-126890620D01*
X140088312Y-127123969D01*
X140304545Y-127318878D01*
X140554648Y-127467857D01*
X140829009Y-127565181D01*
X141058900Y-127444514D01*
X141058900Y-126250700D01*
X141312900Y-126250700D01*
X141312900Y-127444514D01*
X141542791Y-127565181D01*
X141817152Y-127467857D01*
X142067255Y-127318878D01*
X142283488Y-127123969D01*
X142457541Y-126890620D01*
X142582725Y-126627799D01*
X142627376Y-126480590D01*
X142506055Y-126250700D01*
X141312900Y-126250700D01*
X141058900Y-126250700D01*
X139865745Y-126250700D01*
X139744424Y-126480590D01*
X130376668Y-126480590D01*
X130376668Y-125336900D01*
X118086132Y-125336900D01*
X118086132Y-127963500D01*
X116915169Y-127963500D01*
X116962937Y-127905294D01*
X117021902Y-127794980D01*
X117058212Y-127675282D01*
X117070472Y-127550800D01*
X117070472Y-126550800D01*
X117058212Y-126426318D01*
X117021902Y-126306620D01*
X116962937Y-126196306D01*
X116883585Y-126099615D01*
X116786894Y-126020263D01*
X116676580Y-125961298D01*
X116556882Y-125924988D01*
X116432400Y-125912728D01*
X113932400Y-125912728D01*
X113905900Y-125915338D01*
X113905900Y-125646262D01*
X113932400Y-125648872D01*
X114896650Y-125645800D01*
X115055400Y-125487050D01*
X115055400Y-124637800D01*
X115309400Y-124637800D01*
X115309400Y-125487050D01*
X115468150Y-125645800D01*
X116432400Y-125648872D01*
X116556882Y-125636612D01*
X116676580Y-125600302D01*
X116786894Y-125541337D01*
X116883585Y-125461985D01*
X116962937Y-125365294D01*
X117021902Y-125254980D01*
X117058212Y-125135282D01*
X117070472Y-125010800D01*
X117067400Y-124796550D01*
X116908650Y-124637800D01*
X115309400Y-124637800D01*
X115055400Y-124637800D01*
X115035400Y-124637800D01*
X115035400Y-124383800D01*
X115055400Y-124383800D01*
X115055400Y-123534550D01*
X115309400Y-123534550D01*
X115309400Y-124383800D01*
X116908650Y-124383800D01*
X117067400Y-124225050D01*
X117070472Y-124010800D01*
X117058212Y-123886318D01*
X117021902Y-123766620D01*
X116962937Y-123656306D01*
X116883585Y-123559615D01*
X116786894Y-123480263D01*
X116676580Y-123421298D01*
X116556882Y-123384988D01*
X116432400Y-123372728D01*
X115468150Y-123375800D01*
X115309400Y-123534550D01*
X115055400Y-123534550D01*
X114896650Y-123375800D01*
X113932400Y-123372728D01*
X113905900Y-123375338D01*
X113905900Y-123106262D01*
X113932400Y-123108872D01*
X116432400Y-123108872D01*
X116556882Y-123096612D01*
X116676580Y-123060302D01*
X116786894Y-123001337D01*
X116883585Y-122921985D01*
X116962937Y-122825294D01*
X117013446Y-122730800D01*
X126783804Y-122730800D01*
X126821126Y-122734476D01*
X126858448Y-122730800D01*
X126858459Y-122730800D01*
X126970112Y-122719803D01*
X127113373Y-122676346D01*
X127245402Y-122605774D01*
X127361127Y-122510801D01*
X127384930Y-122481797D01*
X129982556Y-119884172D01*
X130220826Y-119884172D01*
X130384326Y-119868069D01*
X130541542Y-119820378D01*
X130686434Y-119742931D01*
X130813432Y-119638706D01*
X130917657Y-119511708D01*
X130920494Y-119506401D01*
X131064130Y-119650037D01*
%TA.AperFunction,Conductor*%
D19*
G36*
X131064130Y-119650037D02*
G01*
X131233648Y-119763305D01*
X131422006Y-119841326D01*
X131621965Y-119881100D01*
X131825843Y-119881100D01*
X132025802Y-119841326D01*
X132150111Y-119789835D01*
X132207252Y-119820378D01*
X132364468Y-119868069D01*
X132527968Y-119884172D01*
X133077968Y-119884172D01*
X133241468Y-119868069D01*
X133398684Y-119820378D01*
X133543576Y-119742931D01*
X133670574Y-119638706D01*
X133773361Y-119513460D01*
X133909938Y-119650037D01*
X134079456Y-119763305D01*
X134267814Y-119841326D01*
X134467773Y-119881100D01*
X134671651Y-119881100D01*
X134871610Y-119841326D01*
X135002304Y-119787190D01*
X135064394Y-119820378D01*
X135221610Y-119868069D01*
X135385110Y-119884172D01*
X135935110Y-119884172D01*
X136098610Y-119868069D01*
X136255826Y-119820378D01*
X136400718Y-119742931D01*
X136527716Y-119638706D01*
X136613485Y-119534196D01*
X136729326Y-119650037D01*
X136898844Y-119763305D01*
X137087202Y-119841326D01*
X137287161Y-119881100D01*
X137491039Y-119881100D01*
X137690998Y-119841326D01*
X137842963Y-119778380D01*
X137921536Y-119820378D01*
X138078752Y-119868069D01*
X138242252Y-119884172D01*
X138792252Y-119884172D01*
X138955752Y-119868069D01*
X139112968Y-119820378D01*
X139257860Y-119742931D01*
X139384858Y-119638706D01*
X139476514Y-119527023D01*
X139599528Y-119650037D01*
X139769046Y-119763305D01*
X139957404Y-119841326D01*
X140157363Y-119881100D01*
X140361241Y-119881100D01*
X140561200Y-119841326D01*
X140705810Y-119781426D01*
X140778684Y-119820378D01*
X140935900Y-119868069D01*
X141099400Y-119884172D01*
X141649400Y-119884172D01*
X141812900Y-119868069D01*
X141970116Y-119820378D01*
X142013401Y-119797242D01*
X142013400Y-121681398D01*
X141599170Y-122095628D01*
X140335900Y-122095628D01*
X140211418Y-122107888D01*
X140091720Y-122144198D01*
X139981406Y-122203163D01*
X139884715Y-122282515D01*
X139805363Y-122379206D01*
X139746398Y-122489520D01*
X139710088Y-122609218D01*
X139697828Y-122733700D01*
X139697828Y-124433700D01*
X139710088Y-124558182D01*
X139746398Y-124677880D01*
X139805363Y-124788194D01*
X139884715Y-124884885D01*
X139981406Y-124964237D01*
X140091720Y-125023202D01*
X140172366Y-125047666D01*
X140088312Y-125123431D01*
X139914259Y-125356780D01*
X139789075Y-125619601D01*
X139744424Y-125766810D01*
X139865745Y-125996700D01*
X141058900Y-125996700D01*
X141058900Y-125976700D01*
X141312900Y-125976700D01*
X141312900Y-125996700D01*
X142506055Y-125996700D01*
X142627376Y-125766810D01*
X142582725Y-125619601D01*
X142457541Y-125356780D01*
X142283488Y-125123431D01*
X142199434Y-125047666D01*
X142280080Y-125023202D01*
X142390394Y-124964237D01*
X142487085Y-124884885D01*
X142566437Y-124788194D01*
X142625402Y-124677880D01*
X142661712Y-124558182D01*
X142673972Y-124433700D01*
X142673972Y-124327800D01*
X143273828Y-124327800D01*
X143286088Y-124452282D01*
X143322398Y-124571980D01*
X143381363Y-124682294D01*
X143460715Y-124778985D01*
X143557406Y-124858337D01*
X143667720Y-124917302D01*
X143787418Y-124953612D01*
X143911900Y-124965872D01*
X145726150Y-124962800D01*
X145884900Y-124804050D01*
X145884900Y-123779800D01*
X143435650Y-123779800D01*
X143276900Y-123938550D01*
X143273828Y-124327800D01*
X142673972Y-124327800D01*
X142673972Y-123170430D01*
X142866602Y-122977800D01*
X143273828Y-122977800D01*
X143276900Y-123367050D01*
X143435650Y-123525800D01*
X145884900Y-123525800D01*
X145884900Y-122501550D01*
X145726150Y-122342800D01*
X143911900Y-122339728D01*
X143787418Y-122351988D01*
X143667720Y-122388298D01*
X143557406Y-122447263D01*
X143460715Y-122526615D01*
X143381363Y-122623306D01*
X143322398Y-122733620D01*
X143286088Y-122853318D01*
X143273828Y-122977800D01*
X142866602Y-122977800D01*
X143284404Y-122559998D01*
X143313401Y-122536201D01*
X143351711Y-122489520D01*
X143408374Y-122420477D01*
X143478946Y-122288447D01*
X143504816Y-122203163D01*
X143522403Y-122145186D01*
X143533400Y-122033533D01*
X143533400Y-122033524D01*
X143537076Y-121996201D01*
X143533400Y-121958878D01*
X143533400Y-120429901D01*
X143773828Y-120670330D01*
X143773828Y-121462800D01*
X143786088Y-121587282D01*
X143822398Y-121706980D01*
X143881363Y-121817294D01*
X143960715Y-121913985D01*
X144057406Y-121993337D01*
X144167720Y-122052302D01*
X144287418Y-122088612D01*
X144411900Y-122100872D01*
X148011900Y-122100872D01*
X148136382Y-122088612D01*
X148256080Y-122052302D01*
X148366394Y-121993337D01*
X148435900Y-121936295D01*
X148435900Y-122430964D01*
X148356080Y-122388298D01*
X148236382Y-122351988D01*
X148111900Y-122339728D01*
X146297650Y-122342800D01*
X146138900Y-122501550D01*
X146138900Y-123525800D01*
X146158900Y-123525800D01*
X146158900Y-123779800D01*
X146138900Y-123779800D01*
X146138900Y-124804050D01*
X146297650Y-124962800D01*
X148111900Y-124965872D01*
X148236382Y-124953612D01*
X148356080Y-124917302D01*
X148435900Y-124874637D01*
X148435900Y-127662553D01*
X148427396Y-127749286D01*
X148412646Y-127798140D01*
X148388688Y-127843199D01*
X148356434Y-127882746D01*
X148317115Y-127915273D01*
X148272229Y-127939543D01*
X148223473Y-127954635D01*
X148139135Y-127963500D01*
X130376668Y-127963500D01*
X130376668Y-126480590D01*
X139744424Y-126480590D01*
X139789075Y-126627799D01*
X139914259Y-126890620D01*
X140088312Y-127123969D01*
X140304545Y-127318878D01*
X140554648Y-127467857D01*
X140829009Y-127565181D01*
X141058900Y-127444514D01*
X141058900Y-126250700D01*
X141312900Y-126250700D01*
X141312900Y-127444514D01*
X141542791Y-127565181D01*
X141817152Y-127467857D01*
X142067255Y-127318878D01*
X142283488Y-127123969D01*
X142457541Y-126890620D01*
X142582725Y-126627799D01*
X142627376Y-126480590D01*
X142506055Y-126250700D01*
X141312900Y-126250700D01*
X141058900Y-126250700D01*
X139865745Y-126250700D01*
X139744424Y-126480590D01*
X130376668Y-126480590D01*
X130376668Y-125336900D01*
X118086132Y-125336900D01*
X118086132Y-127963500D01*
X116915169Y-127963500D01*
X116962937Y-127905294D01*
X117021902Y-127794980D01*
X117058212Y-127675282D01*
X117070472Y-127550800D01*
X117070472Y-126550800D01*
X117058212Y-126426318D01*
X117021902Y-126306620D01*
X116962937Y-126196306D01*
X116883585Y-126099615D01*
X116786894Y-126020263D01*
X116676580Y-125961298D01*
X116556882Y-125924988D01*
X116432400Y-125912728D01*
X113932400Y-125912728D01*
X113905900Y-125915338D01*
X113905900Y-125646262D01*
X113932400Y-125648872D01*
X114896650Y-125645800D01*
X115055400Y-125487050D01*
X115055400Y-124637800D01*
X115309400Y-124637800D01*
X115309400Y-125487050D01*
X115468150Y-125645800D01*
X116432400Y-125648872D01*
X116556882Y-125636612D01*
X116676580Y-125600302D01*
X116786894Y-125541337D01*
X116883585Y-125461985D01*
X116962937Y-125365294D01*
X117021902Y-125254980D01*
X117058212Y-125135282D01*
X117070472Y-125010800D01*
X117067400Y-124796550D01*
X116908650Y-124637800D01*
X115309400Y-124637800D01*
X115055400Y-124637800D01*
X115035400Y-124637800D01*
X115035400Y-124383800D01*
X115055400Y-124383800D01*
X115055400Y-123534550D01*
X115309400Y-123534550D01*
X115309400Y-124383800D01*
X116908650Y-124383800D01*
X117067400Y-124225050D01*
X117070472Y-124010800D01*
X117058212Y-123886318D01*
X117021902Y-123766620D01*
X116962937Y-123656306D01*
X116883585Y-123559615D01*
X116786894Y-123480263D01*
X116676580Y-123421298D01*
X116556882Y-123384988D01*
X116432400Y-123372728D01*
X115468150Y-123375800D01*
X115309400Y-123534550D01*
X115055400Y-123534550D01*
X114896650Y-123375800D01*
X113932400Y-123372728D01*
X113905900Y-123375338D01*
X113905900Y-123106262D01*
X113932400Y-123108872D01*
X116432400Y-123108872D01*
X116556882Y-123096612D01*
X116676580Y-123060302D01*
X116786894Y-123001337D01*
X116883585Y-122921985D01*
X116962937Y-122825294D01*
X117013446Y-122730800D01*
X126783804Y-122730800D01*
X126821126Y-122734476D01*
X126858448Y-122730800D01*
X126858459Y-122730800D01*
X126970112Y-122719803D01*
X127113373Y-122676346D01*
X127245402Y-122605774D01*
X127361127Y-122510801D01*
X127384930Y-122481797D01*
X129982556Y-119884172D01*
X130220826Y-119884172D01*
X130384326Y-119868069D01*
X130541542Y-119820378D01*
X130686434Y-119742931D01*
X130813432Y-119638706D01*
X130917657Y-119511708D01*
X130920494Y-119506401D01*
X131064130Y-119650037D01*
G37*
%TD.AperFunction*%
D18*
X118307198Y-121210800D02*
X117013446Y-121210800D01*
X116962937Y-121116306D01*
X116883585Y-121019615D01*
X116786894Y-120940263D01*
X116676580Y-120881298D01*
X116556882Y-120844988D01*
X116432400Y-120832728D01*
X113932400Y-120832728D01*
X113905900Y-120835338D01*
X113905900Y-120566262D01*
X113932400Y-120568872D01*
X116432400Y-120568872D01*
X116556882Y-120556612D01*
X116676580Y-120520302D01*
X116786894Y-120461337D01*
X116883585Y-120381985D01*
X116962937Y-120285294D01*
X117013446Y-120190800D01*
X117287199Y-120190800D01*
X118307198Y-121210800D01*
%TA.AperFunction,Conductor*%
D19*
G36*
X118307198Y-121210800D02*
G01*
X117013446Y-121210800D01*
X116962937Y-121116306D01*
X116883585Y-121019615D01*
X116786894Y-120940263D01*
X116676580Y-120881298D01*
X116556882Y-120844988D01*
X116432400Y-120832728D01*
X113932400Y-120832728D01*
X113905900Y-120835338D01*
X113905900Y-120566262D01*
X113932400Y-120568872D01*
X116432400Y-120568872D01*
X116556882Y-120556612D01*
X116676580Y-120520302D01*
X116786894Y-120461337D01*
X116883585Y-120381985D01*
X116962937Y-120285294D01*
X117013446Y-120190800D01*
X117287199Y-120190800D01*
X118307198Y-121210800D01*
G37*
%TD.AperFunction*%
D18*
X119932798Y-120474200D02*
X119720202Y-120474200D01*
X118165804Y-118919803D01*
X118142001Y-118890799D01*
X118026276Y-118795826D01*
X117894247Y-118725254D01*
X117750986Y-118681797D01*
X117639333Y-118670800D01*
X117639322Y-118670800D01*
X117602000Y-118667124D01*
X117564678Y-118670800D01*
X117013446Y-118670800D01*
X116962937Y-118576306D01*
X116883585Y-118479615D01*
X116786894Y-118400263D01*
X116676580Y-118341298D01*
X116556882Y-118304988D01*
X116432400Y-118292728D01*
X113932400Y-118292728D01*
X113905900Y-118295338D01*
X113905900Y-118026262D01*
X113932400Y-118028872D01*
X116432400Y-118028872D01*
X116556882Y-118016612D01*
X116676580Y-117980302D01*
X116786894Y-117921337D01*
X116883585Y-117841985D01*
X116962937Y-117745294D01*
X117013446Y-117650800D01*
X117109399Y-117650800D01*
X119932798Y-120474200D01*
%TA.AperFunction,Conductor*%
D19*
G36*
X119932798Y-120474200D02*
G01*
X119720202Y-120474200D01*
X118165804Y-118919803D01*
X118142001Y-118890799D01*
X118026276Y-118795826D01*
X117894247Y-118725254D01*
X117750986Y-118681797D01*
X117639333Y-118670800D01*
X117639322Y-118670800D01*
X117602000Y-118667124D01*
X117564678Y-118670800D01*
X117013446Y-118670800D01*
X116962937Y-118576306D01*
X116883585Y-118479615D01*
X116786894Y-118400263D01*
X116676580Y-118341298D01*
X116556882Y-118304988D01*
X116432400Y-118292728D01*
X113932400Y-118292728D01*
X113905900Y-118295338D01*
X113905900Y-118026262D01*
X113932400Y-118028872D01*
X116432400Y-118028872D01*
X116556882Y-118016612D01*
X116676580Y-117980302D01*
X116786894Y-117921337D01*
X116883585Y-117841985D01*
X116962937Y-117745294D01*
X117013446Y-117650800D01*
X117109399Y-117650800D01*
X119932798Y-120474200D01*
G37*
%TD.AperFunction*%
D18*
X148221687Y-113442004D02*
X148270540Y-113456754D01*
X148315599Y-113480712D01*
X148355145Y-113512966D01*
X148387674Y-113552286D01*
X148411943Y-113597170D01*
X148427035Y-113645927D01*
X148435901Y-113730274D01*
X148435901Y-116780964D01*
X148356080Y-116738298D01*
X148236382Y-116701988D01*
X148111900Y-116689728D01*
X146297650Y-116692800D01*
X146138900Y-116851550D01*
X146138900Y-117875800D01*
X146158900Y-117875800D01*
X146158900Y-118129800D01*
X146138900Y-118129800D01*
X146138900Y-119154050D01*
X146297650Y-119312800D01*
X148111900Y-119315872D01*
X148236382Y-119303612D01*
X148356080Y-119267302D01*
X148435901Y-119224636D01*
X148435901Y-119719305D01*
X148366394Y-119662263D01*
X148256080Y-119603298D01*
X148136382Y-119566988D01*
X148011900Y-119554728D01*
X144807829Y-119554728D01*
X144567863Y-119314761D01*
X145726150Y-119312800D01*
X145884900Y-119154050D01*
X145884900Y-118129800D01*
X145864900Y-118129800D01*
X145864900Y-117875800D01*
X145884900Y-117875800D01*
X145884900Y-116851550D01*
X145726150Y-116692800D01*
X143911900Y-116689728D01*
X143787418Y-116701988D01*
X143667720Y-116738298D01*
X143557406Y-116797263D01*
X143460715Y-116876615D01*
X143451520Y-116887819D01*
X143248804Y-116685103D01*
X143225001Y-116656099D01*
X143109276Y-116561126D01*
X142977247Y-116490554D01*
X142833986Y-116447097D01*
X142722333Y-116436100D01*
X142722322Y-116436100D01*
X142685000Y-116432424D01*
X142647678Y-116436100D01*
X142268765Y-116436100D01*
X142266426Y-116433250D01*
X142346231Y-116336008D01*
X142423678Y-116191116D01*
X142471369Y-116033900D01*
X142487472Y-115870400D01*
X142487472Y-115320400D01*
X142471369Y-115156900D01*
X142423678Y-114999684D01*
X142346231Y-114854792D01*
X142242006Y-114727794D01*
X142115008Y-114623569D01*
X141970116Y-114546122D01*
X141812900Y-114498431D01*
X141649400Y-114482328D01*
X141249400Y-114482328D01*
X141085900Y-114498431D01*
X140928684Y-114546122D01*
X140783792Y-114623569D01*
X140656794Y-114727794D01*
X140624400Y-114767266D01*
X140592006Y-114727794D01*
X140465008Y-114623569D01*
X140320116Y-114546122D01*
X140162900Y-114498431D01*
X139999400Y-114482328D01*
X139599400Y-114482328D01*
X139435900Y-114498431D01*
X139278684Y-114546122D01*
X139133792Y-114623569D01*
X139082733Y-114665473D01*
X139031673Y-114623569D01*
X138886781Y-114546122D01*
X138729565Y-114498431D01*
X138566065Y-114482328D01*
X138166065Y-114482328D01*
X138002565Y-114498431D01*
X137845349Y-114546122D01*
X137700457Y-114623569D01*
X137573459Y-114727794D01*
X137541065Y-114767266D01*
X137508671Y-114727794D01*
X137381673Y-114623569D01*
X137236781Y-114546122D01*
X137079565Y-114498431D01*
X136916065Y-114482328D01*
X136516065Y-114482328D01*
X136352565Y-114498431D01*
X136195349Y-114546122D01*
X136050457Y-114623569D01*
X135999399Y-114665472D01*
X135948340Y-114623569D01*
X135803448Y-114546122D01*
X135646232Y-114498431D01*
X135482732Y-114482328D01*
X135082732Y-114482328D01*
X134919232Y-114498431D01*
X134762016Y-114546122D01*
X134617124Y-114623569D01*
X134490126Y-114727794D01*
X134457732Y-114767266D01*
X134425338Y-114727794D01*
X134298340Y-114623569D01*
X134153448Y-114546122D01*
X133996232Y-114498431D01*
X133832732Y-114482328D01*
X133432732Y-114482328D01*
X133269232Y-114498431D01*
X133112016Y-114546122D01*
X132967124Y-114623569D01*
X132916066Y-114665472D01*
X132865007Y-114623569D01*
X132720115Y-114546122D01*
X132562899Y-114498431D01*
X132399399Y-114482328D01*
X131999399Y-114482328D01*
X131835899Y-114498431D01*
X131678683Y-114546122D01*
X131533791Y-114623569D01*
X131406793Y-114727794D01*
X131374399Y-114767266D01*
X131342005Y-114727794D01*
X131215007Y-114623569D01*
X131070115Y-114546122D01*
X130912899Y-114498431D01*
X130749399Y-114482328D01*
X130349399Y-114482328D01*
X130185899Y-114498431D01*
X130028683Y-114546122D01*
X129883791Y-114623569D01*
X129832733Y-114665472D01*
X129781674Y-114623569D01*
X129636782Y-114546122D01*
X129479566Y-114498431D01*
X129316066Y-114482328D01*
X128916066Y-114482328D01*
X128752566Y-114498431D01*
X128595350Y-114546122D01*
X128450458Y-114623569D01*
X128323460Y-114727794D01*
X128291066Y-114767266D01*
X128258672Y-114727794D01*
X128131674Y-114623569D01*
X127986782Y-114546122D01*
X127829566Y-114498431D01*
X127666066Y-114482328D01*
X127266066Y-114482328D01*
X127102566Y-114498431D01*
X126945350Y-114546122D01*
X126800458Y-114623569D01*
X126749400Y-114665472D01*
X126698341Y-114623569D01*
X126553449Y-114546122D01*
X126396233Y-114498431D01*
X126232733Y-114482328D01*
X125832733Y-114482328D01*
X125669233Y-114498431D01*
X125512017Y-114546122D01*
X125367125Y-114623569D01*
X125240127Y-114727794D01*
X125207733Y-114767266D01*
X125175339Y-114727794D01*
X125048341Y-114623569D01*
X124903449Y-114546122D01*
X124746233Y-114498431D01*
X124582733Y-114482328D01*
X124182733Y-114482328D01*
X124019233Y-114498431D01*
X123862017Y-114546122D01*
X123717125Y-114623569D01*
X123666067Y-114665472D01*
X123615008Y-114623569D01*
X123470116Y-114546122D01*
X123312900Y-114498431D01*
X123149400Y-114482328D01*
X122749400Y-114482328D01*
X122585900Y-114498431D01*
X122428684Y-114546122D01*
X122283792Y-114623569D01*
X122156794Y-114727794D01*
X122124400Y-114767266D01*
X122092006Y-114727794D01*
X121965008Y-114623569D01*
X121820116Y-114546122D01*
X121662900Y-114498431D01*
X121499400Y-114482328D01*
X121099400Y-114482328D01*
X120935900Y-114498431D01*
X120778684Y-114546122D01*
X120633792Y-114623569D01*
X120580750Y-114667100D01*
X120527708Y-114623569D01*
X120382816Y-114546122D01*
X120225600Y-114498431D01*
X120062100Y-114482328D01*
X119669615Y-114482328D01*
X119600899Y-114398597D01*
X119577101Y-114369599D01*
X119548102Y-114345800D01*
X119042103Y-113839802D01*
X119018301Y-113810799D01*
X118902576Y-113715826D01*
X118770547Y-113645254D01*
X118627286Y-113601797D01*
X118515633Y-113590800D01*
X118515622Y-113590800D01*
X118478300Y-113587124D01*
X118440978Y-113590800D01*
X117013446Y-113590800D01*
X116962937Y-113496306D01*
X116911394Y-113433500D01*
X148134953Y-113433500D01*
X148221687Y-113442004D01*
%TA.AperFunction,Conductor*%
D19*
G36*
X148221687Y-113442004D02*
G01*
X148270540Y-113456754D01*
X148315599Y-113480712D01*
X148355145Y-113512966D01*
X148387674Y-113552286D01*
X148411943Y-113597170D01*
X148427035Y-113645927D01*
X148435901Y-113730274D01*
X148435901Y-116780964D01*
X148356080Y-116738298D01*
X148236382Y-116701988D01*
X148111900Y-116689728D01*
X146297650Y-116692800D01*
X146138900Y-116851550D01*
X146138900Y-117875800D01*
X146158900Y-117875800D01*
X146158900Y-118129800D01*
X146138900Y-118129800D01*
X146138900Y-119154050D01*
X146297650Y-119312800D01*
X148111900Y-119315872D01*
X148236382Y-119303612D01*
X148356080Y-119267302D01*
X148435901Y-119224636D01*
X148435901Y-119719305D01*
X148366394Y-119662263D01*
X148256080Y-119603298D01*
X148136382Y-119566988D01*
X148011900Y-119554728D01*
X144807829Y-119554728D01*
X144567863Y-119314761D01*
X145726150Y-119312800D01*
X145884900Y-119154050D01*
X145884900Y-118129800D01*
X145864900Y-118129800D01*
X145864900Y-117875800D01*
X145884900Y-117875800D01*
X145884900Y-116851550D01*
X145726150Y-116692800D01*
X143911900Y-116689728D01*
X143787418Y-116701988D01*
X143667720Y-116738298D01*
X143557406Y-116797263D01*
X143460715Y-116876615D01*
X143451520Y-116887819D01*
X143248804Y-116685103D01*
X143225001Y-116656099D01*
X143109276Y-116561126D01*
X142977247Y-116490554D01*
X142833986Y-116447097D01*
X142722333Y-116436100D01*
X142722322Y-116436100D01*
X142685000Y-116432424D01*
X142647678Y-116436100D01*
X142268765Y-116436100D01*
X142266426Y-116433250D01*
X142346231Y-116336008D01*
X142423678Y-116191116D01*
X142471369Y-116033900D01*
X142487472Y-115870400D01*
X142487472Y-115320400D01*
X142471369Y-115156900D01*
X142423678Y-114999684D01*
X142346231Y-114854792D01*
X142242006Y-114727794D01*
X142115008Y-114623569D01*
X141970116Y-114546122D01*
X141812900Y-114498431D01*
X141649400Y-114482328D01*
X141249400Y-114482328D01*
X141085900Y-114498431D01*
X140928684Y-114546122D01*
X140783792Y-114623569D01*
X140656794Y-114727794D01*
X140624400Y-114767266D01*
X140592006Y-114727794D01*
X140465008Y-114623569D01*
X140320116Y-114546122D01*
X140162900Y-114498431D01*
X139999400Y-114482328D01*
X139599400Y-114482328D01*
X139435900Y-114498431D01*
X139278684Y-114546122D01*
X139133792Y-114623569D01*
X139082733Y-114665473D01*
X139031673Y-114623569D01*
X138886781Y-114546122D01*
X138729565Y-114498431D01*
X138566065Y-114482328D01*
X138166065Y-114482328D01*
X138002565Y-114498431D01*
X137845349Y-114546122D01*
X137700457Y-114623569D01*
X137573459Y-114727794D01*
X137541065Y-114767266D01*
X137508671Y-114727794D01*
X137381673Y-114623569D01*
X137236781Y-114546122D01*
X137079565Y-114498431D01*
X136916065Y-114482328D01*
X136516065Y-114482328D01*
X136352565Y-114498431D01*
X136195349Y-114546122D01*
X136050457Y-114623569D01*
X135999399Y-114665472D01*
X135948340Y-114623569D01*
X135803448Y-114546122D01*
X135646232Y-114498431D01*
X135482732Y-114482328D01*
X135082732Y-114482328D01*
X134919232Y-114498431D01*
X134762016Y-114546122D01*
X134617124Y-114623569D01*
X134490126Y-114727794D01*
X134457732Y-114767266D01*
X134425338Y-114727794D01*
X134298340Y-114623569D01*
X134153448Y-114546122D01*
X133996232Y-114498431D01*
X133832732Y-114482328D01*
X133432732Y-114482328D01*
X133269232Y-114498431D01*
X133112016Y-114546122D01*
X132967124Y-114623569D01*
X132916066Y-114665472D01*
X132865007Y-114623569D01*
X132720115Y-114546122D01*
X132562899Y-114498431D01*
X132399399Y-114482328D01*
X131999399Y-114482328D01*
X131835899Y-114498431D01*
X131678683Y-114546122D01*
X131533791Y-114623569D01*
X131406793Y-114727794D01*
X131374399Y-114767266D01*
X131342005Y-114727794D01*
X131215007Y-114623569D01*
X131070115Y-114546122D01*
X130912899Y-114498431D01*
X130749399Y-114482328D01*
X130349399Y-114482328D01*
X130185899Y-114498431D01*
X130028683Y-114546122D01*
X129883791Y-114623569D01*
X129832733Y-114665472D01*
X129781674Y-114623569D01*
X129636782Y-114546122D01*
X129479566Y-114498431D01*
X129316066Y-114482328D01*
X128916066Y-114482328D01*
X128752566Y-114498431D01*
X128595350Y-114546122D01*
X128450458Y-114623569D01*
X128323460Y-114727794D01*
X128291066Y-114767266D01*
X128258672Y-114727794D01*
X128131674Y-114623569D01*
X127986782Y-114546122D01*
X127829566Y-114498431D01*
X127666066Y-114482328D01*
X127266066Y-114482328D01*
X127102566Y-114498431D01*
X126945350Y-114546122D01*
X126800458Y-114623569D01*
X126749400Y-114665472D01*
X126698341Y-114623569D01*
X126553449Y-114546122D01*
X126396233Y-114498431D01*
X126232733Y-114482328D01*
X125832733Y-114482328D01*
X125669233Y-114498431D01*
X125512017Y-114546122D01*
X125367125Y-114623569D01*
X125240127Y-114727794D01*
X125207733Y-114767266D01*
X125175339Y-114727794D01*
X125048341Y-114623569D01*
X124903449Y-114546122D01*
X124746233Y-114498431D01*
X124582733Y-114482328D01*
X124182733Y-114482328D01*
X124019233Y-114498431D01*
X123862017Y-114546122D01*
X123717125Y-114623569D01*
X123666067Y-114665472D01*
X123615008Y-114623569D01*
X123470116Y-114546122D01*
X123312900Y-114498431D01*
X123149400Y-114482328D01*
X122749400Y-114482328D01*
X122585900Y-114498431D01*
X122428684Y-114546122D01*
X122283792Y-114623569D01*
X122156794Y-114727794D01*
X122124400Y-114767266D01*
X122092006Y-114727794D01*
X121965008Y-114623569D01*
X121820116Y-114546122D01*
X121662900Y-114498431D01*
X121499400Y-114482328D01*
X121099400Y-114482328D01*
X120935900Y-114498431D01*
X120778684Y-114546122D01*
X120633792Y-114623569D01*
X120580750Y-114667100D01*
X120527708Y-114623569D01*
X120382816Y-114546122D01*
X120225600Y-114498431D01*
X120062100Y-114482328D01*
X119669615Y-114482328D01*
X119600899Y-114398597D01*
X119577101Y-114369599D01*
X119548102Y-114345800D01*
X119042103Y-113839802D01*
X119018301Y-113810799D01*
X118902576Y-113715826D01*
X118770547Y-113645254D01*
X118627286Y-113601797D01*
X118515633Y-113590800D01*
X118515622Y-113590800D01*
X118478300Y-113587124D01*
X118440978Y-113590800D01*
X117013446Y-113590800D01*
X116962937Y-113496306D01*
X116911394Y-113433500D01*
X148134953Y-113433500D01*
X148221687Y-113442004D01*
G37*
%TD.AperFunction*%
D18*
X117174028Y-115120400D02*
X117177100Y-115309650D01*
X117335850Y-115468400D01*
X118085100Y-115468400D01*
X118085100Y-115448400D01*
X118277101Y-115448400D01*
X118277101Y-115742400D01*
X118085100Y-115742400D01*
X118085100Y-115722400D01*
X117335850Y-115722400D01*
X117177100Y-115881150D01*
X117174028Y-116070400D01*
X117179977Y-116130800D01*
X117013446Y-116130800D01*
X116962937Y-116036306D01*
X116883585Y-115939615D01*
X116786894Y-115860263D01*
X116676580Y-115801298D01*
X116556882Y-115764988D01*
X116432400Y-115752728D01*
X113932400Y-115752728D01*
X113905900Y-115755338D01*
X113905900Y-115486262D01*
X113932400Y-115488872D01*
X116432400Y-115488872D01*
X116556882Y-115476612D01*
X116676580Y-115440302D01*
X116786894Y-115381337D01*
X116883585Y-115301985D01*
X116962937Y-115205294D01*
X117013446Y-115110800D01*
X117174973Y-115110800D01*
X117174028Y-115120400D01*
%TA.AperFunction,Conductor*%
D19*
G36*
X117174028Y-115120400D02*
G01*
X117177100Y-115309650D01*
X117335850Y-115468400D01*
X118085100Y-115468400D01*
X118085100Y-115448400D01*
X118277101Y-115448400D01*
X118277101Y-115742400D01*
X118085100Y-115742400D01*
X118085100Y-115722400D01*
X117335850Y-115722400D01*
X117177100Y-115881150D01*
X117174028Y-116070400D01*
X117179977Y-116130800D01*
X117013446Y-116130800D01*
X116962937Y-116036306D01*
X116883585Y-115939615D01*
X116786894Y-115860263D01*
X116676580Y-115801298D01*
X116556882Y-115764988D01*
X116432400Y-115752728D01*
X113932400Y-115752728D01*
X113905900Y-115755338D01*
X113905900Y-115486262D01*
X113932400Y-115488872D01*
X116432400Y-115488872D01*
X116556882Y-115476612D01*
X116676580Y-115440302D01*
X116786894Y-115381337D01*
X116883585Y-115301985D01*
X116962937Y-115205294D01*
X117013446Y-115110800D01*
X117174973Y-115110800D01*
X117174028Y-115120400D01*
G37*
%TD.AperFunction*%
%TD*%
M02*
