%TF.GenerationSoftware,KiCad,Pcbnew,(5.1.10)-1*%
%TF.CreationDate,2021-08-13T02:35:10+08:00*%
%TF.ProjectId,Pmod-8bitDAC-R-2R,506d6f64-2d38-4626-9974-4441432d522d,rev?*%
%TF.SameCoordinates,Original*%
%TF.FileFunction,Legend,Bot*%
%TF.FilePolarity,Positive*%
%FSLAX46Y46*%
G04 Gerber Fmt 4.6, Leading zero omitted, Abs format (unit mm)*
G04 Created by KiCad (PCBNEW (5.1.10)-1) date 2021-08-13 02:35:10*
%MOMM*%
%LPD*%
G01*
G04 APERTURE LIST*
%ADD10C,0.150000*%
G04 APERTURE END LIST*
D10*
X134543252Y-122610619D02*
X134495633Y-122563000D01*
X134400395Y-122515380D01*
X134162300Y-122515380D01*
X134067061Y-122563000D01*
X134019442Y-122610619D01*
X133971823Y-122705857D01*
X133971823Y-122801095D01*
X134019442Y-122943952D01*
X134590871Y-123515380D01*
X133971823Y-123515380D01*
X133352776Y-122515380D02*
X133257538Y-122515380D01*
X133162300Y-122563000D01*
X133114680Y-122610619D01*
X133067061Y-122705857D01*
X133019442Y-122896333D01*
X133019442Y-123134428D01*
X133067061Y-123324904D01*
X133114680Y-123420142D01*
X133162300Y-123467761D01*
X133257538Y-123515380D01*
X133352776Y-123515380D01*
X133448014Y-123467761D01*
X133495633Y-123420142D01*
X133543252Y-123324904D01*
X133590871Y-123134428D01*
X133590871Y-122896333D01*
X133543252Y-122705857D01*
X133495633Y-122610619D01*
X133448014Y-122563000D01*
X133352776Y-122515380D01*
X132638490Y-122610619D02*
X132590871Y-122563000D01*
X132495633Y-122515380D01*
X132257538Y-122515380D01*
X132162300Y-122563000D01*
X132114680Y-122610619D01*
X132067061Y-122705857D01*
X132067061Y-122801095D01*
X132114680Y-122943952D01*
X132686109Y-123515380D01*
X132067061Y-123515380D01*
X131114680Y-123515380D02*
X131686109Y-123515380D01*
X131400395Y-123515380D02*
X131400395Y-122515380D01*
X131495633Y-122658238D01*
X131590871Y-122753476D01*
X131686109Y-122801095D01*
X130686109Y-123134428D02*
X129924204Y-123134428D01*
X129305157Y-122943952D02*
X129400395Y-122896333D01*
X129448014Y-122848714D01*
X129495633Y-122753476D01*
X129495633Y-122705857D01*
X129448014Y-122610619D01*
X129400395Y-122563000D01*
X129305157Y-122515380D01*
X129114680Y-122515380D01*
X129019442Y-122563000D01*
X128971823Y-122610619D01*
X128924204Y-122705857D01*
X128924204Y-122753476D01*
X128971823Y-122848714D01*
X129019442Y-122896333D01*
X129114680Y-122943952D01*
X129305157Y-122943952D01*
X129400395Y-122991571D01*
X129448014Y-123039190D01*
X129495633Y-123134428D01*
X129495633Y-123324904D01*
X129448014Y-123420142D01*
X129400395Y-123467761D01*
X129305157Y-123515380D01*
X129114680Y-123515380D01*
X129019442Y-123467761D01*
X128971823Y-123420142D01*
X128924204Y-123324904D01*
X128924204Y-123134428D01*
X128971823Y-123039190D01*
X129019442Y-122991571D01*
X129114680Y-122943952D01*
X128495633Y-123134428D02*
X127733728Y-123134428D01*
X126733728Y-123515380D02*
X127305157Y-123515380D01*
X127019442Y-123515380D02*
X127019442Y-122515380D01*
X127114680Y-122658238D01*
X127209919Y-122753476D01*
X127305157Y-122801095D01*
X126400395Y-122515380D02*
X125781347Y-122515380D01*
X126114680Y-122896333D01*
X125971823Y-122896333D01*
X125876585Y-122943952D01*
X125828966Y-122991571D01*
X125781347Y-123086809D01*
X125781347Y-123324904D01*
X125828966Y-123420142D01*
X125876585Y-123467761D01*
X125971823Y-123515380D01*
X126257538Y-123515380D01*
X126352776Y-123467761D01*
X126400395Y-123420142D01*
X116192176Y-127823166D02*
X115696938Y-127823166D01*
X115963604Y-128089833D01*
X115849319Y-128089833D01*
X115773128Y-128123166D01*
X115735033Y-128156500D01*
X115696938Y-128223166D01*
X115696938Y-128389833D01*
X115735033Y-128456500D01*
X115773128Y-128489833D01*
X115849319Y-128523166D01*
X116077890Y-128523166D01*
X116154080Y-128489833D01*
X116192176Y-128456500D01*
X115468366Y-127823166D02*
X115201700Y-128523166D01*
X114935033Y-127823166D01*
X114744557Y-127823166D02*
X114249319Y-127823166D01*
X114515985Y-128089833D01*
X114401700Y-128089833D01*
X114325509Y-128123166D01*
X114287414Y-128156500D01*
X114249319Y-128223166D01*
X114249319Y-128389833D01*
X114287414Y-128456500D01*
X114325509Y-128489833D01*
X114401700Y-128523166D01*
X114630271Y-128523166D01*
X114706461Y-128489833D01*
X114744557Y-128456500D01*
X115811223Y-125431600D02*
X115887414Y-125393504D01*
X116001700Y-125393504D01*
X116115985Y-125431600D01*
X116192176Y-125507790D01*
X116230271Y-125583980D01*
X116268366Y-125736361D01*
X116268366Y-125850647D01*
X116230271Y-126003028D01*
X116192176Y-126079219D01*
X116115985Y-126155409D01*
X116001700Y-126193504D01*
X115925509Y-126193504D01*
X115811223Y-126155409D01*
X115773128Y-126117314D01*
X115773128Y-125850647D01*
X115925509Y-125850647D01*
X115430271Y-126193504D02*
X115430271Y-125393504D01*
X114973128Y-126193504D01*
X114973128Y-125393504D01*
X114592176Y-126193504D02*
X114592176Y-125393504D01*
X114401700Y-125393504D01*
X114287414Y-125431600D01*
X114211223Y-125507790D01*
X114173128Y-125583980D01*
X114135033Y-125736361D01*
X114135033Y-125850647D01*
X114173128Y-126003028D01*
X114211223Y-126079219D01*
X114287414Y-126155409D01*
X114401700Y-126193504D01*
X114592176Y-126193504D01*
X115792176Y-123653504D02*
X115792176Y-122853504D01*
X115601700Y-122853504D01*
X115487414Y-122891600D01*
X115411223Y-122967790D01*
X115373128Y-123043980D01*
X115335033Y-123196361D01*
X115335033Y-123310647D01*
X115373128Y-123463028D01*
X115411223Y-123539219D01*
X115487414Y-123615409D01*
X115601700Y-123653504D01*
X115792176Y-123653504D01*
X115068366Y-122853504D02*
X114535033Y-122853504D01*
X114877890Y-123653504D01*
X115792176Y-121113504D02*
X115792176Y-120313504D01*
X115601700Y-120313504D01*
X115487414Y-120351600D01*
X115411223Y-120427790D01*
X115373128Y-120503980D01*
X115335033Y-120656361D01*
X115335033Y-120770647D01*
X115373128Y-120923028D01*
X115411223Y-120999219D01*
X115487414Y-121075409D01*
X115601700Y-121113504D01*
X115792176Y-121113504D01*
X114649319Y-120313504D02*
X114801700Y-120313504D01*
X114877890Y-120351600D01*
X114915985Y-120389695D01*
X114992176Y-120503980D01*
X115030271Y-120656361D01*
X115030271Y-120961123D01*
X114992176Y-121037314D01*
X114954080Y-121075409D01*
X114877890Y-121113504D01*
X114725509Y-121113504D01*
X114649319Y-121075409D01*
X114611223Y-121037314D01*
X114573128Y-120961123D01*
X114573128Y-120770647D01*
X114611223Y-120694457D01*
X114649319Y-120656361D01*
X114725509Y-120618266D01*
X114877890Y-120618266D01*
X114954080Y-120656361D01*
X114992176Y-120694457D01*
X115030271Y-120770647D01*
X115792176Y-118573504D02*
X115792176Y-117773504D01*
X115601700Y-117773504D01*
X115487414Y-117811600D01*
X115411223Y-117887790D01*
X115373128Y-117963980D01*
X115335033Y-118116361D01*
X115335033Y-118230647D01*
X115373128Y-118383028D01*
X115411223Y-118459219D01*
X115487414Y-118535409D01*
X115601700Y-118573504D01*
X115792176Y-118573504D01*
X114611223Y-117773504D02*
X114992176Y-117773504D01*
X115030271Y-118154457D01*
X114992176Y-118116361D01*
X114915985Y-118078266D01*
X114725509Y-118078266D01*
X114649319Y-118116361D01*
X114611223Y-118154457D01*
X114573128Y-118230647D01*
X114573128Y-118421123D01*
X114611223Y-118497314D01*
X114649319Y-118535409D01*
X114725509Y-118573504D01*
X114915985Y-118573504D01*
X114992176Y-118535409D01*
X115030271Y-118497314D01*
X115792176Y-116033504D02*
X115792176Y-115233504D01*
X115601700Y-115233504D01*
X115487414Y-115271600D01*
X115411223Y-115347790D01*
X115373128Y-115423980D01*
X115335033Y-115576361D01*
X115335033Y-115690647D01*
X115373128Y-115843028D01*
X115411223Y-115919219D01*
X115487414Y-115995409D01*
X115601700Y-116033504D01*
X115792176Y-116033504D01*
X114649319Y-115500171D02*
X114649319Y-116033504D01*
X114839795Y-115195409D02*
X115030271Y-115766838D01*
X114535033Y-115766838D01*
X142695747Y-116361804D02*
X142962414Y-115980852D01*
X143152890Y-116361804D02*
X143152890Y-115561804D01*
X142848128Y-115561804D01*
X142771938Y-115599900D01*
X142733842Y-115637995D01*
X142695747Y-115714185D01*
X142695747Y-115828471D01*
X142733842Y-115904661D01*
X142771938Y-115942757D01*
X142848128Y-115980852D01*
X143152890Y-115980852D01*
X141933842Y-116361804D02*
X142390985Y-116361804D01*
X142162414Y-116361804D02*
X142162414Y-115561804D01*
X142238604Y-115676090D01*
X142314795Y-115752280D01*
X142390985Y-115790376D01*
X141857652Y-115485614D02*
X141171938Y-116514185D01*
X140600509Y-116361804D02*
X140867176Y-115980852D01*
X141057652Y-116361804D02*
X141057652Y-115561804D01*
X140752890Y-115561804D01*
X140676700Y-115599900D01*
X140638604Y-115637995D01*
X140600509Y-115714185D01*
X140600509Y-115828471D01*
X140638604Y-115904661D01*
X140676700Y-115942757D01*
X140752890Y-115980852D01*
X141057652Y-115980852D01*
X140295747Y-115637995D02*
X140257652Y-115599900D01*
X140181461Y-115561804D01*
X139990985Y-115561804D01*
X139914795Y-115599900D01*
X139876700Y-115637995D01*
X139838604Y-115714185D01*
X139838604Y-115790376D01*
X139876700Y-115904661D01*
X140333842Y-116361804D01*
X139838604Y-116361804D01*
X139762414Y-115485614D02*
X139076700Y-116514185D01*
X138505271Y-116361804D02*
X138771938Y-115980852D01*
X138962414Y-116361804D02*
X138962414Y-115561804D01*
X138657652Y-115561804D01*
X138581461Y-115599900D01*
X138543366Y-115637995D01*
X138505271Y-115714185D01*
X138505271Y-115828471D01*
X138543366Y-115904661D01*
X138581461Y-115942757D01*
X138657652Y-115980852D01*
X138962414Y-115980852D01*
X137819557Y-115828471D02*
X137819557Y-116361804D01*
X138010033Y-115523709D02*
X138200509Y-116095138D01*
X137705271Y-116095138D01*
X137667176Y-115485614D02*
X136981461Y-116514185D01*
X136410033Y-116361804D02*
X136676700Y-115980852D01*
X136867176Y-116361804D02*
X136867176Y-115561804D01*
X136562414Y-115561804D01*
X136486223Y-115599900D01*
X136448128Y-115637995D01*
X136410033Y-115714185D01*
X136410033Y-115828471D01*
X136448128Y-115904661D01*
X136486223Y-115942757D01*
X136562414Y-115980852D01*
X136867176Y-115980852D01*
X135724319Y-115561804D02*
X135876700Y-115561804D01*
X135952890Y-115599900D01*
X135990985Y-115637995D01*
X136067176Y-115752280D01*
X136105271Y-115904661D01*
X136105271Y-116209423D01*
X136067176Y-116285614D01*
X136029080Y-116323709D01*
X135952890Y-116361804D01*
X135800509Y-116361804D01*
X135724319Y-116323709D01*
X135686223Y-116285614D01*
X135648128Y-116209423D01*
X135648128Y-116018947D01*
X135686223Y-115942757D01*
X135724319Y-115904661D01*
X135800509Y-115866566D01*
X135952890Y-115866566D01*
X136029080Y-115904661D01*
X136067176Y-115942757D01*
X136105271Y-116018947D01*
X135571938Y-115485614D02*
X134886223Y-116514185D01*
X134314795Y-116361804D02*
X134581461Y-115980852D01*
X134771938Y-116361804D02*
X134771938Y-115561804D01*
X134467176Y-115561804D01*
X134390985Y-115599900D01*
X134352890Y-115637995D01*
X134314795Y-115714185D01*
X134314795Y-115828471D01*
X134352890Y-115904661D01*
X134390985Y-115942757D01*
X134467176Y-115980852D01*
X134771938Y-115980852D01*
X133857652Y-115904661D02*
X133933842Y-115866566D01*
X133971938Y-115828471D01*
X134010033Y-115752280D01*
X134010033Y-115714185D01*
X133971938Y-115637995D01*
X133933842Y-115599900D01*
X133857652Y-115561804D01*
X133705271Y-115561804D01*
X133629080Y-115599900D01*
X133590985Y-115637995D01*
X133552890Y-115714185D01*
X133552890Y-115752280D01*
X133590985Y-115828471D01*
X133629080Y-115866566D01*
X133705271Y-115904661D01*
X133857652Y-115904661D01*
X133933842Y-115942757D01*
X133971938Y-115980852D01*
X134010033Y-116057042D01*
X134010033Y-116209423D01*
X133971938Y-116285614D01*
X133933842Y-116323709D01*
X133857652Y-116361804D01*
X133705271Y-116361804D01*
X133629080Y-116323709D01*
X133590985Y-116285614D01*
X133552890Y-116209423D01*
X133552890Y-116057042D01*
X133590985Y-115980852D01*
X133629080Y-115942757D01*
X133705271Y-115904661D01*
X133476700Y-115485614D02*
X132790985Y-116514185D01*
X132219557Y-116361804D02*
X132486223Y-115980852D01*
X132676700Y-116361804D02*
X132676700Y-115561804D01*
X132371938Y-115561804D01*
X132295747Y-115599900D01*
X132257652Y-115637995D01*
X132219557Y-115714185D01*
X132219557Y-115828471D01*
X132257652Y-115904661D01*
X132295747Y-115942757D01*
X132371938Y-115980852D01*
X132676700Y-115980852D01*
X131457652Y-116361804D02*
X131914795Y-116361804D01*
X131686223Y-116361804D02*
X131686223Y-115561804D01*
X131762414Y-115676090D01*
X131838604Y-115752280D01*
X131914795Y-115790376D01*
X130962414Y-115561804D02*
X130886223Y-115561804D01*
X130810033Y-115599900D01*
X130771938Y-115637995D01*
X130733842Y-115714185D01*
X130695747Y-115866566D01*
X130695747Y-116057042D01*
X130733842Y-116209423D01*
X130771938Y-116285614D01*
X130810033Y-116323709D01*
X130886223Y-116361804D01*
X130962414Y-116361804D01*
X131038604Y-116323709D01*
X131076700Y-116285614D01*
X131114795Y-116209423D01*
X131152890Y-116057042D01*
X131152890Y-115866566D01*
X131114795Y-115714185D01*
X131076700Y-115637995D01*
X131038604Y-115599900D01*
X130962414Y-115561804D01*
X130619557Y-115485614D02*
X129933842Y-116514185D01*
X129362414Y-116361804D02*
X129629080Y-115980852D01*
X129819557Y-116361804D02*
X129819557Y-115561804D01*
X129514795Y-115561804D01*
X129438604Y-115599900D01*
X129400509Y-115637995D01*
X129362414Y-115714185D01*
X129362414Y-115828471D01*
X129400509Y-115904661D01*
X129438604Y-115942757D01*
X129514795Y-115980852D01*
X129819557Y-115980852D01*
X128600509Y-116361804D02*
X129057652Y-116361804D01*
X128829080Y-116361804D02*
X128829080Y-115561804D01*
X128905271Y-115676090D01*
X128981461Y-115752280D01*
X129057652Y-115790376D01*
X128295747Y-115637995D02*
X128257652Y-115599900D01*
X128181461Y-115561804D01*
X127990985Y-115561804D01*
X127914795Y-115599900D01*
X127876700Y-115637995D01*
X127838604Y-115714185D01*
X127838604Y-115790376D01*
X127876700Y-115904661D01*
X128333842Y-116361804D01*
X127838604Y-116361804D01*
X127762414Y-115485614D02*
X127076700Y-116514185D01*
X126505271Y-116361804D02*
X126771938Y-115980852D01*
X126962414Y-116361804D02*
X126962414Y-115561804D01*
X126657652Y-115561804D01*
X126581461Y-115599900D01*
X126543366Y-115637995D01*
X126505271Y-115714185D01*
X126505271Y-115828471D01*
X126543366Y-115904661D01*
X126581461Y-115942757D01*
X126657652Y-115980852D01*
X126962414Y-115980852D01*
X125743366Y-116361804D02*
X126200509Y-116361804D01*
X125971938Y-116361804D02*
X125971938Y-115561804D01*
X126048128Y-115676090D01*
X126124319Y-115752280D01*
X126200509Y-115790376D01*
X125057652Y-115828471D02*
X125057652Y-116361804D01*
X125248128Y-115523709D02*
X125438604Y-116095138D01*
X124943366Y-116095138D01*
X124905271Y-115485614D02*
X124219557Y-116514185D01*
X123648128Y-116361804D02*
X123914795Y-115980852D01*
X124105271Y-116361804D02*
X124105271Y-115561804D01*
X123800509Y-115561804D01*
X123724319Y-115599900D01*
X123686223Y-115637995D01*
X123648128Y-115714185D01*
X123648128Y-115828471D01*
X123686223Y-115904661D01*
X123724319Y-115942757D01*
X123800509Y-115980852D01*
X124105271Y-115980852D01*
X122886223Y-116361804D02*
X123343366Y-116361804D01*
X123114795Y-116361804D02*
X123114795Y-115561804D01*
X123190985Y-115676090D01*
X123267176Y-115752280D01*
X123343366Y-115790376D01*
X122200509Y-115561804D02*
X122352890Y-115561804D01*
X122429080Y-115599900D01*
X122467176Y-115637995D01*
X122543366Y-115752280D01*
X122581461Y-115904661D01*
X122581461Y-116209423D01*
X122543366Y-116285614D01*
X122505271Y-116323709D01*
X122429080Y-116361804D01*
X122276700Y-116361804D01*
X122200509Y-116323709D01*
X122162414Y-116285614D01*
X122124319Y-116209423D01*
X122124319Y-116018947D01*
X122162414Y-115942757D01*
X122200509Y-115904661D01*
X122276700Y-115866566D01*
X122429080Y-115866566D01*
X122505271Y-115904661D01*
X122543366Y-115942757D01*
X122581461Y-116018947D01*
X121171938Y-116285614D02*
X121133842Y-116323709D01*
X121171938Y-116361804D01*
X121210033Y-116323709D01*
X121171938Y-116285614D01*
X121171938Y-116361804D01*
X121171938Y-115866566D02*
X121133842Y-115904661D01*
X121171938Y-115942757D01*
X121210033Y-115904661D01*
X121171938Y-115866566D01*
X121171938Y-115942757D01*
X120219557Y-115637995D02*
X120181461Y-115599900D01*
X120105271Y-115561804D01*
X119914795Y-115561804D01*
X119838604Y-115599900D01*
X119800509Y-115637995D01*
X119762414Y-115714185D01*
X119762414Y-115790376D01*
X119800509Y-115904661D01*
X120257652Y-116361804D01*
X119762414Y-116361804D01*
X118962414Y-116361804D02*
X119229080Y-115980852D01*
X119419557Y-116361804D02*
X119419557Y-115561804D01*
X119114795Y-115561804D01*
X119038604Y-115599900D01*
X119000509Y-115637995D01*
X118962414Y-115714185D01*
X118962414Y-115828471D01*
X119000509Y-115904661D01*
X119038604Y-115942757D01*
X119114795Y-115980852D01*
X119419557Y-115980852D01*
X140143366Y-117711804D02*
X140410033Y-117330852D01*
X140600509Y-117711804D02*
X140600509Y-116911804D01*
X140295747Y-116911804D01*
X140219557Y-116949900D01*
X140181461Y-116987995D01*
X140143366Y-117064185D01*
X140143366Y-117178471D01*
X140181461Y-117254661D01*
X140219557Y-117292757D01*
X140295747Y-117330852D01*
X140600509Y-117330852D01*
X139876700Y-116911804D02*
X139381461Y-116911804D01*
X139648128Y-117216566D01*
X139533842Y-117216566D01*
X139457652Y-117254661D01*
X139419557Y-117292757D01*
X139381461Y-117368947D01*
X139381461Y-117559423D01*
X139419557Y-117635614D01*
X139457652Y-117673709D01*
X139533842Y-117711804D01*
X139762414Y-117711804D01*
X139838604Y-117673709D01*
X139876700Y-117635614D01*
X139305271Y-116835614D02*
X138619557Y-117864185D01*
X138048128Y-117711804D02*
X138314795Y-117330852D01*
X138505271Y-117711804D02*
X138505271Y-116911804D01*
X138200509Y-116911804D01*
X138124319Y-116949900D01*
X138086223Y-116987995D01*
X138048128Y-117064185D01*
X138048128Y-117178471D01*
X138086223Y-117254661D01*
X138124319Y-117292757D01*
X138200509Y-117330852D01*
X138505271Y-117330852D01*
X137324319Y-116911804D02*
X137705271Y-116911804D01*
X137743366Y-117292757D01*
X137705271Y-117254661D01*
X137629080Y-117216566D01*
X137438604Y-117216566D01*
X137362414Y-117254661D01*
X137324319Y-117292757D01*
X137286223Y-117368947D01*
X137286223Y-117559423D01*
X137324319Y-117635614D01*
X137362414Y-117673709D01*
X137438604Y-117711804D01*
X137629080Y-117711804D01*
X137705271Y-117673709D01*
X137743366Y-117635614D01*
X137210033Y-116835614D02*
X136524319Y-117864185D01*
X135952890Y-117711804D02*
X136219557Y-117330852D01*
X136410033Y-117711804D02*
X136410033Y-116911804D01*
X136105271Y-116911804D01*
X136029080Y-116949900D01*
X135990985Y-116987995D01*
X135952890Y-117064185D01*
X135952890Y-117178471D01*
X135990985Y-117254661D01*
X136029080Y-117292757D01*
X136105271Y-117330852D01*
X136410033Y-117330852D01*
X135686223Y-116911804D02*
X135152890Y-116911804D01*
X135495747Y-117711804D01*
X135114795Y-116835614D02*
X134429080Y-117864185D01*
X133857652Y-117711804D02*
X134124319Y-117330852D01*
X134314795Y-117711804D02*
X134314795Y-116911804D01*
X134010033Y-116911804D01*
X133933842Y-116949900D01*
X133895747Y-116987995D01*
X133857652Y-117064185D01*
X133857652Y-117178471D01*
X133895747Y-117254661D01*
X133933842Y-117292757D01*
X134010033Y-117330852D01*
X134314795Y-117330852D01*
X133476700Y-117711804D02*
X133324319Y-117711804D01*
X133248128Y-117673709D01*
X133210033Y-117635614D01*
X133133842Y-117521328D01*
X133095747Y-117368947D01*
X133095747Y-117064185D01*
X133133842Y-116987995D01*
X133171938Y-116949900D01*
X133248128Y-116911804D01*
X133400509Y-116911804D01*
X133476700Y-116949900D01*
X133514795Y-116987995D01*
X133552890Y-117064185D01*
X133552890Y-117254661D01*
X133514795Y-117330852D01*
X133476700Y-117368947D01*
X133400509Y-117407042D01*
X133248128Y-117407042D01*
X133171938Y-117368947D01*
X133133842Y-117330852D01*
X133095747Y-117254661D01*
X133019557Y-116835614D02*
X132333842Y-117864185D01*
X131762414Y-117711804D02*
X132029080Y-117330852D01*
X132219557Y-117711804D02*
X132219557Y-116911804D01*
X131914795Y-116911804D01*
X131838604Y-116949900D01*
X131800509Y-116987995D01*
X131762414Y-117064185D01*
X131762414Y-117178471D01*
X131800509Y-117254661D01*
X131838604Y-117292757D01*
X131914795Y-117330852D01*
X132219557Y-117330852D01*
X131000509Y-117711804D02*
X131457652Y-117711804D01*
X131229080Y-117711804D02*
X131229080Y-116911804D01*
X131305271Y-117026090D01*
X131381461Y-117102280D01*
X131457652Y-117140376D01*
X130238604Y-117711804D02*
X130695747Y-117711804D01*
X130467176Y-117711804D02*
X130467176Y-116911804D01*
X130543366Y-117026090D01*
X130619557Y-117102280D01*
X130695747Y-117140376D01*
X130162414Y-116835614D02*
X129476700Y-117864185D01*
X128905271Y-117711804D02*
X129171938Y-117330852D01*
X129362414Y-117711804D02*
X129362414Y-116911804D01*
X129057652Y-116911804D01*
X128981461Y-116949900D01*
X128943366Y-116987995D01*
X128905271Y-117064185D01*
X128905271Y-117178471D01*
X128943366Y-117254661D01*
X128981461Y-117292757D01*
X129057652Y-117330852D01*
X129362414Y-117330852D01*
X128143366Y-117711804D02*
X128600509Y-117711804D01*
X128371938Y-117711804D02*
X128371938Y-116911804D01*
X128448128Y-117026090D01*
X128524319Y-117102280D01*
X128600509Y-117140376D01*
X127876700Y-116911804D02*
X127381461Y-116911804D01*
X127648128Y-117216566D01*
X127533842Y-117216566D01*
X127457652Y-117254661D01*
X127419557Y-117292757D01*
X127381461Y-117368947D01*
X127381461Y-117559423D01*
X127419557Y-117635614D01*
X127457652Y-117673709D01*
X127533842Y-117711804D01*
X127762414Y-117711804D01*
X127838604Y-117673709D01*
X127876700Y-117635614D01*
X127305271Y-116835614D02*
X126619557Y-117864185D01*
X126048128Y-117711804D02*
X126314795Y-117330852D01*
X126505271Y-117711804D02*
X126505271Y-116911804D01*
X126200509Y-116911804D01*
X126124319Y-116949900D01*
X126086223Y-116987995D01*
X126048128Y-117064185D01*
X126048128Y-117178471D01*
X126086223Y-117254661D01*
X126124319Y-117292757D01*
X126200509Y-117330852D01*
X126505271Y-117330852D01*
X125286223Y-117711804D02*
X125743366Y-117711804D01*
X125514795Y-117711804D02*
X125514795Y-116911804D01*
X125590985Y-117026090D01*
X125667176Y-117102280D01*
X125743366Y-117140376D01*
X124562414Y-116911804D02*
X124943366Y-116911804D01*
X124981461Y-117292757D01*
X124943366Y-117254661D01*
X124867176Y-117216566D01*
X124676700Y-117216566D01*
X124600509Y-117254661D01*
X124562414Y-117292757D01*
X124524319Y-117368947D01*
X124524319Y-117559423D01*
X124562414Y-117635614D01*
X124600509Y-117673709D01*
X124676700Y-117711804D01*
X124867176Y-117711804D01*
X124943366Y-117673709D01*
X124981461Y-117635614D01*
X122962414Y-117635614D02*
X122924319Y-117673709D01*
X122962414Y-117711804D01*
X123000509Y-117673709D01*
X122962414Y-117635614D01*
X122962414Y-117711804D01*
X122962414Y-117216566D02*
X122924319Y-117254661D01*
X122962414Y-117292757D01*
X123000509Y-117254661D01*
X122962414Y-117216566D01*
X122962414Y-117292757D01*
X121514795Y-117711804D02*
X121781461Y-117330852D01*
X121971938Y-117711804D02*
X121971938Y-116911804D01*
X121667176Y-116911804D01*
X121590985Y-116949900D01*
X121552890Y-116987995D01*
X121514795Y-117064185D01*
X121514795Y-117178471D01*
X121552890Y-117254661D01*
X121590985Y-117292757D01*
X121667176Y-117330852D01*
X121971938Y-117330852D01*
X135136947Y-127163580D02*
X135136947Y-127877866D01*
X135184566Y-128020723D01*
X135279804Y-128115961D01*
X135422661Y-128163580D01*
X135517900Y-128163580D01*
X134184566Y-128163580D02*
X134660757Y-128163580D01*
X134660757Y-127163580D01*
X133279804Y-128068342D02*
X133327423Y-128115961D01*
X133470280Y-128163580D01*
X133565519Y-128163580D01*
X133708376Y-128115961D01*
X133803614Y-128020723D01*
X133851233Y-127925485D01*
X133898852Y-127735009D01*
X133898852Y-127592152D01*
X133851233Y-127401676D01*
X133803614Y-127306438D01*
X133708376Y-127211200D01*
X133565519Y-127163580D01*
X133470280Y-127163580D01*
X133327423Y-127211200D01*
X133279804Y-127258819D01*
X132565519Y-127163580D02*
X132565519Y-127877866D01*
X132613138Y-128020723D01*
X132708376Y-128115961D01*
X132851233Y-128163580D01*
X132946471Y-128163580D01*
X131613138Y-128163580D02*
X132089328Y-128163580D01*
X132089328Y-127163580D01*
X130708376Y-128068342D02*
X130755995Y-128115961D01*
X130898852Y-128163580D01*
X130994090Y-128163580D01*
X131136947Y-128115961D01*
X131232185Y-128020723D01*
X131279804Y-127925485D01*
X131327423Y-127735009D01*
X131327423Y-127592152D01*
X131279804Y-127401676D01*
X131232185Y-127306438D01*
X131136947Y-127211200D01*
X130994090Y-127163580D01*
X130898852Y-127163580D01*
X130755995Y-127211200D01*
X130708376Y-127258819D01*
X129994090Y-127163580D02*
X129994090Y-127877866D01*
X130041709Y-128020723D01*
X130136947Y-128115961D01*
X130279804Y-128163580D01*
X130375042Y-128163580D01*
X129041709Y-128163580D02*
X129517900Y-128163580D01*
X129517900Y-127163580D01*
X128136947Y-128068342D02*
X128184566Y-128115961D01*
X128327423Y-128163580D01*
X128422661Y-128163580D01*
X128565519Y-128115961D01*
X128660757Y-128020723D01*
X128708376Y-127925485D01*
X128755995Y-127735009D01*
X128755995Y-127592152D01*
X128708376Y-127401676D01*
X128660757Y-127306438D01*
X128565519Y-127211200D01*
X128422661Y-127163580D01*
X128327423Y-127163580D01*
X128184566Y-127211200D01*
X128136947Y-127258819D01*
X127422661Y-127163580D02*
X127422661Y-127877866D01*
X127470280Y-128020723D01*
X127565519Y-128115961D01*
X127708376Y-128163580D01*
X127803614Y-128163580D01*
X126470280Y-128163580D02*
X126946471Y-128163580D01*
X126946471Y-127163580D01*
X125565519Y-128068342D02*
X125613138Y-128115961D01*
X125755995Y-128163580D01*
X125851233Y-128163580D01*
X125994090Y-128115961D01*
X126089328Y-128020723D01*
X126136947Y-127925485D01*
X126184566Y-127735009D01*
X126184566Y-127592152D01*
X126136947Y-127401676D01*
X126089328Y-127306438D01*
X125994090Y-127211200D01*
X125851233Y-127163580D01*
X125755995Y-127163580D01*
X125613138Y-127211200D01*
X125565519Y-127258819D01*
M02*
