%TF.GenerationSoftware,KiCad,Pcbnew,(5.1.10)-1*%
%TF.CreationDate,2021-08-11T02:19:35+08:00*%
%TF.ProjectId,Pmod-8led,506d6f64-2d38-46c6-9564-2e6b69636164,rev?*%
%TF.SameCoordinates,Original*%
%TF.FileFunction,Legend,Top*%
%TF.FilePolarity,Positive*%
%FSLAX46Y46*%
G04 Gerber Fmt 4.6, Leading zero omitted, Abs format (unit mm)*
G04 Created by KiCad (PCBNEW (5.1.10)-1) date 2021-08-11 02:19:35*
%MOMM*%
%LPD*%
G01*
G04 APERTURE LIST*
%ADD10C,0.150000*%
%ADD11C,0.120000*%
%ADD12C,0.010000*%
G04 APERTURE END LIST*
D10*
X155126276Y-108376980D02*
X155126276Y-107376980D01*
X155507228Y-107376980D01*
X155602466Y-107424600D01*
X155650085Y-107472219D01*
X155697704Y-107567457D01*
X155697704Y-107710314D01*
X155650085Y-107805552D01*
X155602466Y-107853171D01*
X155507228Y-107900790D01*
X155126276Y-107900790D01*
X156126276Y-108376980D02*
X156126276Y-107376980D01*
X156459609Y-108091266D01*
X156792942Y-107376980D01*
X156792942Y-108376980D01*
X157459609Y-107376980D02*
X157650085Y-107376980D01*
X157745323Y-107424600D01*
X157840561Y-107519838D01*
X157888180Y-107710314D01*
X157888180Y-108043647D01*
X157840561Y-108234123D01*
X157745323Y-108329361D01*
X157650085Y-108376980D01*
X157459609Y-108376980D01*
X157364371Y-108329361D01*
X157269133Y-108234123D01*
X157221514Y-108043647D01*
X157221514Y-107710314D01*
X157269133Y-107519838D01*
X157364371Y-107424600D01*
X157459609Y-107376980D01*
X158316752Y-108376980D02*
X158316752Y-107376980D01*
X158554847Y-107376980D01*
X158697704Y-107424600D01*
X158792942Y-107519838D01*
X158840561Y-107615076D01*
X158888180Y-107805552D01*
X158888180Y-107948409D01*
X158840561Y-108138885D01*
X158792942Y-108234123D01*
X158697704Y-108329361D01*
X158554847Y-108376980D01*
X158316752Y-108376980D01*
X159316752Y-107996028D02*
X160078657Y-107996028D01*
X160697704Y-107805552D02*
X160602466Y-107757933D01*
X160554847Y-107710314D01*
X160507228Y-107615076D01*
X160507228Y-107567457D01*
X160554847Y-107472219D01*
X160602466Y-107424600D01*
X160697704Y-107376980D01*
X160888180Y-107376980D01*
X160983419Y-107424600D01*
X161031038Y-107472219D01*
X161078657Y-107567457D01*
X161078657Y-107615076D01*
X161031038Y-107710314D01*
X160983419Y-107757933D01*
X160888180Y-107805552D01*
X160697704Y-107805552D01*
X160602466Y-107853171D01*
X160554847Y-107900790D01*
X160507228Y-107996028D01*
X160507228Y-108186504D01*
X160554847Y-108281742D01*
X160602466Y-108329361D01*
X160697704Y-108376980D01*
X160888180Y-108376980D01*
X160983419Y-108329361D01*
X161031038Y-108281742D01*
X161078657Y-108186504D01*
X161078657Y-107996028D01*
X161031038Y-107900790D01*
X160983419Y-107853171D01*
X160888180Y-107805552D01*
X161983419Y-108376980D02*
X161507228Y-108376980D01*
X161507228Y-107376980D01*
X162316752Y-107853171D02*
X162650085Y-107853171D01*
X162792942Y-108376980D02*
X162316752Y-108376980D01*
X162316752Y-107376980D01*
X162792942Y-107376980D01*
X163221514Y-108376980D02*
X163221514Y-107376980D01*
X163459609Y-107376980D01*
X163602466Y-107424600D01*
X163697704Y-107519838D01*
X163745323Y-107615076D01*
X163792942Y-107805552D01*
X163792942Y-107948409D01*
X163745323Y-108138885D01*
X163697704Y-108234123D01*
X163602466Y-108329361D01*
X163459609Y-108376980D01*
X163221514Y-108376980D01*
D11*
X153331800Y-96139000D02*
X153331800Y-111379000D01*
D10*
X150336404Y-109624880D02*
X150955452Y-109624880D01*
X150622119Y-110005833D01*
X150764976Y-110005833D01*
X150860214Y-110053452D01*
X150907833Y-110101071D01*
X150955452Y-110196309D01*
X150955452Y-110434404D01*
X150907833Y-110529642D01*
X150860214Y-110577261D01*
X150764976Y-110624880D01*
X150479261Y-110624880D01*
X150384023Y-110577261D01*
X150336404Y-110529642D01*
X151241166Y-109624880D02*
X151574500Y-110624880D01*
X151907833Y-109624880D01*
X152145928Y-109624880D02*
X152764976Y-109624880D01*
X152431642Y-110005833D01*
X152574500Y-110005833D01*
X152669738Y-110053452D01*
X152717357Y-110101071D01*
X152764976Y-110196309D01*
X152764976Y-110434404D01*
X152717357Y-110529642D01*
X152669738Y-110577261D01*
X152574500Y-110624880D01*
X152288785Y-110624880D01*
X152193547Y-110577261D01*
X152145928Y-110529642D01*
X150812595Y-107132500D02*
X150717357Y-107084880D01*
X150574500Y-107084880D01*
X150431642Y-107132500D01*
X150336404Y-107227738D01*
X150288785Y-107322976D01*
X150241166Y-107513452D01*
X150241166Y-107656309D01*
X150288785Y-107846785D01*
X150336404Y-107942023D01*
X150431642Y-108037261D01*
X150574500Y-108084880D01*
X150669738Y-108084880D01*
X150812595Y-108037261D01*
X150860214Y-107989642D01*
X150860214Y-107656309D01*
X150669738Y-107656309D01*
X151288785Y-108084880D02*
X151288785Y-107084880D01*
X151860214Y-108084880D01*
X151860214Y-107084880D01*
X152336404Y-108084880D02*
X152336404Y-107084880D01*
X152574500Y-107084880D01*
X152717357Y-107132500D01*
X152812595Y-107227738D01*
X152860214Y-107322976D01*
X152907833Y-107513452D01*
X152907833Y-107656309D01*
X152860214Y-107846785D01*
X152812595Y-107942023D01*
X152717357Y-108037261D01*
X152574500Y-108084880D01*
X152336404Y-108084880D01*
X150836404Y-105544880D02*
X150836404Y-104544880D01*
X151074500Y-104544880D01*
X151217357Y-104592500D01*
X151312595Y-104687738D01*
X151360214Y-104782976D01*
X151407833Y-104973452D01*
X151407833Y-105116309D01*
X151360214Y-105306785D01*
X151312595Y-105402023D01*
X151217357Y-105497261D01*
X151074500Y-105544880D01*
X150836404Y-105544880D01*
X151741166Y-104544880D02*
X152360214Y-104544880D01*
X152026880Y-104925833D01*
X152169738Y-104925833D01*
X152264976Y-104973452D01*
X152312595Y-105021071D01*
X152360214Y-105116309D01*
X152360214Y-105354404D01*
X152312595Y-105449642D01*
X152264976Y-105497261D01*
X152169738Y-105544880D01*
X151884023Y-105544880D01*
X151788785Y-105497261D01*
X151741166Y-105449642D01*
X150836404Y-103004880D02*
X150836404Y-102004880D01*
X151074500Y-102004880D01*
X151217357Y-102052500D01*
X151312595Y-102147738D01*
X151360214Y-102242976D01*
X151407833Y-102433452D01*
X151407833Y-102576309D01*
X151360214Y-102766785D01*
X151312595Y-102862023D01*
X151217357Y-102957261D01*
X151074500Y-103004880D01*
X150836404Y-103004880D01*
X151788785Y-102100119D02*
X151836404Y-102052500D01*
X151931642Y-102004880D01*
X152169738Y-102004880D01*
X152264976Y-102052500D01*
X152312595Y-102100119D01*
X152360214Y-102195357D01*
X152360214Y-102290595D01*
X152312595Y-102433452D01*
X151741166Y-103004880D01*
X152360214Y-103004880D01*
X150836404Y-100464880D02*
X150836404Y-99464880D01*
X151074500Y-99464880D01*
X151217357Y-99512500D01*
X151312595Y-99607738D01*
X151360214Y-99702976D01*
X151407833Y-99893452D01*
X151407833Y-100036309D01*
X151360214Y-100226785D01*
X151312595Y-100322023D01*
X151217357Y-100417261D01*
X151074500Y-100464880D01*
X150836404Y-100464880D01*
X152360214Y-100464880D02*
X151788785Y-100464880D01*
X152074500Y-100464880D02*
X152074500Y-99464880D01*
X151979261Y-99607738D01*
X151884023Y-99702976D01*
X151788785Y-99750595D01*
X150836404Y-97924880D02*
X150836404Y-96924880D01*
X151074500Y-96924880D01*
X151217357Y-96972500D01*
X151312595Y-97067738D01*
X151360214Y-97162976D01*
X151407833Y-97353452D01*
X151407833Y-97496309D01*
X151360214Y-97686785D01*
X151312595Y-97782023D01*
X151217357Y-97877261D01*
X151074500Y-97924880D01*
X150836404Y-97924880D01*
X152026880Y-96924880D02*
X152122119Y-96924880D01*
X152217357Y-96972500D01*
X152264976Y-97020119D01*
X152312595Y-97115357D01*
X152360214Y-97305833D01*
X152360214Y-97543928D01*
X152312595Y-97734404D01*
X152264976Y-97829642D01*
X152217357Y-97877261D01*
X152122119Y-97924880D01*
X152026880Y-97924880D01*
X151931642Y-97877261D01*
X151884023Y-97829642D01*
X151836404Y-97734404D01*
X151788785Y-97543928D01*
X151788785Y-97305833D01*
X151836404Y-97115357D01*
X151884023Y-97020119D01*
X151931642Y-96972500D01*
X152026880Y-96924880D01*
D12*
%TO.C,G\u002A\u002A\u002A*%
G36*
X167314472Y-106156181D02*
G01*
X167464823Y-106160818D01*
X167608716Y-106169635D01*
X167734047Y-106182283D01*
X167817981Y-106196006D01*
X167893942Y-106218671D01*
X167995835Y-106257914D01*
X168113158Y-106308757D01*
X168235412Y-106366217D01*
X168352096Y-106425315D01*
X168452710Y-106481070D01*
X168526752Y-106528501D01*
X168539703Y-106538333D01*
X168613705Y-106588750D01*
X168696184Y-106632737D01*
X168726697Y-106645479D01*
X168866090Y-106713495D01*
X169015440Y-106816617D01*
X169169650Y-106950383D01*
X169323624Y-107110331D01*
X169472269Y-107292001D01*
X169485971Y-107310286D01*
X169639778Y-107530132D01*
X169759252Y-107730473D01*
X169845897Y-107914335D01*
X169901220Y-108084746D01*
X169920262Y-108183613D01*
X169925887Y-108235698D01*
X169920911Y-108272830D01*
X169899315Y-108307705D01*
X169855076Y-108353022D01*
X169827744Y-108378740D01*
X169725810Y-108457662D01*
X169592039Y-108537025D01*
X169436664Y-108612530D01*
X169269915Y-108679878D01*
X169102023Y-108734769D01*
X168943220Y-108772906D01*
X168859372Y-108785647D01*
X168794491Y-108794705D01*
X168745502Y-108809109D01*
X168700086Y-108835484D01*
X168645926Y-108880449D01*
X168594789Y-108927875D01*
X168520916Y-108994550D01*
X168446630Y-109056753D01*
X168385562Y-109103173D01*
X168374484Y-109110647D01*
X168299977Y-109155271D01*
X168218797Y-109198107D01*
X168142388Y-109233722D01*
X168082197Y-109256683D01*
X168054882Y-109262333D01*
X168030024Y-109270543D01*
X168031523Y-109297890D01*
X168060649Y-109348449D01*
X168097471Y-109398936D01*
X168152292Y-109486294D01*
X168208261Y-109602099D01*
X168259911Y-109732985D01*
X168301774Y-109865588D01*
X168320873Y-109945024D01*
X168344261Y-110029551D01*
X168373746Y-110078347D01*
X168390131Y-110090543D01*
X168442507Y-110102908D01*
X168520036Y-110103786D01*
X168607569Y-110094637D01*
X168689955Y-110076924D01*
X168744380Y-110056352D01*
X168802773Y-110037779D01*
X168883375Y-110026351D01*
X168932721Y-110024333D01*
X169008094Y-110026918D01*
X169057459Y-110038249D01*
X169097008Y-110063687D01*
X169121732Y-110086921D01*
X169171563Y-110160694D01*
X169200060Y-110251972D01*
X169203023Y-110342984D01*
X169192428Y-110386023D01*
X169139615Y-110466153D01*
X169049408Y-110535160D01*
X168925783Y-110590885D01*
X168772719Y-110631170D01*
X168725734Y-110639294D01*
X168601486Y-110652494D01*
X168494330Y-110647393D01*
X168383118Y-110622037D01*
X168321567Y-110601916D01*
X168226317Y-110568666D01*
X168158223Y-110632423D01*
X168097156Y-110681596D01*
X168032707Y-110722157D01*
X168020640Y-110728128D01*
X167959979Y-110745486D01*
X167868054Y-110759231D01*
X167755816Y-110768934D01*
X167634214Y-110774169D01*
X167514198Y-110774511D01*
X167406718Y-110769531D01*
X167322724Y-110758805D01*
X167309307Y-110755835D01*
X167241825Y-110736149D01*
X167190299Y-110715473D01*
X167172782Y-110704348D01*
X167139830Y-110691405D01*
X167079455Y-110682744D01*
X167024775Y-110680500D01*
X166948390Y-110676197D01*
X166883328Y-110665119D01*
X166854384Y-110654855D01*
X166808619Y-110642702D01*
X166723100Y-110635264D01*
X166596919Y-110632482D01*
X166507248Y-110632948D01*
X166206345Y-110636686D01*
X166133641Y-110568117D01*
X166077194Y-110501910D01*
X166041198Y-110424853D01*
X166023896Y-110328997D01*
X166023781Y-110290173D01*
X166081610Y-110290173D01*
X166097498Y-110406612D01*
X166135017Y-110489784D01*
X166196735Y-110542549D01*
X166285219Y-110567764D01*
X166403035Y-110568292D01*
X166465213Y-110561386D01*
X166562100Y-110548106D01*
X166553369Y-110450261D01*
X166548366Y-110384554D01*
X166542448Y-110292456D01*
X166536609Y-110189867D01*
X166534422Y-110147522D01*
X166522709Y-110007462D01*
X166502185Y-109903046D01*
X166470854Y-109828138D01*
X166426718Y-109776600D01*
X166409616Y-109764076D01*
X166334217Y-109731196D01*
X166501073Y-109731196D01*
X166502924Y-109760674D01*
X166517232Y-109795995D01*
X166540878Y-109833842D01*
X166557207Y-109842868D01*
X166559316Y-109839502D01*
X166556630Y-109802935D01*
X166544195Y-109771506D01*
X166516776Y-109733040D01*
X166501073Y-109731196D01*
X166334217Y-109731196D01*
X166328117Y-109728536D01*
X166255753Y-109732973D01*
X166193956Y-109775741D01*
X166144160Y-109855189D01*
X166107801Y-109969669D01*
X166086310Y-110117532D01*
X166084787Y-110137607D01*
X166081610Y-110290173D01*
X166023781Y-110290173D01*
X166023530Y-110206393D01*
X166031715Y-110106946D01*
X166057013Y-109944434D01*
X166095307Y-109820946D01*
X166147737Y-109734863D01*
X166215446Y-109684568D01*
X166299577Y-109668444D01*
X166339341Y-109671370D01*
X166430331Y-109683842D01*
X166518699Y-109536309D01*
X166559868Y-109465248D01*
X166590811Y-109407409D01*
X166606244Y-109372811D01*
X166607067Y-109368704D01*
X166599711Y-109357125D01*
X166574224Y-109343906D01*
X166525481Y-109327427D01*
X166448355Y-109306070D01*
X166337719Y-109278216D01*
X166263255Y-109260149D01*
X166094918Y-109208229D01*
X165924851Y-109135568D01*
X165769831Y-109049949D01*
X165687898Y-108993207D01*
X165589319Y-108899597D01*
X165492215Y-108775128D01*
X165403785Y-108630887D01*
X165331228Y-108477960D01*
X165302555Y-108399884D01*
X165277300Y-108319028D01*
X165260249Y-108250638D01*
X165249890Y-108182669D01*
X165244708Y-108103079D01*
X165243192Y-107999823D01*
X165243371Y-107928833D01*
X165245152Y-107834162D01*
X165284698Y-107834162D01*
X165285436Y-108066309D01*
X165326401Y-108295705D01*
X165405720Y-108515162D01*
X165510811Y-108701887D01*
X165590493Y-108809620D01*
X165675058Y-108900603D01*
X165770414Y-108978257D01*
X165882471Y-109046002D01*
X166017135Y-109107260D01*
X166180315Y-109165452D01*
X166377919Y-109223997D01*
X166443167Y-109241706D01*
X166591044Y-109282732D01*
X166698430Y-109316072D01*
X166766393Y-109342100D01*
X166796002Y-109361188D01*
X166797567Y-109365487D01*
X166783947Y-109384888D01*
X166739062Y-109382917D01*
X166736919Y-109382495D01*
X166699665Y-109379391D01*
X166670222Y-109393070D01*
X166637794Y-109431165D01*
X166610487Y-109471888D01*
X166563281Y-109547366D01*
X166538472Y-109599410D01*
X166534393Y-109639412D01*
X166549376Y-109678766D01*
X166574434Y-109718130D01*
X166595479Y-109750363D01*
X166609927Y-109779857D01*
X166618609Y-109814637D01*
X166622354Y-109862728D01*
X166621994Y-109932153D01*
X166618356Y-110030939D01*
X166614876Y-110109203D01*
X166609173Y-110251681D01*
X166607549Y-110357841D01*
X166611222Y-110433602D01*
X166621406Y-110484882D01*
X166639317Y-110517602D01*
X166666172Y-110537679D01*
X166703186Y-110551031D01*
X166705787Y-110551757D01*
X166770143Y-110564883D01*
X166801250Y-110556393D01*
X166804053Y-110522931D01*
X166794847Y-110491296D01*
X166785109Y-110428053D01*
X166804677Y-110369715D01*
X166822329Y-110329082D01*
X166850373Y-110256935D01*
X166885603Y-110161850D01*
X166924812Y-110052401D01*
X166945699Y-109992684D01*
X166992090Y-109854408D01*
X167023314Y-109749955D01*
X167040684Y-109674155D01*
X167045512Y-109621836D01*
X167044079Y-109605394D01*
X167039859Y-109557810D01*
X167051251Y-109540924D01*
X167068556Y-109541636D01*
X167095152Y-109565996D01*
X167109564Y-109618084D01*
X167110989Y-109684856D01*
X167098627Y-109753265D01*
X167083828Y-109790511D01*
X167065031Y-109833416D01*
X167036106Y-109907372D01*
X167000464Y-110003321D01*
X166961513Y-110112203D01*
X166945952Y-110156825D01*
X166906102Y-110272587D01*
X166878772Y-110355767D01*
X166862614Y-110413784D01*
X166856283Y-110454056D01*
X166858433Y-110483999D01*
X166867717Y-110511032D01*
X166877807Y-110532333D01*
X166900515Y-110573617D01*
X166925899Y-110596478D01*
X166966933Y-110607271D01*
X167036587Y-110612352D01*
X167041617Y-110612597D01*
X167169250Y-110618778D01*
X167172028Y-110341761D01*
X167178635Y-110148845D01*
X167194826Y-109993893D01*
X167221565Y-109873421D01*
X167259817Y-109783947D01*
X167310546Y-109721988D01*
X167351190Y-109694548D01*
X167438796Y-109671350D01*
X167526812Y-109687283D01*
X167595369Y-109731806D01*
X167631320Y-109761455D01*
X167656199Y-109762536D01*
X167682720Y-109742064D01*
X167731291Y-109712102D01*
X167782988Y-109712233D01*
X167843842Y-109744392D01*
X167919886Y-109810516D01*
X167931364Y-109821869D01*
X167986512Y-109880945D01*
X168027230Y-109932049D01*
X168045950Y-109965514D01*
X168046400Y-109968787D01*
X168036271Y-110006331D01*
X168011681Y-110008935D01*
X167981329Y-109977096D01*
X167974300Y-109964667D01*
X167934961Y-109907544D01*
X167880026Y-109849974D01*
X167821066Y-109802053D01*
X167769654Y-109773880D01*
X167751595Y-109770333D01*
X167711851Y-109784793D01*
X167699299Y-109829102D01*
X167713663Y-109904655D01*
X167720624Y-109926243D01*
X167736415Y-109991057D01*
X167744403Y-110062141D01*
X167744683Y-110128123D01*
X167737354Y-110177628D01*
X167722509Y-110199286D01*
X167718317Y-110199202D01*
X167705321Y-110177062D01*
X167695391Y-110126042D01*
X167692241Y-110087764D01*
X167675849Y-109988131D01*
X167639665Y-109893538D01*
X167589437Y-109812853D01*
X167530916Y-109754945D01*
X167469852Y-109728682D01*
X167458965Y-109728000D01*
X167395112Y-109738312D01*
X167346064Y-109773748D01*
X167304591Y-109841051D01*
X167283206Y-109891955D01*
X167264138Y-109947505D01*
X167250816Y-110004000D01*
X167242162Y-110070933D01*
X167237096Y-110157797D01*
X167234540Y-110274084D01*
X167234028Y-110324763D01*
X167234088Y-110458409D01*
X167237029Y-110554672D01*
X167243208Y-110618428D01*
X167252985Y-110654552D01*
X167258984Y-110663430D01*
X167292365Y-110678474D01*
X167353893Y-110692899D01*
X167429405Y-110704652D01*
X167504738Y-110711678D01*
X167565728Y-110711924D01*
X167580734Y-110710089D01*
X167615486Y-110705894D01*
X167680487Y-110699701D01*
X167763770Y-110692624D01*
X167795031Y-110690144D01*
X167927178Y-110674121D01*
X168026012Y-110646469D01*
X168099996Y-110602407D01*
X168157592Y-110537155D01*
X168184973Y-110488259D01*
X168261341Y-110488259D01*
X168265172Y-110518368D01*
X168295432Y-110540016D01*
X168358720Y-110561328D01*
X168379433Y-110567261D01*
X168477317Y-110583633D01*
X168598483Y-110587676D01*
X168725975Y-110580219D01*
X168842838Y-110562091D01*
X168915879Y-110541012D01*
X168990958Y-110506431D01*
X169062342Y-110465059D01*
X169078275Y-110453980D01*
X169125042Y-110411614D01*
X169144208Y-110364887D01*
X169147067Y-110317563D01*
X169130759Y-110218296D01*
X169085864Y-110138618D01*
X169018429Y-110085689D01*
X168935198Y-110066666D01*
X168894201Y-110073857D01*
X168829707Y-110092481D01*
X168772678Y-110112303D01*
X168658406Y-110151988D01*
X168571744Y-110173831D01*
X168502731Y-110179504D01*
X168441410Y-110170678D01*
X168434956Y-110168963D01*
X168382773Y-110158453D01*
X168350167Y-110159066D01*
X168347498Y-110160679D01*
X168337299Y-110187365D01*
X168325532Y-110240971D01*
X168320175Y-110273347D01*
X168304740Y-110350832D01*
X168284172Y-110423222D01*
X168277340Y-110441567D01*
X168261341Y-110488259D01*
X168184973Y-110488259D01*
X168200015Y-110461400D01*
X168257017Y-110294267D01*
X168274822Y-110114637D01*
X168253816Y-109925024D01*
X168194385Y-109727941D01*
X168096916Y-109525901D01*
X168042478Y-109436694D01*
X167993802Y-109369274D01*
X167947665Y-109318219D01*
X167913053Y-109293388D01*
X167911450Y-109292925D01*
X167869202Y-109291658D01*
X167800129Y-109298835D01*
X167718548Y-109312920D01*
X167711641Y-109314356D01*
X167612308Y-109334284D01*
X167547939Y-109344078D01*
X167512442Y-109343918D01*
X167499722Y-109333982D01*
X167501355Y-109320551D01*
X167517633Y-109305026D01*
X167558486Y-109290541D01*
X167628283Y-109276206D01*
X167731394Y-109261132D01*
X167872188Y-109244431D01*
X167879763Y-109243596D01*
X168060305Y-109203338D01*
X168238673Y-109124918D01*
X168410426Y-109012448D01*
X168571122Y-108870040D01*
X168697331Y-108723805D01*
X168787234Y-108723805D01*
X168807051Y-108732572D01*
X168864896Y-108729046D01*
X168958358Y-108713457D01*
X169013391Y-108702139D01*
X169182584Y-108656929D01*
X169352312Y-108595692D01*
X169511105Y-108523489D01*
X169647496Y-108445379D01*
X169726270Y-108387584D01*
X169806216Y-108320416D01*
X169757100Y-108247599D01*
X169693494Y-108171521D01*
X169609670Y-108095762D01*
X169518437Y-108030102D01*
X169432605Y-107984319D01*
X169396086Y-107972026D01*
X169315808Y-107950376D01*
X169229565Y-107924315D01*
X169210567Y-107918105D01*
X169141596Y-107896085D01*
X169103612Y-107891024D01*
X169087371Y-107906695D01*
X169083632Y-107946872D01*
X169083567Y-107969962D01*
X169074102Y-108048067D01*
X169048409Y-108151727D01*
X169010544Y-108269338D01*
X168964560Y-108389295D01*
X168914512Y-108499996D01*
X168870087Y-108580930D01*
X168830097Y-108646543D01*
X168800701Y-108697003D01*
X168787477Y-108722693D01*
X168787234Y-108723805D01*
X168697331Y-108723805D01*
X168716320Y-108701804D01*
X168841579Y-108511851D01*
X168942456Y-108304294D01*
X168968536Y-108235750D01*
X168995107Y-108156477D01*
X169012472Y-108088676D01*
X169022476Y-108019146D01*
X169026968Y-107934683D01*
X169027794Y-107822087D01*
X169027761Y-107812416D01*
X169019226Y-107615725D01*
X168992842Y-107440245D01*
X168944981Y-107270818D01*
X168872009Y-107092287D01*
X168838358Y-107021782D01*
X168724809Y-106829394D01*
X168647109Y-106736454D01*
X168739417Y-106736454D01*
X168752672Y-106765214D01*
X168787324Y-106821540D01*
X168793821Y-106831773D01*
X168909159Y-107047845D01*
X169001316Y-107297124D01*
X169070738Y-107580877D01*
X169084710Y-107658036D01*
X169100321Y-107732904D01*
X169117891Y-107791381D01*
X169133204Y-107820246D01*
X169164293Y-107834789D01*
X169224848Y-107855213D01*
X169303138Y-107877652D01*
X169323332Y-107882925D01*
X169471606Y-107932116D01*
X169593823Y-108000668D01*
X169704929Y-108097785D01*
X169747211Y-108143940D01*
X169804344Y-108206567D01*
X169840320Y-108237415D01*
X169859498Y-108238486D01*
X169866235Y-108211781D01*
X169866482Y-108198708D01*
X169850866Y-108088537D01*
X169807277Y-107955727D01*
X169739068Y-107806112D01*
X169649596Y-107645526D01*
X169542214Y-107479802D01*
X169420276Y-107314774D01*
X169287138Y-107156276D01*
X169233778Y-107098415D01*
X169137264Y-107002711D01*
X169035736Y-106912542D01*
X168937125Y-106834147D01*
X168849367Y-106773763D01*
X168780393Y-106737629D01*
X168770544Y-106734169D01*
X168745920Y-106728394D01*
X168739417Y-106736454D01*
X168647109Y-106736454D01*
X168589941Y-106668074D01*
X168437028Y-106541246D01*
X168310984Y-106470133D01*
X168227226Y-106431048D01*
X168148086Y-106393166D01*
X168090232Y-106364470D01*
X168088734Y-106363697D01*
X167962474Y-106312779D01*
X167804550Y-106271450D01*
X167624740Y-106240653D01*
X167432821Y-106221327D01*
X167238568Y-106214413D01*
X167051760Y-106220854D01*
X166882172Y-106241588D01*
X166861067Y-106245546D01*
X166640324Y-106292606D01*
X166454690Y-106341258D01*
X166296967Y-106394661D01*
X166159959Y-106455969D01*
X166036470Y-106528340D01*
X165919303Y-106614929D01*
X165818503Y-106702810D01*
X165747444Y-106770545D01*
X165690731Y-106828484D01*
X165654086Y-106870497D01*
X165643235Y-106890453D01*
X165643260Y-106890495D01*
X165667630Y-106899418D01*
X165723679Y-106908907D01*
X165800813Y-106917301D01*
X165828573Y-106919511D01*
X165924712Y-106930544D01*
X166028439Y-106949051D01*
X166130804Y-106972609D01*
X166222857Y-106998797D01*
X166295649Y-107025191D01*
X166340229Y-107049369D01*
X166349366Y-107060481D01*
X166348252Y-107074520D01*
X166329224Y-107079465D01*
X166287093Y-107074570D01*
X166216669Y-107059092D01*
X166112761Y-107032287D01*
X166067317Y-107020036D01*
X165961338Y-106996399D01*
X165845458Y-106978415D01*
X165744548Y-106969934D01*
X165743463Y-106969904D01*
X165661941Y-106968988D01*
X165610887Y-106973601D01*
X165578518Y-106986669D01*
X165553050Y-107011114D01*
X165546919Y-107018666D01*
X165476575Y-107129395D01*
X165412414Y-107272900D01*
X165357472Y-107439742D01*
X165314782Y-107620482D01*
X165287381Y-107805680D01*
X165284698Y-107834162D01*
X165245152Y-107834162D01*
X165246018Y-107788186D01*
X165253159Y-107676431D01*
X165266199Y-107580241D01*
X165286543Y-107486287D01*
X165292384Y-107463662D01*
X165315643Y-107380240D01*
X165336886Y-107311955D01*
X165352650Y-107269664D01*
X165356551Y-107262579D01*
X165374433Y-107228657D01*
X165395192Y-107175671D01*
X165396563Y-107171641D01*
X165432668Y-107094354D01*
X165493117Y-106997412D01*
X165571152Y-106889873D01*
X165660010Y-106780795D01*
X165752931Y-106679238D01*
X165795149Y-106637569D01*
X165939018Y-106519399D01*
X166105469Y-106418246D01*
X166298589Y-106332453D01*
X166522469Y-106260359D01*
X166781198Y-106200306D01*
X166945734Y-106170844D01*
X167042823Y-106160845D01*
X167169771Y-106156074D01*
X167314472Y-106156181D01*
G37*
X167314472Y-106156181D02*
X167464823Y-106160818D01*
X167608716Y-106169635D01*
X167734047Y-106182283D01*
X167817981Y-106196006D01*
X167893942Y-106218671D01*
X167995835Y-106257914D01*
X168113158Y-106308757D01*
X168235412Y-106366217D01*
X168352096Y-106425315D01*
X168452710Y-106481070D01*
X168526752Y-106528501D01*
X168539703Y-106538333D01*
X168613705Y-106588750D01*
X168696184Y-106632737D01*
X168726697Y-106645479D01*
X168866090Y-106713495D01*
X169015440Y-106816617D01*
X169169650Y-106950383D01*
X169323624Y-107110331D01*
X169472269Y-107292001D01*
X169485971Y-107310286D01*
X169639778Y-107530132D01*
X169759252Y-107730473D01*
X169845897Y-107914335D01*
X169901220Y-108084746D01*
X169920262Y-108183613D01*
X169925887Y-108235698D01*
X169920911Y-108272830D01*
X169899315Y-108307705D01*
X169855076Y-108353022D01*
X169827744Y-108378740D01*
X169725810Y-108457662D01*
X169592039Y-108537025D01*
X169436664Y-108612530D01*
X169269915Y-108679878D01*
X169102023Y-108734769D01*
X168943220Y-108772906D01*
X168859372Y-108785647D01*
X168794491Y-108794705D01*
X168745502Y-108809109D01*
X168700086Y-108835484D01*
X168645926Y-108880449D01*
X168594789Y-108927875D01*
X168520916Y-108994550D01*
X168446630Y-109056753D01*
X168385562Y-109103173D01*
X168374484Y-109110647D01*
X168299977Y-109155271D01*
X168218797Y-109198107D01*
X168142388Y-109233722D01*
X168082197Y-109256683D01*
X168054882Y-109262333D01*
X168030024Y-109270543D01*
X168031523Y-109297890D01*
X168060649Y-109348449D01*
X168097471Y-109398936D01*
X168152292Y-109486294D01*
X168208261Y-109602099D01*
X168259911Y-109732985D01*
X168301774Y-109865588D01*
X168320873Y-109945024D01*
X168344261Y-110029551D01*
X168373746Y-110078347D01*
X168390131Y-110090543D01*
X168442507Y-110102908D01*
X168520036Y-110103786D01*
X168607569Y-110094637D01*
X168689955Y-110076924D01*
X168744380Y-110056352D01*
X168802773Y-110037779D01*
X168883375Y-110026351D01*
X168932721Y-110024333D01*
X169008094Y-110026918D01*
X169057459Y-110038249D01*
X169097008Y-110063687D01*
X169121732Y-110086921D01*
X169171563Y-110160694D01*
X169200060Y-110251972D01*
X169203023Y-110342984D01*
X169192428Y-110386023D01*
X169139615Y-110466153D01*
X169049408Y-110535160D01*
X168925783Y-110590885D01*
X168772719Y-110631170D01*
X168725734Y-110639294D01*
X168601486Y-110652494D01*
X168494330Y-110647393D01*
X168383118Y-110622037D01*
X168321567Y-110601916D01*
X168226317Y-110568666D01*
X168158223Y-110632423D01*
X168097156Y-110681596D01*
X168032707Y-110722157D01*
X168020640Y-110728128D01*
X167959979Y-110745486D01*
X167868054Y-110759231D01*
X167755816Y-110768934D01*
X167634214Y-110774169D01*
X167514198Y-110774511D01*
X167406718Y-110769531D01*
X167322724Y-110758805D01*
X167309307Y-110755835D01*
X167241825Y-110736149D01*
X167190299Y-110715473D01*
X167172782Y-110704348D01*
X167139830Y-110691405D01*
X167079455Y-110682744D01*
X167024775Y-110680500D01*
X166948390Y-110676197D01*
X166883328Y-110665119D01*
X166854384Y-110654855D01*
X166808619Y-110642702D01*
X166723100Y-110635264D01*
X166596919Y-110632482D01*
X166507248Y-110632948D01*
X166206345Y-110636686D01*
X166133641Y-110568117D01*
X166077194Y-110501910D01*
X166041198Y-110424853D01*
X166023896Y-110328997D01*
X166023781Y-110290173D01*
X166081610Y-110290173D01*
X166097498Y-110406612D01*
X166135017Y-110489784D01*
X166196735Y-110542549D01*
X166285219Y-110567764D01*
X166403035Y-110568292D01*
X166465213Y-110561386D01*
X166562100Y-110548106D01*
X166553369Y-110450261D01*
X166548366Y-110384554D01*
X166542448Y-110292456D01*
X166536609Y-110189867D01*
X166534422Y-110147522D01*
X166522709Y-110007462D01*
X166502185Y-109903046D01*
X166470854Y-109828138D01*
X166426718Y-109776600D01*
X166409616Y-109764076D01*
X166334217Y-109731196D01*
X166501073Y-109731196D01*
X166502924Y-109760674D01*
X166517232Y-109795995D01*
X166540878Y-109833842D01*
X166557207Y-109842868D01*
X166559316Y-109839502D01*
X166556630Y-109802935D01*
X166544195Y-109771506D01*
X166516776Y-109733040D01*
X166501073Y-109731196D01*
X166334217Y-109731196D01*
X166328117Y-109728536D01*
X166255753Y-109732973D01*
X166193956Y-109775741D01*
X166144160Y-109855189D01*
X166107801Y-109969669D01*
X166086310Y-110117532D01*
X166084787Y-110137607D01*
X166081610Y-110290173D01*
X166023781Y-110290173D01*
X166023530Y-110206393D01*
X166031715Y-110106946D01*
X166057013Y-109944434D01*
X166095307Y-109820946D01*
X166147737Y-109734863D01*
X166215446Y-109684568D01*
X166299577Y-109668444D01*
X166339341Y-109671370D01*
X166430331Y-109683842D01*
X166518699Y-109536309D01*
X166559868Y-109465248D01*
X166590811Y-109407409D01*
X166606244Y-109372811D01*
X166607067Y-109368704D01*
X166599711Y-109357125D01*
X166574224Y-109343906D01*
X166525481Y-109327427D01*
X166448355Y-109306070D01*
X166337719Y-109278216D01*
X166263255Y-109260149D01*
X166094918Y-109208229D01*
X165924851Y-109135568D01*
X165769831Y-109049949D01*
X165687898Y-108993207D01*
X165589319Y-108899597D01*
X165492215Y-108775128D01*
X165403785Y-108630887D01*
X165331228Y-108477960D01*
X165302555Y-108399884D01*
X165277300Y-108319028D01*
X165260249Y-108250638D01*
X165249890Y-108182669D01*
X165244708Y-108103079D01*
X165243192Y-107999823D01*
X165243371Y-107928833D01*
X165245152Y-107834162D01*
X165284698Y-107834162D01*
X165285436Y-108066309D01*
X165326401Y-108295705D01*
X165405720Y-108515162D01*
X165510811Y-108701887D01*
X165590493Y-108809620D01*
X165675058Y-108900603D01*
X165770414Y-108978257D01*
X165882471Y-109046002D01*
X166017135Y-109107260D01*
X166180315Y-109165452D01*
X166377919Y-109223997D01*
X166443167Y-109241706D01*
X166591044Y-109282732D01*
X166698430Y-109316072D01*
X166766393Y-109342100D01*
X166796002Y-109361188D01*
X166797567Y-109365487D01*
X166783947Y-109384888D01*
X166739062Y-109382917D01*
X166736919Y-109382495D01*
X166699665Y-109379391D01*
X166670222Y-109393070D01*
X166637794Y-109431165D01*
X166610487Y-109471888D01*
X166563281Y-109547366D01*
X166538472Y-109599410D01*
X166534393Y-109639412D01*
X166549376Y-109678766D01*
X166574434Y-109718130D01*
X166595479Y-109750363D01*
X166609927Y-109779857D01*
X166618609Y-109814637D01*
X166622354Y-109862728D01*
X166621994Y-109932153D01*
X166618356Y-110030939D01*
X166614876Y-110109203D01*
X166609173Y-110251681D01*
X166607549Y-110357841D01*
X166611222Y-110433602D01*
X166621406Y-110484882D01*
X166639317Y-110517602D01*
X166666172Y-110537679D01*
X166703186Y-110551031D01*
X166705787Y-110551757D01*
X166770143Y-110564883D01*
X166801250Y-110556393D01*
X166804053Y-110522931D01*
X166794847Y-110491296D01*
X166785109Y-110428053D01*
X166804677Y-110369715D01*
X166822329Y-110329082D01*
X166850373Y-110256935D01*
X166885603Y-110161850D01*
X166924812Y-110052401D01*
X166945699Y-109992684D01*
X166992090Y-109854408D01*
X167023314Y-109749955D01*
X167040684Y-109674155D01*
X167045512Y-109621836D01*
X167044079Y-109605394D01*
X167039859Y-109557810D01*
X167051251Y-109540924D01*
X167068556Y-109541636D01*
X167095152Y-109565996D01*
X167109564Y-109618084D01*
X167110989Y-109684856D01*
X167098627Y-109753265D01*
X167083828Y-109790511D01*
X167065031Y-109833416D01*
X167036106Y-109907372D01*
X167000464Y-110003321D01*
X166961513Y-110112203D01*
X166945952Y-110156825D01*
X166906102Y-110272587D01*
X166878772Y-110355767D01*
X166862614Y-110413784D01*
X166856283Y-110454056D01*
X166858433Y-110483999D01*
X166867717Y-110511032D01*
X166877807Y-110532333D01*
X166900515Y-110573617D01*
X166925899Y-110596478D01*
X166966933Y-110607271D01*
X167036587Y-110612352D01*
X167041617Y-110612597D01*
X167169250Y-110618778D01*
X167172028Y-110341761D01*
X167178635Y-110148845D01*
X167194826Y-109993893D01*
X167221565Y-109873421D01*
X167259817Y-109783947D01*
X167310546Y-109721988D01*
X167351190Y-109694548D01*
X167438796Y-109671350D01*
X167526812Y-109687283D01*
X167595369Y-109731806D01*
X167631320Y-109761455D01*
X167656199Y-109762536D01*
X167682720Y-109742064D01*
X167731291Y-109712102D01*
X167782988Y-109712233D01*
X167843842Y-109744392D01*
X167919886Y-109810516D01*
X167931364Y-109821869D01*
X167986512Y-109880945D01*
X168027230Y-109932049D01*
X168045950Y-109965514D01*
X168046400Y-109968787D01*
X168036271Y-110006331D01*
X168011681Y-110008935D01*
X167981329Y-109977096D01*
X167974300Y-109964667D01*
X167934961Y-109907544D01*
X167880026Y-109849974D01*
X167821066Y-109802053D01*
X167769654Y-109773880D01*
X167751595Y-109770333D01*
X167711851Y-109784793D01*
X167699299Y-109829102D01*
X167713663Y-109904655D01*
X167720624Y-109926243D01*
X167736415Y-109991057D01*
X167744403Y-110062141D01*
X167744683Y-110128123D01*
X167737354Y-110177628D01*
X167722509Y-110199286D01*
X167718317Y-110199202D01*
X167705321Y-110177062D01*
X167695391Y-110126042D01*
X167692241Y-110087764D01*
X167675849Y-109988131D01*
X167639665Y-109893538D01*
X167589437Y-109812853D01*
X167530916Y-109754945D01*
X167469852Y-109728682D01*
X167458965Y-109728000D01*
X167395112Y-109738312D01*
X167346064Y-109773748D01*
X167304591Y-109841051D01*
X167283206Y-109891955D01*
X167264138Y-109947505D01*
X167250816Y-110004000D01*
X167242162Y-110070933D01*
X167237096Y-110157797D01*
X167234540Y-110274084D01*
X167234028Y-110324763D01*
X167234088Y-110458409D01*
X167237029Y-110554672D01*
X167243208Y-110618428D01*
X167252985Y-110654552D01*
X167258984Y-110663430D01*
X167292365Y-110678474D01*
X167353893Y-110692899D01*
X167429405Y-110704652D01*
X167504738Y-110711678D01*
X167565728Y-110711924D01*
X167580734Y-110710089D01*
X167615486Y-110705894D01*
X167680487Y-110699701D01*
X167763770Y-110692624D01*
X167795031Y-110690144D01*
X167927178Y-110674121D01*
X168026012Y-110646469D01*
X168099996Y-110602407D01*
X168157592Y-110537155D01*
X168184973Y-110488259D01*
X168261341Y-110488259D01*
X168265172Y-110518368D01*
X168295432Y-110540016D01*
X168358720Y-110561328D01*
X168379433Y-110567261D01*
X168477317Y-110583633D01*
X168598483Y-110587676D01*
X168725975Y-110580219D01*
X168842838Y-110562091D01*
X168915879Y-110541012D01*
X168990958Y-110506431D01*
X169062342Y-110465059D01*
X169078275Y-110453980D01*
X169125042Y-110411614D01*
X169144208Y-110364887D01*
X169147067Y-110317563D01*
X169130759Y-110218296D01*
X169085864Y-110138618D01*
X169018429Y-110085689D01*
X168935198Y-110066666D01*
X168894201Y-110073857D01*
X168829707Y-110092481D01*
X168772678Y-110112303D01*
X168658406Y-110151988D01*
X168571744Y-110173831D01*
X168502731Y-110179504D01*
X168441410Y-110170678D01*
X168434956Y-110168963D01*
X168382773Y-110158453D01*
X168350167Y-110159066D01*
X168347498Y-110160679D01*
X168337299Y-110187365D01*
X168325532Y-110240971D01*
X168320175Y-110273347D01*
X168304740Y-110350832D01*
X168284172Y-110423222D01*
X168277340Y-110441567D01*
X168261341Y-110488259D01*
X168184973Y-110488259D01*
X168200015Y-110461400D01*
X168257017Y-110294267D01*
X168274822Y-110114637D01*
X168253816Y-109925024D01*
X168194385Y-109727941D01*
X168096916Y-109525901D01*
X168042478Y-109436694D01*
X167993802Y-109369274D01*
X167947665Y-109318219D01*
X167913053Y-109293388D01*
X167911450Y-109292925D01*
X167869202Y-109291658D01*
X167800129Y-109298835D01*
X167718548Y-109312920D01*
X167711641Y-109314356D01*
X167612308Y-109334284D01*
X167547939Y-109344078D01*
X167512442Y-109343918D01*
X167499722Y-109333982D01*
X167501355Y-109320551D01*
X167517633Y-109305026D01*
X167558486Y-109290541D01*
X167628283Y-109276206D01*
X167731394Y-109261132D01*
X167872188Y-109244431D01*
X167879763Y-109243596D01*
X168060305Y-109203338D01*
X168238673Y-109124918D01*
X168410426Y-109012448D01*
X168571122Y-108870040D01*
X168697331Y-108723805D01*
X168787234Y-108723805D01*
X168807051Y-108732572D01*
X168864896Y-108729046D01*
X168958358Y-108713457D01*
X169013391Y-108702139D01*
X169182584Y-108656929D01*
X169352312Y-108595692D01*
X169511105Y-108523489D01*
X169647496Y-108445379D01*
X169726270Y-108387584D01*
X169806216Y-108320416D01*
X169757100Y-108247599D01*
X169693494Y-108171521D01*
X169609670Y-108095762D01*
X169518437Y-108030102D01*
X169432605Y-107984319D01*
X169396086Y-107972026D01*
X169315808Y-107950376D01*
X169229565Y-107924315D01*
X169210567Y-107918105D01*
X169141596Y-107896085D01*
X169103612Y-107891024D01*
X169087371Y-107906695D01*
X169083632Y-107946872D01*
X169083567Y-107969962D01*
X169074102Y-108048067D01*
X169048409Y-108151727D01*
X169010544Y-108269338D01*
X168964560Y-108389295D01*
X168914512Y-108499996D01*
X168870087Y-108580930D01*
X168830097Y-108646543D01*
X168800701Y-108697003D01*
X168787477Y-108722693D01*
X168787234Y-108723805D01*
X168697331Y-108723805D01*
X168716320Y-108701804D01*
X168841579Y-108511851D01*
X168942456Y-108304294D01*
X168968536Y-108235750D01*
X168995107Y-108156477D01*
X169012472Y-108088676D01*
X169022476Y-108019146D01*
X169026968Y-107934683D01*
X169027794Y-107822087D01*
X169027761Y-107812416D01*
X169019226Y-107615725D01*
X168992842Y-107440245D01*
X168944981Y-107270818D01*
X168872009Y-107092287D01*
X168838358Y-107021782D01*
X168724809Y-106829394D01*
X168647109Y-106736454D01*
X168739417Y-106736454D01*
X168752672Y-106765214D01*
X168787324Y-106821540D01*
X168793821Y-106831773D01*
X168909159Y-107047845D01*
X169001316Y-107297124D01*
X169070738Y-107580877D01*
X169084710Y-107658036D01*
X169100321Y-107732904D01*
X169117891Y-107791381D01*
X169133204Y-107820246D01*
X169164293Y-107834789D01*
X169224848Y-107855213D01*
X169303138Y-107877652D01*
X169323332Y-107882925D01*
X169471606Y-107932116D01*
X169593823Y-108000668D01*
X169704929Y-108097785D01*
X169747211Y-108143940D01*
X169804344Y-108206567D01*
X169840320Y-108237415D01*
X169859498Y-108238486D01*
X169866235Y-108211781D01*
X169866482Y-108198708D01*
X169850866Y-108088537D01*
X169807277Y-107955727D01*
X169739068Y-107806112D01*
X169649596Y-107645526D01*
X169542214Y-107479802D01*
X169420276Y-107314774D01*
X169287138Y-107156276D01*
X169233778Y-107098415D01*
X169137264Y-107002711D01*
X169035736Y-106912542D01*
X168937125Y-106834147D01*
X168849367Y-106773763D01*
X168780393Y-106737629D01*
X168770544Y-106734169D01*
X168745920Y-106728394D01*
X168739417Y-106736454D01*
X168647109Y-106736454D01*
X168589941Y-106668074D01*
X168437028Y-106541246D01*
X168310984Y-106470133D01*
X168227226Y-106431048D01*
X168148086Y-106393166D01*
X168090232Y-106364470D01*
X168088734Y-106363697D01*
X167962474Y-106312779D01*
X167804550Y-106271450D01*
X167624740Y-106240653D01*
X167432821Y-106221327D01*
X167238568Y-106214413D01*
X167051760Y-106220854D01*
X166882172Y-106241588D01*
X166861067Y-106245546D01*
X166640324Y-106292606D01*
X166454690Y-106341258D01*
X166296967Y-106394661D01*
X166159959Y-106455969D01*
X166036470Y-106528340D01*
X165919303Y-106614929D01*
X165818503Y-106702810D01*
X165747444Y-106770545D01*
X165690731Y-106828484D01*
X165654086Y-106870497D01*
X165643235Y-106890453D01*
X165643260Y-106890495D01*
X165667630Y-106899418D01*
X165723679Y-106908907D01*
X165800813Y-106917301D01*
X165828573Y-106919511D01*
X165924712Y-106930544D01*
X166028439Y-106949051D01*
X166130804Y-106972609D01*
X166222857Y-106998797D01*
X166295649Y-107025191D01*
X166340229Y-107049369D01*
X166349366Y-107060481D01*
X166348252Y-107074520D01*
X166329224Y-107079465D01*
X166287093Y-107074570D01*
X166216669Y-107059092D01*
X166112761Y-107032287D01*
X166067317Y-107020036D01*
X165961338Y-106996399D01*
X165845458Y-106978415D01*
X165744548Y-106969934D01*
X165743463Y-106969904D01*
X165661941Y-106968988D01*
X165610887Y-106973601D01*
X165578518Y-106986669D01*
X165553050Y-107011114D01*
X165546919Y-107018666D01*
X165476575Y-107129395D01*
X165412414Y-107272900D01*
X165357472Y-107439742D01*
X165314782Y-107620482D01*
X165287381Y-107805680D01*
X165284698Y-107834162D01*
X165245152Y-107834162D01*
X165246018Y-107788186D01*
X165253159Y-107676431D01*
X165266199Y-107580241D01*
X165286543Y-107486287D01*
X165292384Y-107463662D01*
X165315643Y-107380240D01*
X165336886Y-107311955D01*
X165352650Y-107269664D01*
X165356551Y-107262579D01*
X165374433Y-107228657D01*
X165395192Y-107175671D01*
X165396563Y-107171641D01*
X165432668Y-107094354D01*
X165493117Y-106997412D01*
X165571152Y-106889873D01*
X165660010Y-106780795D01*
X165752931Y-106679238D01*
X165795149Y-106637569D01*
X165939018Y-106519399D01*
X166105469Y-106418246D01*
X166298589Y-106332453D01*
X166522469Y-106260359D01*
X166781198Y-106200306D01*
X166945734Y-106170844D01*
X167042823Y-106160845D01*
X167169771Y-106156074D01*
X167314472Y-106156181D01*
G36*
X166757836Y-107397658D02*
G01*
X166873191Y-107400122D01*
X166964156Y-107404532D01*
X167024203Y-107410691D01*
X167044962Y-107416303D01*
X167052764Y-107435939D01*
X167047847Y-107480448D01*
X167029252Y-107554641D01*
X166996025Y-107663326D01*
X166995589Y-107664687D01*
X166925023Y-107884680D01*
X166866196Y-108067595D01*
X166817924Y-108216664D01*
X166779022Y-108335121D01*
X166748306Y-108426199D01*
X166724592Y-108493131D01*
X166706696Y-108539151D01*
X166693432Y-108567493D01*
X166683616Y-108581388D01*
X166676064Y-108584072D01*
X166669591Y-108578777D01*
X166663896Y-108570163D01*
X166645477Y-108529055D01*
X166618583Y-108453966D01*
X166585364Y-108351891D01*
X166547972Y-108229828D01*
X166508559Y-108094772D01*
X166469276Y-107953720D01*
X166437399Y-107833583D01*
X166413564Y-107756524D01*
X166379456Y-107663864D01*
X166349298Y-107591424D01*
X166315817Y-107507871D01*
X166310293Y-107472220D01*
X166379291Y-107472220D01*
X166379709Y-107497082D01*
X166393961Y-107548126D01*
X166411620Y-107595717D01*
X166432705Y-107654129D01*
X166461812Y-107743634D01*
X166495909Y-107854464D01*
X166531961Y-107976847D01*
X166553914Y-108054056D01*
X166592284Y-108190351D01*
X166621284Y-108290717D01*
X166642748Y-108360052D01*
X166658510Y-108403251D01*
X166670405Y-108425210D01*
X166680266Y-108430824D01*
X166689928Y-108424990D01*
X166692072Y-108422802D01*
X166703115Y-108398257D01*
X166724758Y-108339350D01*
X166754931Y-108252115D01*
X166791568Y-108142584D01*
X166832601Y-108016791D01*
X166852411Y-107955036D01*
X166906173Y-107782625D01*
X166944887Y-107649470D01*
X166968627Y-107555284D01*
X166977467Y-107499783D01*
X166974745Y-107483711D01*
X166947465Y-107476408D01*
X166887737Y-107470247D01*
X166805301Y-107465413D01*
X166709894Y-107462096D01*
X166611257Y-107460484D01*
X166519126Y-107460764D01*
X166443242Y-107463124D01*
X166393342Y-107467752D01*
X166379291Y-107472220D01*
X166310293Y-107472220D01*
X166307334Y-107453131D01*
X166328093Y-107420974D01*
X166382334Y-107405168D01*
X166474300Y-107399483D01*
X166480067Y-107399351D01*
X166624619Y-107397336D01*
X166757836Y-107397658D01*
G37*
X166757836Y-107397658D02*
X166873191Y-107400122D01*
X166964156Y-107404532D01*
X167024203Y-107410691D01*
X167044962Y-107416303D01*
X167052764Y-107435939D01*
X167047847Y-107480448D01*
X167029252Y-107554641D01*
X166996025Y-107663326D01*
X166995589Y-107664687D01*
X166925023Y-107884680D01*
X166866196Y-108067595D01*
X166817924Y-108216664D01*
X166779022Y-108335121D01*
X166748306Y-108426199D01*
X166724592Y-108493131D01*
X166706696Y-108539151D01*
X166693432Y-108567493D01*
X166683616Y-108581388D01*
X166676064Y-108584072D01*
X166669591Y-108578777D01*
X166663896Y-108570163D01*
X166645477Y-108529055D01*
X166618583Y-108453966D01*
X166585364Y-108351891D01*
X166547972Y-108229828D01*
X166508559Y-108094772D01*
X166469276Y-107953720D01*
X166437399Y-107833583D01*
X166413564Y-107756524D01*
X166379456Y-107663864D01*
X166349298Y-107591424D01*
X166315817Y-107507871D01*
X166310293Y-107472220D01*
X166379291Y-107472220D01*
X166379709Y-107497082D01*
X166393961Y-107548126D01*
X166411620Y-107595717D01*
X166432705Y-107654129D01*
X166461812Y-107743634D01*
X166495909Y-107854464D01*
X166531961Y-107976847D01*
X166553914Y-108054056D01*
X166592284Y-108190351D01*
X166621284Y-108290717D01*
X166642748Y-108360052D01*
X166658510Y-108403251D01*
X166670405Y-108425210D01*
X166680266Y-108430824D01*
X166689928Y-108424990D01*
X166692072Y-108422802D01*
X166703115Y-108398257D01*
X166724758Y-108339350D01*
X166754931Y-108252115D01*
X166791568Y-108142584D01*
X166832601Y-108016791D01*
X166852411Y-107955036D01*
X166906173Y-107782625D01*
X166944887Y-107649470D01*
X166968627Y-107555284D01*
X166977467Y-107499783D01*
X166974745Y-107483711D01*
X166947465Y-107476408D01*
X166887737Y-107470247D01*
X166805301Y-107465413D01*
X166709894Y-107462096D01*
X166611257Y-107460484D01*
X166519126Y-107460764D01*
X166443242Y-107463124D01*
X166393342Y-107467752D01*
X166379291Y-107472220D01*
X166310293Y-107472220D01*
X166307334Y-107453131D01*
X166328093Y-107420974D01*
X166382334Y-107405168D01*
X166474300Y-107399483D01*
X166480067Y-107399351D01*
X166624619Y-107397336D01*
X166757836Y-107397658D01*
G36*
X167972317Y-106905198D02*
G01*
X168142119Y-106909660D01*
X168303448Y-106919324D01*
X168451136Y-106933408D01*
X168580014Y-106951129D01*
X168684914Y-106971705D01*
X168760668Y-106994354D01*
X168802108Y-107018294D01*
X168808400Y-107031762D01*
X168801665Y-107052827D01*
X168776554Y-107058951D01*
X168725715Y-107050045D01*
X168654456Y-107029887D01*
X168600696Y-107018646D01*
X168513607Y-107006300D01*
X168402140Y-106993858D01*
X168275248Y-106982334D01*
X168157040Y-106973696D01*
X168016381Y-106964912D01*
X167908901Y-106959426D01*
X167825552Y-106957560D01*
X167757284Y-106959636D01*
X167695048Y-106965977D01*
X167629795Y-106976906D01*
X167552476Y-106992745D01*
X167538400Y-106995753D01*
X167434928Y-107019895D01*
X167336492Y-107046316D01*
X167257046Y-107071107D01*
X167223501Y-107083923D01*
X167153158Y-107112713D01*
X167113068Y-107122853D01*
X167096042Y-107115443D01*
X167093900Y-107103763D01*
X167113720Y-107077297D01*
X167169251Y-107045484D01*
X167254602Y-107010808D01*
X167363882Y-106975755D01*
X167455186Y-106951403D01*
X167545536Y-106930924D01*
X167628241Y-106917124D01*
X167715363Y-106908925D01*
X167818966Y-106905249D01*
X167951112Y-106905019D01*
X167972317Y-106905198D01*
G37*
X167972317Y-106905198D02*
X168142119Y-106909660D01*
X168303448Y-106919324D01*
X168451136Y-106933408D01*
X168580014Y-106951129D01*
X168684914Y-106971705D01*
X168760668Y-106994354D01*
X168802108Y-107018294D01*
X168808400Y-107031762D01*
X168801665Y-107052827D01*
X168776554Y-107058951D01*
X168725715Y-107050045D01*
X168654456Y-107029887D01*
X168600696Y-107018646D01*
X168513607Y-107006300D01*
X168402140Y-106993858D01*
X168275248Y-106982334D01*
X168157040Y-106973696D01*
X168016381Y-106964912D01*
X167908901Y-106959426D01*
X167825552Y-106957560D01*
X167757284Y-106959636D01*
X167695048Y-106965977D01*
X167629795Y-106976906D01*
X167552476Y-106992745D01*
X167538400Y-106995753D01*
X167434928Y-107019895D01*
X167336492Y-107046316D01*
X167257046Y-107071107D01*
X167223501Y-107083923D01*
X167153158Y-107112713D01*
X167113068Y-107122853D01*
X167096042Y-107115443D01*
X167093900Y-107103763D01*
X167113720Y-107077297D01*
X167169251Y-107045484D01*
X167254602Y-107010808D01*
X167363882Y-106975755D01*
X167455186Y-106951403D01*
X167545536Y-106930924D01*
X167628241Y-106917124D01*
X167715363Y-106908925D01*
X167818966Y-106905249D01*
X167951112Y-106905019D01*
X167972317Y-106905198D01*
D11*
%TO.C,R7*%
X155475700Y-102686542D02*
X155475700Y-103161058D01*
X154430700Y-102686542D02*
X154430700Y-103161058D01*
%TO.C,R6*%
X157475700Y-102686542D02*
X157475700Y-103161058D01*
X156430700Y-102686542D02*
X156430700Y-103161058D01*
%TO.C,R5*%
X159475700Y-102686542D02*
X159475700Y-103161058D01*
X158430700Y-102686542D02*
X158430700Y-103161058D01*
%TO.C,R4*%
X161475700Y-102686542D02*
X161475700Y-103161058D01*
X160430700Y-102686542D02*
X160430700Y-103161058D01*
%TO.C,R3*%
X163475700Y-102686542D02*
X163475700Y-103161058D01*
X162430700Y-102686542D02*
X162430700Y-103161058D01*
%TO.C,R2*%
X165485700Y-102686542D02*
X165485700Y-103161058D01*
X164440700Y-102686542D02*
X164440700Y-103161058D01*
%TO.C,R1*%
X167475700Y-102686542D02*
X167475700Y-103161058D01*
X166430700Y-102686542D02*
X166430700Y-103161058D01*
%TO.C,R0*%
X169475700Y-102686542D02*
X169475700Y-103161058D01*
X168430700Y-102686542D02*
X168430700Y-103161058D01*
%TO.C,D7*%
X154218200Y-98423800D02*
X154218200Y-100708800D01*
X154218200Y-100708800D02*
X155688200Y-100708800D01*
X155688200Y-100708800D02*
X155688200Y-98423800D01*
%TO.C,D6*%
X156218200Y-98423800D02*
X156218200Y-100708800D01*
X156218200Y-100708800D02*
X157688200Y-100708800D01*
X157688200Y-100708800D02*
X157688200Y-98423800D01*
%TO.C,D5*%
X158218200Y-98423800D02*
X158218200Y-100708800D01*
X158218200Y-100708800D02*
X159688200Y-100708800D01*
X159688200Y-100708800D02*
X159688200Y-98423800D01*
%TO.C,D4*%
X160218200Y-98423800D02*
X160218200Y-100708800D01*
X160218200Y-100708800D02*
X161688200Y-100708800D01*
X161688200Y-100708800D02*
X161688200Y-98423800D01*
%TO.C,D3*%
X162218200Y-98423800D02*
X162218200Y-100708800D01*
X162218200Y-100708800D02*
X163688200Y-100708800D01*
X163688200Y-100708800D02*
X163688200Y-98423800D01*
%TO.C,D2*%
X164218200Y-98423800D02*
X164218200Y-100708800D01*
X164218200Y-100708800D02*
X165688200Y-100708800D01*
X165688200Y-100708800D02*
X165688200Y-98423800D01*
%TO.C,D1*%
X166218200Y-98423800D02*
X166218200Y-100708800D01*
X166218200Y-100708800D02*
X167688200Y-100708800D01*
X167688200Y-100708800D02*
X167688200Y-98423800D01*
%TO.C,D0*%
X168218200Y-98423800D02*
X168218200Y-100708800D01*
X168218200Y-100708800D02*
X169688200Y-100708800D01*
X169688200Y-100708800D02*
X169688200Y-98423800D01*
%TO.C,D7*%
D10*
X154215104Y-97644080D02*
X154215104Y-96644080D01*
X154453200Y-96644080D01*
X154596057Y-96691700D01*
X154691295Y-96786938D01*
X154738914Y-96882176D01*
X154786533Y-97072652D01*
X154786533Y-97215509D01*
X154738914Y-97405985D01*
X154691295Y-97501223D01*
X154596057Y-97596461D01*
X154453200Y-97644080D01*
X154215104Y-97644080D01*
X155119866Y-96644080D02*
X155786533Y-96644080D01*
X155357961Y-97644080D01*
%TO.C,D6*%
X156215104Y-97644180D02*
X156215104Y-96644180D01*
X156453200Y-96644180D01*
X156596057Y-96691800D01*
X156691295Y-96787038D01*
X156738914Y-96882276D01*
X156786533Y-97072752D01*
X156786533Y-97215609D01*
X156738914Y-97406085D01*
X156691295Y-97501323D01*
X156596057Y-97596561D01*
X156453200Y-97644180D01*
X156215104Y-97644180D01*
X157643676Y-96644180D02*
X157453200Y-96644180D01*
X157357961Y-96691800D01*
X157310342Y-96739419D01*
X157215104Y-96882276D01*
X157167485Y-97072752D01*
X157167485Y-97453704D01*
X157215104Y-97548942D01*
X157262723Y-97596561D01*
X157357961Y-97644180D01*
X157548438Y-97644180D01*
X157643676Y-97596561D01*
X157691295Y-97548942D01*
X157738914Y-97453704D01*
X157738914Y-97215609D01*
X157691295Y-97120371D01*
X157643676Y-97072752D01*
X157548438Y-97025133D01*
X157357961Y-97025133D01*
X157262723Y-97072752D01*
X157215104Y-97120371D01*
X157167485Y-97215609D01*
%TO.C,D5*%
X158215104Y-97644080D02*
X158215104Y-96644080D01*
X158453200Y-96644080D01*
X158596057Y-96691700D01*
X158691295Y-96786938D01*
X158738914Y-96882176D01*
X158786533Y-97072652D01*
X158786533Y-97215509D01*
X158738914Y-97405985D01*
X158691295Y-97501223D01*
X158596057Y-97596461D01*
X158453200Y-97644080D01*
X158215104Y-97644080D01*
X159691295Y-96644080D02*
X159215104Y-96644080D01*
X159167485Y-97120271D01*
X159215104Y-97072652D01*
X159310342Y-97025033D01*
X159548438Y-97025033D01*
X159643676Y-97072652D01*
X159691295Y-97120271D01*
X159738914Y-97215509D01*
X159738914Y-97453604D01*
X159691295Y-97548842D01*
X159643676Y-97596461D01*
X159548438Y-97644080D01*
X159310342Y-97644080D01*
X159215104Y-97596461D01*
X159167485Y-97548842D01*
%TO.C,D4*%
X160215104Y-97644180D02*
X160215104Y-96644180D01*
X160453200Y-96644180D01*
X160596057Y-96691800D01*
X160691295Y-96787038D01*
X160738914Y-96882276D01*
X160786533Y-97072752D01*
X160786533Y-97215609D01*
X160738914Y-97406085D01*
X160691295Y-97501323D01*
X160596057Y-97596561D01*
X160453200Y-97644180D01*
X160215104Y-97644180D01*
X161643676Y-96977514D02*
X161643676Y-97644180D01*
X161405580Y-96596561D02*
X161167485Y-97310847D01*
X161786533Y-97310847D01*
%TO.C,D3*%
X162215104Y-97644180D02*
X162215104Y-96644180D01*
X162453200Y-96644180D01*
X162596057Y-96691800D01*
X162691295Y-96787038D01*
X162738914Y-96882276D01*
X162786533Y-97072752D01*
X162786533Y-97215609D01*
X162738914Y-97406085D01*
X162691295Y-97501323D01*
X162596057Y-97596561D01*
X162453200Y-97644180D01*
X162215104Y-97644180D01*
X163119866Y-96644180D02*
X163738914Y-96644180D01*
X163405580Y-97025133D01*
X163548438Y-97025133D01*
X163643676Y-97072752D01*
X163691295Y-97120371D01*
X163738914Y-97215609D01*
X163738914Y-97453704D01*
X163691295Y-97548942D01*
X163643676Y-97596561D01*
X163548438Y-97644180D01*
X163262723Y-97644180D01*
X163167485Y-97596561D01*
X163119866Y-97548942D01*
%TO.C,D2*%
X164215104Y-97644180D02*
X164215104Y-96644180D01*
X164453200Y-96644180D01*
X164596057Y-96691800D01*
X164691295Y-96787038D01*
X164738914Y-96882276D01*
X164786533Y-97072752D01*
X164786533Y-97215609D01*
X164738914Y-97406085D01*
X164691295Y-97501323D01*
X164596057Y-97596561D01*
X164453200Y-97644180D01*
X164215104Y-97644180D01*
X165167485Y-96739419D02*
X165215104Y-96691800D01*
X165310342Y-96644180D01*
X165548438Y-96644180D01*
X165643676Y-96691800D01*
X165691295Y-96739419D01*
X165738914Y-96834657D01*
X165738914Y-96929895D01*
X165691295Y-97072752D01*
X165119866Y-97644180D01*
X165738914Y-97644180D01*
%TO.C,D1*%
X166215104Y-97644180D02*
X166215104Y-96644180D01*
X166453200Y-96644180D01*
X166596057Y-96691800D01*
X166691295Y-96787038D01*
X166738914Y-96882276D01*
X166786533Y-97072752D01*
X166786533Y-97215609D01*
X166738914Y-97406085D01*
X166691295Y-97501323D01*
X166596057Y-97596561D01*
X166453200Y-97644180D01*
X166215104Y-97644180D01*
X167738914Y-97644180D02*
X167167485Y-97644180D01*
X167453200Y-97644180D02*
X167453200Y-96644180D01*
X167357961Y-96787038D01*
X167262723Y-96882276D01*
X167167485Y-96929895D01*
%TO.C,D0*%
X168215104Y-97644180D02*
X168215104Y-96644180D01*
X168453200Y-96644180D01*
X168596057Y-96691800D01*
X168691295Y-96787038D01*
X168738914Y-96882276D01*
X168786533Y-97072752D01*
X168786533Y-97215609D01*
X168738914Y-97406085D01*
X168691295Y-97501323D01*
X168596057Y-97596561D01*
X168453200Y-97644180D01*
X168215104Y-97644180D01*
X169405580Y-96644180D02*
X169500819Y-96644180D01*
X169596057Y-96691800D01*
X169643676Y-96739419D01*
X169691295Y-96834657D01*
X169738914Y-97025133D01*
X169738914Y-97263228D01*
X169691295Y-97453704D01*
X169643676Y-97548942D01*
X169596057Y-97596561D01*
X169500819Y-97644180D01*
X169405580Y-97644180D01*
X169310342Y-97596561D01*
X169262723Y-97548942D01*
X169215104Y-97453704D01*
X169167485Y-97263228D01*
X169167485Y-97025133D01*
X169215104Y-96834657D01*
X169262723Y-96739419D01*
X169310342Y-96691800D01*
X169405580Y-96644180D01*
%TD*%
M02*
