%TF.GenerationSoftware,KiCad,Pcbnew,(5.1.10)-1*%
%TF.CreationDate,2021-08-15T22:29:03+08:00*%
%TF.ProjectId,Pmod-8led,506d6f64-2d38-46c6-9564-2e6b69636164,rev?*%
%TF.SameCoordinates,Original*%
%TF.FileFunction,Legend,Bot*%
%TF.FilePolarity,Positive*%
%FSLAX46Y46*%
G04 Gerber Fmt 4.6, Leading zero omitted, Abs format (unit mm)*
G04 Created by KiCad (PCBNEW (5.1.10)-1) date 2021-08-15 22:29:03*
%MOMM*%
%LPD*%
G01*
G04 APERTURE LIST*
%ADD10C,0.150000*%
G04 APERTURE END LIST*
D10*
X166655057Y-109528057D02*
X166655057Y-110385200D01*
X166712200Y-110556628D01*
X166826485Y-110670914D01*
X166997914Y-110728057D01*
X167112200Y-110728057D01*
X165512200Y-110728057D02*
X166083628Y-110728057D01*
X166083628Y-109528057D01*
X164426485Y-110613771D02*
X164483628Y-110670914D01*
X164655057Y-110728057D01*
X164769342Y-110728057D01*
X164940771Y-110670914D01*
X165055057Y-110556628D01*
X165112200Y-110442342D01*
X165169342Y-110213771D01*
X165169342Y-110042342D01*
X165112200Y-109813771D01*
X165055057Y-109699485D01*
X164940771Y-109585200D01*
X164769342Y-109528057D01*
X164655057Y-109528057D01*
X164483628Y-109585200D01*
X164426485Y-109642342D01*
X163569342Y-109528057D02*
X163569342Y-110385200D01*
X163626485Y-110556628D01*
X163740771Y-110670914D01*
X163912200Y-110728057D01*
X164026485Y-110728057D01*
X162426485Y-110728057D02*
X162997914Y-110728057D01*
X162997914Y-109528057D01*
X161340771Y-110613771D02*
X161397914Y-110670914D01*
X161569342Y-110728057D01*
X161683628Y-110728057D01*
X161855057Y-110670914D01*
X161969342Y-110556628D01*
X162026485Y-110442342D01*
X162083628Y-110213771D01*
X162083628Y-110042342D01*
X162026485Y-109813771D01*
X161969342Y-109699485D01*
X161855057Y-109585200D01*
X161683628Y-109528057D01*
X161569342Y-109528057D01*
X161397914Y-109585200D01*
X161340771Y-109642342D01*
X160483628Y-109528057D02*
X160483628Y-110385200D01*
X160540771Y-110556628D01*
X160655057Y-110670914D01*
X160826485Y-110728057D01*
X160940771Y-110728057D01*
X159340771Y-110728057D02*
X159912200Y-110728057D01*
X159912200Y-109528057D01*
X158255057Y-110613771D02*
X158312200Y-110670914D01*
X158483628Y-110728057D01*
X158597914Y-110728057D01*
X158769342Y-110670914D01*
X158883628Y-110556628D01*
X158940771Y-110442342D01*
X158997914Y-110213771D01*
X158997914Y-110042342D01*
X158940771Y-109813771D01*
X158883628Y-109699485D01*
X158769342Y-109585200D01*
X158597914Y-109528057D01*
X158483628Y-109528057D01*
X158312200Y-109585200D01*
X158255057Y-109642342D01*
X157397914Y-109528057D02*
X157397914Y-110385200D01*
X157455057Y-110556628D01*
X157569342Y-110670914D01*
X157740771Y-110728057D01*
X157855057Y-110728057D01*
X156255057Y-110728057D02*
X156826485Y-110728057D01*
X156826485Y-109528057D01*
X155169342Y-110613771D02*
X155226485Y-110670914D01*
X155397914Y-110728057D01*
X155512200Y-110728057D01*
X155683628Y-110670914D01*
X155797914Y-110556628D01*
X155855057Y-110442342D01*
X155912200Y-110213771D01*
X155912200Y-110042342D01*
X155855057Y-109813771D01*
X155797914Y-109699485D01*
X155683628Y-109585200D01*
X155512200Y-109528057D01*
X155397914Y-109528057D01*
X155226485Y-109585200D01*
X155169342Y-109642342D01*
X164120152Y-100850180D02*
X163786819Y-101850180D01*
X163453485Y-100850180D01*
X162739200Y-101802561D02*
X162834438Y-101850180D01*
X163024914Y-101850180D01*
X163120152Y-101802561D01*
X163167771Y-101707323D01*
X163167771Y-101326371D01*
X163120152Y-101231133D01*
X163024914Y-101183514D01*
X162834438Y-101183514D01*
X162739200Y-101231133D01*
X162691580Y-101326371D01*
X162691580Y-101421609D01*
X163167771Y-101516847D01*
X162263009Y-101850180D02*
X162263009Y-101183514D01*
X162263009Y-101373990D02*
X162215390Y-101278752D01*
X162167771Y-101231133D01*
X162072533Y-101183514D01*
X161977295Y-101183514D01*
X161643961Y-101754942D02*
X161596342Y-101802561D01*
X161643961Y-101850180D01*
X161691580Y-101802561D01*
X161643961Y-101754942D01*
X161643961Y-101850180D01*
X161643961Y-101231133D02*
X161596342Y-101278752D01*
X161643961Y-101326371D01*
X161691580Y-101278752D01*
X161643961Y-101231133D01*
X161643961Y-101326371D01*
X159882057Y-101850180D02*
X160453485Y-101850180D01*
X160167771Y-101850180D02*
X160167771Y-100850180D01*
X160263009Y-100993038D01*
X160358247Y-101088276D01*
X160453485Y-101135895D01*
X159453485Y-101754942D02*
X159405866Y-101802561D01*
X159453485Y-101850180D01*
X159501104Y-101802561D01*
X159453485Y-101754942D01*
X159453485Y-101850180D01*
X158453485Y-101850180D02*
X159024914Y-101850180D01*
X158739200Y-101850180D02*
X158739200Y-100850180D01*
X158834438Y-100993038D01*
X158929676Y-101088276D01*
X159024914Y-101135895D01*
X164858247Y-102595419D02*
X164810628Y-102547800D01*
X164715390Y-102500180D01*
X164477295Y-102500180D01*
X164382057Y-102547800D01*
X164334438Y-102595419D01*
X164286819Y-102690657D01*
X164286819Y-102785895D01*
X164334438Y-102928752D01*
X164905866Y-103500180D01*
X164286819Y-103500180D01*
X163667771Y-102500180D02*
X163572533Y-102500180D01*
X163477295Y-102547800D01*
X163429676Y-102595419D01*
X163382057Y-102690657D01*
X163334438Y-102881133D01*
X163334438Y-103119228D01*
X163382057Y-103309704D01*
X163429676Y-103404942D01*
X163477295Y-103452561D01*
X163572533Y-103500180D01*
X163667771Y-103500180D01*
X163763009Y-103452561D01*
X163810628Y-103404942D01*
X163858247Y-103309704D01*
X163905866Y-103119228D01*
X163905866Y-102881133D01*
X163858247Y-102690657D01*
X163810628Y-102595419D01*
X163763009Y-102547800D01*
X163667771Y-102500180D01*
X162953485Y-102595419D02*
X162905866Y-102547800D01*
X162810628Y-102500180D01*
X162572533Y-102500180D01*
X162477295Y-102547800D01*
X162429676Y-102595419D01*
X162382057Y-102690657D01*
X162382057Y-102785895D01*
X162429676Y-102928752D01*
X163001104Y-103500180D01*
X162382057Y-103500180D01*
X161429676Y-103500180D02*
X162001104Y-103500180D01*
X161715390Y-103500180D02*
X161715390Y-102500180D01*
X161810628Y-102643038D01*
X161905866Y-102738276D01*
X162001104Y-102785895D01*
X161001104Y-103404942D02*
X160953485Y-103452561D01*
X161001104Y-103500180D01*
X161048723Y-103452561D01*
X161001104Y-103404942D01*
X161001104Y-103500180D01*
X160382057Y-102928752D02*
X160477295Y-102881133D01*
X160524914Y-102833514D01*
X160572533Y-102738276D01*
X160572533Y-102690657D01*
X160524914Y-102595419D01*
X160477295Y-102547800D01*
X160382057Y-102500180D01*
X160191580Y-102500180D01*
X160096342Y-102547800D01*
X160048723Y-102595419D01*
X160001104Y-102690657D01*
X160001104Y-102738276D01*
X160048723Y-102833514D01*
X160096342Y-102881133D01*
X160191580Y-102928752D01*
X160382057Y-102928752D01*
X160477295Y-102976371D01*
X160524914Y-103023990D01*
X160572533Y-103119228D01*
X160572533Y-103309704D01*
X160524914Y-103404942D01*
X160477295Y-103452561D01*
X160382057Y-103500180D01*
X160191580Y-103500180D01*
X160096342Y-103452561D01*
X160048723Y-103404942D01*
X160001104Y-103309704D01*
X160001104Y-103119228D01*
X160048723Y-103023990D01*
X160096342Y-102976371D01*
X160191580Y-102928752D01*
X159572533Y-103404942D02*
X159524914Y-103452561D01*
X159572533Y-103500180D01*
X159620152Y-103452561D01*
X159572533Y-103404942D01*
X159572533Y-103500180D01*
X158572533Y-103500180D02*
X159143961Y-103500180D01*
X158858247Y-103500180D02*
X158858247Y-102500180D01*
X158953485Y-102643038D01*
X159048723Y-102738276D01*
X159143961Y-102785895D01*
X157667771Y-102500180D02*
X158143961Y-102500180D01*
X158191580Y-102976371D01*
X158143961Y-102928752D01*
X158048723Y-102881133D01*
X157810628Y-102881133D01*
X157715390Y-102928752D01*
X157667771Y-102976371D01*
X157620152Y-103071609D01*
X157620152Y-103309704D01*
X157667771Y-103404942D01*
X157715390Y-103452561D01*
X157810628Y-103500180D01*
X158048723Y-103500180D01*
X158143961Y-103452561D01*
X158191580Y-103404942D01*
X165382057Y-105150180D02*
X165382057Y-104483514D01*
X165382057Y-104578752D02*
X165334438Y-104531133D01*
X165239200Y-104483514D01*
X165096342Y-104483514D01*
X165001104Y-104531133D01*
X164953485Y-104626371D01*
X164953485Y-105150180D01*
X164953485Y-104626371D02*
X164905866Y-104531133D01*
X164810628Y-104483514D01*
X164667771Y-104483514D01*
X164572533Y-104531133D01*
X164524914Y-104626371D01*
X164524914Y-105150180D01*
X163620152Y-105150180D02*
X163620152Y-104626371D01*
X163667771Y-104531133D01*
X163763009Y-104483514D01*
X163953485Y-104483514D01*
X164048723Y-104531133D01*
X163620152Y-105102561D02*
X163715390Y-105150180D01*
X163953485Y-105150180D01*
X164048723Y-105102561D01*
X164096342Y-105007323D01*
X164096342Y-104912085D01*
X164048723Y-104816847D01*
X163953485Y-104769228D01*
X163715390Y-104769228D01*
X163620152Y-104721609D01*
X162715390Y-104483514D02*
X162715390Y-105293038D01*
X162763009Y-105388276D01*
X162810628Y-105435895D01*
X162905866Y-105483514D01*
X163048723Y-105483514D01*
X163143961Y-105435895D01*
X162715390Y-105102561D02*
X162810628Y-105150180D01*
X163001104Y-105150180D01*
X163096342Y-105102561D01*
X163143961Y-105054942D01*
X163191580Y-104959704D01*
X163191580Y-104673990D01*
X163143961Y-104578752D01*
X163096342Y-104531133D01*
X163001104Y-104483514D01*
X162810628Y-104483514D01*
X162715390Y-104531133D01*
X161810628Y-104483514D02*
X161810628Y-105150180D01*
X162239200Y-104483514D02*
X162239200Y-105007323D01*
X162191580Y-105102561D01*
X162096342Y-105150180D01*
X161953485Y-105150180D01*
X161858247Y-105102561D01*
X161810628Y-105054942D01*
X160905866Y-105150180D02*
X160905866Y-104626371D01*
X160953485Y-104531133D01*
X161048723Y-104483514D01*
X161239200Y-104483514D01*
X161334438Y-104531133D01*
X160905866Y-105102561D02*
X161001104Y-105150180D01*
X161239200Y-105150180D01*
X161334438Y-105102561D01*
X161382057Y-105007323D01*
X161382057Y-104912085D01*
X161334438Y-104816847D01*
X161239200Y-104769228D01*
X161001104Y-104769228D01*
X160905866Y-104721609D01*
X160286819Y-104578752D02*
X160382057Y-104531133D01*
X160429676Y-104483514D01*
X160477295Y-104388276D01*
X160477295Y-104340657D01*
X160429676Y-104245419D01*
X160382057Y-104197800D01*
X160286819Y-104150180D01*
X160096342Y-104150180D01*
X160001104Y-104197800D01*
X159953485Y-104245419D01*
X159905866Y-104340657D01*
X159905866Y-104388276D01*
X159953485Y-104483514D01*
X160001104Y-104531133D01*
X160096342Y-104578752D01*
X160286819Y-104578752D01*
X160382057Y-104626371D01*
X160429676Y-104673990D01*
X160477295Y-104769228D01*
X160477295Y-104959704D01*
X160429676Y-105054942D01*
X160382057Y-105102561D01*
X160286819Y-105150180D01*
X160096342Y-105150180D01*
X160001104Y-105102561D01*
X159953485Y-105054942D01*
X159905866Y-104959704D01*
X159905866Y-104769228D01*
X159953485Y-104673990D01*
X160001104Y-104626371D01*
X160096342Y-104578752D01*
X159286819Y-104150180D02*
X159191580Y-104150180D01*
X159096342Y-104197800D01*
X159048723Y-104245419D01*
X159001104Y-104340657D01*
X158953485Y-104531133D01*
X158953485Y-104769228D01*
X159001104Y-104959704D01*
X159048723Y-105054942D01*
X159096342Y-105102561D01*
X159191580Y-105150180D01*
X159286819Y-105150180D01*
X159382057Y-105102561D01*
X159429676Y-105054942D01*
X159477295Y-104959704D01*
X159524914Y-104769228D01*
X159524914Y-104531133D01*
X159477295Y-104340657D01*
X159429676Y-104245419D01*
X159382057Y-104197800D01*
X159286819Y-104150180D01*
X158382057Y-104578752D02*
X158477295Y-104531133D01*
X158524914Y-104483514D01*
X158572533Y-104388276D01*
X158572533Y-104340657D01*
X158524914Y-104245419D01*
X158477295Y-104197800D01*
X158382057Y-104150180D01*
X158191580Y-104150180D01*
X158096342Y-104197800D01*
X158048723Y-104245419D01*
X158001104Y-104340657D01*
X158001104Y-104388276D01*
X158048723Y-104483514D01*
X158096342Y-104531133D01*
X158191580Y-104578752D01*
X158382057Y-104578752D01*
X158477295Y-104626371D01*
X158524914Y-104673990D01*
X158572533Y-104769228D01*
X158572533Y-104959704D01*
X158524914Y-105054942D01*
X158477295Y-105102561D01*
X158382057Y-105150180D01*
X158191580Y-105150180D01*
X158096342Y-105102561D01*
X158048723Y-105054942D01*
X158001104Y-104959704D01*
X158001104Y-104769228D01*
X158048723Y-104673990D01*
X158096342Y-104626371D01*
X158191580Y-104578752D01*
X157143961Y-104150180D02*
X157334438Y-104150180D01*
X157429676Y-104197800D01*
X157477295Y-104245419D01*
X157572533Y-104388276D01*
X157620152Y-104578752D01*
X157620152Y-104959704D01*
X157572533Y-105054942D01*
X157524914Y-105102561D01*
X157429676Y-105150180D01*
X157239200Y-105150180D01*
X157143961Y-105102561D01*
X157096342Y-105054942D01*
X157048723Y-104959704D01*
X157048723Y-104721609D01*
X157096342Y-104626371D01*
X157143961Y-104578752D01*
X157239200Y-104531133D01*
X157429676Y-104531133D01*
X157524914Y-104578752D01*
X157572533Y-104626371D01*
X157620152Y-104721609D01*
X152685595Y-109574080D02*
X152066547Y-109574080D01*
X152399880Y-109955033D01*
X152257023Y-109955033D01*
X152161785Y-110002652D01*
X152114166Y-110050271D01*
X152066547Y-110145509D01*
X152066547Y-110383604D01*
X152114166Y-110478842D01*
X152161785Y-110526461D01*
X152257023Y-110574080D01*
X152542738Y-110574080D01*
X152637976Y-110526461D01*
X152685595Y-110478842D01*
X151780833Y-109574080D02*
X151447500Y-110574080D01*
X151114166Y-109574080D01*
X150876071Y-109574080D02*
X150257023Y-109574080D01*
X150590357Y-109955033D01*
X150447500Y-109955033D01*
X150352261Y-110002652D01*
X150304642Y-110050271D01*
X150257023Y-110145509D01*
X150257023Y-110383604D01*
X150304642Y-110478842D01*
X150352261Y-110526461D01*
X150447500Y-110574080D01*
X150733214Y-110574080D01*
X150828452Y-110526461D01*
X150876071Y-110478842D01*
X152209404Y-107081700D02*
X152304642Y-107034080D01*
X152447500Y-107034080D01*
X152590357Y-107081700D01*
X152685595Y-107176938D01*
X152733214Y-107272176D01*
X152780833Y-107462652D01*
X152780833Y-107605509D01*
X152733214Y-107795985D01*
X152685595Y-107891223D01*
X152590357Y-107986461D01*
X152447500Y-108034080D01*
X152352261Y-108034080D01*
X152209404Y-107986461D01*
X152161785Y-107938842D01*
X152161785Y-107605509D01*
X152352261Y-107605509D01*
X151733214Y-108034080D02*
X151733214Y-107034080D01*
X151161785Y-108034080D01*
X151161785Y-107034080D01*
X150685595Y-108034080D02*
X150685595Y-107034080D01*
X150447500Y-107034080D01*
X150304642Y-107081700D01*
X150209404Y-107176938D01*
X150161785Y-107272176D01*
X150114166Y-107462652D01*
X150114166Y-107605509D01*
X150161785Y-107795985D01*
X150209404Y-107891223D01*
X150304642Y-107986461D01*
X150447500Y-108034080D01*
X150685595Y-108034080D01*
X152185595Y-105494080D02*
X152185595Y-104494080D01*
X151947500Y-104494080D01*
X151804642Y-104541700D01*
X151709404Y-104636938D01*
X151661785Y-104732176D01*
X151614166Y-104922652D01*
X151614166Y-105065509D01*
X151661785Y-105255985D01*
X151709404Y-105351223D01*
X151804642Y-105446461D01*
X151947500Y-105494080D01*
X152185595Y-105494080D01*
X151280833Y-104494080D02*
X150614166Y-104494080D01*
X151042738Y-105494080D01*
X152185595Y-102954080D02*
X152185595Y-101954080D01*
X151947500Y-101954080D01*
X151804642Y-102001700D01*
X151709404Y-102096938D01*
X151661785Y-102192176D01*
X151614166Y-102382652D01*
X151614166Y-102525509D01*
X151661785Y-102715985D01*
X151709404Y-102811223D01*
X151804642Y-102906461D01*
X151947500Y-102954080D01*
X152185595Y-102954080D01*
X150757023Y-101954080D02*
X150947500Y-101954080D01*
X151042738Y-102001700D01*
X151090357Y-102049319D01*
X151185595Y-102192176D01*
X151233214Y-102382652D01*
X151233214Y-102763604D01*
X151185595Y-102858842D01*
X151137976Y-102906461D01*
X151042738Y-102954080D01*
X150852261Y-102954080D01*
X150757023Y-102906461D01*
X150709404Y-102858842D01*
X150661785Y-102763604D01*
X150661785Y-102525509D01*
X150709404Y-102430271D01*
X150757023Y-102382652D01*
X150852261Y-102335033D01*
X151042738Y-102335033D01*
X151137976Y-102382652D01*
X151185595Y-102430271D01*
X151233214Y-102525509D01*
X152185595Y-100414080D02*
X152185595Y-99414080D01*
X151947500Y-99414080D01*
X151804642Y-99461700D01*
X151709404Y-99556938D01*
X151661785Y-99652176D01*
X151614166Y-99842652D01*
X151614166Y-99985509D01*
X151661785Y-100175985D01*
X151709404Y-100271223D01*
X151804642Y-100366461D01*
X151947500Y-100414080D01*
X152185595Y-100414080D01*
X150709404Y-99414080D02*
X151185595Y-99414080D01*
X151233214Y-99890271D01*
X151185595Y-99842652D01*
X151090357Y-99795033D01*
X150852261Y-99795033D01*
X150757023Y-99842652D01*
X150709404Y-99890271D01*
X150661785Y-99985509D01*
X150661785Y-100223604D01*
X150709404Y-100318842D01*
X150757023Y-100366461D01*
X150852261Y-100414080D01*
X151090357Y-100414080D01*
X151185595Y-100366461D01*
X151233214Y-100318842D01*
X152185595Y-97874080D02*
X152185595Y-96874080D01*
X151947500Y-96874080D01*
X151804642Y-96921700D01*
X151709404Y-97016938D01*
X151661785Y-97112176D01*
X151614166Y-97302652D01*
X151614166Y-97445509D01*
X151661785Y-97635985D01*
X151709404Y-97731223D01*
X151804642Y-97826461D01*
X151947500Y-97874080D01*
X152185595Y-97874080D01*
X150757023Y-97207414D02*
X150757023Y-97874080D01*
X150995119Y-96826461D02*
X151233214Y-97540747D01*
X150614166Y-97540747D01*
M02*
