%TF.GenerationSoftware,KiCad,Pcbnew,(5.1.10)-1*%
%TF.CreationDate,2021-08-11T02:19:35+08:00*%
%TF.ProjectId,Pmod-8led,506d6f64-2d38-46c6-9564-2e6b69636164,rev?*%
%TF.SameCoordinates,Original*%
%TF.FileFunction,Paste,Top*%
%TF.FilePolarity,Positive*%
%FSLAX46Y46*%
G04 Gerber Fmt 4.6, Leading zero omitted, Abs format (unit mm)*
G04 Created by KiCad (PCBNEW (5.1.10)-1) date 2021-08-11 02:19:35*
%MOMM*%
%LPD*%
G01*
G04 APERTURE LIST*
%ADD10R,2.500000X1.000000*%
G04 APERTURE END LIST*
D10*
%TO.C,PMOD0*%
X148596100Y-97409000D03*
X148596100Y-99949000D03*
X148596100Y-102489000D03*
X148596100Y-105029000D03*
X148596100Y-107569000D03*
X148596100Y-110109000D03*
%TD*%
%TO.C,R7*%
G36*
G01*
X154678200Y-103348800D02*
X155228200Y-103348800D01*
G75*
G02*
X155428200Y-103548800I0J-200000D01*
G01*
X155428200Y-103948800D01*
G75*
G02*
X155228200Y-104148800I-200000J0D01*
G01*
X154678200Y-104148800D01*
G75*
G02*
X154478200Y-103948800I0J200000D01*
G01*
X154478200Y-103548800D01*
G75*
G02*
X154678200Y-103348800I200000J0D01*
G01*
G37*
G36*
G01*
X154678200Y-101698800D02*
X155228200Y-101698800D01*
G75*
G02*
X155428200Y-101898800I0J-200000D01*
G01*
X155428200Y-102298800D01*
G75*
G02*
X155228200Y-102498800I-200000J0D01*
G01*
X154678200Y-102498800D01*
G75*
G02*
X154478200Y-102298800I0J200000D01*
G01*
X154478200Y-101898800D01*
G75*
G02*
X154678200Y-101698800I200000J0D01*
G01*
G37*
%TD*%
%TO.C,R6*%
G36*
G01*
X156678200Y-103348800D02*
X157228200Y-103348800D01*
G75*
G02*
X157428200Y-103548800I0J-200000D01*
G01*
X157428200Y-103948800D01*
G75*
G02*
X157228200Y-104148800I-200000J0D01*
G01*
X156678200Y-104148800D01*
G75*
G02*
X156478200Y-103948800I0J200000D01*
G01*
X156478200Y-103548800D01*
G75*
G02*
X156678200Y-103348800I200000J0D01*
G01*
G37*
G36*
G01*
X156678200Y-101698800D02*
X157228200Y-101698800D01*
G75*
G02*
X157428200Y-101898800I0J-200000D01*
G01*
X157428200Y-102298800D01*
G75*
G02*
X157228200Y-102498800I-200000J0D01*
G01*
X156678200Y-102498800D01*
G75*
G02*
X156478200Y-102298800I0J200000D01*
G01*
X156478200Y-101898800D01*
G75*
G02*
X156678200Y-101698800I200000J0D01*
G01*
G37*
%TD*%
%TO.C,R5*%
G36*
G01*
X158678200Y-103348800D02*
X159228200Y-103348800D01*
G75*
G02*
X159428200Y-103548800I0J-200000D01*
G01*
X159428200Y-103948800D01*
G75*
G02*
X159228200Y-104148800I-200000J0D01*
G01*
X158678200Y-104148800D01*
G75*
G02*
X158478200Y-103948800I0J200000D01*
G01*
X158478200Y-103548800D01*
G75*
G02*
X158678200Y-103348800I200000J0D01*
G01*
G37*
G36*
G01*
X158678200Y-101698800D02*
X159228200Y-101698800D01*
G75*
G02*
X159428200Y-101898800I0J-200000D01*
G01*
X159428200Y-102298800D01*
G75*
G02*
X159228200Y-102498800I-200000J0D01*
G01*
X158678200Y-102498800D01*
G75*
G02*
X158478200Y-102298800I0J200000D01*
G01*
X158478200Y-101898800D01*
G75*
G02*
X158678200Y-101698800I200000J0D01*
G01*
G37*
%TD*%
%TO.C,R4*%
G36*
G01*
X160678200Y-103348800D02*
X161228200Y-103348800D01*
G75*
G02*
X161428200Y-103548800I0J-200000D01*
G01*
X161428200Y-103948800D01*
G75*
G02*
X161228200Y-104148800I-200000J0D01*
G01*
X160678200Y-104148800D01*
G75*
G02*
X160478200Y-103948800I0J200000D01*
G01*
X160478200Y-103548800D01*
G75*
G02*
X160678200Y-103348800I200000J0D01*
G01*
G37*
G36*
G01*
X160678200Y-101698800D02*
X161228200Y-101698800D01*
G75*
G02*
X161428200Y-101898800I0J-200000D01*
G01*
X161428200Y-102298800D01*
G75*
G02*
X161228200Y-102498800I-200000J0D01*
G01*
X160678200Y-102498800D01*
G75*
G02*
X160478200Y-102298800I0J200000D01*
G01*
X160478200Y-101898800D01*
G75*
G02*
X160678200Y-101698800I200000J0D01*
G01*
G37*
%TD*%
%TO.C,R3*%
G36*
G01*
X162678200Y-103348800D02*
X163228200Y-103348800D01*
G75*
G02*
X163428200Y-103548800I0J-200000D01*
G01*
X163428200Y-103948800D01*
G75*
G02*
X163228200Y-104148800I-200000J0D01*
G01*
X162678200Y-104148800D01*
G75*
G02*
X162478200Y-103948800I0J200000D01*
G01*
X162478200Y-103548800D01*
G75*
G02*
X162678200Y-103348800I200000J0D01*
G01*
G37*
G36*
G01*
X162678200Y-101698800D02*
X163228200Y-101698800D01*
G75*
G02*
X163428200Y-101898800I0J-200000D01*
G01*
X163428200Y-102298800D01*
G75*
G02*
X163228200Y-102498800I-200000J0D01*
G01*
X162678200Y-102498800D01*
G75*
G02*
X162478200Y-102298800I0J200000D01*
G01*
X162478200Y-101898800D01*
G75*
G02*
X162678200Y-101698800I200000J0D01*
G01*
G37*
%TD*%
%TO.C,R2*%
G36*
G01*
X164688200Y-103348800D02*
X165238200Y-103348800D01*
G75*
G02*
X165438200Y-103548800I0J-200000D01*
G01*
X165438200Y-103948800D01*
G75*
G02*
X165238200Y-104148800I-200000J0D01*
G01*
X164688200Y-104148800D01*
G75*
G02*
X164488200Y-103948800I0J200000D01*
G01*
X164488200Y-103548800D01*
G75*
G02*
X164688200Y-103348800I200000J0D01*
G01*
G37*
G36*
G01*
X164688200Y-101698800D02*
X165238200Y-101698800D01*
G75*
G02*
X165438200Y-101898800I0J-200000D01*
G01*
X165438200Y-102298800D01*
G75*
G02*
X165238200Y-102498800I-200000J0D01*
G01*
X164688200Y-102498800D01*
G75*
G02*
X164488200Y-102298800I0J200000D01*
G01*
X164488200Y-101898800D01*
G75*
G02*
X164688200Y-101698800I200000J0D01*
G01*
G37*
%TD*%
%TO.C,R1*%
G36*
G01*
X166678200Y-103348800D02*
X167228200Y-103348800D01*
G75*
G02*
X167428200Y-103548800I0J-200000D01*
G01*
X167428200Y-103948800D01*
G75*
G02*
X167228200Y-104148800I-200000J0D01*
G01*
X166678200Y-104148800D01*
G75*
G02*
X166478200Y-103948800I0J200000D01*
G01*
X166478200Y-103548800D01*
G75*
G02*
X166678200Y-103348800I200000J0D01*
G01*
G37*
G36*
G01*
X166678200Y-101698800D02*
X167228200Y-101698800D01*
G75*
G02*
X167428200Y-101898800I0J-200000D01*
G01*
X167428200Y-102298800D01*
G75*
G02*
X167228200Y-102498800I-200000J0D01*
G01*
X166678200Y-102498800D01*
G75*
G02*
X166478200Y-102298800I0J200000D01*
G01*
X166478200Y-101898800D01*
G75*
G02*
X166678200Y-101698800I200000J0D01*
G01*
G37*
%TD*%
%TO.C,R0*%
G36*
G01*
X168678200Y-103348800D02*
X169228200Y-103348800D01*
G75*
G02*
X169428200Y-103548800I0J-200000D01*
G01*
X169428200Y-103948800D01*
G75*
G02*
X169228200Y-104148800I-200000J0D01*
G01*
X168678200Y-104148800D01*
G75*
G02*
X168478200Y-103948800I0J200000D01*
G01*
X168478200Y-103548800D01*
G75*
G02*
X168678200Y-103348800I200000J0D01*
G01*
G37*
G36*
G01*
X168678200Y-101698800D02*
X169228200Y-101698800D01*
G75*
G02*
X169428200Y-101898800I0J-200000D01*
G01*
X169428200Y-102298800D01*
G75*
G02*
X169228200Y-102498800I-200000J0D01*
G01*
X168678200Y-102498800D01*
G75*
G02*
X168478200Y-102298800I0J200000D01*
G01*
X168478200Y-101898800D01*
G75*
G02*
X168678200Y-101698800I200000J0D01*
G01*
G37*
%TD*%
%TO.C,D7*%
G36*
G01*
X155209450Y-98873800D02*
X154696950Y-98873800D01*
G75*
G02*
X154478200Y-98655050I0J218750D01*
G01*
X154478200Y-98217550D01*
G75*
G02*
X154696950Y-97998800I218750J0D01*
G01*
X155209450Y-97998800D01*
G75*
G02*
X155428200Y-98217550I0J-218750D01*
G01*
X155428200Y-98655050D01*
G75*
G02*
X155209450Y-98873800I-218750J0D01*
G01*
G37*
G36*
G01*
X155209450Y-100448800D02*
X154696950Y-100448800D01*
G75*
G02*
X154478200Y-100230050I0J218750D01*
G01*
X154478200Y-99792550D01*
G75*
G02*
X154696950Y-99573800I218750J0D01*
G01*
X155209450Y-99573800D01*
G75*
G02*
X155428200Y-99792550I0J-218750D01*
G01*
X155428200Y-100230050D01*
G75*
G02*
X155209450Y-100448800I-218750J0D01*
G01*
G37*
%TD*%
%TO.C,D6*%
G36*
G01*
X157209450Y-98873800D02*
X156696950Y-98873800D01*
G75*
G02*
X156478200Y-98655050I0J218750D01*
G01*
X156478200Y-98217550D01*
G75*
G02*
X156696950Y-97998800I218750J0D01*
G01*
X157209450Y-97998800D01*
G75*
G02*
X157428200Y-98217550I0J-218750D01*
G01*
X157428200Y-98655050D01*
G75*
G02*
X157209450Y-98873800I-218750J0D01*
G01*
G37*
G36*
G01*
X157209450Y-100448800D02*
X156696950Y-100448800D01*
G75*
G02*
X156478200Y-100230050I0J218750D01*
G01*
X156478200Y-99792550D01*
G75*
G02*
X156696950Y-99573800I218750J0D01*
G01*
X157209450Y-99573800D01*
G75*
G02*
X157428200Y-99792550I0J-218750D01*
G01*
X157428200Y-100230050D01*
G75*
G02*
X157209450Y-100448800I-218750J0D01*
G01*
G37*
%TD*%
%TO.C,D5*%
G36*
G01*
X159209450Y-98873800D02*
X158696950Y-98873800D01*
G75*
G02*
X158478200Y-98655050I0J218750D01*
G01*
X158478200Y-98217550D01*
G75*
G02*
X158696950Y-97998800I218750J0D01*
G01*
X159209450Y-97998800D01*
G75*
G02*
X159428200Y-98217550I0J-218750D01*
G01*
X159428200Y-98655050D01*
G75*
G02*
X159209450Y-98873800I-218750J0D01*
G01*
G37*
G36*
G01*
X159209450Y-100448800D02*
X158696950Y-100448800D01*
G75*
G02*
X158478200Y-100230050I0J218750D01*
G01*
X158478200Y-99792550D01*
G75*
G02*
X158696950Y-99573800I218750J0D01*
G01*
X159209450Y-99573800D01*
G75*
G02*
X159428200Y-99792550I0J-218750D01*
G01*
X159428200Y-100230050D01*
G75*
G02*
X159209450Y-100448800I-218750J0D01*
G01*
G37*
%TD*%
%TO.C,D4*%
G36*
G01*
X161209450Y-98873800D02*
X160696950Y-98873800D01*
G75*
G02*
X160478200Y-98655050I0J218750D01*
G01*
X160478200Y-98217550D01*
G75*
G02*
X160696950Y-97998800I218750J0D01*
G01*
X161209450Y-97998800D01*
G75*
G02*
X161428200Y-98217550I0J-218750D01*
G01*
X161428200Y-98655050D01*
G75*
G02*
X161209450Y-98873800I-218750J0D01*
G01*
G37*
G36*
G01*
X161209450Y-100448800D02*
X160696950Y-100448800D01*
G75*
G02*
X160478200Y-100230050I0J218750D01*
G01*
X160478200Y-99792550D01*
G75*
G02*
X160696950Y-99573800I218750J0D01*
G01*
X161209450Y-99573800D01*
G75*
G02*
X161428200Y-99792550I0J-218750D01*
G01*
X161428200Y-100230050D01*
G75*
G02*
X161209450Y-100448800I-218750J0D01*
G01*
G37*
%TD*%
%TO.C,D3*%
G36*
G01*
X163209450Y-98873800D02*
X162696950Y-98873800D01*
G75*
G02*
X162478200Y-98655050I0J218750D01*
G01*
X162478200Y-98217550D01*
G75*
G02*
X162696950Y-97998800I218750J0D01*
G01*
X163209450Y-97998800D01*
G75*
G02*
X163428200Y-98217550I0J-218750D01*
G01*
X163428200Y-98655050D01*
G75*
G02*
X163209450Y-98873800I-218750J0D01*
G01*
G37*
G36*
G01*
X163209450Y-100448800D02*
X162696950Y-100448800D01*
G75*
G02*
X162478200Y-100230050I0J218750D01*
G01*
X162478200Y-99792550D01*
G75*
G02*
X162696950Y-99573800I218750J0D01*
G01*
X163209450Y-99573800D01*
G75*
G02*
X163428200Y-99792550I0J-218750D01*
G01*
X163428200Y-100230050D01*
G75*
G02*
X163209450Y-100448800I-218750J0D01*
G01*
G37*
%TD*%
%TO.C,D2*%
G36*
G01*
X165209450Y-98873800D02*
X164696950Y-98873800D01*
G75*
G02*
X164478200Y-98655050I0J218750D01*
G01*
X164478200Y-98217550D01*
G75*
G02*
X164696950Y-97998800I218750J0D01*
G01*
X165209450Y-97998800D01*
G75*
G02*
X165428200Y-98217550I0J-218750D01*
G01*
X165428200Y-98655050D01*
G75*
G02*
X165209450Y-98873800I-218750J0D01*
G01*
G37*
G36*
G01*
X165209450Y-100448800D02*
X164696950Y-100448800D01*
G75*
G02*
X164478200Y-100230050I0J218750D01*
G01*
X164478200Y-99792550D01*
G75*
G02*
X164696950Y-99573800I218750J0D01*
G01*
X165209450Y-99573800D01*
G75*
G02*
X165428200Y-99792550I0J-218750D01*
G01*
X165428200Y-100230050D01*
G75*
G02*
X165209450Y-100448800I-218750J0D01*
G01*
G37*
%TD*%
%TO.C,D1*%
G36*
G01*
X167209450Y-98873800D02*
X166696950Y-98873800D01*
G75*
G02*
X166478200Y-98655050I0J218750D01*
G01*
X166478200Y-98217550D01*
G75*
G02*
X166696950Y-97998800I218750J0D01*
G01*
X167209450Y-97998800D01*
G75*
G02*
X167428200Y-98217550I0J-218750D01*
G01*
X167428200Y-98655050D01*
G75*
G02*
X167209450Y-98873800I-218750J0D01*
G01*
G37*
G36*
G01*
X167209450Y-100448800D02*
X166696950Y-100448800D01*
G75*
G02*
X166478200Y-100230050I0J218750D01*
G01*
X166478200Y-99792550D01*
G75*
G02*
X166696950Y-99573800I218750J0D01*
G01*
X167209450Y-99573800D01*
G75*
G02*
X167428200Y-99792550I0J-218750D01*
G01*
X167428200Y-100230050D01*
G75*
G02*
X167209450Y-100448800I-218750J0D01*
G01*
G37*
%TD*%
%TO.C,D0*%
G36*
G01*
X169209450Y-98873800D02*
X168696950Y-98873800D01*
G75*
G02*
X168478200Y-98655050I0J218750D01*
G01*
X168478200Y-98217550D01*
G75*
G02*
X168696950Y-97998800I218750J0D01*
G01*
X169209450Y-97998800D01*
G75*
G02*
X169428200Y-98217550I0J-218750D01*
G01*
X169428200Y-98655050D01*
G75*
G02*
X169209450Y-98873800I-218750J0D01*
G01*
G37*
G36*
G01*
X169209450Y-100448800D02*
X168696950Y-100448800D01*
G75*
G02*
X168478200Y-100230050I0J218750D01*
G01*
X168478200Y-99792550D01*
G75*
G02*
X168696950Y-99573800I218750J0D01*
G01*
X169209450Y-99573800D01*
G75*
G02*
X169428200Y-99792550I0J-218750D01*
G01*
X169428200Y-100230050D01*
G75*
G02*
X169209450Y-100448800I-218750J0D01*
G01*
G37*
%TD*%
M02*
