%TF.GenerationSoftware,KiCad,Pcbnew,(5.1.10)-1*%
%TF.CreationDate,2021-08-15T22:29:03+08:00*%
%TF.ProjectId,Pmod-8led,506d6f64-2d38-46c6-9564-2e6b69636164,rev?*%
%TF.SameCoordinates,Original*%
%TF.FileFunction,Copper,L2,Bot*%
%TF.FilePolarity,Positive*%
%FSLAX46Y46*%
G04 Gerber Fmt 4.6, Leading zero omitted, Abs format (unit mm)*
G04 Created by KiCad (PCBNEW (5.1.10)-1) date 2021-08-15 22:29:03*
%MOMM*%
%LPD*%
G01*
G04 APERTURE LIST*
%TA.AperFunction,SMDPad,CuDef*%
%ADD10R,2.500000X1.000000*%
%TD*%
%TA.AperFunction,ViaPad*%
%ADD11C,0.800000*%
%TD*%
%TA.AperFunction,ViaPad*%
%ADD12C,0.600000*%
%TD*%
%TA.AperFunction,Conductor*%
%ADD13C,0.200000*%
%TD*%
%TA.AperFunction,Conductor*%
%ADD14C,0.254000*%
%TD*%
%TA.AperFunction,Conductor*%
%ADD15C,0.100000*%
%TD*%
G04 APERTURE END LIST*
D10*
%TO.P,PMOD0,7*%
%TO.N,IO4*%
X148596100Y-97409000D03*
%TO.P,PMOD0,8*%
%TO.N,IO5*%
X148596100Y-99949000D03*
%TO.P,PMOD0,9*%
%TO.N,IO6*%
X148596100Y-102489000D03*
%TO.P,PMOD0,10*%
%TO.N,IO7*%
X148596100Y-105029000D03*
%TO.P,PMOD0,11*%
%TO.N,GND*%
X148596100Y-107569000D03*
%TO.P,PMOD0,12*%
%TO.N,Net-(PMOD0-Pad12)*%
X148596100Y-110109000D03*
%TD*%
D11*
%TO.N,GND*%
X150723600Y-106299000D03*
X150723600Y-108813600D03*
D12*
%TO.N,IO7*%
X154165415Y-99169868D03*
%TO.N,IO6*%
X156171898Y-99123502D03*
%TO.N,IO5*%
X158216599Y-99110801D03*
%TO.N,IO4*%
X160210500Y-99123500D03*
%TD*%
D13*
%TO.N,IO7*%
X149326600Y-105029000D02*
X148596100Y-105029000D01*
X152222200Y-102133400D02*
X149326600Y-105029000D01*
X152222200Y-101113083D02*
X152222200Y-102133400D01*
X154165415Y-99169868D02*
X152222200Y-101113083D01*
%TO.N,IO6*%
X155518263Y-98469867D02*
X156171898Y-99123502D01*
X153371133Y-98469867D02*
X155518263Y-98469867D01*
X149352000Y-102489000D02*
X153371133Y-98469867D01*
X148596100Y-102489000D02*
X149352000Y-102489000D01*
%TO.N,IO5*%
X157073598Y-97967800D02*
X158216599Y-99110801D01*
X149352000Y-99949000D02*
X151333200Y-97967800D01*
X151333200Y-97967800D02*
X157073598Y-97967800D01*
X148596100Y-99949000D02*
X149352000Y-99949000D01*
%TO.N,IO4*%
X148596100Y-97409000D02*
X158496000Y-97409000D01*
X158496000Y-97409000D02*
X160210500Y-99123500D01*
%TD*%
D14*
%TO.N,GND*%
X153898600Y-110997600D02*
X150348647Y-110997600D01*
X150376637Y-110963494D01*
X150435602Y-110853180D01*
X150471912Y-110733482D01*
X150484172Y-110609000D01*
X150484172Y-109609000D01*
X150471912Y-109484518D01*
X150435602Y-109364820D01*
X150376637Y-109254506D01*
X150297285Y-109157815D01*
X150200594Y-109078463D01*
X150090280Y-109019498D01*
X149970582Y-108983188D01*
X149846100Y-108970928D01*
X147346100Y-108970928D01*
X147330800Y-108972435D01*
X147330800Y-108705565D01*
X147346100Y-108707072D01*
X148310350Y-108704000D01*
X148469100Y-108545250D01*
X148469100Y-107696000D01*
X148723100Y-107696000D01*
X148723100Y-108545250D01*
X148881850Y-108704000D01*
X149846100Y-108707072D01*
X149970582Y-108694812D01*
X150090280Y-108658502D01*
X150200594Y-108599537D01*
X150297285Y-108520185D01*
X150376637Y-108423494D01*
X150435602Y-108313180D01*
X150471912Y-108193482D01*
X150484172Y-108069000D01*
X150481100Y-107854750D01*
X150322350Y-107696000D01*
X148723100Y-107696000D01*
X148469100Y-107696000D01*
X148449100Y-107696000D01*
X148449100Y-107442000D01*
X148469100Y-107442000D01*
X148469100Y-106592750D01*
X148723100Y-106592750D01*
X148723100Y-107442000D01*
X150322350Y-107442000D01*
X150481100Y-107283250D01*
X150484172Y-107069000D01*
X150471912Y-106944518D01*
X150435602Y-106824820D01*
X150376637Y-106714506D01*
X150297285Y-106617815D01*
X150200594Y-106538463D01*
X150090280Y-106479498D01*
X149970582Y-106443188D01*
X149846100Y-106430928D01*
X148881850Y-106434000D01*
X148723100Y-106592750D01*
X148469100Y-106592750D01*
X148310350Y-106434000D01*
X147346100Y-106430928D01*
X147330800Y-106432435D01*
X147330800Y-106165565D01*
X147346100Y-106167072D01*
X149846100Y-106167072D01*
X149970582Y-106154812D01*
X150090280Y-106118502D01*
X150200594Y-106059537D01*
X150297285Y-105980185D01*
X150376637Y-105883494D01*
X150435602Y-105773180D01*
X150471912Y-105653482D01*
X150484172Y-105529000D01*
X150484172Y-104910874D01*
X150747046Y-104648000D01*
X153898600Y-104648000D01*
X153898600Y-110997600D01*
%TA.AperFunction,Conductor*%
D15*
G36*
X153898600Y-110997600D02*
G01*
X150348647Y-110997600D01*
X150376637Y-110963494D01*
X150435602Y-110853180D01*
X150471912Y-110733482D01*
X150484172Y-110609000D01*
X150484172Y-109609000D01*
X150471912Y-109484518D01*
X150435602Y-109364820D01*
X150376637Y-109254506D01*
X150297285Y-109157815D01*
X150200594Y-109078463D01*
X150090280Y-109019498D01*
X149970582Y-108983188D01*
X149846100Y-108970928D01*
X147346100Y-108970928D01*
X147330800Y-108972435D01*
X147330800Y-108705565D01*
X147346100Y-108707072D01*
X148310350Y-108704000D01*
X148469100Y-108545250D01*
X148469100Y-107696000D01*
X148723100Y-107696000D01*
X148723100Y-108545250D01*
X148881850Y-108704000D01*
X149846100Y-108707072D01*
X149970582Y-108694812D01*
X150090280Y-108658502D01*
X150200594Y-108599537D01*
X150297285Y-108520185D01*
X150376637Y-108423494D01*
X150435602Y-108313180D01*
X150471912Y-108193482D01*
X150484172Y-108069000D01*
X150481100Y-107854750D01*
X150322350Y-107696000D01*
X148723100Y-107696000D01*
X148469100Y-107696000D01*
X148449100Y-107696000D01*
X148449100Y-107442000D01*
X148469100Y-107442000D01*
X148469100Y-106592750D01*
X148723100Y-106592750D01*
X148723100Y-107442000D01*
X150322350Y-107442000D01*
X150481100Y-107283250D01*
X150484172Y-107069000D01*
X150471912Y-106944518D01*
X150435602Y-106824820D01*
X150376637Y-106714506D01*
X150297285Y-106617815D01*
X150200594Y-106538463D01*
X150090280Y-106479498D01*
X149970582Y-106443188D01*
X149846100Y-106430928D01*
X148881850Y-106434000D01*
X148723100Y-106592750D01*
X148469100Y-106592750D01*
X148310350Y-106434000D01*
X147346100Y-106430928D01*
X147330800Y-106432435D01*
X147330800Y-106165565D01*
X147346100Y-106167072D01*
X149846100Y-106167072D01*
X149970582Y-106154812D01*
X150090280Y-106118502D01*
X150200594Y-106059537D01*
X150297285Y-105980185D01*
X150376637Y-105883494D01*
X150435602Y-105773180D01*
X150471912Y-105653482D01*
X150484172Y-105529000D01*
X150484172Y-104910874D01*
X150747046Y-104648000D01*
X153898600Y-104648000D01*
X153898600Y-110997600D01*
G37*
%TD.AperFunction*%
%TD*%
M02*
