%TF.GenerationSoftware,KiCad,Pcbnew,(5.1.10)-1*%
%TF.CreationDate,2021-08-15T22:29:03+08:00*%
%TF.ProjectId,Pmod-8led,506d6f64-2d38-46c6-9564-2e6b69636164,rev?*%
%TF.SameCoordinates,Original*%
%TF.FileFunction,Legend,Top*%
%TF.FilePolarity,Positive*%
%FSLAX46Y46*%
G04 Gerber Fmt 4.6, Leading zero omitted, Abs format (unit mm)*
G04 Created by KiCad (PCBNEW (5.1.10)-1) date 2021-08-15 22:29:03*
%MOMM*%
%LPD*%
G01*
G04 APERTURE LIST*
%ADD10C,0.150000*%
%ADD11C,0.120000*%
%ADD12C,0.010000*%
G04 APERTURE END LIST*
D10*
X154719876Y-107843580D02*
X154719876Y-106843580D01*
X155100828Y-106843580D01*
X155196066Y-106891200D01*
X155243685Y-106938819D01*
X155291304Y-107034057D01*
X155291304Y-107176914D01*
X155243685Y-107272152D01*
X155196066Y-107319771D01*
X155100828Y-107367390D01*
X154719876Y-107367390D01*
X155719876Y-107843580D02*
X155719876Y-106843580D01*
X156053209Y-107557866D01*
X156386542Y-106843580D01*
X156386542Y-107843580D01*
X157053209Y-106843580D02*
X157243685Y-106843580D01*
X157338923Y-106891200D01*
X157434161Y-106986438D01*
X157481780Y-107176914D01*
X157481780Y-107510247D01*
X157434161Y-107700723D01*
X157338923Y-107795961D01*
X157243685Y-107843580D01*
X157053209Y-107843580D01*
X156957971Y-107795961D01*
X156862733Y-107700723D01*
X156815114Y-107510247D01*
X156815114Y-107176914D01*
X156862733Y-106986438D01*
X156957971Y-106891200D01*
X157053209Y-106843580D01*
X157910352Y-107843580D02*
X157910352Y-106843580D01*
X158148447Y-106843580D01*
X158291304Y-106891200D01*
X158386542Y-106986438D01*
X158434161Y-107081676D01*
X158481780Y-107272152D01*
X158481780Y-107415009D01*
X158434161Y-107605485D01*
X158386542Y-107700723D01*
X158291304Y-107795961D01*
X158148447Y-107843580D01*
X157910352Y-107843580D01*
X158910352Y-107462628D02*
X159672257Y-107462628D01*
X160291304Y-107272152D02*
X160196066Y-107224533D01*
X160148447Y-107176914D01*
X160100828Y-107081676D01*
X160100828Y-107034057D01*
X160148447Y-106938819D01*
X160196066Y-106891200D01*
X160291304Y-106843580D01*
X160481780Y-106843580D01*
X160577019Y-106891200D01*
X160624638Y-106938819D01*
X160672257Y-107034057D01*
X160672257Y-107081676D01*
X160624638Y-107176914D01*
X160577019Y-107224533D01*
X160481780Y-107272152D01*
X160291304Y-107272152D01*
X160196066Y-107319771D01*
X160148447Y-107367390D01*
X160100828Y-107462628D01*
X160100828Y-107653104D01*
X160148447Y-107748342D01*
X160196066Y-107795961D01*
X160291304Y-107843580D01*
X160481780Y-107843580D01*
X160577019Y-107795961D01*
X160624638Y-107748342D01*
X160672257Y-107653104D01*
X160672257Y-107462628D01*
X160624638Y-107367390D01*
X160577019Y-107319771D01*
X160481780Y-107272152D01*
X161577019Y-107843580D02*
X161100828Y-107843580D01*
X161100828Y-106843580D01*
X161910352Y-107319771D02*
X162243685Y-107319771D01*
X162386542Y-107843580D02*
X161910352Y-107843580D01*
X161910352Y-106843580D01*
X162386542Y-106843580D01*
X162815114Y-107843580D02*
X162815114Y-106843580D01*
X163053209Y-106843580D01*
X163196066Y-106891200D01*
X163291304Y-106986438D01*
X163338923Y-107081676D01*
X163386542Y-107272152D01*
X163386542Y-107415009D01*
X163338923Y-107605485D01*
X163291304Y-107700723D01*
X163196066Y-107795961D01*
X163053209Y-107843580D01*
X162815114Y-107843580D01*
D11*
X153331800Y-96139000D02*
X153331800Y-111379000D01*
D10*
X150336404Y-109624880D02*
X150955452Y-109624880D01*
X150622119Y-110005833D01*
X150764976Y-110005833D01*
X150860214Y-110053452D01*
X150907833Y-110101071D01*
X150955452Y-110196309D01*
X150955452Y-110434404D01*
X150907833Y-110529642D01*
X150860214Y-110577261D01*
X150764976Y-110624880D01*
X150479261Y-110624880D01*
X150384023Y-110577261D01*
X150336404Y-110529642D01*
X151241166Y-109624880D02*
X151574500Y-110624880D01*
X151907833Y-109624880D01*
X152145928Y-109624880D02*
X152764976Y-109624880D01*
X152431642Y-110005833D01*
X152574500Y-110005833D01*
X152669738Y-110053452D01*
X152717357Y-110101071D01*
X152764976Y-110196309D01*
X152764976Y-110434404D01*
X152717357Y-110529642D01*
X152669738Y-110577261D01*
X152574500Y-110624880D01*
X152288785Y-110624880D01*
X152193547Y-110577261D01*
X152145928Y-110529642D01*
X150812595Y-107132500D02*
X150717357Y-107084880D01*
X150574500Y-107084880D01*
X150431642Y-107132500D01*
X150336404Y-107227738D01*
X150288785Y-107322976D01*
X150241166Y-107513452D01*
X150241166Y-107656309D01*
X150288785Y-107846785D01*
X150336404Y-107942023D01*
X150431642Y-108037261D01*
X150574500Y-108084880D01*
X150669738Y-108084880D01*
X150812595Y-108037261D01*
X150860214Y-107989642D01*
X150860214Y-107656309D01*
X150669738Y-107656309D01*
X151288785Y-108084880D02*
X151288785Y-107084880D01*
X151860214Y-108084880D01*
X151860214Y-107084880D01*
X152336404Y-108084880D02*
X152336404Y-107084880D01*
X152574500Y-107084880D01*
X152717357Y-107132500D01*
X152812595Y-107227738D01*
X152860214Y-107322976D01*
X152907833Y-107513452D01*
X152907833Y-107656309D01*
X152860214Y-107846785D01*
X152812595Y-107942023D01*
X152717357Y-108037261D01*
X152574500Y-108084880D01*
X152336404Y-108084880D01*
X150836404Y-105544880D02*
X150836404Y-104544880D01*
X151074500Y-104544880D01*
X151217357Y-104592500D01*
X151312595Y-104687738D01*
X151360214Y-104782976D01*
X151407833Y-104973452D01*
X151407833Y-105116309D01*
X151360214Y-105306785D01*
X151312595Y-105402023D01*
X151217357Y-105497261D01*
X151074500Y-105544880D01*
X150836404Y-105544880D01*
X151741166Y-104544880D02*
X152360214Y-104544880D01*
X152026880Y-104925833D01*
X152169738Y-104925833D01*
X152264976Y-104973452D01*
X152312595Y-105021071D01*
X152360214Y-105116309D01*
X152360214Y-105354404D01*
X152312595Y-105449642D01*
X152264976Y-105497261D01*
X152169738Y-105544880D01*
X151884023Y-105544880D01*
X151788785Y-105497261D01*
X151741166Y-105449642D01*
X150836404Y-103004880D02*
X150836404Y-102004880D01*
X151074500Y-102004880D01*
X151217357Y-102052500D01*
X151312595Y-102147738D01*
X151360214Y-102242976D01*
X151407833Y-102433452D01*
X151407833Y-102576309D01*
X151360214Y-102766785D01*
X151312595Y-102862023D01*
X151217357Y-102957261D01*
X151074500Y-103004880D01*
X150836404Y-103004880D01*
X151788785Y-102100119D02*
X151836404Y-102052500D01*
X151931642Y-102004880D01*
X152169738Y-102004880D01*
X152264976Y-102052500D01*
X152312595Y-102100119D01*
X152360214Y-102195357D01*
X152360214Y-102290595D01*
X152312595Y-102433452D01*
X151741166Y-103004880D01*
X152360214Y-103004880D01*
X150836404Y-100464880D02*
X150836404Y-99464880D01*
X151074500Y-99464880D01*
X151217357Y-99512500D01*
X151312595Y-99607738D01*
X151360214Y-99702976D01*
X151407833Y-99893452D01*
X151407833Y-100036309D01*
X151360214Y-100226785D01*
X151312595Y-100322023D01*
X151217357Y-100417261D01*
X151074500Y-100464880D01*
X150836404Y-100464880D01*
X152360214Y-100464880D02*
X151788785Y-100464880D01*
X152074500Y-100464880D02*
X152074500Y-99464880D01*
X151979261Y-99607738D01*
X151884023Y-99702976D01*
X151788785Y-99750595D01*
X150836404Y-97924880D02*
X150836404Y-96924880D01*
X151074500Y-96924880D01*
X151217357Y-96972500D01*
X151312595Y-97067738D01*
X151360214Y-97162976D01*
X151407833Y-97353452D01*
X151407833Y-97496309D01*
X151360214Y-97686785D01*
X151312595Y-97782023D01*
X151217357Y-97877261D01*
X151074500Y-97924880D01*
X150836404Y-97924880D01*
X152026880Y-96924880D02*
X152122119Y-96924880D01*
X152217357Y-96972500D01*
X152264976Y-97020119D01*
X152312595Y-97115357D01*
X152360214Y-97305833D01*
X152360214Y-97543928D01*
X152312595Y-97734404D01*
X152264976Y-97829642D01*
X152217357Y-97877261D01*
X152122119Y-97924880D01*
X152026880Y-97924880D01*
X151931642Y-97877261D01*
X151884023Y-97829642D01*
X151836404Y-97734404D01*
X151788785Y-97543928D01*
X151788785Y-97305833D01*
X151836404Y-97115357D01*
X151884023Y-97020119D01*
X151931642Y-96972500D01*
X152026880Y-96924880D01*
D12*
%TO.C,G\u002A\u002A\u002A*%
G36*
X166831872Y-105978381D02*
G01*
X166982223Y-105983018D01*
X167126116Y-105991835D01*
X167251447Y-106004483D01*
X167335381Y-106018206D01*
X167411342Y-106040871D01*
X167513235Y-106080114D01*
X167630558Y-106130957D01*
X167752812Y-106188417D01*
X167869496Y-106247515D01*
X167970110Y-106303270D01*
X168044152Y-106350701D01*
X168057103Y-106360533D01*
X168131105Y-106410950D01*
X168213584Y-106454937D01*
X168244097Y-106467679D01*
X168383490Y-106535695D01*
X168532840Y-106638817D01*
X168687050Y-106772583D01*
X168841024Y-106932531D01*
X168989669Y-107114201D01*
X169003371Y-107132486D01*
X169157178Y-107352332D01*
X169276652Y-107552673D01*
X169363297Y-107736535D01*
X169418620Y-107906946D01*
X169437662Y-108005813D01*
X169443287Y-108057898D01*
X169438311Y-108095030D01*
X169416715Y-108129905D01*
X169372476Y-108175222D01*
X169345144Y-108200940D01*
X169243210Y-108279862D01*
X169109439Y-108359225D01*
X168954064Y-108434730D01*
X168787315Y-108502078D01*
X168619423Y-108556969D01*
X168460620Y-108595106D01*
X168376772Y-108607847D01*
X168311891Y-108616905D01*
X168262902Y-108631309D01*
X168217486Y-108657684D01*
X168163326Y-108702649D01*
X168112189Y-108750075D01*
X168038316Y-108816750D01*
X167964030Y-108878953D01*
X167902962Y-108925373D01*
X167891884Y-108932847D01*
X167817377Y-108977471D01*
X167736197Y-109020307D01*
X167659788Y-109055922D01*
X167599597Y-109078883D01*
X167572282Y-109084533D01*
X167547424Y-109092743D01*
X167548923Y-109120090D01*
X167578049Y-109170649D01*
X167614871Y-109221136D01*
X167669692Y-109308494D01*
X167725661Y-109424299D01*
X167777311Y-109555185D01*
X167819174Y-109687788D01*
X167838273Y-109767224D01*
X167861661Y-109851751D01*
X167891146Y-109900547D01*
X167907531Y-109912743D01*
X167959907Y-109925108D01*
X168037436Y-109925986D01*
X168124969Y-109916837D01*
X168207355Y-109899124D01*
X168261780Y-109878552D01*
X168320173Y-109859979D01*
X168400775Y-109848551D01*
X168450121Y-109846533D01*
X168525494Y-109849118D01*
X168574859Y-109860449D01*
X168614408Y-109885887D01*
X168639132Y-109909121D01*
X168688963Y-109982894D01*
X168717460Y-110074172D01*
X168720423Y-110165184D01*
X168709828Y-110208223D01*
X168657015Y-110288353D01*
X168566808Y-110357360D01*
X168443183Y-110413085D01*
X168290119Y-110453370D01*
X168243134Y-110461494D01*
X168118886Y-110474694D01*
X168011730Y-110469593D01*
X167900518Y-110444237D01*
X167838967Y-110424116D01*
X167743717Y-110390866D01*
X167675623Y-110454623D01*
X167614556Y-110503796D01*
X167550107Y-110544357D01*
X167538040Y-110550328D01*
X167477379Y-110567686D01*
X167385454Y-110581431D01*
X167273216Y-110591134D01*
X167151614Y-110596369D01*
X167031598Y-110596711D01*
X166924118Y-110591731D01*
X166840124Y-110581005D01*
X166826707Y-110578035D01*
X166759225Y-110558349D01*
X166707699Y-110537673D01*
X166690182Y-110526548D01*
X166657230Y-110513605D01*
X166596855Y-110504944D01*
X166542175Y-110502700D01*
X166465790Y-110498397D01*
X166400728Y-110487319D01*
X166371784Y-110477055D01*
X166326019Y-110464902D01*
X166240500Y-110457464D01*
X166114319Y-110454682D01*
X166024648Y-110455148D01*
X165723745Y-110458886D01*
X165651041Y-110390317D01*
X165594594Y-110324110D01*
X165558598Y-110247053D01*
X165541296Y-110151197D01*
X165541181Y-110112373D01*
X165599010Y-110112373D01*
X165614898Y-110228812D01*
X165652417Y-110311984D01*
X165714135Y-110364749D01*
X165802619Y-110389964D01*
X165920435Y-110390492D01*
X165982613Y-110383586D01*
X166079500Y-110370306D01*
X166070769Y-110272461D01*
X166065766Y-110206754D01*
X166059848Y-110114656D01*
X166054009Y-110012067D01*
X166051822Y-109969722D01*
X166040109Y-109829662D01*
X166019585Y-109725246D01*
X165988254Y-109650338D01*
X165944118Y-109598800D01*
X165927016Y-109586276D01*
X165851617Y-109553396D01*
X166018473Y-109553396D01*
X166020324Y-109582874D01*
X166034632Y-109618195D01*
X166058278Y-109656042D01*
X166074607Y-109665068D01*
X166076716Y-109661702D01*
X166074030Y-109625135D01*
X166061595Y-109593706D01*
X166034176Y-109555240D01*
X166018473Y-109553396D01*
X165851617Y-109553396D01*
X165845517Y-109550736D01*
X165773153Y-109555173D01*
X165711356Y-109597941D01*
X165661560Y-109677389D01*
X165625201Y-109791869D01*
X165603710Y-109939732D01*
X165602187Y-109959807D01*
X165599010Y-110112373D01*
X165541181Y-110112373D01*
X165540930Y-110028593D01*
X165549115Y-109929146D01*
X165574413Y-109766634D01*
X165612707Y-109643146D01*
X165665137Y-109557063D01*
X165732846Y-109506768D01*
X165816977Y-109490644D01*
X165856741Y-109493570D01*
X165947731Y-109506042D01*
X166036099Y-109358509D01*
X166077268Y-109287448D01*
X166108211Y-109229609D01*
X166123644Y-109195011D01*
X166124467Y-109190904D01*
X166117111Y-109179325D01*
X166091624Y-109166106D01*
X166042881Y-109149627D01*
X165965755Y-109128270D01*
X165855119Y-109100416D01*
X165780655Y-109082349D01*
X165612318Y-109030429D01*
X165442251Y-108957768D01*
X165287231Y-108872149D01*
X165205298Y-108815407D01*
X165106719Y-108721797D01*
X165009615Y-108597328D01*
X164921185Y-108453087D01*
X164848628Y-108300160D01*
X164819955Y-108222084D01*
X164794700Y-108141228D01*
X164777649Y-108072838D01*
X164767290Y-108004869D01*
X164762108Y-107925279D01*
X164760592Y-107822023D01*
X164760771Y-107751033D01*
X164762552Y-107656362D01*
X164802098Y-107656362D01*
X164802836Y-107888509D01*
X164843801Y-108117905D01*
X164923120Y-108337362D01*
X165028211Y-108524087D01*
X165107893Y-108631820D01*
X165192458Y-108722803D01*
X165287814Y-108800457D01*
X165399871Y-108868202D01*
X165534535Y-108929460D01*
X165697715Y-108987652D01*
X165895319Y-109046197D01*
X165960567Y-109063906D01*
X166108444Y-109104932D01*
X166215830Y-109138272D01*
X166283793Y-109164300D01*
X166313402Y-109183388D01*
X166314967Y-109187687D01*
X166301347Y-109207088D01*
X166256462Y-109205117D01*
X166254319Y-109204695D01*
X166217065Y-109201591D01*
X166187622Y-109215270D01*
X166155194Y-109253365D01*
X166127887Y-109294088D01*
X166080681Y-109369566D01*
X166055872Y-109421610D01*
X166051793Y-109461612D01*
X166066776Y-109500966D01*
X166091834Y-109540330D01*
X166112879Y-109572563D01*
X166127327Y-109602057D01*
X166136009Y-109636837D01*
X166139754Y-109684928D01*
X166139394Y-109754353D01*
X166135756Y-109853139D01*
X166132276Y-109931403D01*
X166126573Y-110073881D01*
X166124949Y-110180041D01*
X166128622Y-110255802D01*
X166138806Y-110307082D01*
X166156717Y-110339802D01*
X166183572Y-110359879D01*
X166220586Y-110373231D01*
X166223187Y-110373957D01*
X166287543Y-110387083D01*
X166318650Y-110378593D01*
X166321453Y-110345131D01*
X166312247Y-110313496D01*
X166302509Y-110250253D01*
X166322077Y-110191915D01*
X166339729Y-110151282D01*
X166367773Y-110079135D01*
X166403003Y-109984050D01*
X166442212Y-109874601D01*
X166463099Y-109814884D01*
X166509490Y-109676608D01*
X166540714Y-109572155D01*
X166558084Y-109496355D01*
X166562912Y-109444036D01*
X166561479Y-109427594D01*
X166557259Y-109380010D01*
X166568651Y-109363124D01*
X166585956Y-109363836D01*
X166612552Y-109388196D01*
X166626964Y-109440284D01*
X166628389Y-109507056D01*
X166616027Y-109575465D01*
X166601228Y-109612711D01*
X166582431Y-109655616D01*
X166553506Y-109729572D01*
X166517864Y-109825521D01*
X166478913Y-109934403D01*
X166463352Y-109979025D01*
X166423502Y-110094787D01*
X166396172Y-110177967D01*
X166380014Y-110235984D01*
X166373683Y-110276256D01*
X166375833Y-110306199D01*
X166385117Y-110333232D01*
X166395207Y-110354533D01*
X166417915Y-110395817D01*
X166443299Y-110418678D01*
X166484333Y-110429471D01*
X166553987Y-110434552D01*
X166559017Y-110434797D01*
X166686650Y-110440978D01*
X166689428Y-110163961D01*
X166696035Y-109971045D01*
X166712226Y-109816093D01*
X166738965Y-109695621D01*
X166777217Y-109606147D01*
X166827946Y-109544188D01*
X166868590Y-109516748D01*
X166956196Y-109493550D01*
X167044212Y-109509483D01*
X167112769Y-109554006D01*
X167148720Y-109583655D01*
X167173599Y-109584736D01*
X167200120Y-109564264D01*
X167248691Y-109534302D01*
X167300388Y-109534433D01*
X167361242Y-109566592D01*
X167437286Y-109632716D01*
X167448764Y-109644069D01*
X167503912Y-109703145D01*
X167544630Y-109754249D01*
X167563350Y-109787714D01*
X167563800Y-109790987D01*
X167553671Y-109828531D01*
X167529081Y-109831135D01*
X167498729Y-109799296D01*
X167491700Y-109786867D01*
X167452361Y-109729744D01*
X167397426Y-109672174D01*
X167338466Y-109624253D01*
X167287054Y-109596080D01*
X167268995Y-109592533D01*
X167229251Y-109606993D01*
X167216699Y-109651302D01*
X167231063Y-109726855D01*
X167238024Y-109748443D01*
X167253815Y-109813257D01*
X167261803Y-109884341D01*
X167262083Y-109950323D01*
X167254754Y-109999828D01*
X167239909Y-110021486D01*
X167235717Y-110021402D01*
X167222721Y-109999262D01*
X167212791Y-109948242D01*
X167209641Y-109909964D01*
X167193249Y-109810331D01*
X167157065Y-109715738D01*
X167106837Y-109635053D01*
X167048316Y-109577145D01*
X166987252Y-109550882D01*
X166976365Y-109550200D01*
X166912512Y-109560512D01*
X166863464Y-109595948D01*
X166821991Y-109663251D01*
X166800606Y-109714155D01*
X166781538Y-109769705D01*
X166768216Y-109826200D01*
X166759562Y-109893133D01*
X166754496Y-109979997D01*
X166751940Y-110096284D01*
X166751428Y-110146963D01*
X166751488Y-110280609D01*
X166754429Y-110376872D01*
X166760608Y-110440628D01*
X166770385Y-110476752D01*
X166776384Y-110485630D01*
X166809765Y-110500674D01*
X166871293Y-110515099D01*
X166946805Y-110526852D01*
X167022138Y-110533878D01*
X167083128Y-110534124D01*
X167098134Y-110532289D01*
X167132886Y-110528094D01*
X167197887Y-110521901D01*
X167281170Y-110514824D01*
X167312431Y-110512344D01*
X167444578Y-110496321D01*
X167543412Y-110468669D01*
X167617396Y-110424607D01*
X167674992Y-110359355D01*
X167702373Y-110310459D01*
X167778741Y-110310459D01*
X167782572Y-110340568D01*
X167812832Y-110362216D01*
X167876120Y-110383528D01*
X167896833Y-110389461D01*
X167994717Y-110405833D01*
X168115883Y-110409876D01*
X168243375Y-110402419D01*
X168360238Y-110384291D01*
X168433279Y-110363212D01*
X168508358Y-110328631D01*
X168579742Y-110287259D01*
X168595675Y-110276180D01*
X168642442Y-110233814D01*
X168661608Y-110187087D01*
X168664467Y-110139763D01*
X168648159Y-110040496D01*
X168603264Y-109960818D01*
X168535829Y-109907889D01*
X168452598Y-109888866D01*
X168411601Y-109896057D01*
X168347107Y-109914681D01*
X168290078Y-109934503D01*
X168175806Y-109974188D01*
X168089144Y-109996031D01*
X168020131Y-110001704D01*
X167958810Y-109992878D01*
X167952356Y-109991163D01*
X167900173Y-109980653D01*
X167867567Y-109981266D01*
X167864898Y-109982879D01*
X167854699Y-110009565D01*
X167842932Y-110063171D01*
X167837575Y-110095547D01*
X167822140Y-110173032D01*
X167801572Y-110245422D01*
X167794740Y-110263767D01*
X167778741Y-110310459D01*
X167702373Y-110310459D01*
X167717415Y-110283600D01*
X167774417Y-110116467D01*
X167792222Y-109936837D01*
X167771216Y-109747224D01*
X167711785Y-109550141D01*
X167614316Y-109348101D01*
X167559878Y-109258894D01*
X167511202Y-109191474D01*
X167465065Y-109140419D01*
X167430453Y-109115588D01*
X167428850Y-109115125D01*
X167386602Y-109113858D01*
X167317529Y-109121035D01*
X167235948Y-109135120D01*
X167229041Y-109136556D01*
X167129708Y-109156484D01*
X167065339Y-109166278D01*
X167029842Y-109166118D01*
X167017122Y-109156182D01*
X167018755Y-109142751D01*
X167035033Y-109127226D01*
X167075886Y-109112741D01*
X167145683Y-109098406D01*
X167248794Y-109083332D01*
X167389588Y-109066631D01*
X167397163Y-109065796D01*
X167577705Y-109025538D01*
X167756073Y-108947118D01*
X167927826Y-108834648D01*
X168088522Y-108692240D01*
X168214731Y-108546005D01*
X168304634Y-108546005D01*
X168324451Y-108554772D01*
X168382296Y-108551246D01*
X168475758Y-108535657D01*
X168530791Y-108524339D01*
X168699984Y-108479129D01*
X168869712Y-108417892D01*
X169028505Y-108345689D01*
X169164896Y-108267579D01*
X169243670Y-108209784D01*
X169323616Y-108142616D01*
X169274500Y-108069799D01*
X169210894Y-107993721D01*
X169127070Y-107917962D01*
X169035837Y-107852302D01*
X168950005Y-107806519D01*
X168913486Y-107794226D01*
X168833208Y-107772576D01*
X168746965Y-107746515D01*
X168727967Y-107740305D01*
X168658996Y-107718285D01*
X168621012Y-107713224D01*
X168604771Y-107728895D01*
X168601032Y-107769072D01*
X168600967Y-107792162D01*
X168591502Y-107870267D01*
X168565809Y-107973927D01*
X168527944Y-108091538D01*
X168481960Y-108211495D01*
X168431912Y-108322196D01*
X168387487Y-108403130D01*
X168347497Y-108468743D01*
X168318101Y-108519203D01*
X168304877Y-108544893D01*
X168304634Y-108546005D01*
X168214731Y-108546005D01*
X168233720Y-108524004D01*
X168358979Y-108334051D01*
X168459856Y-108126494D01*
X168485936Y-108057950D01*
X168512507Y-107978677D01*
X168529872Y-107910876D01*
X168539876Y-107841346D01*
X168544368Y-107756883D01*
X168545194Y-107644287D01*
X168545161Y-107634616D01*
X168536626Y-107437925D01*
X168510242Y-107262445D01*
X168462381Y-107093018D01*
X168389409Y-106914487D01*
X168355758Y-106843982D01*
X168242209Y-106651594D01*
X168164509Y-106558654D01*
X168256817Y-106558654D01*
X168270072Y-106587414D01*
X168304724Y-106643740D01*
X168311221Y-106653973D01*
X168426559Y-106870045D01*
X168518716Y-107119324D01*
X168588138Y-107403077D01*
X168602110Y-107480236D01*
X168617721Y-107555104D01*
X168635291Y-107613581D01*
X168650604Y-107642446D01*
X168681693Y-107656989D01*
X168742248Y-107677413D01*
X168820538Y-107699852D01*
X168840732Y-107705125D01*
X168989006Y-107754316D01*
X169111223Y-107822868D01*
X169222329Y-107919985D01*
X169264611Y-107966140D01*
X169321744Y-108028767D01*
X169357720Y-108059615D01*
X169376898Y-108060686D01*
X169383635Y-108033981D01*
X169383882Y-108020908D01*
X169368266Y-107910737D01*
X169324677Y-107777927D01*
X169256468Y-107628312D01*
X169166996Y-107467726D01*
X169059614Y-107302002D01*
X168937676Y-107136974D01*
X168804538Y-106978476D01*
X168751178Y-106920615D01*
X168654664Y-106824911D01*
X168553136Y-106734742D01*
X168454525Y-106656347D01*
X168366767Y-106595963D01*
X168297793Y-106559829D01*
X168287944Y-106556369D01*
X168263320Y-106550594D01*
X168256817Y-106558654D01*
X168164509Y-106558654D01*
X168107341Y-106490274D01*
X167954428Y-106363446D01*
X167828384Y-106292333D01*
X167744626Y-106253248D01*
X167665486Y-106215366D01*
X167607632Y-106186670D01*
X167606134Y-106185897D01*
X167479874Y-106134979D01*
X167321950Y-106093650D01*
X167142140Y-106062853D01*
X166950221Y-106043527D01*
X166755968Y-106036613D01*
X166569160Y-106043054D01*
X166399572Y-106063788D01*
X166378467Y-106067746D01*
X166157724Y-106114806D01*
X165972090Y-106163458D01*
X165814367Y-106216861D01*
X165677359Y-106278169D01*
X165553870Y-106350540D01*
X165436703Y-106437129D01*
X165335903Y-106525010D01*
X165264844Y-106592745D01*
X165208131Y-106650684D01*
X165171486Y-106692697D01*
X165160635Y-106712653D01*
X165160660Y-106712695D01*
X165185030Y-106721618D01*
X165241079Y-106731107D01*
X165318213Y-106739501D01*
X165345973Y-106741711D01*
X165442112Y-106752744D01*
X165545839Y-106771251D01*
X165648204Y-106794809D01*
X165740257Y-106820997D01*
X165813049Y-106847391D01*
X165857629Y-106871569D01*
X165866766Y-106882681D01*
X165865652Y-106896720D01*
X165846624Y-106901665D01*
X165804493Y-106896770D01*
X165734069Y-106881292D01*
X165630161Y-106854487D01*
X165584717Y-106842236D01*
X165478738Y-106818599D01*
X165362858Y-106800615D01*
X165261948Y-106792134D01*
X165260863Y-106792104D01*
X165179341Y-106791188D01*
X165128287Y-106795801D01*
X165095918Y-106808869D01*
X165070450Y-106833314D01*
X165064319Y-106840866D01*
X164993975Y-106951595D01*
X164929814Y-107095100D01*
X164874872Y-107261942D01*
X164832182Y-107442682D01*
X164804781Y-107627880D01*
X164802098Y-107656362D01*
X164762552Y-107656362D01*
X164763418Y-107610386D01*
X164770559Y-107498631D01*
X164783599Y-107402441D01*
X164803943Y-107308487D01*
X164809784Y-107285862D01*
X164833043Y-107202440D01*
X164854286Y-107134155D01*
X164870050Y-107091864D01*
X164873951Y-107084779D01*
X164891833Y-107050857D01*
X164912592Y-106997871D01*
X164913963Y-106993841D01*
X164950068Y-106916554D01*
X165010517Y-106819612D01*
X165088552Y-106712073D01*
X165177410Y-106602995D01*
X165270331Y-106501438D01*
X165312549Y-106459769D01*
X165456418Y-106341599D01*
X165622869Y-106240446D01*
X165815989Y-106154653D01*
X166039869Y-106082559D01*
X166298598Y-106022506D01*
X166463134Y-105993044D01*
X166560223Y-105983045D01*
X166687171Y-105978274D01*
X166831872Y-105978381D01*
G37*
X166831872Y-105978381D02*
X166982223Y-105983018D01*
X167126116Y-105991835D01*
X167251447Y-106004483D01*
X167335381Y-106018206D01*
X167411342Y-106040871D01*
X167513235Y-106080114D01*
X167630558Y-106130957D01*
X167752812Y-106188417D01*
X167869496Y-106247515D01*
X167970110Y-106303270D01*
X168044152Y-106350701D01*
X168057103Y-106360533D01*
X168131105Y-106410950D01*
X168213584Y-106454937D01*
X168244097Y-106467679D01*
X168383490Y-106535695D01*
X168532840Y-106638817D01*
X168687050Y-106772583D01*
X168841024Y-106932531D01*
X168989669Y-107114201D01*
X169003371Y-107132486D01*
X169157178Y-107352332D01*
X169276652Y-107552673D01*
X169363297Y-107736535D01*
X169418620Y-107906946D01*
X169437662Y-108005813D01*
X169443287Y-108057898D01*
X169438311Y-108095030D01*
X169416715Y-108129905D01*
X169372476Y-108175222D01*
X169345144Y-108200940D01*
X169243210Y-108279862D01*
X169109439Y-108359225D01*
X168954064Y-108434730D01*
X168787315Y-108502078D01*
X168619423Y-108556969D01*
X168460620Y-108595106D01*
X168376772Y-108607847D01*
X168311891Y-108616905D01*
X168262902Y-108631309D01*
X168217486Y-108657684D01*
X168163326Y-108702649D01*
X168112189Y-108750075D01*
X168038316Y-108816750D01*
X167964030Y-108878953D01*
X167902962Y-108925373D01*
X167891884Y-108932847D01*
X167817377Y-108977471D01*
X167736197Y-109020307D01*
X167659788Y-109055922D01*
X167599597Y-109078883D01*
X167572282Y-109084533D01*
X167547424Y-109092743D01*
X167548923Y-109120090D01*
X167578049Y-109170649D01*
X167614871Y-109221136D01*
X167669692Y-109308494D01*
X167725661Y-109424299D01*
X167777311Y-109555185D01*
X167819174Y-109687788D01*
X167838273Y-109767224D01*
X167861661Y-109851751D01*
X167891146Y-109900547D01*
X167907531Y-109912743D01*
X167959907Y-109925108D01*
X168037436Y-109925986D01*
X168124969Y-109916837D01*
X168207355Y-109899124D01*
X168261780Y-109878552D01*
X168320173Y-109859979D01*
X168400775Y-109848551D01*
X168450121Y-109846533D01*
X168525494Y-109849118D01*
X168574859Y-109860449D01*
X168614408Y-109885887D01*
X168639132Y-109909121D01*
X168688963Y-109982894D01*
X168717460Y-110074172D01*
X168720423Y-110165184D01*
X168709828Y-110208223D01*
X168657015Y-110288353D01*
X168566808Y-110357360D01*
X168443183Y-110413085D01*
X168290119Y-110453370D01*
X168243134Y-110461494D01*
X168118886Y-110474694D01*
X168011730Y-110469593D01*
X167900518Y-110444237D01*
X167838967Y-110424116D01*
X167743717Y-110390866D01*
X167675623Y-110454623D01*
X167614556Y-110503796D01*
X167550107Y-110544357D01*
X167538040Y-110550328D01*
X167477379Y-110567686D01*
X167385454Y-110581431D01*
X167273216Y-110591134D01*
X167151614Y-110596369D01*
X167031598Y-110596711D01*
X166924118Y-110591731D01*
X166840124Y-110581005D01*
X166826707Y-110578035D01*
X166759225Y-110558349D01*
X166707699Y-110537673D01*
X166690182Y-110526548D01*
X166657230Y-110513605D01*
X166596855Y-110504944D01*
X166542175Y-110502700D01*
X166465790Y-110498397D01*
X166400728Y-110487319D01*
X166371784Y-110477055D01*
X166326019Y-110464902D01*
X166240500Y-110457464D01*
X166114319Y-110454682D01*
X166024648Y-110455148D01*
X165723745Y-110458886D01*
X165651041Y-110390317D01*
X165594594Y-110324110D01*
X165558598Y-110247053D01*
X165541296Y-110151197D01*
X165541181Y-110112373D01*
X165599010Y-110112373D01*
X165614898Y-110228812D01*
X165652417Y-110311984D01*
X165714135Y-110364749D01*
X165802619Y-110389964D01*
X165920435Y-110390492D01*
X165982613Y-110383586D01*
X166079500Y-110370306D01*
X166070769Y-110272461D01*
X166065766Y-110206754D01*
X166059848Y-110114656D01*
X166054009Y-110012067D01*
X166051822Y-109969722D01*
X166040109Y-109829662D01*
X166019585Y-109725246D01*
X165988254Y-109650338D01*
X165944118Y-109598800D01*
X165927016Y-109586276D01*
X165851617Y-109553396D01*
X166018473Y-109553396D01*
X166020324Y-109582874D01*
X166034632Y-109618195D01*
X166058278Y-109656042D01*
X166074607Y-109665068D01*
X166076716Y-109661702D01*
X166074030Y-109625135D01*
X166061595Y-109593706D01*
X166034176Y-109555240D01*
X166018473Y-109553396D01*
X165851617Y-109553396D01*
X165845517Y-109550736D01*
X165773153Y-109555173D01*
X165711356Y-109597941D01*
X165661560Y-109677389D01*
X165625201Y-109791869D01*
X165603710Y-109939732D01*
X165602187Y-109959807D01*
X165599010Y-110112373D01*
X165541181Y-110112373D01*
X165540930Y-110028593D01*
X165549115Y-109929146D01*
X165574413Y-109766634D01*
X165612707Y-109643146D01*
X165665137Y-109557063D01*
X165732846Y-109506768D01*
X165816977Y-109490644D01*
X165856741Y-109493570D01*
X165947731Y-109506042D01*
X166036099Y-109358509D01*
X166077268Y-109287448D01*
X166108211Y-109229609D01*
X166123644Y-109195011D01*
X166124467Y-109190904D01*
X166117111Y-109179325D01*
X166091624Y-109166106D01*
X166042881Y-109149627D01*
X165965755Y-109128270D01*
X165855119Y-109100416D01*
X165780655Y-109082349D01*
X165612318Y-109030429D01*
X165442251Y-108957768D01*
X165287231Y-108872149D01*
X165205298Y-108815407D01*
X165106719Y-108721797D01*
X165009615Y-108597328D01*
X164921185Y-108453087D01*
X164848628Y-108300160D01*
X164819955Y-108222084D01*
X164794700Y-108141228D01*
X164777649Y-108072838D01*
X164767290Y-108004869D01*
X164762108Y-107925279D01*
X164760592Y-107822023D01*
X164760771Y-107751033D01*
X164762552Y-107656362D01*
X164802098Y-107656362D01*
X164802836Y-107888509D01*
X164843801Y-108117905D01*
X164923120Y-108337362D01*
X165028211Y-108524087D01*
X165107893Y-108631820D01*
X165192458Y-108722803D01*
X165287814Y-108800457D01*
X165399871Y-108868202D01*
X165534535Y-108929460D01*
X165697715Y-108987652D01*
X165895319Y-109046197D01*
X165960567Y-109063906D01*
X166108444Y-109104932D01*
X166215830Y-109138272D01*
X166283793Y-109164300D01*
X166313402Y-109183388D01*
X166314967Y-109187687D01*
X166301347Y-109207088D01*
X166256462Y-109205117D01*
X166254319Y-109204695D01*
X166217065Y-109201591D01*
X166187622Y-109215270D01*
X166155194Y-109253365D01*
X166127887Y-109294088D01*
X166080681Y-109369566D01*
X166055872Y-109421610D01*
X166051793Y-109461612D01*
X166066776Y-109500966D01*
X166091834Y-109540330D01*
X166112879Y-109572563D01*
X166127327Y-109602057D01*
X166136009Y-109636837D01*
X166139754Y-109684928D01*
X166139394Y-109754353D01*
X166135756Y-109853139D01*
X166132276Y-109931403D01*
X166126573Y-110073881D01*
X166124949Y-110180041D01*
X166128622Y-110255802D01*
X166138806Y-110307082D01*
X166156717Y-110339802D01*
X166183572Y-110359879D01*
X166220586Y-110373231D01*
X166223187Y-110373957D01*
X166287543Y-110387083D01*
X166318650Y-110378593D01*
X166321453Y-110345131D01*
X166312247Y-110313496D01*
X166302509Y-110250253D01*
X166322077Y-110191915D01*
X166339729Y-110151282D01*
X166367773Y-110079135D01*
X166403003Y-109984050D01*
X166442212Y-109874601D01*
X166463099Y-109814884D01*
X166509490Y-109676608D01*
X166540714Y-109572155D01*
X166558084Y-109496355D01*
X166562912Y-109444036D01*
X166561479Y-109427594D01*
X166557259Y-109380010D01*
X166568651Y-109363124D01*
X166585956Y-109363836D01*
X166612552Y-109388196D01*
X166626964Y-109440284D01*
X166628389Y-109507056D01*
X166616027Y-109575465D01*
X166601228Y-109612711D01*
X166582431Y-109655616D01*
X166553506Y-109729572D01*
X166517864Y-109825521D01*
X166478913Y-109934403D01*
X166463352Y-109979025D01*
X166423502Y-110094787D01*
X166396172Y-110177967D01*
X166380014Y-110235984D01*
X166373683Y-110276256D01*
X166375833Y-110306199D01*
X166385117Y-110333232D01*
X166395207Y-110354533D01*
X166417915Y-110395817D01*
X166443299Y-110418678D01*
X166484333Y-110429471D01*
X166553987Y-110434552D01*
X166559017Y-110434797D01*
X166686650Y-110440978D01*
X166689428Y-110163961D01*
X166696035Y-109971045D01*
X166712226Y-109816093D01*
X166738965Y-109695621D01*
X166777217Y-109606147D01*
X166827946Y-109544188D01*
X166868590Y-109516748D01*
X166956196Y-109493550D01*
X167044212Y-109509483D01*
X167112769Y-109554006D01*
X167148720Y-109583655D01*
X167173599Y-109584736D01*
X167200120Y-109564264D01*
X167248691Y-109534302D01*
X167300388Y-109534433D01*
X167361242Y-109566592D01*
X167437286Y-109632716D01*
X167448764Y-109644069D01*
X167503912Y-109703145D01*
X167544630Y-109754249D01*
X167563350Y-109787714D01*
X167563800Y-109790987D01*
X167553671Y-109828531D01*
X167529081Y-109831135D01*
X167498729Y-109799296D01*
X167491700Y-109786867D01*
X167452361Y-109729744D01*
X167397426Y-109672174D01*
X167338466Y-109624253D01*
X167287054Y-109596080D01*
X167268995Y-109592533D01*
X167229251Y-109606993D01*
X167216699Y-109651302D01*
X167231063Y-109726855D01*
X167238024Y-109748443D01*
X167253815Y-109813257D01*
X167261803Y-109884341D01*
X167262083Y-109950323D01*
X167254754Y-109999828D01*
X167239909Y-110021486D01*
X167235717Y-110021402D01*
X167222721Y-109999262D01*
X167212791Y-109948242D01*
X167209641Y-109909964D01*
X167193249Y-109810331D01*
X167157065Y-109715738D01*
X167106837Y-109635053D01*
X167048316Y-109577145D01*
X166987252Y-109550882D01*
X166976365Y-109550200D01*
X166912512Y-109560512D01*
X166863464Y-109595948D01*
X166821991Y-109663251D01*
X166800606Y-109714155D01*
X166781538Y-109769705D01*
X166768216Y-109826200D01*
X166759562Y-109893133D01*
X166754496Y-109979997D01*
X166751940Y-110096284D01*
X166751428Y-110146963D01*
X166751488Y-110280609D01*
X166754429Y-110376872D01*
X166760608Y-110440628D01*
X166770385Y-110476752D01*
X166776384Y-110485630D01*
X166809765Y-110500674D01*
X166871293Y-110515099D01*
X166946805Y-110526852D01*
X167022138Y-110533878D01*
X167083128Y-110534124D01*
X167098134Y-110532289D01*
X167132886Y-110528094D01*
X167197887Y-110521901D01*
X167281170Y-110514824D01*
X167312431Y-110512344D01*
X167444578Y-110496321D01*
X167543412Y-110468669D01*
X167617396Y-110424607D01*
X167674992Y-110359355D01*
X167702373Y-110310459D01*
X167778741Y-110310459D01*
X167782572Y-110340568D01*
X167812832Y-110362216D01*
X167876120Y-110383528D01*
X167896833Y-110389461D01*
X167994717Y-110405833D01*
X168115883Y-110409876D01*
X168243375Y-110402419D01*
X168360238Y-110384291D01*
X168433279Y-110363212D01*
X168508358Y-110328631D01*
X168579742Y-110287259D01*
X168595675Y-110276180D01*
X168642442Y-110233814D01*
X168661608Y-110187087D01*
X168664467Y-110139763D01*
X168648159Y-110040496D01*
X168603264Y-109960818D01*
X168535829Y-109907889D01*
X168452598Y-109888866D01*
X168411601Y-109896057D01*
X168347107Y-109914681D01*
X168290078Y-109934503D01*
X168175806Y-109974188D01*
X168089144Y-109996031D01*
X168020131Y-110001704D01*
X167958810Y-109992878D01*
X167952356Y-109991163D01*
X167900173Y-109980653D01*
X167867567Y-109981266D01*
X167864898Y-109982879D01*
X167854699Y-110009565D01*
X167842932Y-110063171D01*
X167837575Y-110095547D01*
X167822140Y-110173032D01*
X167801572Y-110245422D01*
X167794740Y-110263767D01*
X167778741Y-110310459D01*
X167702373Y-110310459D01*
X167717415Y-110283600D01*
X167774417Y-110116467D01*
X167792222Y-109936837D01*
X167771216Y-109747224D01*
X167711785Y-109550141D01*
X167614316Y-109348101D01*
X167559878Y-109258894D01*
X167511202Y-109191474D01*
X167465065Y-109140419D01*
X167430453Y-109115588D01*
X167428850Y-109115125D01*
X167386602Y-109113858D01*
X167317529Y-109121035D01*
X167235948Y-109135120D01*
X167229041Y-109136556D01*
X167129708Y-109156484D01*
X167065339Y-109166278D01*
X167029842Y-109166118D01*
X167017122Y-109156182D01*
X167018755Y-109142751D01*
X167035033Y-109127226D01*
X167075886Y-109112741D01*
X167145683Y-109098406D01*
X167248794Y-109083332D01*
X167389588Y-109066631D01*
X167397163Y-109065796D01*
X167577705Y-109025538D01*
X167756073Y-108947118D01*
X167927826Y-108834648D01*
X168088522Y-108692240D01*
X168214731Y-108546005D01*
X168304634Y-108546005D01*
X168324451Y-108554772D01*
X168382296Y-108551246D01*
X168475758Y-108535657D01*
X168530791Y-108524339D01*
X168699984Y-108479129D01*
X168869712Y-108417892D01*
X169028505Y-108345689D01*
X169164896Y-108267579D01*
X169243670Y-108209784D01*
X169323616Y-108142616D01*
X169274500Y-108069799D01*
X169210894Y-107993721D01*
X169127070Y-107917962D01*
X169035837Y-107852302D01*
X168950005Y-107806519D01*
X168913486Y-107794226D01*
X168833208Y-107772576D01*
X168746965Y-107746515D01*
X168727967Y-107740305D01*
X168658996Y-107718285D01*
X168621012Y-107713224D01*
X168604771Y-107728895D01*
X168601032Y-107769072D01*
X168600967Y-107792162D01*
X168591502Y-107870267D01*
X168565809Y-107973927D01*
X168527944Y-108091538D01*
X168481960Y-108211495D01*
X168431912Y-108322196D01*
X168387487Y-108403130D01*
X168347497Y-108468743D01*
X168318101Y-108519203D01*
X168304877Y-108544893D01*
X168304634Y-108546005D01*
X168214731Y-108546005D01*
X168233720Y-108524004D01*
X168358979Y-108334051D01*
X168459856Y-108126494D01*
X168485936Y-108057950D01*
X168512507Y-107978677D01*
X168529872Y-107910876D01*
X168539876Y-107841346D01*
X168544368Y-107756883D01*
X168545194Y-107644287D01*
X168545161Y-107634616D01*
X168536626Y-107437925D01*
X168510242Y-107262445D01*
X168462381Y-107093018D01*
X168389409Y-106914487D01*
X168355758Y-106843982D01*
X168242209Y-106651594D01*
X168164509Y-106558654D01*
X168256817Y-106558654D01*
X168270072Y-106587414D01*
X168304724Y-106643740D01*
X168311221Y-106653973D01*
X168426559Y-106870045D01*
X168518716Y-107119324D01*
X168588138Y-107403077D01*
X168602110Y-107480236D01*
X168617721Y-107555104D01*
X168635291Y-107613581D01*
X168650604Y-107642446D01*
X168681693Y-107656989D01*
X168742248Y-107677413D01*
X168820538Y-107699852D01*
X168840732Y-107705125D01*
X168989006Y-107754316D01*
X169111223Y-107822868D01*
X169222329Y-107919985D01*
X169264611Y-107966140D01*
X169321744Y-108028767D01*
X169357720Y-108059615D01*
X169376898Y-108060686D01*
X169383635Y-108033981D01*
X169383882Y-108020908D01*
X169368266Y-107910737D01*
X169324677Y-107777927D01*
X169256468Y-107628312D01*
X169166996Y-107467726D01*
X169059614Y-107302002D01*
X168937676Y-107136974D01*
X168804538Y-106978476D01*
X168751178Y-106920615D01*
X168654664Y-106824911D01*
X168553136Y-106734742D01*
X168454525Y-106656347D01*
X168366767Y-106595963D01*
X168297793Y-106559829D01*
X168287944Y-106556369D01*
X168263320Y-106550594D01*
X168256817Y-106558654D01*
X168164509Y-106558654D01*
X168107341Y-106490274D01*
X167954428Y-106363446D01*
X167828384Y-106292333D01*
X167744626Y-106253248D01*
X167665486Y-106215366D01*
X167607632Y-106186670D01*
X167606134Y-106185897D01*
X167479874Y-106134979D01*
X167321950Y-106093650D01*
X167142140Y-106062853D01*
X166950221Y-106043527D01*
X166755968Y-106036613D01*
X166569160Y-106043054D01*
X166399572Y-106063788D01*
X166378467Y-106067746D01*
X166157724Y-106114806D01*
X165972090Y-106163458D01*
X165814367Y-106216861D01*
X165677359Y-106278169D01*
X165553870Y-106350540D01*
X165436703Y-106437129D01*
X165335903Y-106525010D01*
X165264844Y-106592745D01*
X165208131Y-106650684D01*
X165171486Y-106692697D01*
X165160635Y-106712653D01*
X165160660Y-106712695D01*
X165185030Y-106721618D01*
X165241079Y-106731107D01*
X165318213Y-106739501D01*
X165345973Y-106741711D01*
X165442112Y-106752744D01*
X165545839Y-106771251D01*
X165648204Y-106794809D01*
X165740257Y-106820997D01*
X165813049Y-106847391D01*
X165857629Y-106871569D01*
X165866766Y-106882681D01*
X165865652Y-106896720D01*
X165846624Y-106901665D01*
X165804493Y-106896770D01*
X165734069Y-106881292D01*
X165630161Y-106854487D01*
X165584717Y-106842236D01*
X165478738Y-106818599D01*
X165362858Y-106800615D01*
X165261948Y-106792134D01*
X165260863Y-106792104D01*
X165179341Y-106791188D01*
X165128287Y-106795801D01*
X165095918Y-106808869D01*
X165070450Y-106833314D01*
X165064319Y-106840866D01*
X164993975Y-106951595D01*
X164929814Y-107095100D01*
X164874872Y-107261942D01*
X164832182Y-107442682D01*
X164804781Y-107627880D01*
X164802098Y-107656362D01*
X164762552Y-107656362D01*
X164763418Y-107610386D01*
X164770559Y-107498631D01*
X164783599Y-107402441D01*
X164803943Y-107308487D01*
X164809784Y-107285862D01*
X164833043Y-107202440D01*
X164854286Y-107134155D01*
X164870050Y-107091864D01*
X164873951Y-107084779D01*
X164891833Y-107050857D01*
X164912592Y-106997871D01*
X164913963Y-106993841D01*
X164950068Y-106916554D01*
X165010517Y-106819612D01*
X165088552Y-106712073D01*
X165177410Y-106602995D01*
X165270331Y-106501438D01*
X165312549Y-106459769D01*
X165456418Y-106341599D01*
X165622869Y-106240446D01*
X165815989Y-106154653D01*
X166039869Y-106082559D01*
X166298598Y-106022506D01*
X166463134Y-105993044D01*
X166560223Y-105983045D01*
X166687171Y-105978274D01*
X166831872Y-105978381D01*
G36*
X166275236Y-107219858D02*
G01*
X166390591Y-107222322D01*
X166481556Y-107226732D01*
X166541603Y-107232891D01*
X166562362Y-107238503D01*
X166570164Y-107258139D01*
X166565247Y-107302648D01*
X166546652Y-107376841D01*
X166513425Y-107485526D01*
X166512989Y-107486887D01*
X166442423Y-107706880D01*
X166383596Y-107889795D01*
X166335324Y-108038864D01*
X166296422Y-108157321D01*
X166265706Y-108248399D01*
X166241992Y-108315331D01*
X166224096Y-108361351D01*
X166210832Y-108389693D01*
X166201016Y-108403588D01*
X166193464Y-108406272D01*
X166186991Y-108400977D01*
X166181296Y-108392363D01*
X166162877Y-108351255D01*
X166135983Y-108276166D01*
X166102764Y-108174091D01*
X166065372Y-108052028D01*
X166025959Y-107916972D01*
X165986676Y-107775920D01*
X165954799Y-107655783D01*
X165930964Y-107578724D01*
X165896856Y-107486064D01*
X165866698Y-107413624D01*
X165833217Y-107330071D01*
X165827693Y-107294420D01*
X165896691Y-107294420D01*
X165897109Y-107319282D01*
X165911361Y-107370326D01*
X165929020Y-107417917D01*
X165950105Y-107476329D01*
X165979212Y-107565834D01*
X166013309Y-107676664D01*
X166049361Y-107799047D01*
X166071314Y-107876256D01*
X166109684Y-108012551D01*
X166138684Y-108112917D01*
X166160148Y-108182252D01*
X166175910Y-108225451D01*
X166187805Y-108247410D01*
X166197666Y-108253024D01*
X166207328Y-108247190D01*
X166209472Y-108245002D01*
X166220515Y-108220457D01*
X166242158Y-108161550D01*
X166272331Y-108074315D01*
X166308968Y-107964784D01*
X166350001Y-107838991D01*
X166369811Y-107777236D01*
X166423573Y-107604825D01*
X166462287Y-107471670D01*
X166486027Y-107377484D01*
X166494867Y-107321983D01*
X166492145Y-107305911D01*
X166464865Y-107298608D01*
X166405137Y-107292447D01*
X166322701Y-107287613D01*
X166227294Y-107284296D01*
X166128657Y-107282684D01*
X166036526Y-107282964D01*
X165960642Y-107285324D01*
X165910742Y-107289952D01*
X165896691Y-107294420D01*
X165827693Y-107294420D01*
X165824734Y-107275331D01*
X165845493Y-107243174D01*
X165899734Y-107227368D01*
X165991700Y-107221683D01*
X165997467Y-107221551D01*
X166142019Y-107219536D01*
X166275236Y-107219858D01*
G37*
X166275236Y-107219858D02*
X166390591Y-107222322D01*
X166481556Y-107226732D01*
X166541603Y-107232891D01*
X166562362Y-107238503D01*
X166570164Y-107258139D01*
X166565247Y-107302648D01*
X166546652Y-107376841D01*
X166513425Y-107485526D01*
X166512989Y-107486887D01*
X166442423Y-107706880D01*
X166383596Y-107889795D01*
X166335324Y-108038864D01*
X166296422Y-108157321D01*
X166265706Y-108248399D01*
X166241992Y-108315331D01*
X166224096Y-108361351D01*
X166210832Y-108389693D01*
X166201016Y-108403588D01*
X166193464Y-108406272D01*
X166186991Y-108400977D01*
X166181296Y-108392363D01*
X166162877Y-108351255D01*
X166135983Y-108276166D01*
X166102764Y-108174091D01*
X166065372Y-108052028D01*
X166025959Y-107916972D01*
X165986676Y-107775920D01*
X165954799Y-107655783D01*
X165930964Y-107578724D01*
X165896856Y-107486064D01*
X165866698Y-107413624D01*
X165833217Y-107330071D01*
X165827693Y-107294420D01*
X165896691Y-107294420D01*
X165897109Y-107319282D01*
X165911361Y-107370326D01*
X165929020Y-107417917D01*
X165950105Y-107476329D01*
X165979212Y-107565834D01*
X166013309Y-107676664D01*
X166049361Y-107799047D01*
X166071314Y-107876256D01*
X166109684Y-108012551D01*
X166138684Y-108112917D01*
X166160148Y-108182252D01*
X166175910Y-108225451D01*
X166187805Y-108247410D01*
X166197666Y-108253024D01*
X166207328Y-108247190D01*
X166209472Y-108245002D01*
X166220515Y-108220457D01*
X166242158Y-108161550D01*
X166272331Y-108074315D01*
X166308968Y-107964784D01*
X166350001Y-107838991D01*
X166369811Y-107777236D01*
X166423573Y-107604825D01*
X166462287Y-107471670D01*
X166486027Y-107377484D01*
X166494867Y-107321983D01*
X166492145Y-107305911D01*
X166464865Y-107298608D01*
X166405137Y-107292447D01*
X166322701Y-107287613D01*
X166227294Y-107284296D01*
X166128657Y-107282684D01*
X166036526Y-107282964D01*
X165960642Y-107285324D01*
X165910742Y-107289952D01*
X165896691Y-107294420D01*
X165827693Y-107294420D01*
X165824734Y-107275331D01*
X165845493Y-107243174D01*
X165899734Y-107227368D01*
X165991700Y-107221683D01*
X165997467Y-107221551D01*
X166142019Y-107219536D01*
X166275236Y-107219858D01*
G36*
X167489717Y-106727398D02*
G01*
X167659519Y-106731860D01*
X167820848Y-106741524D01*
X167968536Y-106755608D01*
X168097414Y-106773329D01*
X168202314Y-106793905D01*
X168278068Y-106816554D01*
X168319508Y-106840494D01*
X168325800Y-106853962D01*
X168319065Y-106875027D01*
X168293954Y-106881151D01*
X168243115Y-106872245D01*
X168171856Y-106852087D01*
X168118096Y-106840846D01*
X168031007Y-106828500D01*
X167919540Y-106816058D01*
X167792648Y-106804534D01*
X167674440Y-106795896D01*
X167533781Y-106787112D01*
X167426301Y-106781626D01*
X167342952Y-106779760D01*
X167274684Y-106781836D01*
X167212448Y-106788177D01*
X167147195Y-106799106D01*
X167069876Y-106814945D01*
X167055800Y-106817953D01*
X166952328Y-106842095D01*
X166853892Y-106868516D01*
X166774446Y-106893307D01*
X166740901Y-106906123D01*
X166670558Y-106934913D01*
X166630468Y-106945053D01*
X166613442Y-106937643D01*
X166611300Y-106925963D01*
X166631120Y-106899497D01*
X166686651Y-106867684D01*
X166772002Y-106833008D01*
X166881282Y-106797955D01*
X166972586Y-106773603D01*
X167062936Y-106753124D01*
X167145641Y-106739324D01*
X167232763Y-106731125D01*
X167336366Y-106727449D01*
X167468512Y-106727219D01*
X167489717Y-106727398D01*
G37*
X167489717Y-106727398D02*
X167659519Y-106731860D01*
X167820848Y-106741524D01*
X167968536Y-106755608D01*
X168097414Y-106773329D01*
X168202314Y-106793905D01*
X168278068Y-106816554D01*
X168319508Y-106840494D01*
X168325800Y-106853962D01*
X168319065Y-106875027D01*
X168293954Y-106881151D01*
X168243115Y-106872245D01*
X168171856Y-106852087D01*
X168118096Y-106840846D01*
X168031007Y-106828500D01*
X167919540Y-106816058D01*
X167792648Y-106804534D01*
X167674440Y-106795896D01*
X167533781Y-106787112D01*
X167426301Y-106781626D01*
X167342952Y-106779760D01*
X167274684Y-106781836D01*
X167212448Y-106788177D01*
X167147195Y-106799106D01*
X167069876Y-106814945D01*
X167055800Y-106817953D01*
X166952328Y-106842095D01*
X166853892Y-106868516D01*
X166774446Y-106893307D01*
X166740901Y-106906123D01*
X166670558Y-106934913D01*
X166630468Y-106945053D01*
X166613442Y-106937643D01*
X166611300Y-106925963D01*
X166631120Y-106899497D01*
X166686651Y-106867684D01*
X166772002Y-106833008D01*
X166881282Y-106797955D01*
X166972586Y-106773603D01*
X167062936Y-106753124D01*
X167145641Y-106739324D01*
X167232763Y-106731125D01*
X167336366Y-106727449D01*
X167468512Y-106727219D01*
X167489717Y-106727398D01*
D11*
%TO.C,R7*%
X154430700Y-103086542D02*
X154430700Y-103561058D01*
X155475700Y-103086542D02*
X155475700Y-103561058D01*
%TO.C,R6*%
X156430700Y-103086542D02*
X156430700Y-103561058D01*
X157475700Y-103086542D02*
X157475700Y-103561058D01*
%TO.C,R5*%
X158430700Y-103086542D02*
X158430700Y-103561058D01*
X159475700Y-103086542D02*
X159475700Y-103561058D01*
%TO.C,R4*%
X160430700Y-103086542D02*
X160430700Y-103561058D01*
X161475700Y-103086542D02*
X161475700Y-103561058D01*
%TO.C,R3*%
X162430700Y-103086542D02*
X162430700Y-103561058D01*
X163475700Y-103086542D02*
X163475700Y-103561058D01*
%TO.C,R2*%
X164440700Y-103086542D02*
X164440700Y-103561058D01*
X165485700Y-103086542D02*
X165485700Y-103561058D01*
%TO.C,R1*%
X166430700Y-103086542D02*
X166430700Y-103561058D01*
X167475700Y-103086542D02*
X167475700Y-103561058D01*
%TO.C,R0*%
X168430700Y-103086542D02*
X168430700Y-103561058D01*
X169475700Y-103086542D02*
X169475700Y-103561058D01*
%TO.C,D7*%
X155688200Y-100708800D02*
X155688200Y-98423800D01*
X154218200Y-100708800D02*
X155688200Y-100708800D01*
X154218200Y-98423800D02*
X154218200Y-100708800D01*
%TO.C,D6*%
X157688200Y-100708800D02*
X157688200Y-98423800D01*
X156218200Y-100708800D02*
X157688200Y-100708800D01*
X156218200Y-98423800D02*
X156218200Y-100708800D01*
%TO.C,D5*%
X159688200Y-100708800D02*
X159688200Y-98423800D01*
X158218200Y-100708800D02*
X159688200Y-100708800D01*
X158218200Y-98423800D02*
X158218200Y-100708800D01*
%TO.C,D4*%
X161688200Y-100708800D02*
X161688200Y-98423800D01*
X160218200Y-100708800D02*
X161688200Y-100708800D01*
X160218200Y-98423800D02*
X160218200Y-100708800D01*
%TO.C,D3*%
X163688200Y-100708800D02*
X163688200Y-98423800D01*
X162218200Y-100708800D02*
X163688200Y-100708800D01*
X162218200Y-98423800D02*
X162218200Y-100708800D01*
%TO.C,D2*%
X165688200Y-100708800D02*
X165688200Y-98423800D01*
X164218200Y-100708800D02*
X165688200Y-100708800D01*
X164218200Y-98423800D02*
X164218200Y-100708800D01*
%TO.C,D1*%
X167688200Y-100708800D02*
X167688200Y-98423800D01*
X166218200Y-100708800D02*
X167688200Y-100708800D01*
X166218200Y-98423800D02*
X166218200Y-100708800D01*
%TO.C,D0*%
X169688200Y-100708800D02*
X169688200Y-98423800D01*
X168218200Y-100708800D02*
X169688200Y-100708800D01*
X168218200Y-98423800D02*
X168218200Y-100708800D01*
%TO.C,D7*%
D10*
X154215104Y-97644080D02*
X154215104Y-96644080D01*
X154453200Y-96644080D01*
X154596057Y-96691700D01*
X154691295Y-96786938D01*
X154738914Y-96882176D01*
X154786533Y-97072652D01*
X154786533Y-97215509D01*
X154738914Y-97405985D01*
X154691295Y-97501223D01*
X154596057Y-97596461D01*
X154453200Y-97644080D01*
X154215104Y-97644080D01*
X155119866Y-96644080D02*
X155786533Y-96644080D01*
X155357961Y-97644080D01*
%TO.C,D6*%
X156215104Y-97644180D02*
X156215104Y-96644180D01*
X156453200Y-96644180D01*
X156596057Y-96691800D01*
X156691295Y-96787038D01*
X156738914Y-96882276D01*
X156786533Y-97072752D01*
X156786533Y-97215609D01*
X156738914Y-97406085D01*
X156691295Y-97501323D01*
X156596057Y-97596561D01*
X156453200Y-97644180D01*
X156215104Y-97644180D01*
X157643676Y-96644180D02*
X157453200Y-96644180D01*
X157357961Y-96691800D01*
X157310342Y-96739419D01*
X157215104Y-96882276D01*
X157167485Y-97072752D01*
X157167485Y-97453704D01*
X157215104Y-97548942D01*
X157262723Y-97596561D01*
X157357961Y-97644180D01*
X157548438Y-97644180D01*
X157643676Y-97596561D01*
X157691295Y-97548942D01*
X157738914Y-97453704D01*
X157738914Y-97215609D01*
X157691295Y-97120371D01*
X157643676Y-97072752D01*
X157548438Y-97025133D01*
X157357961Y-97025133D01*
X157262723Y-97072752D01*
X157215104Y-97120371D01*
X157167485Y-97215609D01*
%TO.C,D5*%
X158215104Y-97644080D02*
X158215104Y-96644080D01*
X158453200Y-96644080D01*
X158596057Y-96691700D01*
X158691295Y-96786938D01*
X158738914Y-96882176D01*
X158786533Y-97072652D01*
X158786533Y-97215509D01*
X158738914Y-97405985D01*
X158691295Y-97501223D01*
X158596057Y-97596461D01*
X158453200Y-97644080D01*
X158215104Y-97644080D01*
X159691295Y-96644080D02*
X159215104Y-96644080D01*
X159167485Y-97120271D01*
X159215104Y-97072652D01*
X159310342Y-97025033D01*
X159548438Y-97025033D01*
X159643676Y-97072652D01*
X159691295Y-97120271D01*
X159738914Y-97215509D01*
X159738914Y-97453604D01*
X159691295Y-97548842D01*
X159643676Y-97596461D01*
X159548438Y-97644080D01*
X159310342Y-97644080D01*
X159215104Y-97596461D01*
X159167485Y-97548842D01*
%TO.C,D4*%
X160215104Y-97644180D02*
X160215104Y-96644180D01*
X160453200Y-96644180D01*
X160596057Y-96691800D01*
X160691295Y-96787038D01*
X160738914Y-96882276D01*
X160786533Y-97072752D01*
X160786533Y-97215609D01*
X160738914Y-97406085D01*
X160691295Y-97501323D01*
X160596057Y-97596561D01*
X160453200Y-97644180D01*
X160215104Y-97644180D01*
X161643676Y-96977514D02*
X161643676Y-97644180D01*
X161405580Y-96596561D02*
X161167485Y-97310847D01*
X161786533Y-97310847D01*
%TO.C,D3*%
X162215104Y-97644180D02*
X162215104Y-96644180D01*
X162453200Y-96644180D01*
X162596057Y-96691800D01*
X162691295Y-96787038D01*
X162738914Y-96882276D01*
X162786533Y-97072752D01*
X162786533Y-97215609D01*
X162738914Y-97406085D01*
X162691295Y-97501323D01*
X162596057Y-97596561D01*
X162453200Y-97644180D01*
X162215104Y-97644180D01*
X163119866Y-96644180D02*
X163738914Y-96644180D01*
X163405580Y-97025133D01*
X163548438Y-97025133D01*
X163643676Y-97072752D01*
X163691295Y-97120371D01*
X163738914Y-97215609D01*
X163738914Y-97453704D01*
X163691295Y-97548942D01*
X163643676Y-97596561D01*
X163548438Y-97644180D01*
X163262723Y-97644180D01*
X163167485Y-97596561D01*
X163119866Y-97548942D01*
%TO.C,D2*%
X164215104Y-97644180D02*
X164215104Y-96644180D01*
X164453200Y-96644180D01*
X164596057Y-96691800D01*
X164691295Y-96787038D01*
X164738914Y-96882276D01*
X164786533Y-97072752D01*
X164786533Y-97215609D01*
X164738914Y-97406085D01*
X164691295Y-97501323D01*
X164596057Y-97596561D01*
X164453200Y-97644180D01*
X164215104Y-97644180D01*
X165167485Y-96739419D02*
X165215104Y-96691800D01*
X165310342Y-96644180D01*
X165548438Y-96644180D01*
X165643676Y-96691800D01*
X165691295Y-96739419D01*
X165738914Y-96834657D01*
X165738914Y-96929895D01*
X165691295Y-97072752D01*
X165119866Y-97644180D01*
X165738914Y-97644180D01*
%TO.C,D1*%
X166215104Y-97644180D02*
X166215104Y-96644180D01*
X166453200Y-96644180D01*
X166596057Y-96691800D01*
X166691295Y-96787038D01*
X166738914Y-96882276D01*
X166786533Y-97072752D01*
X166786533Y-97215609D01*
X166738914Y-97406085D01*
X166691295Y-97501323D01*
X166596057Y-97596561D01*
X166453200Y-97644180D01*
X166215104Y-97644180D01*
X167738914Y-97644180D02*
X167167485Y-97644180D01*
X167453200Y-97644180D02*
X167453200Y-96644180D01*
X167357961Y-96787038D01*
X167262723Y-96882276D01*
X167167485Y-96929895D01*
%TO.C,D0*%
X168215104Y-97644180D02*
X168215104Y-96644180D01*
X168453200Y-96644180D01*
X168596057Y-96691800D01*
X168691295Y-96787038D01*
X168738914Y-96882276D01*
X168786533Y-97072752D01*
X168786533Y-97215609D01*
X168738914Y-97406085D01*
X168691295Y-97501323D01*
X168596057Y-97596561D01*
X168453200Y-97644180D01*
X168215104Y-97644180D01*
X169405580Y-96644180D02*
X169500819Y-96644180D01*
X169596057Y-96691800D01*
X169643676Y-96739419D01*
X169691295Y-96834657D01*
X169738914Y-97025133D01*
X169738914Y-97263228D01*
X169691295Y-97453704D01*
X169643676Y-97548942D01*
X169596057Y-97596561D01*
X169500819Y-97644180D01*
X169405580Y-97644180D01*
X169310342Y-97596561D01*
X169262723Y-97548942D01*
X169215104Y-97453704D01*
X169167485Y-97263228D01*
X169167485Y-97025133D01*
X169215104Y-96834657D01*
X169262723Y-96739419D01*
X169310342Y-96691800D01*
X169405580Y-96644180D01*
%TD*%
M02*
