%TF.GenerationSoftware,KiCad,Pcbnew,(5.1.10)-1*%
%TF.CreationDate,2021-08-11T02:03:41+08:00*%
%TF.ProjectId,Pmod-8led,506d6f64-2d38-46c6-9564-2e6b69636164,rev?*%
%TF.SameCoordinates,Original*%
%TF.FileFunction,Copper,L1,Top*%
%TF.FilePolarity,Positive*%
%FSLAX46Y46*%
G04 Gerber Fmt 4.6, Leading zero omitted, Abs format (unit mm)*
G04 Created by KiCad (PCBNEW (5.1.10)-1) date 2021-08-11 02:03:41*
%MOMM*%
%LPD*%
G01*
G04 APERTURE LIST*
%TA.AperFunction,SMDPad,CuDef*%
%ADD10R,2.500000X1.000000*%
%TD*%
%TA.AperFunction,ViaPad*%
%ADD11C,0.600000*%
%TD*%
%TA.AperFunction,Conductor*%
%ADD12C,0.200000*%
%TD*%
%TA.AperFunction,Conductor*%
%ADD13C,0.254000*%
%TD*%
%TA.AperFunction,Conductor*%
%ADD14C,0.100000*%
%TD*%
G04 APERTURE END LIST*
D10*
%TO.P,PMOD0,1*%
%TO.N,IO0*%
X148596100Y-97409000D03*
%TO.P,PMOD0,2*%
%TO.N,IO1*%
X148596100Y-99949000D03*
%TO.P,PMOD0,3*%
%TO.N,IO2*%
X148596100Y-102489000D03*
%TO.P,PMOD0,4*%
%TO.N,IO3*%
X148596100Y-105029000D03*
%TO.P,PMOD0,5*%
%TO.N,GND*%
X148596100Y-107569000D03*
%TO.P,PMOD0,6*%
%TO.N,+3V3*%
X148596100Y-110109000D03*
%TD*%
%TO.P,R7,2*%
%TO.N,GND*%
%TA.AperFunction,SMDPad,CuDef*%
G36*
G01*
X154678200Y-103348800D02*
X155228200Y-103348800D01*
G75*
G02*
X155428200Y-103548800I0J-200000D01*
G01*
X155428200Y-103948800D01*
G75*
G02*
X155228200Y-104148800I-200000J0D01*
G01*
X154678200Y-104148800D01*
G75*
G02*
X154478200Y-103948800I0J200000D01*
G01*
X154478200Y-103548800D01*
G75*
G02*
X154678200Y-103348800I200000J0D01*
G01*
G37*
%TD.AperFunction*%
%TO.P,R7,1*%
%TO.N,Net-(D7-Pad1)*%
%TA.AperFunction,SMDPad,CuDef*%
G36*
G01*
X154678200Y-101698800D02*
X155228200Y-101698800D01*
G75*
G02*
X155428200Y-101898800I0J-200000D01*
G01*
X155428200Y-102298800D01*
G75*
G02*
X155228200Y-102498800I-200000J0D01*
G01*
X154678200Y-102498800D01*
G75*
G02*
X154478200Y-102298800I0J200000D01*
G01*
X154478200Y-101898800D01*
G75*
G02*
X154678200Y-101698800I200000J0D01*
G01*
G37*
%TD.AperFunction*%
%TD*%
%TO.P,R6,2*%
%TO.N,GND*%
%TA.AperFunction,SMDPad,CuDef*%
G36*
G01*
X156678200Y-103348800D02*
X157228200Y-103348800D01*
G75*
G02*
X157428200Y-103548800I0J-200000D01*
G01*
X157428200Y-103948800D01*
G75*
G02*
X157228200Y-104148800I-200000J0D01*
G01*
X156678200Y-104148800D01*
G75*
G02*
X156478200Y-103948800I0J200000D01*
G01*
X156478200Y-103548800D01*
G75*
G02*
X156678200Y-103348800I200000J0D01*
G01*
G37*
%TD.AperFunction*%
%TO.P,R6,1*%
%TO.N,Net-(D6-Pad1)*%
%TA.AperFunction,SMDPad,CuDef*%
G36*
G01*
X156678200Y-101698800D02*
X157228200Y-101698800D01*
G75*
G02*
X157428200Y-101898800I0J-200000D01*
G01*
X157428200Y-102298800D01*
G75*
G02*
X157228200Y-102498800I-200000J0D01*
G01*
X156678200Y-102498800D01*
G75*
G02*
X156478200Y-102298800I0J200000D01*
G01*
X156478200Y-101898800D01*
G75*
G02*
X156678200Y-101698800I200000J0D01*
G01*
G37*
%TD.AperFunction*%
%TD*%
%TO.P,R5,2*%
%TO.N,GND*%
%TA.AperFunction,SMDPad,CuDef*%
G36*
G01*
X158678200Y-103348800D02*
X159228200Y-103348800D01*
G75*
G02*
X159428200Y-103548800I0J-200000D01*
G01*
X159428200Y-103948800D01*
G75*
G02*
X159228200Y-104148800I-200000J0D01*
G01*
X158678200Y-104148800D01*
G75*
G02*
X158478200Y-103948800I0J200000D01*
G01*
X158478200Y-103548800D01*
G75*
G02*
X158678200Y-103348800I200000J0D01*
G01*
G37*
%TD.AperFunction*%
%TO.P,R5,1*%
%TO.N,Net-(D5-Pad1)*%
%TA.AperFunction,SMDPad,CuDef*%
G36*
G01*
X158678200Y-101698800D02*
X159228200Y-101698800D01*
G75*
G02*
X159428200Y-101898800I0J-200000D01*
G01*
X159428200Y-102298800D01*
G75*
G02*
X159228200Y-102498800I-200000J0D01*
G01*
X158678200Y-102498800D01*
G75*
G02*
X158478200Y-102298800I0J200000D01*
G01*
X158478200Y-101898800D01*
G75*
G02*
X158678200Y-101698800I200000J0D01*
G01*
G37*
%TD.AperFunction*%
%TD*%
%TO.P,R4,2*%
%TO.N,GND*%
%TA.AperFunction,SMDPad,CuDef*%
G36*
G01*
X160678200Y-103348800D02*
X161228200Y-103348800D01*
G75*
G02*
X161428200Y-103548800I0J-200000D01*
G01*
X161428200Y-103948800D01*
G75*
G02*
X161228200Y-104148800I-200000J0D01*
G01*
X160678200Y-104148800D01*
G75*
G02*
X160478200Y-103948800I0J200000D01*
G01*
X160478200Y-103548800D01*
G75*
G02*
X160678200Y-103348800I200000J0D01*
G01*
G37*
%TD.AperFunction*%
%TO.P,R4,1*%
%TO.N,Net-(D4-Pad1)*%
%TA.AperFunction,SMDPad,CuDef*%
G36*
G01*
X160678200Y-101698800D02*
X161228200Y-101698800D01*
G75*
G02*
X161428200Y-101898800I0J-200000D01*
G01*
X161428200Y-102298800D01*
G75*
G02*
X161228200Y-102498800I-200000J0D01*
G01*
X160678200Y-102498800D01*
G75*
G02*
X160478200Y-102298800I0J200000D01*
G01*
X160478200Y-101898800D01*
G75*
G02*
X160678200Y-101698800I200000J0D01*
G01*
G37*
%TD.AperFunction*%
%TD*%
%TO.P,R3,2*%
%TO.N,GND*%
%TA.AperFunction,SMDPad,CuDef*%
G36*
G01*
X162678200Y-103348800D02*
X163228200Y-103348800D01*
G75*
G02*
X163428200Y-103548800I0J-200000D01*
G01*
X163428200Y-103948800D01*
G75*
G02*
X163228200Y-104148800I-200000J0D01*
G01*
X162678200Y-104148800D01*
G75*
G02*
X162478200Y-103948800I0J200000D01*
G01*
X162478200Y-103548800D01*
G75*
G02*
X162678200Y-103348800I200000J0D01*
G01*
G37*
%TD.AperFunction*%
%TO.P,R3,1*%
%TO.N,Net-(D3-Pad1)*%
%TA.AperFunction,SMDPad,CuDef*%
G36*
G01*
X162678200Y-101698800D02*
X163228200Y-101698800D01*
G75*
G02*
X163428200Y-101898800I0J-200000D01*
G01*
X163428200Y-102298800D01*
G75*
G02*
X163228200Y-102498800I-200000J0D01*
G01*
X162678200Y-102498800D01*
G75*
G02*
X162478200Y-102298800I0J200000D01*
G01*
X162478200Y-101898800D01*
G75*
G02*
X162678200Y-101698800I200000J0D01*
G01*
G37*
%TD.AperFunction*%
%TD*%
%TO.P,R2,2*%
%TO.N,GND*%
%TA.AperFunction,SMDPad,CuDef*%
G36*
G01*
X164688200Y-103348800D02*
X165238200Y-103348800D01*
G75*
G02*
X165438200Y-103548800I0J-200000D01*
G01*
X165438200Y-103948800D01*
G75*
G02*
X165238200Y-104148800I-200000J0D01*
G01*
X164688200Y-104148800D01*
G75*
G02*
X164488200Y-103948800I0J200000D01*
G01*
X164488200Y-103548800D01*
G75*
G02*
X164688200Y-103348800I200000J0D01*
G01*
G37*
%TD.AperFunction*%
%TO.P,R2,1*%
%TO.N,Net-(D2-Pad1)*%
%TA.AperFunction,SMDPad,CuDef*%
G36*
G01*
X164688200Y-101698800D02*
X165238200Y-101698800D01*
G75*
G02*
X165438200Y-101898800I0J-200000D01*
G01*
X165438200Y-102298800D01*
G75*
G02*
X165238200Y-102498800I-200000J0D01*
G01*
X164688200Y-102498800D01*
G75*
G02*
X164488200Y-102298800I0J200000D01*
G01*
X164488200Y-101898800D01*
G75*
G02*
X164688200Y-101698800I200000J0D01*
G01*
G37*
%TD.AperFunction*%
%TD*%
%TO.P,R1,2*%
%TO.N,GND*%
%TA.AperFunction,SMDPad,CuDef*%
G36*
G01*
X166678200Y-103348800D02*
X167228200Y-103348800D01*
G75*
G02*
X167428200Y-103548800I0J-200000D01*
G01*
X167428200Y-103948800D01*
G75*
G02*
X167228200Y-104148800I-200000J0D01*
G01*
X166678200Y-104148800D01*
G75*
G02*
X166478200Y-103948800I0J200000D01*
G01*
X166478200Y-103548800D01*
G75*
G02*
X166678200Y-103348800I200000J0D01*
G01*
G37*
%TD.AperFunction*%
%TO.P,R1,1*%
%TO.N,Net-(D1-Pad1)*%
%TA.AperFunction,SMDPad,CuDef*%
G36*
G01*
X166678200Y-101698800D02*
X167228200Y-101698800D01*
G75*
G02*
X167428200Y-101898800I0J-200000D01*
G01*
X167428200Y-102298800D01*
G75*
G02*
X167228200Y-102498800I-200000J0D01*
G01*
X166678200Y-102498800D01*
G75*
G02*
X166478200Y-102298800I0J200000D01*
G01*
X166478200Y-101898800D01*
G75*
G02*
X166678200Y-101698800I200000J0D01*
G01*
G37*
%TD.AperFunction*%
%TD*%
%TO.P,R0,2*%
%TO.N,GND*%
%TA.AperFunction,SMDPad,CuDef*%
G36*
G01*
X168678200Y-103348800D02*
X169228200Y-103348800D01*
G75*
G02*
X169428200Y-103548800I0J-200000D01*
G01*
X169428200Y-103948800D01*
G75*
G02*
X169228200Y-104148800I-200000J0D01*
G01*
X168678200Y-104148800D01*
G75*
G02*
X168478200Y-103948800I0J200000D01*
G01*
X168478200Y-103548800D01*
G75*
G02*
X168678200Y-103348800I200000J0D01*
G01*
G37*
%TD.AperFunction*%
%TO.P,R0,1*%
%TO.N,Net-(D0-Pad1)*%
%TA.AperFunction,SMDPad,CuDef*%
G36*
G01*
X168678200Y-101698800D02*
X169228200Y-101698800D01*
G75*
G02*
X169428200Y-101898800I0J-200000D01*
G01*
X169428200Y-102298800D01*
G75*
G02*
X169228200Y-102498800I-200000J0D01*
G01*
X168678200Y-102498800D01*
G75*
G02*
X168478200Y-102298800I0J200000D01*
G01*
X168478200Y-101898800D01*
G75*
G02*
X168678200Y-101698800I200000J0D01*
G01*
G37*
%TD.AperFunction*%
%TD*%
%TO.P,D7,2*%
%TO.N,IO7*%
%TA.AperFunction,SMDPad,CuDef*%
G36*
G01*
X155209450Y-98873800D02*
X154696950Y-98873800D01*
G75*
G02*
X154478200Y-98655050I0J218750D01*
G01*
X154478200Y-98217550D01*
G75*
G02*
X154696950Y-97998800I218750J0D01*
G01*
X155209450Y-97998800D01*
G75*
G02*
X155428200Y-98217550I0J-218750D01*
G01*
X155428200Y-98655050D01*
G75*
G02*
X155209450Y-98873800I-218750J0D01*
G01*
G37*
%TD.AperFunction*%
%TO.P,D7,1*%
%TO.N,Net-(D7-Pad1)*%
%TA.AperFunction,SMDPad,CuDef*%
G36*
G01*
X155209450Y-100448800D02*
X154696950Y-100448800D01*
G75*
G02*
X154478200Y-100230050I0J218750D01*
G01*
X154478200Y-99792550D01*
G75*
G02*
X154696950Y-99573800I218750J0D01*
G01*
X155209450Y-99573800D01*
G75*
G02*
X155428200Y-99792550I0J-218750D01*
G01*
X155428200Y-100230050D01*
G75*
G02*
X155209450Y-100448800I-218750J0D01*
G01*
G37*
%TD.AperFunction*%
%TD*%
%TO.P,D6,2*%
%TO.N,IO6*%
%TA.AperFunction,SMDPad,CuDef*%
G36*
G01*
X157209450Y-98873800D02*
X156696950Y-98873800D01*
G75*
G02*
X156478200Y-98655050I0J218750D01*
G01*
X156478200Y-98217550D01*
G75*
G02*
X156696950Y-97998800I218750J0D01*
G01*
X157209450Y-97998800D01*
G75*
G02*
X157428200Y-98217550I0J-218750D01*
G01*
X157428200Y-98655050D01*
G75*
G02*
X157209450Y-98873800I-218750J0D01*
G01*
G37*
%TD.AperFunction*%
%TO.P,D6,1*%
%TO.N,Net-(D6-Pad1)*%
%TA.AperFunction,SMDPad,CuDef*%
G36*
G01*
X157209450Y-100448800D02*
X156696950Y-100448800D01*
G75*
G02*
X156478200Y-100230050I0J218750D01*
G01*
X156478200Y-99792550D01*
G75*
G02*
X156696950Y-99573800I218750J0D01*
G01*
X157209450Y-99573800D01*
G75*
G02*
X157428200Y-99792550I0J-218750D01*
G01*
X157428200Y-100230050D01*
G75*
G02*
X157209450Y-100448800I-218750J0D01*
G01*
G37*
%TD.AperFunction*%
%TD*%
%TO.P,D5,2*%
%TO.N,IO5*%
%TA.AperFunction,SMDPad,CuDef*%
G36*
G01*
X159209450Y-98873800D02*
X158696950Y-98873800D01*
G75*
G02*
X158478200Y-98655050I0J218750D01*
G01*
X158478200Y-98217550D01*
G75*
G02*
X158696950Y-97998800I218750J0D01*
G01*
X159209450Y-97998800D01*
G75*
G02*
X159428200Y-98217550I0J-218750D01*
G01*
X159428200Y-98655050D01*
G75*
G02*
X159209450Y-98873800I-218750J0D01*
G01*
G37*
%TD.AperFunction*%
%TO.P,D5,1*%
%TO.N,Net-(D5-Pad1)*%
%TA.AperFunction,SMDPad,CuDef*%
G36*
G01*
X159209450Y-100448800D02*
X158696950Y-100448800D01*
G75*
G02*
X158478200Y-100230050I0J218750D01*
G01*
X158478200Y-99792550D01*
G75*
G02*
X158696950Y-99573800I218750J0D01*
G01*
X159209450Y-99573800D01*
G75*
G02*
X159428200Y-99792550I0J-218750D01*
G01*
X159428200Y-100230050D01*
G75*
G02*
X159209450Y-100448800I-218750J0D01*
G01*
G37*
%TD.AperFunction*%
%TD*%
%TO.P,D4,2*%
%TO.N,IO4*%
%TA.AperFunction,SMDPad,CuDef*%
G36*
G01*
X161209450Y-98873800D02*
X160696950Y-98873800D01*
G75*
G02*
X160478200Y-98655050I0J218750D01*
G01*
X160478200Y-98217550D01*
G75*
G02*
X160696950Y-97998800I218750J0D01*
G01*
X161209450Y-97998800D01*
G75*
G02*
X161428200Y-98217550I0J-218750D01*
G01*
X161428200Y-98655050D01*
G75*
G02*
X161209450Y-98873800I-218750J0D01*
G01*
G37*
%TD.AperFunction*%
%TO.P,D4,1*%
%TO.N,Net-(D4-Pad1)*%
%TA.AperFunction,SMDPad,CuDef*%
G36*
G01*
X161209450Y-100448800D02*
X160696950Y-100448800D01*
G75*
G02*
X160478200Y-100230050I0J218750D01*
G01*
X160478200Y-99792550D01*
G75*
G02*
X160696950Y-99573800I218750J0D01*
G01*
X161209450Y-99573800D01*
G75*
G02*
X161428200Y-99792550I0J-218750D01*
G01*
X161428200Y-100230050D01*
G75*
G02*
X161209450Y-100448800I-218750J0D01*
G01*
G37*
%TD.AperFunction*%
%TD*%
%TO.P,D3,2*%
%TO.N,IO3*%
%TA.AperFunction,SMDPad,CuDef*%
G36*
G01*
X163209450Y-98873800D02*
X162696950Y-98873800D01*
G75*
G02*
X162478200Y-98655050I0J218750D01*
G01*
X162478200Y-98217550D01*
G75*
G02*
X162696950Y-97998800I218750J0D01*
G01*
X163209450Y-97998800D01*
G75*
G02*
X163428200Y-98217550I0J-218750D01*
G01*
X163428200Y-98655050D01*
G75*
G02*
X163209450Y-98873800I-218750J0D01*
G01*
G37*
%TD.AperFunction*%
%TO.P,D3,1*%
%TO.N,Net-(D3-Pad1)*%
%TA.AperFunction,SMDPad,CuDef*%
G36*
G01*
X163209450Y-100448800D02*
X162696950Y-100448800D01*
G75*
G02*
X162478200Y-100230050I0J218750D01*
G01*
X162478200Y-99792550D01*
G75*
G02*
X162696950Y-99573800I218750J0D01*
G01*
X163209450Y-99573800D01*
G75*
G02*
X163428200Y-99792550I0J-218750D01*
G01*
X163428200Y-100230050D01*
G75*
G02*
X163209450Y-100448800I-218750J0D01*
G01*
G37*
%TD.AperFunction*%
%TD*%
%TO.P,D2,2*%
%TO.N,IO2*%
%TA.AperFunction,SMDPad,CuDef*%
G36*
G01*
X165209450Y-98873800D02*
X164696950Y-98873800D01*
G75*
G02*
X164478200Y-98655050I0J218750D01*
G01*
X164478200Y-98217550D01*
G75*
G02*
X164696950Y-97998800I218750J0D01*
G01*
X165209450Y-97998800D01*
G75*
G02*
X165428200Y-98217550I0J-218750D01*
G01*
X165428200Y-98655050D01*
G75*
G02*
X165209450Y-98873800I-218750J0D01*
G01*
G37*
%TD.AperFunction*%
%TO.P,D2,1*%
%TO.N,Net-(D2-Pad1)*%
%TA.AperFunction,SMDPad,CuDef*%
G36*
G01*
X165209450Y-100448800D02*
X164696950Y-100448800D01*
G75*
G02*
X164478200Y-100230050I0J218750D01*
G01*
X164478200Y-99792550D01*
G75*
G02*
X164696950Y-99573800I218750J0D01*
G01*
X165209450Y-99573800D01*
G75*
G02*
X165428200Y-99792550I0J-218750D01*
G01*
X165428200Y-100230050D01*
G75*
G02*
X165209450Y-100448800I-218750J0D01*
G01*
G37*
%TD.AperFunction*%
%TD*%
%TO.P,D1,2*%
%TO.N,IO1*%
%TA.AperFunction,SMDPad,CuDef*%
G36*
G01*
X167209450Y-98873800D02*
X166696950Y-98873800D01*
G75*
G02*
X166478200Y-98655050I0J218750D01*
G01*
X166478200Y-98217550D01*
G75*
G02*
X166696950Y-97998800I218750J0D01*
G01*
X167209450Y-97998800D01*
G75*
G02*
X167428200Y-98217550I0J-218750D01*
G01*
X167428200Y-98655050D01*
G75*
G02*
X167209450Y-98873800I-218750J0D01*
G01*
G37*
%TD.AperFunction*%
%TO.P,D1,1*%
%TO.N,Net-(D1-Pad1)*%
%TA.AperFunction,SMDPad,CuDef*%
G36*
G01*
X167209450Y-100448800D02*
X166696950Y-100448800D01*
G75*
G02*
X166478200Y-100230050I0J218750D01*
G01*
X166478200Y-99792550D01*
G75*
G02*
X166696950Y-99573800I218750J0D01*
G01*
X167209450Y-99573800D01*
G75*
G02*
X167428200Y-99792550I0J-218750D01*
G01*
X167428200Y-100230050D01*
G75*
G02*
X167209450Y-100448800I-218750J0D01*
G01*
G37*
%TD.AperFunction*%
%TD*%
%TO.P,D0,2*%
%TO.N,IO0*%
%TA.AperFunction,SMDPad,CuDef*%
G36*
G01*
X169209450Y-98873800D02*
X168696950Y-98873800D01*
G75*
G02*
X168478200Y-98655050I0J218750D01*
G01*
X168478200Y-98217550D01*
G75*
G02*
X168696950Y-97998800I218750J0D01*
G01*
X169209450Y-97998800D01*
G75*
G02*
X169428200Y-98217550I0J-218750D01*
G01*
X169428200Y-98655050D01*
G75*
G02*
X169209450Y-98873800I-218750J0D01*
G01*
G37*
%TD.AperFunction*%
%TO.P,D0,1*%
%TO.N,Net-(D0-Pad1)*%
%TA.AperFunction,SMDPad,CuDef*%
G36*
G01*
X169209450Y-100448800D02*
X168696950Y-100448800D01*
G75*
G02*
X168478200Y-100230050I0J218750D01*
G01*
X168478200Y-99792550D01*
G75*
G02*
X168696950Y-99573800I218750J0D01*
G01*
X169209450Y-99573800D01*
G75*
G02*
X169428200Y-99792550I0J-218750D01*
G01*
X169428200Y-100230050D01*
G75*
G02*
X169209450Y-100448800I-218750J0D01*
G01*
G37*
%TD.AperFunction*%
%TD*%
D11*
%TO.N,IO7*%
X154165415Y-99169868D03*
%TO.N,IO6*%
X156171898Y-99123502D03*
%TO.N,IO5*%
X158216599Y-99110801D03*
%TO.N,IO4*%
X160210500Y-99123500D03*
%TD*%
D12*
%TO.N,IO7*%
X154898983Y-98436300D02*
X154165415Y-99169868D01*
X154953200Y-98436300D02*
X154898983Y-98436300D01*
%TO.N,IO6*%
X156265998Y-99123502D02*
X156171898Y-99123502D01*
X156953200Y-98436300D02*
X156265998Y-99123502D01*
%TO.N,IO5*%
X158953200Y-98436300D02*
X158891100Y-98436300D01*
X158891100Y-98436300D02*
X158216599Y-99110801D01*
%TO.N,IO4*%
X160953200Y-98436300D02*
X160897700Y-98436300D01*
X160897700Y-98436300D02*
X160210500Y-99123500D01*
%TO.N,IO3*%
X152745209Y-97698791D02*
X150850600Y-99593400D01*
X149326600Y-105029000D02*
X148596100Y-105029000D01*
X162953200Y-98436300D02*
X162215691Y-97698791D01*
X150850600Y-99593400D02*
X150850600Y-103505000D01*
X162215691Y-97698791D02*
X152745209Y-97698791D01*
X150850600Y-103505000D02*
X149326600Y-105029000D01*
%TO.N,IO2*%
X149352000Y-102489000D02*
X148596100Y-102489000D01*
X150450589Y-99427711D02*
X150450589Y-101390411D01*
X152579520Y-97298780D02*
X150450589Y-99427711D01*
X163815680Y-97298780D02*
X152579520Y-97298780D01*
X150450589Y-101390411D02*
X149352000Y-102489000D01*
X164953200Y-98436300D02*
X163815680Y-97298780D01*
%TO.N,IO1*%
X149352000Y-99949000D02*
X148596100Y-99949000D01*
X152402230Y-96898770D02*
X149352000Y-99949000D01*
X165415670Y-96898770D02*
X152402230Y-96898770D01*
X166953200Y-98436300D02*
X165415670Y-96898770D01*
%TO.N,Net-(D1-Pad1)*%
X166953200Y-100011300D02*
X166953200Y-102098800D01*
%TO.N,Net-(D2-Pad1)*%
X164953200Y-102088800D02*
X164963200Y-102098800D01*
X164953200Y-100011300D02*
X164953200Y-102088800D01*
%TO.N,Net-(D3-Pad1)*%
X162953200Y-100011300D02*
X162953200Y-102098800D01*
%TO.N,Net-(D4-Pad1)*%
X160953200Y-100011300D02*
X160953200Y-102098800D01*
%TO.N,Net-(D5-Pad1)*%
X158953200Y-100011300D02*
X158953200Y-102098800D01*
%TO.N,Net-(D6-Pad1)*%
X156953200Y-100011300D02*
X156953200Y-102098800D01*
%TO.N,Net-(D7-Pad1)*%
X154953200Y-100011300D02*
X154953200Y-102098800D01*
%TO.N,IO0*%
X149352000Y-97409000D02*
X148596100Y-97409000D01*
X150262240Y-96498760D02*
X149352000Y-97409000D01*
X167015660Y-96498760D02*
X150262240Y-96498760D01*
X168953200Y-98436300D02*
X167015660Y-96498760D01*
%TO.N,Net-(D0-Pad1)*%
X168953200Y-100011300D02*
X168953200Y-102098800D01*
%TD*%
D13*
%TO.N,GND*%
X153569387Y-98443606D02*
X153439153Y-98573840D01*
X153336829Y-98726979D01*
X153266347Y-98897139D01*
X153230415Y-99077779D01*
X153230415Y-99261957D01*
X153266347Y-99442597D01*
X153336829Y-99612757D01*
X153439153Y-99765896D01*
X153569387Y-99896130D01*
X153722526Y-99998454D01*
X153840128Y-100047166D01*
X153840128Y-100230050D01*
X153856592Y-100397208D01*
X153905350Y-100557942D01*
X153984529Y-100706075D01*
X154091085Y-100835915D01*
X154218200Y-100940235D01*
X154218201Y-101198971D01*
X154212592Y-101201969D01*
X154085594Y-101306194D01*
X153981369Y-101433192D01*
X153903922Y-101578084D01*
X153856231Y-101735300D01*
X153840128Y-101898800D01*
X153840128Y-102298800D01*
X153856231Y-102462300D01*
X153903922Y-102619516D01*
X153981369Y-102764408D01*
X154065063Y-102866390D01*
X154027015Y-102897615D01*
X153947663Y-102994306D01*
X153888698Y-103104620D01*
X153852388Y-103224318D01*
X153840128Y-103348800D01*
X153843200Y-103463050D01*
X154001950Y-103621800D01*
X154826200Y-103621800D01*
X154826200Y-103601800D01*
X155080200Y-103601800D01*
X155080200Y-103621800D01*
X155904450Y-103621800D01*
X155953200Y-103573050D01*
X156001950Y-103621800D01*
X156826200Y-103621800D01*
X156826200Y-103601800D01*
X157080200Y-103601800D01*
X157080200Y-103621800D01*
X157904450Y-103621800D01*
X157953200Y-103573050D01*
X158001950Y-103621800D01*
X158826200Y-103621800D01*
X158826200Y-103601800D01*
X159080200Y-103601800D01*
X159080200Y-103621800D01*
X159904450Y-103621800D01*
X159953200Y-103573050D01*
X160001950Y-103621800D01*
X160826200Y-103621800D01*
X160826200Y-103601800D01*
X161080200Y-103601800D01*
X161080200Y-103621800D01*
X161904450Y-103621800D01*
X161953200Y-103573050D01*
X162001950Y-103621800D01*
X162826200Y-103621800D01*
X162826200Y-103601800D01*
X163080200Y-103601800D01*
X163080200Y-103621800D01*
X163904450Y-103621800D01*
X163958200Y-103568050D01*
X164011950Y-103621800D01*
X164836200Y-103621800D01*
X164836200Y-103601800D01*
X165090200Y-103601800D01*
X165090200Y-103621800D01*
X165914450Y-103621800D01*
X165958200Y-103578050D01*
X166001950Y-103621800D01*
X166826200Y-103621800D01*
X166826200Y-103601800D01*
X167080200Y-103601800D01*
X167080200Y-103621800D01*
X167904450Y-103621800D01*
X167953200Y-103573050D01*
X168001950Y-103621800D01*
X168826200Y-103621800D01*
X168826200Y-103601800D01*
X169080200Y-103601800D01*
X169080200Y-103621800D01*
X169100200Y-103621800D01*
X169100200Y-103875800D01*
X169080200Y-103875800D01*
X169080200Y-104625050D01*
X169238950Y-104783800D01*
X169428200Y-104786872D01*
X169552682Y-104774612D01*
X169672380Y-104738302D01*
X169782694Y-104679337D01*
X169860800Y-104615237D01*
X169860800Y-110696653D01*
X169852296Y-110783386D01*
X169837546Y-110832240D01*
X169813588Y-110877299D01*
X169781334Y-110916846D01*
X169742015Y-110949373D01*
X169697129Y-110973643D01*
X169648373Y-110988735D01*
X169564035Y-110997600D01*
X150348647Y-110997600D01*
X150376637Y-110963494D01*
X150435602Y-110853180D01*
X150471912Y-110733482D01*
X150484172Y-110609000D01*
X150484172Y-109609000D01*
X150471912Y-109484518D01*
X150435602Y-109364820D01*
X150376637Y-109254506D01*
X150297285Y-109157815D01*
X150200594Y-109078463D01*
X150090280Y-109019498D01*
X149970582Y-108983188D01*
X149846100Y-108970928D01*
X147346100Y-108970928D01*
X147330800Y-108972435D01*
X147330800Y-108705565D01*
X147346100Y-108707072D01*
X148310350Y-108704000D01*
X148469100Y-108545250D01*
X148469100Y-107696000D01*
X148723100Y-107696000D01*
X148723100Y-108545250D01*
X148881850Y-108704000D01*
X149846100Y-108707072D01*
X149970582Y-108694812D01*
X150090280Y-108658502D01*
X150200594Y-108599537D01*
X150297285Y-108520185D01*
X150376637Y-108423494D01*
X150435602Y-108313180D01*
X150471912Y-108193482D01*
X150484172Y-108069000D01*
X150481100Y-107854750D01*
X150322350Y-107696000D01*
X148723100Y-107696000D01*
X148469100Y-107696000D01*
X148449100Y-107696000D01*
X148449100Y-107442000D01*
X148469100Y-107442000D01*
X148469100Y-106592750D01*
X148723100Y-106592750D01*
X148723100Y-107442000D01*
X150322350Y-107442000D01*
X150481100Y-107283250D01*
X150484172Y-107069000D01*
X150471912Y-106944518D01*
X150435602Y-106824820D01*
X150376637Y-106714506D01*
X150297285Y-106617815D01*
X150200594Y-106538463D01*
X150090280Y-106479498D01*
X149970582Y-106443188D01*
X149846100Y-106430928D01*
X148881850Y-106434000D01*
X148723100Y-106592750D01*
X148469100Y-106592750D01*
X148310350Y-106434000D01*
X147346100Y-106430928D01*
X147330800Y-106432435D01*
X147330800Y-106165565D01*
X147346100Y-106167072D01*
X149846100Y-106167072D01*
X149970582Y-106154812D01*
X150090280Y-106118502D01*
X150200594Y-106059537D01*
X150297285Y-105980185D01*
X150376637Y-105883494D01*
X150435602Y-105773180D01*
X150471912Y-105653482D01*
X150484172Y-105529000D01*
X150484172Y-104910874D01*
X151246246Y-104148800D01*
X153840128Y-104148800D01*
X153852388Y-104273282D01*
X153888698Y-104392980D01*
X153947663Y-104503294D01*
X154027015Y-104599985D01*
X154123706Y-104679337D01*
X154234020Y-104738302D01*
X154353718Y-104774612D01*
X154478200Y-104786872D01*
X154667450Y-104783800D01*
X154826200Y-104625050D01*
X154826200Y-103875800D01*
X155080200Y-103875800D01*
X155080200Y-104625050D01*
X155238950Y-104783800D01*
X155428200Y-104786872D01*
X155552682Y-104774612D01*
X155672380Y-104738302D01*
X155782694Y-104679337D01*
X155879385Y-104599985D01*
X155953200Y-104510041D01*
X156027015Y-104599985D01*
X156123706Y-104679337D01*
X156234020Y-104738302D01*
X156353718Y-104774612D01*
X156478200Y-104786872D01*
X156667450Y-104783800D01*
X156826200Y-104625050D01*
X156826200Y-103875800D01*
X157080200Y-103875800D01*
X157080200Y-104625050D01*
X157238950Y-104783800D01*
X157428200Y-104786872D01*
X157552682Y-104774612D01*
X157672380Y-104738302D01*
X157782694Y-104679337D01*
X157879385Y-104599985D01*
X157953200Y-104510041D01*
X158027015Y-104599985D01*
X158123706Y-104679337D01*
X158234020Y-104738302D01*
X158353718Y-104774612D01*
X158478200Y-104786872D01*
X158667450Y-104783800D01*
X158826200Y-104625050D01*
X158826200Y-103875800D01*
X159080200Y-103875800D01*
X159080200Y-104625050D01*
X159238950Y-104783800D01*
X159428200Y-104786872D01*
X159552682Y-104774612D01*
X159672380Y-104738302D01*
X159782694Y-104679337D01*
X159879385Y-104599985D01*
X159953200Y-104510041D01*
X160027015Y-104599985D01*
X160123706Y-104679337D01*
X160234020Y-104738302D01*
X160353718Y-104774612D01*
X160478200Y-104786872D01*
X160667450Y-104783800D01*
X160826200Y-104625050D01*
X160826200Y-103875800D01*
X161080200Y-103875800D01*
X161080200Y-104625050D01*
X161238950Y-104783800D01*
X161428200Y-104786872D01*
X161552682Y-104774612D01*
X161672380Y-104738302D01*
X161782694Y-104679337D01*
X161879385Y-104599985D01*
X161953200Y-104510041D01*
X162027015Y-104599985D01*
X162123706Y-104679337D01*
X162234020Y-104738302D01*
X162353718Y-104774612D01*
X162478200Y-104786872D01*
X162667450Y-104783800D01*
X162826200Y-104625050D01*
X162826200Y-103875800D01*
X163080200Y-103875800D01*
X163080200Y-104625050D01*
X163238950Y-104783800D01*
X163428200Y-104786872D01*
X163552682Y-104774612D01*
X163672380Y-104738302D01*
X163782694Y-104679337D01*
X163879385Y-104599985D01*
X163958200Y-104503948D01*
X164037015Y-104599985D01*
X164133706Y-104679337D01*
X164244020Y-104738302D01*
X164363718Y-104774612D01*
X164488200Y-104786872D01*
X164677450Y-104783800D01*
X164836200Y-104625050D01*
X164836200Y-103875800D01*
X165090200Y-103875800D01*
X165090200Y-104625050D01*
X165248950Y-104783800D01*
X165438200Y-104786872D01*
X165562682Y-104774612D01*
X165682380Y-104738302D01*
X165792694Y-104679337D01*
X165889385Y-104599985D01*
X165958200Y-104516133D01*
X166027015Y-104599985D01*
X166123706Y-104679337D01*
X166234020Y-104738302D01*
X166353718Y-104774612D01*
X166478200Y-104786872D01*
X166667450Y-104783800D01*
X166826200Y-104625050D01*
X166826200Y-103875800D01*
X167080200Y-103875800D01*
X167080200Y-104625050D01*
X167238950Y-104783800D01*
X167428200Y-104786872D01*
X167552682Y-104774612D01*
X167672380Y-104738302D01*
X167782694Y-104679337D01*
X167879385Y-104599985D01*
X167953200Y-104510041D01*
X168027015Y-104599985D01*
X168123706Y-104679337D01*
X168234020Y-104738302D01*
X168353718Y-104774612D01*
X168478200Y-104786872D01*
X168667450Y-104783800D01*
X168826200Y-104625050D01*
X168826200Y-103875800D01*
X168001950Y-103875800D01*
X167953200Y-103924550D01*
X167904450Y-103875800D01*
X167080200Y-103875800D01*
X166826200Y-103875800D01*
X166001950Y-103875800D01*
X165958200Y-103919550D01*
X165914450Y-103875800D01*
X165090200Y-103875800D01*
X164836200Y-103875800D01*
X164011950Y-103875800D01*
X163958200Y-103929550D01*
X163904450Y-103875800D01*
X163080200Y-103875800D01*
X162826200Y-103875800D01*
X162001950Y-103875800D01*
X161953200Y-103924550D01*
X161904450Y-103875800D01*
X161080200Y-103875800D01*
X160826200Y-103875800D01*
X160001950Y-103875800D01*
X159953200Y-103924550D01*
X159904450Y-103875800D01*
X159080200Y-103875800D01*
X158826200Y-103875800D01*
X158001950Y-103875800D01*
X157953200Y-103924550D01*
X157904450Y-103875800D01*
X157080200Y-103875800D01*
X156826200Y-103875800D01*
X156001950Y-103875800D01*
X155953200Y-103924550D01*
X155904450Y-103875800D01*
X155080200Y-103875800D01*
X154826200Y-103875800D01*
X154001950Y-103875800D01*
X153843200Y-104034550D01*
X153840128Y-104148800D01*
X151246246Y-104148800D01*
X151344793Y-104050254D01*
X151372838Y-104027238D01*
X151464687Y-103915320D01*
X151532937Y-103787633D01*
X151574965Y-103649085D01*
X151585600Y-103541105D01*
X151585600Y-103541096D01*
X151589155Y-103505001D01*
X151585600Y-103468906D01*
X151585600Y-99897846D01*
X153049656Y-98433791D01*
X153584076Y-98433791D01*
X153569387Y-98443606D01*
%TA.AperFunction,Conductor*%
D14*
G36*
X153569387Y-98443606D02*
G01*
X153439153Y-98573840D01*
X153336829Y-98726979D01*
X153266347Y-98897139D01*
X153230415Y-99077779D01*
X153230415Y-99261957D01*
X153266347Y-99442597D01*
X153336829Y-99612757D01*
X153439153Y-99765896D01*
X153569387Y-99896130D01*
X153722526Y-99998454D01*
X153840128Y-100047166D01*
X153840128Y-100230050D01*
X153856592Y-100397208D01*
X153905350Y-100557942D01*
X153984529Y-100706075D01*
X154091085Y-100835915D01*
X154218200Y-100940235D01*
X154218201Y-101198971D01*
X154212592Y-101201969D01*
X154085594Y-101306194D01*
X153981369Y-101433192D01*
X153903922Y-101578084D01*
X153856231Y-101735300D01*
X153840128Y-101898800D01*
X153840128Y-102298800D01*
X153856231Y-102462300D01*
X153903922Y-102619516D01*
X153981369Y-102764408D01*
X154065063Y-102866390D01*
X154027015Y-102897615D01*
X153947663Y-102994306D01*
X153888698Y-103104620D01*
X153852388Y-103224318D01*
X153840128Y-103348800D01*
X153843200Y-103463050D01*
X154001950Y-103621800D01*
X154826200Y-103621800D01*
X154826200Y-103601800D01*
X155080200Y-103601800D01*
X155080200Y-103621800D01*
X155904450Y-103621800D01*
X155953200Y-103573050D01*
X156001950Y-103621800D01*
X156826200Y-103621800D01*
X156826200Y-103601800D01*
X157080200Y-103601800D01*
X157080200Y-103621800D01*
X157904450Y-103621800D01*
X157953200Y-103573050D01*
X158001950Y-103621800D01*
X158826200Y-103621800D01*
X158826200Y-103601800D01*
X159080200Y-103601800D01*
X159080200Y-103621800D01*
X159904450Y-103621800D01*
X159953200Y-103573050D01*
X160001950Y-103621800D01*
X160826200Y-103621800D01*
X160826200Y-103601800D01*
X161080200Y-103601800D01*
X161080200Y-103621800D01*
X161904450Y-103621800D01*
X161953200Y-103573050D01*
X162001950Y-103621800D01*
X162826200Y-103621800D01*
X162826200Y-103601800D01*
X163080200Y-103601800D01*
X163080200Y-103621800D01*
X163904450Y-103621800D01*
X163958200Y-103568050D01*
X164011950Y-103621800D01*
X164836200Y-103621800D01*
X164836200Y-103601800D01*
X165090200Y-103601800D01*
X165090200Y-103621800D01*
X165914450Y-103621800D01*
X165958200Y-103578050D01*
X166001950Y-103621800D01*
X166826200Y-103621800D01*
X166826200Y-103601800D01*
X167080200Y-103601800D01*
X167080200Y-103621800D01*
X167904450Y-103621800D01*
X167953200Y-103573050D01*
X168001950Y-103621800D01*
X168826200Y-103621800D01*
X168826200Y-103601800D01*
X169080200Y-103601800D01*
X169080200Y-103621800D01*
X169100200Y-103621800D01*
X169100200Y-103875800D01*
X169080200Y-103875800D01*
X169080200Y-104625050D01*
X169238950Y-104783800D01*
X169428200Y-104786872D01*
X169552682Y-104774612D01*
X169672380Y-104738302D01*
X169782694Y-104679337D01*
X169860800Y-104615237D01*
X169860800Y-110696653D01*
X169852296Y-110783386D01*
X169837546Y-110832240D01*
X169813588Y-110877299D01*
X169781334Y-110916846D01*
X169742015Y-110949373D01*
X169697129Y-110973643D01*
X169648373Y-110988735D01*
X169564035Y-110997600D01*
X150348647Y-110997600D01*
X150376637Y-110963494D01*
X150435602Y-110853180D01*
X150471912Y-110733482D01*
X150484172Y-110609000D01*
X150484172Y-109609000D01*
X150471912Y-109484518D01*
X150435602Y-109364820D01*
X150376637Y-109254506D01*
X150297285Y-109157815D01*
X150200594Y-109078463D01*
X150090280Y-109019498D01*
X149970582Y-108983188D01*
X149846100Y-108970928D01*
X147346100Y-108970928D01*
X147330800Y-108972435D01*
X147330800Y-108705565D01*
X147346100Y-108707072D01*
X148310350Y-108704000D01*
X148469100Y-108545250D01*
X148469100Y-107696000D01*
X148723100Y-107696000D01*
X148723100Y-108545250D01*
X148881850Y-108704000D01*
X149846100Y-108707072D01*
X149970582Y-108694812D01*
X150090280Y-108658502D01*
X150200594Y-108599537D01*
X150297285Y-108520185D01*
X150376637Y-108423494D01*
X150435602Y-108313180D01*
X150471912Y-108193482D01*
X150484172Y-108069000D01*
X150481100Y-107854750D01*
X150322350Y-107696000D01*
X148723100Y-107696000D01*
X148469100Y-107696000D01*
X148449100Y-107696000D01*
X148449100Y-107442000D01*
X148469100Y-107442000D01*
X148469100Y-106592750D01*
X148723100Y-106592750D01*
X148723100Y-107442000D01*
X150322350Y-107442000D01*
X150481100Y-107283250D01*
X150484172Y-107069000D01*
X150471912Y-106944518D01*
X150435602Y-106824820D01*
X150376637Y-106714506D01*
X150297285Y-106617815D01*
X150200594Y-106538463D01*
X150090280Y-106479498D01*
X149970582Y-106443188D01*
X149846100Y-106430928D01*
X148881850Y-106434000D01*
X148723100Y-106592750D01*
X148469100Y-106592750D01*
X148310350Y-106434000D01*
X147346100Y-106430928D01*
X147330800Y-106432435D01*
X147330800Y-106165565D01*
X147346100Y-106167072D01*
X149846100Y-106167072D01*
X149970582Y-106154812D01*
X150090280Y-106118502D01*
X150200594Y-106059537D01*
X150297285Y-105980185D01*
X150376637Y-105883494D01*
X150435602Y-105773180D01*
X150471912Y-105653482D01*
X150484172Y-105529000D01*
X150484172Y-104910874D01*
X151246246Y-104148800D01*
X153840128Y-104148800D01*
X153852388Y-104273282D01*
X153888698Y-104392980D01*
X153947663Y-104503294D01*
X154027015Y-104599985D01*
X154123706Y-104679337D01*
X154234020Y-104738302D01*
X154353718Y-104774612D01*
X154478200Y-104786872D01*
X154667450Y-104783800D01*
X154826200Y-104625050D01*
X154826200Y-103875800D01*
X155080200Y-103875800D01*
X155080200Y-104625050D01*
X155238950Y-104783800D01*
X155428200Y-104786872D01*
X155552682Y-104774612D01*
X155672380Y-104738302D01*
X155782694Y-104679337D01*
X155879385Y-104599985D01*
X155953200Y-104510041D01*
X156027015Y-104599985D01*
X156123706Y-104679337D01*
X156234020Y-104738302D01*
X156353718Y-104774612D01*
X156478200Y-104786872D01*
X156667450Y-104783800D01*
X156826200Y-104625050D01*
X156826200Y-103875800D01*
X157080200Y-103875800D01*
X157080200Y-104625050D01*
X157238950Y-104783800D01*
X157428200Y-104786872D01*
X157552682Y-104774612D01*
X157672380Y-104738302D01*
X157782694Y-104679337D01*
X157879385Y-104599985D01*
X157953200Y-104510041D01*
X158027015Y-104599985D01*
X158123706Y-104679337D01*
X158234020Y-104738302D01*
X158353718Y-104774612D01*
X158478200Y-104786872D01*
X158667450Y-104783800D01*
X158826200Y-104625050D01*
X158826200Y-103875800D01*
X159080200Y-103875800D01*
X159080200Y-104625050D01*
X159238950Y-104783800D01*
X159428200Y-104786872D01*
X159552682Y-104774612D01*
X159672380Y-104738302D01*
X159782694Y-104679337D01*
X159879385Y-104599985D01*
X159953200Y-104510041D01*
X160027015Y-104599985D01*
X160123706Y-104679337D01*
X160234020Y-104738302D01*
X160353718Y-104774612D01*
X160478200Y-104786872D01*
X160667450Y-104783800D01*
X160826200Y-104625050D01*
X160826200Y-103875800D01*
X161080200Y-103875800D01*
X161080200Y-104625050D01*
X161238950Y-104783800D01*
X161428200Y-104786872D01*
X161552682Y-104774612D01*
X161672380Y-104738302D01*
X161782694Y-104679337D01*
X161879385Y-104599985D01*
X161953200Y-104510041D01*
X162027015Y-104599985D01*
X162123706Y-104679337D01*
X162234020Y-104738302D01*
X162353718Y-104774612D01*
X162478200Y-104786872D01*
X162667450Y-104783800D01*
X162826200Y-104625050D01*
X162826200Y-103875800D01*
X163080200Y-103875800D01*
X163080200Y-104625050D01*
X163238950Y-104783800D01*
X163428200Y-104786872D01*
X163552682Y-104774612D01*
X163672380Y-104738302D01*
X163782694Y-104679337D01*
X163879385Y-104599985D01*
X163958200Y-104503948D01*
X164037015Y-104599985D01*
X164133706Y-104679337D01*
X164244020Y-104738302D01*
X164363718Y-104774612D01*
X164488200Y-104786872D01*
X164677450Y-104783800D01*
X164836200Y-104625050D01*
X164836200Y-103875800D01*
X165090200Y-103875800D01*
X165090200Y-104625050D01*
X165248950Y-104783800D01*
X165438200Y-104786872D01*
X165562682Y-104774612D01*
X165682380Y-104738302D01*
X165792694Y-104679337D01*
X165889385Y-104599985D01*
X165958200Y-104516133D01*
X166027015Y-104599985D01*
X166123706Y-104679337D01*
X166234020Y-104738302D01*
X166353718Y-104774612D01*
X166478200Y-104786872D01*
X166667450Y-104783800D01*
X166826200Y-104625050D01*
X166826200Y-103875800D01*
X167080200Y-103875800D01*
X167080200Y-104625050D01*
X167238950Y-104783800D01*
X167428200Y-104786872D01*
X167552682Y-104774612D01*
X167672380Y-104738302D01*
X167782694Y-104679337D01*
X167879385Y-104599985D01*
X167953200Y-104510041D01*
X168027015Y-104599985D01*
X168123706Y-104679337D01*
X168234020Y-104738302D01*
X168353718Y-104774612D01*
X168478200Y-104786872D01*
X168667450Y-104783800D01*
X168826200Y-104625050D01*
X168826200Y-103875800D01*
X168001950Y-103875800D01*
X167953200Y-103924550D01*
X167904450Y-103875800D01*
X167080200Y-103875800D01*
X166826200Y-103875800D01*
X166001950Y-103875800D01*
X165958200Y-103919550D01*
X165914450Y-103875800D01*
X165090200Y-103875800D01*
X164836200Y-103875800D01*
X164011950Y-103875800D01*
X163958200Y-103929550D01*
X163904450Y-103875800D01*
X163080200Y-103875800D01*
X162826200Y-103875800D01*
X162001950Y-103875800D01*
X161953200Y-103924550D01*
X161904450Y-103875800D01*
X161080200Y-103875800D01*
X160826200Y-103875800D01*
X160001950Y-103875800D01*
X159953200Y-103924550D01*
X159904450Y-103875800D01*
X159080200Y-103875800D01*
X158826200Y-103875800D01*
X158001950Y-103875800D01*
X157953200Y-103924550D01*
X157904450Y-103875800D01*
X157080200Y-103875800D01*
X156826200Y-103875800D01*
X156001950Y-103875800D01*
X155953200Y-103924550D01*
X155904450Y-103875800D01*
X155080200Y-103875800D01*
X154826200Y-103875800D01*
X154001950Y-103875800D01*
X153843200Y-104034550D01*
X153840128Y-104148800D01*
X151246246Y-104148800D01*
X151344793Y-104050254D01*
X151372838Y-104027238D01*
X151464687Y-103915320D01*
X151532937Y-103787633D01*
X151574965Y-103649085D01*
X151585600Y-103541105D01*
X151585600Y-103541096D01*
X151589155Y-103505001D01*
X151585600Y-103468906D01*
X151585600Y-99897846D01*
X153049656Y-98433791D01*
X153584076Y-98433791D01*
X153569387Y-98443606D01*
G37*
%TD.AperFunction*%
%TD*%
M02*
