%TF.GenerationSoftware,KiCad,Pcbnew,(5.1.10)-1*%
%TF.CreationDate,2021-08-11T02:19:35+08:00*%
%TF.ProjectId,Pmod-8led,506d6f64-2d38-46c6-9564-2e6b69636164,rev?*%
%TF.SameCoordinates,Original*%
%TF.FileFunction,Soldermask,Top*%
%TF.FilePolarity,Negative*%
%FSLAX46Y46*%
G04 Gerber Fmt 4.6, Leading zero omitted, Abs format (unit mm)*
G04 Created by KiCad (PCBNEW (5.1.10)-1) date 2021-08-11 02:19:35*
%MOMM*%
%LPD*%
G01*
G04 APERTURE LIST*
%ADD10C,0.150000*%
%ADD11R,2.500000X1.000000*%
G04 APERTURE END LIST*
D10*
X156013688Y-110724904D02*
X156080355Y-110191571D01*
X156070831Y-110267761D02*
X156113688Y-110229666D01*
X156194641Y-110191571D01*
X156308926Y-110191571D01*
X156380355Y-110229666D01*
X156408926Y-110305857D01*
X156356545Y-110724904D01*
X156408926Y-110305857D02*
X156456545Y-110229666D01*
X156537498Y-110191571D01*
X156651783Y-110191571D01*
X156723212Y-110229666D01*
X156751783Y-110305857D01*
X156699402Y-110724904D01*
X157423212Y-110724904D02*
X157475593Y-110305857D01*
X157447022Y-110229666D01*
X157375593Y-110191571D01*
X157223212Y-110191571D01*
X157142260Y-110229666D01*
X157427974Y-110686809D02*
X157347022Y-110724904D01*
X157156545Y-110724904D01*
X157085117Y-110686809D01*
X157056545Y-110610619D01*
X157066069Y-110534428D01*
X157113688Y-110458238D01*
X157194641Y-110420142D01*
X157385117Y-110420142D01*
X157466069Y-110382047D01*
X158213688Y-110191571D02*
X158132736Y-110839190D01*
X158085117Y-110915380D01*
X158042260Y-110953476D01*
X157961307Y-110991571D01*
X157847022Y-110991571D01*
X157775593Y-110953476D01*
X158151783Y-110686809D02*
X158070831Y-110724904D01*
X157918450Y-110724904D01*
X157847022Y-110686809D01*
X157813688Y-110648714D01*
X157785117Y-110572523D01*
X157813688Y-110343952D01*
X157861307Y-110267761D01*
X157904164Y-110229666D01*
X157985117Y-110191571D01*
X158137498Y-110191571D01*
X158208926Y-110229666D01*
X158937498Y-110191571D02*
X158870831Y-110724904D01*
X158594641Y-110191571D02*
X158542260Y-110610619D01*
X158570831Y-110686809D01*
X158642260Y-110724904D01*
X158756545Y-110724904D01*
X158837498Y-110686809D01*
X158880355Y-110648714D01*
X159594641Y-110724904D02*
X159647022Y-110305857D01*
X159618450Y-110229666D01*
X159547022Y-110191571D01*
X159394641Y-110191571D01*
X159313688Y-110229666D01*
X159599402Y-110686809D02*
X159518450Y-110724904D01*
X159327974Y-110724904D01*
X159256545Y-110686809D01*
X159227974Y-110610619D01*
X159237498Y-110534428D01*
X159285117Y-110458238D01*
X159366069Y-110420142D01*
X159556545Y-110420142D01*
X159637498Y-110382047D01*
X160147022Y-110267761D02*
X160075593Y-110229666D01*
X160042260Y-110191571D01*
X160013688Y-110115380D01*
X160018450Y-110077285D01*
X160066069Y-110001095D01*
X160108926Y-109963000D01*
X160189879Y-109924904D01*
X160342260Y-109924904D01*
X160413688Y-109963000D01*
X160447022Y-110001095D01*
X160475593Y-110077285D01*
X160470831Y-110115380D01*
X160423212Y-110191571D01*
X160380355Y-110229666D01*
X160299402Y-110267761D01*
X160147022Y-110267761D01*
X160066069Y-110305857D01*
X160023212Y-110343952D01*
X159975593Y-110420142D01*
X159956545Y-110572523D01*
X159985117Y-110648714D01*
X160018450Y-110686809D01*
X160089879Y-110724904D01*
X160242260Y-110724904D01*
X160323212Y-110686809D01*
X160366069Y-110648714D01*
X160413688Y-110572523D01*
X160432736Y-110420142D01*
X160404164Y-110343952D01*
X160370831Y-110305857D01*
X160299402Y-110267761D01*
X160989879Y-109924904D02*
X161066069Y-109924904D01*
X161137498Y-109963000D01*
X161170831Y-110001095D01*
X161199402Y-110077285D01*
X161218450Y-110229666D01*
X161194641Y-110420142D01*
X161137498Y-110572523D01*
X161089879Y-110648714D01*
X161047022Y-110686809D01*
X160966069Y-110724904D01*
X160889879Y-110724904D01*
X160818450Y-110686809D01*
X160785117Y-110648714D01*
X160756545Y-110572523D01*
X160737498Y-110420142D01*
X160761307Y-110229666D01*
X160818450Y-110077285D01*
X160866069Y-110001095D01*
X160908926Y-109963000D01*
X160989879Y-109924904D01*
X161670831Y-110267761D02*
X161599402Y-110229666D01*
X161566069Y-110191571D01*
X161537498Y-110115380D01*
X161542260Y-110077285D01*
X161589879Y-110001095D01*
X161632736Y-109963000D01*
X161713688Y-109924904D01*
X161866069Y-109924904D01*
X161937498Y-109963000D01*
X161970831Y-110001095D01*
X161999402Y-110077285D01*
X161994641Y-110115380D01*
X161947022Y-110191571D01*
X161904164Y-110229666D01*
X161823212Y-110267761D01*
X161670831Y-110267761D01*
X161589879Y-110305857D01*
X161547022Y-110343952D01*
X161499402Y-110420142D01*
X161480355Y-110572523D01*
X161508926Y-110648714D01*
X161542260Y-110686809D01*
X161613688Y-110724904D01*
X161766069Y-110724904D01*
X161847022Y-110686809D01*
X161889879Y-110648714D01*
X161937498Y-110572523D01*
X161956545Y-110420142D01*
X161927974Y-110343952D01*
X161894641Y-110305857D01*
X161823212Y-110267761D01*
X162704164Y-109924904D02*
X162551783Y-109924904D01*
X162470831Y-109963000D01*
X162427974Y-110001095D01*
X162337498Y-110115380D01*
X162280355Y-110267761D01*
X162242260Y-110572523D01*
X162270831Y-110648714D01*
X162304164Y-110686809D01*
X162375593Y-110724904D01*
X162527974Y-110724904D01*
X162608926Y-110686809D01*
X162651783Y-110648714D01*
X162699402Y-110572523D01*
X162723212Y-110382047D01*
X162694641Y-110305857D01*
X162661307Y-110267761D01*
X162589879Y-110229666D01*
X162437498Y-110229666D01*
X162356545Y-110267761D01*
X162313688Y-110305857D01*
X162266069Y-110382047D01*
D11*
%TO.C,PMOD0*%
X148596100Y-97409000D03*
X148596100Y-99949000D03*
X148596100Y-102489000D03*
X148596100Y-105029000D03*
X148596100Y-107569000D03*
X148596100Y-110109000D03*
%TD*%
%TO.C,R7*%
G36*
G01*
X154678200Y-103348800D02*
X155228200Y-103348800D01*
G75*
G02*
X155428200Y-103548800I0J-200000D01*
G01*
X155428200Y-103948800D01*
G75*
G02*
X155228200Y-104148800I-200000J0D01*
G01*
X154678200Y-104148800D01*
G75*
G02*
X154478200Y-103948800I0J200000D01*
G01*
X154478200Y-103548800D01*
G75*
G02*
X154678200Y-103348800I200000J0D01*
G01*
G37*
G36*
G01*
X154678200Y-101698800D02*
X155228200Y-101698800D01*
G75*
G02*
X155428200Y-101898800I0J-200000D01*
G01*
X155428200Y-102298800D01*
G75*
G02*
X155228200Y-102498800I-200000J0D01*
G01*
X154678200Y-102498800D01*
G75*
G02*
X154478200Y-102298800I0J200000D01*
G01*
X154478200Y-101898800D01*
G75*
G02*
X154678200Y-101698800I200000J0D01*
G01*
G37*
%TD*%
%TO.C,R6*%
G36*
G01*
X156678200Y-103348800D02*
X157228200Y-103348800D01*
G75*
G02*
X157428200Y-103548800I0J-200000D01*
G01*
X157428200Y-103948800D01*
G75*
G02*
X157228200Y-104148800I-200000J0D01*
G01*
X156678200Y-104148800D01*
G75*
G02*
X156478200Y-103948800I0J200000D01*
G01*
X156478200Y-103548800D01*
G75*
G02*
X156678200Y-103348800I200000J0D01*
G01*
G37*
G36*
G01*
X156678200Y-101698800D02*
X157228200Y-101698800D01*
G75*
G02*
X157428200Y-101898800I0J-200000D01*
G01*
X157428200Y-102298800D01*
G75*
G02*
X157228200Y-102498800I-200000J0D01*
G01*
X156678200Y-102498800D01*
G75*
G02*
X156478200Y-102298800I0J200000D01*
G01*
X156478200Y-101898800D01*
G75*
G02*
X156678200Y-101698800I200000J0D01*
G01*
G37*
%TD*%
%TO.C,R5*%
G36*
G01*
X158678200Y-103348800D02*
X159228200Y-103348800D01*
G75*
G02*
X159428200Y-103548800I0J-200000D01*
G01*
X159428200Y-103948800D01*
G75*
G02*
X159228200Y-104148800I-200000J0D01*
G01*
X158678200Y-104148800D01*
G75*
G02*
X158478200Y-103948800I0J200000D01*
G01*
X158478200Y-103548800D01*
G75*
G02*
X158678200Y-103348800I200000J0D01*
G01*
G37*
G36*
G01*
X158678200Y-101698800D02*
X159228200Y-101698800D01*
G75*
G02*
X159428200Y-101898800I0J-200000D01*
G01*
X159428200Y-102298800D01*
G75*
G02*
X159228200Y-102498800I-200000J0D01*
G01*
X158678200Y-102498800D01*
G75*
G02*
X158478200Y-102298800I0J200000D01*
G01*
X158478200Y-101898800D01*
G75*
G02*
X158678200Y-101698800I200000J0D01*
G01*
G37*
%TD*%
%TO.C,R4*%
G36*
G01*
X160678200Y-103348800D02*
X161228200Y-103348800D01*
G75*
G02*
X161428200Y-103548800I0J-200000D01*
G01*
X161428200Y-103948800D01*
G75*
G02*
X161228200Y-104148800I-200000J0D01*
G01*
X160678200Y-104148800D01*
G75*
G02*
X160478200Y-103948800I0J200000D01*
G01*
X160478200Y-103548800D01*
G75*
G02*
X160678200Y-103348800I200000J0D01*
G01*
G37*
G36*
G01*
X160678200Y-101698800D02*
X161228200Y-101698800D01*
G75*
G02*
X161428200Y-101898800I0J-200000D01*
G01*
X161428200Y-102298800D01*
G75*
G02*
X161228200Y-102498800I-200000J0D01*
G01*
X160678200Y-102498800D01*
G75*
G02*
X160478200Y-102298800I0J200000D01*
G01*
X160478200Y-101898800D01*
G75*
G02*
X160678200Y-101698800I200000J0D01*
G01*
G37*
%TD*%
%TO.C,R3*%
G36*
G01*
X162678200Y-103348800D02*
X163228200Y-103348800D01*
G75*
G02*
X163428200Y-103548800I0J-200000D01*
G01*
X163428200Y-103948800D01*
G75*
G02*
X163228200Y-104148800I-200000J0D01*
G01*
X162678200Y-104148800D01*
G75*
G02*
X162478200Y-103948800I0J200000D01*
G01*
X162478200Y-103548800D01*
G75*
G02*
X162678200Y-103348800I200000J0D01*
G01*
G37*
G36*
G01*
X162678200Y-101698800D02*
X163228200Y-101698800D01*
G75*
G02*
X163428200Y-101898800I0J-200000D01*
G01*
X163428200Y-102298800D01*
G75*
G02*
X163228200Y-102498800I-200000J0D01*
G01*
X162678200Y-102498800D01*
G75*
G02*
X162478200Y-102298800I0J200000D01*
G01*
X162478200Y-101898800D01*
G75*
G02*
X162678200Y-101698800I200000J0D01*
G01*
G37*
%TD*%
%TO.C,R2*%
G36*
G01*
X164688200Y-103348800D02*
X165238200Y-103348800D01*
G75*
G02*
X165438200Y-103548800I0J-200000D01*
G01*
X165438200Y-103948800D01*
G75*
G02*
X165238200Y-104148800I-200000J0D01*
G01*
X164688200Y-104148800D01*
G75*
G02*
X164488200Y-103948800I0J200000D01*
G01*
X164488200Y-103548800D01*
G75*
G02*
X164688200Y-103348800I200000J0D01*
G01*
G37*
G36*
G01*
X164688200Y-101698800D02*
X165238200Y-101698800D01*
G75*
G02*
X165438200Y-101898800I0J-200000D01*
G01*
X165438200Y-102298800D01*
G75*
G02*
X165238200Y-102498800I-200000J0D01*
G01*
X164688200Y-102498800D01*
G75*
G02*
X164488200Y-102298800I0J200000D01*
G01*
X164488200Y-101898800D01*
G75*
G02*
X164688200Y-101698800I200000J0D01*
G01*
G37*
%TD*%
%TO.C,R1*%
G36*
G01*
X166678200Y-103348800D02*
X167228200Y-103348800D01*
G75*
G02*
X167428200Y-103548800I0J-200000D01*
G01*
X167428200Y-103948800D01*
G75*
G02*
X167228200Y-104148800I-200000J0D01*
G01*
X166678200Y-104148800D01*
G75*
G02*
X166478200Y-103948800I0J200000D01*
G01*
X166478200Y-103548800D01*
G75*
G02*
X166678200Y-103348800I200000J0D01*
G01*
G37*
G36*
G01*
X166678200Y-101698800D02*
X167228200Y-101698800D01*
G75*
G02*
X167428200Y-101898800I0J-200000D01*
G01*
X167428200Y-102298800D01*
G75*
G02*
X167228200Y-102498800I-200000J0D01*
G01*
X166678200Y-102498800D01*
G75*
G02*
X166478200Y-102298800I0J200000D01*
G01*
X166478200Y-101898800D01*
G75*
G02*
X166678200Y-101698800I200000J0D01*
G01*
G37*
%TD*%
%TO.C,R0*%
G36*
G01*
X168678200Y-103348800D02*
X169228200Y-103348800D01*
G75*
G02*
X169428200Y-103548800I0J-200000D01*
G01*
X169428200Y-103948800D01*
G75*
G02*
X169228200Y-104148800I-200000J0D01*
G01*
X168678200Y-104148800D01*
G75*
G02*
X168478200Y-103948800I0J200000D01*
G01*
X168478200Y-103548800D01*
G75*
G02*
X168678200Y-103348800I200000J0D01*
G01*
G37*
G36*
G01*
X168678200Y-101698800D02*
X169228200Y-101698800D01*
G75*
G02*
X169428200Y-101898800I0J-200000D01*
G01*
X169428200Y-102298800D01*
G75*
G02*
X169228200Y-102498800I-200000J0D01*
G01*
X168678200Y-102498800D01*
G75*
G02*
X168478200Y-102298800I0J200000D01*
G01*
X168478200Y-101898800D01*
G75*
G02*
X168678200Y-101698800I200000J0D01*
G01*
G37*
%TD*%
%TO.C,D7*%
G36*
G01*
X155209450Y-98873800D02*
X154696950Y-98873800D01*
G75*
G02*
X154478200Y-98655050I0J218750D01*
G01*
X154478200Y-98217550D01*
G75*
G02*
X154696950Y-97998800I218750J0D01*
G01*
X155209450Y-97998800D01*
G75*
G02*
X155428200Y-98217550I0J-218750D01*
G01*
X155428200Y-98655050D01*
G75*
G02*
X155209450Y-98873800I-218750J0D01*
G01*
G37*
G36*
G01*
X155209450Y-100448800D02*
X154696950Y-100448800D01*
G75*
G02*
X154478200Y-100230050I0J218750D01*
G01*
X154478200Y-99792550D01*
G75*
G02*
X154696950Y-99573800I218750J0D01*
G01*
X155209450Y-99573800D01*
G75*
G02*
X155428200Y-99792550I0J-218750D01*
G01*
X155428200Y-100230050D01*
G75*
G02*
X155209450Y-100448800I-218750J0D01*
G01*
G37*
%TD*%
%TO.C,D6*%
G36*
G01*
X157209450Y-98873800D02*
X156696950Y-98873800D01*
G75*
G02*
X156478200Y-98655050I0J218750D01*
G01*
X156478200Y-98217550D01*
G75*
G02*
X156696950Y-97998800I218750J0D01*
G01*
X157209450Y-97998800D01*
G75*
G02*
X157428200Y-98217550I0J-218750D01*
G01*
X157428200Y-98655050D01*
G75*
G02*
X157209450Y-98873800I-218750J0D01*
G01*
G37*
G36*
G01*
X157209450Y-100448800D02*
X156696950Y-100448800D01*
G75*
G02*
X156478200Y-100230050I0J218750D01*
G01*
X156478200Y-99792550D01*
G75*
G02*
X156696950Y-99573800I218750J0D01*
G01*
X157209450Y-99573800D01*
G75*
G02*
X157428200Y-99792550I0J-218750D01*
G01*
X157428200Y-100230050D01*
G75*
G02*
X157209450Y-100448800I-218750J0D01*
G01*
G37*
%TD*%
%TO.C,D5*%
G36*
G01*
X159209450Y-98873800D02*
X158696950Y-98873800D01*
G75*
G02*
X158478200Y-98655050I0J218750D01*
G01*
X158478200Y-98217550D01*
G75*
G02*
X158696950Y-97998800I218750J0D01*
G01*
X159209450Y-97998800D01*
G75*
G02*
X159428200Y-98217550I0J-218750D01*
G01*
X159428200Y-98655050D01*
G75*
G02*
X159209450Y-98873800I-218750J0D01*
G01*
G37*
G36*
G01*
X159209450Y-100448800D02*
X158696950Y-100448800D01*
G75*
G02*
X158478200Y-100230050I0J218750D01*
G01*
X158478200Y-99792550D01*
G75*
G02*
X158696950Y-99573800I218750J0D01*
G01*
X159209450Y-99573800D01*
G75*
G02*
X159428200Y-99792550I0J-218750D01*
G01*
X159428200Y-100230050D01*
G75*
G02*
X159209450Y-100448800I-218750J0D01*
G01*
G37*
%TD*%
%TO.C,D4*%
G36*
G01*
X161209450Y-98873800D02*
X160696950Y-98873800D01*
G75*
G02*
X160478200Y-98655050I0J218750D01*
G01*
X160478200Y-98217550D01*
G75*
G02*
X160696950Y-97998800I218750J0D01*
G01*
X161209450Y-97998800D01*
G75*
G02*
X161428200Y-98217550I0J-218750D01*
G01*
X161428200Y-98655050D01*
G75*
G02*
X161209450Y-98873800I-218750J0D01*
G01*
G37*
G36*
G01*
X161209450Y-100448800D02*
X160696950Y-100448800D01*
G75*
G02*
X160478200Y-100230050I0J218750D01*
G01*
X160478200Y-99792550D01*
G75*
G02*
X160696950Y-99573800I218750J0D01*
G01*
X161209450Y-99573800D01*
G75*
G02*
X161428200Y-99792550I0J-218750D01*
G01*
X161428200Y-100230050D01*
G75*
G02*
X161209450Y-100448800I-218750J0D01*
G01*
G37*
%TD*%
%TO.C,D3*%
G36*
G01*
X163209450Y-98873800D02*
X162696950Y-98873800D01*
G75*
G02*
X162478200Y-98655050I0J218750D01*
G01*
X162478200Y-98217550D01*
G75*
G02*
X162696950Y-97998800I218750J0D01*
G01*
X163209450Y-97998800D01*
G75*
G02*
X163428200Y-98217550I0J-218750D01*
G01*
X163428200Y-98655050D01*
G75*
G02*
X163209450Y-98873800I-218750J0D01*
G01*
G37*
G36*
G01*
X163209450Y-100448800D02*
X162696950Y-100448800D01*
G75*
G02*
X162478200Y-100230050I0J218750D01*
G01*
X162478200Y-99792550D01*
G75*
G02*
X162696950Y-99573800I218750J0D01*
G01*
X163209450Y-99573800D01*
G75*
G02*
X163428200Y-99792550I0J-218750D01*
G01*
X163428200Y-100230050D01*
G75*
G02*
X163209450Y-100448800I-218750J0D01*
G01*
G37*
%TD*%
%TO.C,D2*%
G36*
G01*
X165209450Y-98873800D02*
X164696950Y-98873800D01*
G75*
G02*
X164478200Y-98655050I0J218750D01*
G01*
X164478200Y-98217550D01*
G75*
G02*
X164696950Y-97998800I218750J0D01*
G01*
X165209450Y-97998800D01*
G75*
G02*
X165428200Y-98217550I0J-218750D01*
G01*
X165428200Y-98655050D01*
G75*
G02*
X165209450Y-98873800I-218750J0D01*
G01*
G37*
G36*
G01*
X165209450Y-100448800D02*
X164696950Y-100448800D01*
G75*
G02*
X164478200Y-100230050I0J218750D01*
G01*
X164478200Y-99792550D01*
G75*
G02*
X164696950Y-99573800I218750J0D01*
G01*
X165209450Y-99573800D01*
G75*
G02*
X165428200Y-99792550I0J-218750D01*
G01*
X165428200Y-100230050D01*
G75*
G02*
X165209450Y-100448800I-218750J0D01*
G01*
G37*
%TD*%
%TO.C,D1*%
G36*
G01*
X167209450Y-98873800D02*
X166696950Y-98873800D01*
G75*
G02*
X166478200Y-98655050I0J218750D01*
G01*
X166478200Y-98217550D01*
G75*
G02*
X166696950Y-97998800I218750J0D01*
G01*
X167209450Y-97998800D01*
G75*
G02*
X167428200Y-98217550I0J-218750D01*
G01*
X167428200Y-98655050D01*
G75*
G02*
X167209450Y-98873800I-218750J0D01*
G01*
G37*
G36*
G01*
X167209450Y-100448800D02*
X166696950Y-100448800D01*
G75*
G02*
X166478200Y-100230050I0J218750D01*
G01*
X166478200Y-99792550D01*
G75*
G02*
X166696950Y-99573800I218750J0D01*
G01*
X167209450Y-99573800D01*
G75*
G02*
X167428200Y-99792550I0J-218750D01*
G01*
X167428200Y-100230050D01*
G75*
G02*
X167209450Y-100448800I-218750J0D01*
G01*
G37*
%TD*%
%TO.C,D0*%
G36*
G01*
X169209450Y-98873800D02*
X168696950Y-98873800D01*
G75*
G02*
X168478200Y-98655050I0J218750D01*
G01*
X168478200Y-98217550D01*
G75*
G02*
X168696950Y-97998800I218750J0D01*
G01*
X169209450Y-97998800D01*
G75*
G02*
X169428200Y-98217550I0J-218750D01*
G01*
X169428200Y-98655050D01*
G75*
G02*
X169209450Y-98873800I-218750J0D01*
G01*
G37*
G36*
G01*
X169209450Y-100448800D02*
X168696950Y-100448800D01*
G75*
G02*
X168478200Y-100230050I0J218750D01*
G01*
X168478200Y-99792550D01*
G75*
G02*
X168696950Y-99573800I218750J0D01*
G01*
X169209450Y-99573800D01*
G75*
G02*
X169428200Y-99792550I0J-218750D01*
G01*
X169428200Y-100230050D01*
G75*
G02*
X169209450Y-100448800I-218750J0D01*
G01*
G37*
%TD*%
M02*
